<svg width="24" height="26" viewBox="0 0 24 26" fill="none" xmlns="http://www.w3.org/2000/svg">
<path d="M23.1 25.7H1.59995C1.09995 25.7 0.699951 25.2999 0.699951 24.7999C0.699951 18.2999 4.79996 14.7999 12.3 14.7999C19.8 14.7999 23.9 18.3999 23.9 24.7999C24 25.2999 23.6 25.7 23.1 25.7ZM2.59995 23.9H22.2C21.8 19.1 18.6 16.5999 12.4 16.5999C6.19996 16.5999 2.89995 19.1 2.59995 23.9Z" fill="#70A6A6"/>
<path d="M12.4 13.4999C9.10005 13.4999 6.30005 10.6 6.30005 6.89996C6.30005 3.39996 8.90005 0.699951 12.4 0.699951C15.9 0.699951 18.5 3.39996 18.5 6.89996C18.4 10.5 15.7 13.4999 12.4 13.4999ZM12.4 2.49994C10 2.49994 8.20004 4.29993 8.20004 6.79993C8.20004 9.39993 10.1 11.4999 12.4 11.4999C14.7 11.4999 16.6 9.39993 16.6 6.79993C16.6 4.39993 14.8 2.49994 12.4 2.49994Z" fill="#70A6A6"/>
</svg>
