<svg width="20" height="21" viewBox="0 0 20 21" fill="none" xmlns="http://www.w3.org/2000/svg">
<path d="M19.9602 6.39004C19.9218 6.33933 19.8857 6.28629 19.8468 6.23045C19.7617 6.09575 19.662 5.97091 19.5496 5.85823C18.3798 4.76483 17.1887 3.6556 16.0351 2.58314C15.1815 1.78875 14.328 0.994214 13.4747 0.199519C13.4069 0.133419 13.3265 0.0817217 13.2384 0.0475085C13.1503 0.0132954 13.0562 -0.00273263 12.9618 0.000380185C10.3694 0.00317185 7.73354 0.00317184 5.18471 0.00363712H1.94704C0.728173 0.0041024 0 0.740172 0 1.97269V18.5291C0 19.6491 0.480511 20.2637 1.55773 20.5187L1.56745 20.5252L1.61374 20.554H18.3548L18.3775 20.5485C18.4066 20.5405 18.4363 20.5336 18.4654 20.5261C18.5316 20.5098 18.6001 20.4931 18.6682 20.4735C19.2917 20.293 19.7121 19.8873 19.9181 19.2666C19.931 19.2275 19.9468 19.188 19.9644 19.1461L19.988 19.0847L20 19.0526V6.43983L19.9602 6.39004ZM18.5631 7.28384V18.5771C18.5631 18.9958 18.4677 19.0889 18.0539 19.0889H1.94751C1.53088 19.0889 1.43829 18.9935 1.43829 18.5771C1.43829 13.0418 1.43829 7.50656 1.43829 1.9713C1.43829 1.53999 1.53088 1.44693 1.95908 1.44693H12.304C12.304 1.47485 12.304 1.50183 12.304 1.52789V3.10332C12.304 3.86638 12.304 4.62943 12.304 5.39249C12.304 6.52125 13.0613 7.28105 14.1853 7.28338C15.1791 7.28338 16.1892 7.28338 17.166 7.28338H18.5631V7.28384ZM14.2283 5.83683C13.8496 5.83683 13.7459 5.73121 13.7459 5.34596V2.42448L17.4178 5.83683C16.3534 5.83714 15.2896 5.83714 14.2265 5.83683H14.2283Z" fill="#70A6A6"/>
<path d="M13.2396 9.13605C13.2123 9.1193 13.1845 9.10301 13.1567 9.08673L12.3313 8.60796C11.1916 7.94633 10.0519 7.28517 8.91221 6.62448C8.78992 6.55044 8.66097 6.48812 8.52706 6.43837C8.16552 6.31228 7.80074 6.33322 7.5003 6.49699C7.19987 6.66077 6.986 6.95297 6.89388 7.32286C6.85625 7.4961 6.83916 7.67321 6.84296 7.85049C6.83972 8.45163 6.84018 9.06021 6.84296 9.65344V12.8052C6.84296 12.822 6.84296 12.8392 6.84296 12.8559C6.85129 13.4096 7.08275 13.854 7.47716 14.0787C7.65231 14.1772 7.85002 14.228 8.05072 14.2262C8.32599 14.2208 8.59513 14.1435 8.83166 14.0019C10.3528 13.1314 11.8351 12.2711 13.2373 11.4429C13.703 11.1684 13.9719 10.7529 13.9752 10.303C13.9784 9.85304 13.7094 9.42313 13.2396 9.13605ZM12.36 10.2918L8.29329 12.6512V7.93331L12.36 10.2918Z" fill="#70A6A6"/>
<path d="M2.83913 8.16447H3.10161C3.21363 8.16447 3.32473 8.16447 3.4363 8.16447C3.64044 8.16168 3.84691 8.1547 4.04643 8.14818L4.31122 8.13934L4.48435 8.13423L4.49083 7.96068C4.49407 7.87181 4.49824 7.78341 4.50194 7.695C4.51027 7.49493 4.51907 7.28835 4.52323 7.08363C4.5274 6.87891 4.52601 6.67093 4.52323 6.46946C4.52323 6.37873 4.52323 6.288 4.52323 6.19588V6.00977H2.38269V8.16354H2.56786L2.83913 8.16447Z" fill="#70A6A6"/>
<path d="M4.54726 12.4961H2.43079V14.6303H4.54726V12.4961Z" fill="#70A6A6"/>
<path d="M4.61257 16.6757V15.7266H2.4762V17.8845H3.35343C3.67192 17.8845 3.98208 17.8845 4.29686 17.8766C4.46444 17.8734 4.60007 17.6714 4.60609 17.5421C4.61628 17.3253 4.61489 17.1066 4.6135 16.8953C4.61304 16.8228 4.61257 16.7488 4.61257 16.6757Z" fill="#70A6A6"/>
<path d="M17.6498 9.35205H15.5273V11.4746H17.6498V9.35205Z" fill="#70A6A6"/>
<path d="M17.6252 12.584H15.506V14.7168H17.6252V12.584Z" fill="#70A6A6"/>
<path d="M17.6701 15.8232H15.5504V17.9537H17.6701V15.8232Z" fill="#70A6A6"/>
<path d="M4.53196 2.77832H2.4104V4.90278H4.53196V2.77832Z" fill="#70A6A6"/>
<path d="M4.56994 9.25732H2.45532V11.3836H4.56994V9.25732Z" fill="#70A6A6"/>
</svg>
