<svg width="21" height="13" viewBox="0 0 21 13" fill="none" xmlns="http://www.w3.org/2000/svg">
<path d="M19.0002 12.9H1.4002C0.700196 12.9 0.200195 12.4 0.200195 11.7V1.19995C0.200195 0.499951 0.700196 0 1.4002 0H19.0002C19.7002 0 20.2002 0.499951 20.2002 1.19995V11.7C20.2002 12.4 19.7002 12.9 19.0002 12.9ZM1.60019 11.5H18.7002V1.5H1.60019V11.5Z" fill="#70A6A6"/>
<path d="M7.2 8.6001H13.2C13.6 8.6001 13.9 8.90011 13.9 9.30011C13.9 9.70011 13.6 10.0001 13.2 10.0001H7.2C6.8 10.0001 6.5 9.70011 6.5 9.30011C6.5 8.90011 6.8 8.6001 7.2 8.6001Z" fill="#70A6A6"/>
<path d="M3.79961 2.7998H5.19961C5.59961 2.7998 5.89961 3.09982 5.89961 3.49982C5.89961 3.89982 5.59961 4.19977 5.19961 4.19977H3.79961C3.39961 4.19977 3.09961 3.89982 3.09961 3.49982C3.09961 3.19982 3.39961 2.7998 3.79961 2.7998Z" fill="#70A6A6"/>
<path d="M7.60039 2.7998H9.00039C9.40039 2.7998 9.70039 3.09982 9.70039 3.49982C9.70039 3.89982 9.40039 4.19977 9.00039 4.19977H7.60039C7.20039 4.19977 6.90039 3.89982 6.90039 3.49982C6.90039 3.19982 7.20039 2.7998 7.60039 2.7998Z" fill="#70A6A6"/>
<path d="M11.4002 2.7998H12.8002C13.2002 2.7998 13.5002 3.09982 13.5002 3.49982C13.5002 3.89982 13.2002 4.19977 12.8002 4.19977H11.4002C11.0002 4.19977 10.7002 3.89982 10.7002 3.49982C10.7002 3.19982 11.0002 2.7998 11.4002 2.7998Z" fill="#70A6A6"/>
<path d="M15.3005 2.7998H16.7005C17.1005 2.7998 17.4005 3.09982 17.4005 3.49982C17.4005 3.89982 17.1005 4.19977 16.7005 4.19977H15.3005C14.9005 4.19977 14.6005 3.89982 14.6005 3.49982C14.5005 3.19982 14.9005 2.7998 15.3005 2.7998Z" fill="#70A6A6"/>
<path d="M3.79961 5.7998H5.19961C5.59961 5.7998 5.89961 6.09982 5.89961 6.49982C5.89961 6.89982 5.59961 7.19977 5.19961 7.19977H3.79961C3.39961 7.19977 3.09961 6.89982 3.09961 6.49982C3.09961 6.19982 3.39961 5.7998 3.79961 5.7998Z" fill="#70A6A6"/>
<path d="M7.60039 5.7998H9.00039C9.40039 5.7998 9.70039 6.09982 9.70039 6.49982C9.70039 6.89982 9.40039 7.19977 9.00039 7.19977H7.60039C7.20039 7.19977 6.90039 6.89982 6.90039 6.49982C6.90039 6.19982 7.20039 5.7998 7.60039 5.7998Z" fill="#70A6A6"/>
<path d="M11.4002 5.7998H12.8002C13.2002 5.7998 13.5002 6.09982 13.5002 6.49982C13.5002 6.89982 13.2002 7.19977 12.8002 7.19977H11.4002C11.0002 7.19977 10.7002 6.89982 10.7002 6.49982C10.7002 6.19982 11.0002 5.7998 11.4002 5.7998Z" fill="#70A6A6"/>
<path d="M15.3005 5.7998H16.7005C17.1005 5.7998 17.4005 6.09982 17.4005 6.49982C17.4005 6.89982 17.1005 7.19977 16.7005 7.19977H15.3005C14.9005 7.19977 14.6005 6.89982 14.6005 6.49982C14.5005 6.19982 14.9005 5.7998 15.3005 5.7998Z" fill="#70A6A6"/>
</svg>
