<svg width="20" height="14" viewBox="0 0 20 14" fill="none" xmlns="http://www.w3.org/2000/svg">
<path d="M3.5998 7.90023H13.5998C14.0998 7.90023 14.4998 7.50021 14.4998 7.00021C14.4998 6.50021 14.0998 6.10024 13.5998 6.10024H3.5998L4.6998 5.00021C4.9998 4.70021 4.9998 4.1002 4.6998 3.8002C4.3998 3.5002 3.7998 3.5002 3.4998 3.8002L0.899805 6.40023C0.899805 6.40023 0.899805 6.40021 0.799805 6.50021C0.799805 6.50021 0.799805 6.50024 0.799805 6.60024C0.799805 6.60024 0.799805 6.60022 0.799805 6.70022C0.799805 6.70022 0.799805 6.7002 0.799805 6.8002C0.799805 6.8002 0.799805 6.80023 0.799805 6.90023C0.799805 6.90023 0.799805 6.90021 0.799805 7.00021C0.799805 7.00021 0.799805 7.00024 0.799805 7.10024V7.20022V7.3002C0.799805 7.3002 0.799805 7.30023 0.799805 7.40023C0.799805 7.40023 0.799805 7.40021 0.799805 7.50021C0.799805 7.50021 0.799805 7.50024 0.799805 7.60024C0.799805 7.60024 0.799805 7.60022 0.799805 7.70022C0.799805 7.70022 0.799805 7.7002 0.799805 7.8002C0.799805 7.8002 0.799805 7.80023 0.799805 7.90023C0.799805 7.90023 0.799805 7.90021 0.899805 8.00021L3.4998 10.6002C3.6998 10.8002 3.8998 10.9002 4.0998 10.9002C4.2998 10.9002 4.4998 10.8002 4.6998 10.6002C4.9998 10.3002 4.9998 9.70023 4.6998 9.40023L3.5998 7.90023Z" fill="#70A6A6"/>
<path d="M12.5998 0C10.1998 0 7.99982 1.20004 6.69982 3.10004C6.39982 3.50004 6.49982 3.99999 6.89982 4.29999C7.29982 4.59999 7.79982 4.50004 8.09982 4.10004C9.09982 2.60004 10.7998 1.70001 12.4998 1.70001C15.3998 1.70001 17.7998 4.1 17.7998 7C17.7998 9.9 15.3998 12.3 12.4998 12.3C10.6998 12.3 9.09982 11.4 8.09982 9.90002C7.79982 9.50002 7.29982 9.40001 6.89982 9.70001C6.49982 10 6.39982 10.5 6.69982 10.9C7.99982 12.8 10.1998 14 12.5998 14C16.4998 14 19.6998 10.8 19.6998 6.90002C19.6998 3.20002 16.4998 0 12.5998 0Z" fill="#70A6A6"/>
</svg>
