<svg width="18" height="19" viewBox="0 0 18 19" fill="none" xmlns="http://www.w3.org/2000/svg">
<path d="M17.0002 18.2002H1.4002C1.0002 18.2002 0.700195 17.9002 0.700195 17.5002C0.700195 12.8002 3.7002 10.2002 9.2002 10.2002C14.7002 10.2002 17.7002 12.8002 17.7002 17.5002C17.7002 17.9002 17.4002 18.2002 17.0002 18.2002ZM2.10019 16.9002H16.4002C16.1002 13.4002 13.7002 11.6002 9.3002 11.6002C4.9002 11.6002 2.30019 13.4002 2.10019 16.9002Z" fill="#70A6A6"/>
<path d="M9.1998 9.3C6.7998 9.3 4.7998 7.1 4.7998 4.5C4.7998 1.9 6.6998 0 9.1998 0C11.6998 0 13.5998 1.9 13.5998 4.5C13.5998 7.1 11.5998 9.3 9.1998 9.3ZM9.1998 1.3C7.3998 1.3 6.0998 2.6 6.0998 4.5C6.0998 6.4 7.4998 8 9.1998 8C10.8998 8 12.2998 6.4 12.2998 4.5C12.2998 2.7 10.9998 1.3 9.1998 1.3Z" fill="#70A6A6"/>
</svg>
