<svg width="26" height="20" viewBox="0 0 26 20" fill="none" xmlns="http://www.w3.org/2000/svg">
<path d="M23.3999 0H3.3999C1.9999 0 0.899902 1.1 0.899902 2.5V17.4C0.899902 18.8 1.9999 19.9 3.3999 19.9H23.3999C24.7999 19.9 25.8999 18.8 25.8999 17.4V2.5C25.8999 1.1 24.6999 0 23.3999 0ZM14.2999 9.10001V1.8H23.3999C23.7999 1.8 24.1999 2.10001 24.1999 2.60001V9.2H14.2999V9.10001ZM24.0999 17.4C24.0999 17.8 23.7999 18.2 23.2999 18.2H14.1999V10.9H24.0999V17.4ZM12.4999 10.8V18.1H3.3999C2.9999 18.1 2.5999 17.8 2.5999 17.3V10.7H12.4999V10.8ZM12.4999 1.8V9.10001H2.5999V2.5C2.5999 2.1 2.8999 1.7 3.3999 1.7H12.4999V1.8Z" fill="#70A6A6"/>
</svg>
