<svg width="20" height="19" viewBox="0 0 20 19" fill="none" xmlns="http://www.w3.org/2000/svg">
<path d="M14.4001 6.5C14.7001 6.8 14.7001 7.3 14.4001 7.5L9.40015 12.5C9.10015 12.8 8.60015 12.8 8.40015 12.5L6.00012 10.1C5.70012 9.79999 5.70012 9.29999 6.00012 9.09999C6.30012 8.79999 6.80012 8.79999 7.00012 9.09999L8.80017 10.9L13.3002 6.39999C13.7002 6.19999 14.1001 6.2 14.4001 6.5ZM19.7002 9.5C19.7002 14.8 15.5002 19 10.2002 19C4.9002 19 0.700195 14.8 0.700195 9.5C0.700195 4.2 4.9002 0 10.2002 0C15.5002 0 19.7002 4.3 19.7002 9.5ZM18.2002 9.5C18.2002 5.1 14.6002 1.5 10.2002 1.5C5.8002 1.5 2.2002 5.1 2.2002 9.5C2.2002 13.9 5.8002 17.5 10.2002 17.5C14.7002 17.5 18.2002 14 18.2002 9.5Z" fill="#70A6A6"/>
</svg>
