<svg width="18" height="18" viewBox="0 0 18 18" fill="none" xmlns="http://www.w3.org/2000/svg">
<path d="M11.2999 7.6001L13.3999 6.1001C13.7999 5.8001 13.5999 5.1001 13.0999 5.1001H10.4999L9.6999 2.6001C9.4999 2.1001 8.8999 2.1001 8.6999 2.6001L7.8999 5.1001H5.2999C4.7999 5.1001 4.5999 5.8001 4.9999 6.1001L7.0999 7.6001L6.2999 10.1001C6.0999 10.6001 6.6999 11.0001 7.0999 10.7001L9.1999 9.2001L11.2999 10.7001C11.6999 11.0001 12.2999 10.6001 12.0999 10.1001L11.2999 7.6001ZM10.1999 7.50009L10.5999 8.80008L9.4999 8.00009C9.2999 7.90009 9.0999 7.90009 8.8999 8.00009L7.7999 8.80008L8.1999 7.50009C8.2999 7.30009 8.1999 7.00009 7.9999 6.90009L6.8999 6.1001H8.2999C8.4999 6.1001 8.6999 6.0001 8.7999 5.7001L9.1999 4.50009L9.5999 5.80008C9.6999 6.00008 9.8999 6.2001 10.0999 6.2001H11.4999L10.3999 7.00009C10.1999 7.10009 10.0999 7.30009 10.1999 7.50009Z" fill="#70A6A6"/>
<path d="M17.8 16.6L14.8 11.3C15.7 10.1 16.3 8.6 16.3 7C16.3 3.1 13.2 0 9.3 0C5.4 0 2.3 3.2 2.3 7C2.3 8.6 2.8 10.1 3.8 11.3L0.799997 16.6C0.499997 17.2 0.899996 18 1.6 18H6.1C6.6 18 7 17.7 7.3 17.3L9.1 14.1C9.3 14.1 9.4 14.1 9.6 14.1L11.4 17.3C11.6 17.7 12.1 18 12.6 18H17.1C17.7 18 18.1 17.2 17.8 16.6ZM6.2 16.8C6.1 16.9 6.1 16.9 6 16.9H1.8L4.5 12.1C5.4 13 6.6 13.6 7.9 13.9L6.2 16.8ZM3.2 7C3.2 3.7 5.9 1 9.2 1C12.5 1 15.2 3.7 15.2 7C15.2 10.3 12.5 13 9.2 13C5.9 13 3.2 10.3 3.2 7ZM12.5 16.9C12.4 16.9 12.3 16.8 12.3 16.8L10.7 13.9C12 13.6 13.2 13 14.1 12.1L16.8 16.9H12.5Z" fill="#70A6A6"/>
</svg>
