<svg width="29" height="25" viewBox="0 0 29 25" fill="none" xmlns="http://www.w3.org/2000/svg">
<path d="M29.0005 14.7143C28.9294 15.0174 28.8749 15.3205 28.7841 15.6191C28.4943 16.5756 27.9092 17.4155 27.113 18.0181C26.3168 18.6206 25.3504 18.9549 24.3526 18.9729C23.5204 18.988 22.6883 18.982 21.8614 18.9729C21.2789 18.9729 20.9098 18.594 20.909 18.0075C20.906 15.4817 20.906 12.9579 20.909 10.4361C20.909 9.83446 21.2797 9.46619 21.8803 9.45634C22.2079 9.45028 22.5355 9.45634 22.8638 9.45634C22.5937 5.59183 19.1925 1.79324 14.4591 1.81976C9.72572 1.84629 6.3873 5.68428 6.14522 9.45634H7.04469C7.73537 9.45634 8.09849 9.81627 8.09849 10.4998C8.09849 12.9751 8.09849 15.4504 8.09849 17.9257C8.09849 18.622 7.75126 18.9691 7.05528 18.9729C6.74512 18.9729 6.4342 18.9729 6.04006 18.9729C6.08243 19.592 6.05671 20.2012 6.18228 20.7786C6.30181 21.3333 6.76328 21.6576 7.32914 21.6727C8.507 21.7046 9.68714 21.6818 10.8847 21.6818C10.9028 21.606 10.921 21.5303 10.9346 21.4621C11.0647 20.7672 11.6434 20.2171 12.3447 20.2065C13.778 20.1848 15.2121 20.1848 16.6469 20.2065C17.011 20.2116 17.36 20.3535 17.6247 20.6039C17.8895 20.8544 18.0508 21.1952 18.0767 21.5591C18.1236 22.2471 18.1236 22.9375 18.0767 23.6254C18.0505 23.9941 17.8859 24.3392 17.616 24.5913C17.3461 24.8433 16.9909 24.9837 16.6219 24.9841C15.2164 25.0053 13.8105 25.0053 12.4045 24.9841C11.6389 24.9742 11.0602 24.4347 10.927 23.6709C10.9187 23.6254 10.9081 23.58 10.8915 23.4989H10.5889C9.56988 23.4989 8.55087 23.4989 7.53187 23.4989C5.65652 23.4989 4.28424 22.1289 4.26608 20.2467C4.26154 19.8223 4.26608 19.3987 4.26608 18.9782C1.42998 18.6539 -0.167749 16.0722 0.0145668 13.8679C0.196126 11.6765 1.8347 9.77611 4.285 9.47301C4.6118 6.25637 6.06124 3.66564 8.7226 1.80385C10.6963 0.42324 12.9136 -0.145829 15.3102 0.0314839C20.3636 0.405811 24.4108 4.55826 24.7293 9.47604C25.6417 9.57374 26.5066 9.93286 27.2204 10.5104C28.1626 11.2594 28.7814 12.3423 28.949 13.5353C28.9621 13.5871 28.9793 13.6378 29.0005 13.6868V14.7143ZM6.27609 11.2931C5.65879 11.2931 5.07327 11.2552 4.49379 11.3007C3.11318 11.4106 2.07981 12.4199 1.84605 13.8316C1.64255 15.0735 2.3756 16.3776 3.5754 16.9164C4.05124 17.13 4.55355 17.1755 5.06797 17.1649C5.46891 17.1566 5.86909 17.1649 6.27382 17.1649L6.27609 11.2931ZM22.7329 17.1581C23.2874 17.1581 23.823 17.171 24.3579 17.1581C25.7952 17.1156 26.9421 16.0571 27.1667 14.5719C27.3649 13.2648 26.5048 11.8796 25.2089 11.4401C24.4017 11.1666 23.5696 11.3068 22.7329 11.2764V17.1581ZM12.7298 23.1609H16.2785V22.0289H12.7298V23.1609Z" fill="#70A6A6"/>
</svg>
