<svg width="27" height="21" viewBox="0 0 27 21" fill="none" xmlns="http://www.w3.org/2000/svg">
<path d="M13.8639 9.33727C16.1923 9.33727 18.1325 7.39697 18.1325 5.06863C18.1325 2.74028 16.1923 0.799988 13.8639 0.799988C11.5356 0.799988 9.59521 2.74028 9.59521 5.06863C9.59521 7.39697 11.5356 9.33727 13.8639 9.33727ZM13.8639 2.35222C15.2868 2.35222 16.5803 3.5164 16.5803 5.06863C16.5803 6.49151 15.4161 7.78502 13.8639 7.78502C12.3117 7.78502 11.1474 6.62086 11.1474 5.06863C11.1474 3.64575 12.3117 2.35222 13.8639 2.35222Z" fill="#70A6A6"/>
<path d="M21.8837 9.07853C23.6947 9.07853 25.1175 7.65565 25.1175 5.84472C25.1175 4.03378 23.6947 2.6109 21.8837 2.6109C20.0728 2.6109 18.6499 4.03378 18.6499 5.84472C18.7793 7.65565 20.2021 9.07853 21.8837 9.07853ZM21.8837 4.29249C22.7892 4.29249 23.5654 5.06861 23.5654 5.97408C23.5654 6.87954 22.7892 7.65566 21.8837 7.65566C20.9782 7.65566 20.2021 6.87954 20.2021 5.97408C20.2021 4.93926 20.9782 4.29249 21.8837 4.29249Z" fill="#70A6A6"/>
<path d="M23.5655 9.98404H20.3317C19.4262 9.98404 18.5207 10.3721 17.874 11.0188C17.2272 10.6308 16.451 10.5014 15.6749 10.5014H11.9238C11.1477 10.5014 10.3714 10.7601 9.72468 11.1482C9.07792 10.5014 8.30177 10.1134 7.26695 10.1134H4.03313C2.2222 10.1134 0.799316 11.5363 0.799316 13.3472V14.5114C0.799316 14.8994 1.1875 15.2875 1.57556 15.2875H7.26695V19.9442C7.26695 20.3322 7.65513 20.7203 8.04319 20.7203H19.5554C19.9435 20.7203 20.3317 20.3322 20.3317 19.9442V15.2875H26.0231C26.4111 15.2875 26.7993 14.8994 26.7993 14.5114V13.3472C26.7993 11.4069 25.2471 9.98404 23.5655 9.98404ZM2.35164 13.2179C2.35164 12.3124 3.12766 11.5363 4.03313 11.5363H7.26695C7.78436 11.5363 8.17245 11.6656 8.43115 12.0537C8.04309 12.5711 7.6551 13.0885 7.52575 13.7353H2.35164V13.2179ZM18.7794 19.1681H8.81927V15.1581C8.81927 13.4766 10.2422 12.0537 11.9238 12.0537H15.6749C17.3564 12.0537 18.7794 13.4766 18.7794 15.1581V19.1681ZM25.247 13.7353H20.0729C19.8142 13.0885 19.5555 12.5711 19.1675 12.0537C19.5555 11.6656 19.9436 11.5363 20.3317 11.5363H23.5655C24.471 11.5363 25.247 12.3124 25.247 13.2179V13.7353Z" fill="#70A6A6"/>
<path d="M5.71477 9.07856C7.52571 9.07856 8.94859 7.65568 8.94859 5.84475C8.94859 4.03381 7.52571 2.61093 5.71477 2.61093C3.90384 2.61093 2.48096 4.03381 2.48096 5.84475C2.48096 7.65568 3.90384 9.07856 5.71477 9.07856ZM5.71477 4.29252C6.62024 4.29252 7.39642 5.06864 7.39642 5.97411C7.39642 6.87958 6.62024 7.65569 5.71477 7.65569C4.8093 7.65569 4.03313 6.87958 4.03313 5.97411C4.03313 4.93929 4.8093 4.29252 5.71477 4.29252Z" fill="#70A6A6"/>
</svg>
