<svg width="156" height="36" viewBox="0 0 156 36" fill="none" xmlns="http://www.w3.org/2000/svg">
<path d="M31.4636 2.44342H34.3495V35.6839H28.5567V15.1245L17.4765 31.6184L6.39637 15.1245V35.6839H0.603516V2.44342H3.46835L17.4765 22.6658L31.4636 2.44342Z" fill="#00CDB8"/>
<path d="M59.9437 32.145C57.2053 34.736 53.9191 35.9999 50.0853 35.9999C46.2515 35.9999 42.9654 34.736 40.2269 32.145C37.4885 29.554 36.1193 26.4785 36.1193 22.8553C36.1193 19.2322 37.4885 16.1146 40.2269 13.5236C42.9654 10.9326 46.2515 9.6687 50.0853 9.6687C53.9191 9.6687 57.2053 10.9326 59.9437 13.5236C62.6821 16.1146 64.0514 19.2322 64.0514 22.8553C64.0514 26.4785 62.6821 29.554 59.9437 32.145ZM56.0256 16.9993C54.3826 15.3984 52.4025 14.5979 50.0853 14.5979C47.7682 14.5979 45.7459 15.3984 44.1029 16.9993C42.4598 18.6002 41.6593 20.5382 41.6593 22.8343C41.6593 25.0882 42.4598 27.0262 44.1029 28.6271C45.7459 30.2281 47.7892 31.0285 50.0853 31.0285C52.3814 31.0285 54.3826 30.2281 56.0256 28.6271C57.6687 27.0262 58.5324 25.0882 58.5324 22.8343C58.5324 20.5382 57.6687 18.6002 56.0256 16.9993Z" fill="#00CDB8"/>
<path d="M71.7853 33.1351H90.828V35.5365H69.0469V2.31711H71.7853V33.1351Z" fill="white"/>
<path d="M97.9905 3.39137C98.0747 5.75064 94.2198 5.75064 94.3041 3.39137C94.2198 0.947833 98.0747 0.947833 97.9905 3.39137ZM94.8307 35.5575V10.1321H97.527V35.5365H94.8307V35.5575Z" fill="white"/>
<path d="M126.365 20.9806V35.5365H123.732V20.9806C123.732 15.3142 120.193 12.1123 115.096 12.1123C111.515 12.1123 108.502 13.1866 106.101 15.3563V35.5365H103.468V10.1322H106.101V12.8706C108.418 10.7431 111.515 9.66876 115.433 9.66876C122.068 9.66876 126.365 13.629 126.365 20.9806Z" fill="white"/>
<path d="M145.406 19.8431L155.497 35.5365H152.484L143.574 21.8653L134.432 30.3545V35.5365H131.735V-6.10352e-05H134.432V26.7735L152.105 10.1322H155.497L145.406 19.8431Z" fill="white"/>
</svg>
