<svg width="30" height="30" viewBox="0 0 30 30" fill="none" xmlns="http://www.w3.org/2000/svg">
<path d="M17.2998 3.09998C17.2998 1.69998 16.1998 0.599976 14.7998 0.599976C13.3998 0.599976 12.2998 1.69998 12.2998 3.09998C12.2998 4.49998 13.3998 5.59998 14.7998 5.59998C16.1998 5.59998 17.2998 4.49998 17.2998 3.09998ZM14.7998 3.89997C14.2998 3.89997 13.9998 3.49998 13.9998 3.09998C13.9998 2.69998 14.3998 2.29998 14.7998 2.29998C15.1998 2.29998 15.5998 2.69998 15.5998 3.09998C15.5998 3.49998 15.1998 3.89997 14.7998 3.89997Z" fill="#70A6A6"/>
<path d="M18.8998 9.89995C18.8998 7.59995 16.9998 5.69995 14.6998 5.69995C12.3998 5.69995 10.4998 7.59995 10.4998 9.89995V10.7H18.8998V9.89995ZM12.3998 8.99995C12.6998 7.99995 13.6998 7.29995 14.7998 7.29995C15.8998 7.29995 16.7998 7.99995 17.1998 8.99995H12.3998Z" fill="#70A6A6"/>
<path d="M27.2998 13.2C27.2998 11.8 26.1998 10.7 24.7998 10.7C23.3998 10.7 22.2998 11.8 22.2998 13.2C22.2998 14.6 23.3998 15.7 24.7998 15.7C26.1998 15.7 27.2998 14.6 27.2998 13.2ZM24.7998 14.1C24.2998 14.1 23.9998 13.6999 23.9998 13.2999C23.9998 12.8999 24.3998 12.5 24.7998 12.5C25.2998 12.5 25.5998 12.8999 25.5998 13.2999C25.5998 13.6999 25.2998 14.1 24.7998 14.1Z" fill="#70A6A6"/>
<path d="M29.0997 19.9C29.0997 17.6 27.1997 15.7 24.8997 15.7C22.5997 15.7 20.6997 17.6 20.6997 19.9V20.7H29.0997V19.9ZM22.3997 19.1C22.6997 18.1 23.6997 17.4 24.7997 17.4C25.8997 17.4 26.8997 18.1 27.1997 19.1H22.3997Z" fill="#70A6A6"/>
<path d="M7.19971 13.2C7.19971 11.8 6.09971 10.7 4.69971 10.7C3.29971 10.7 2.19971 11.8 2.19971 13.2C2.19971 14.6 3.29971 15.7 4.69971 15.7C6.09971 15.7 7.19971 14.6 7.19971 13.2ZM4.69971 14.1C4.19971 14.1 3.89971 13.6999 3.89971 13.2999C3.89971 12.8999 4.29971 12.5 4.69971 12.5C5.19971 12.5 5.49971 12.8999 5.49971 13.2999C5.49971 13.6999 5.09971 14.1 4.69971 14.1Z" fill="#70A6A6"/>
<path d="M8.89976 19.9C8.89976 17.6 6.99976 15.7 4.69976 15.7C2.39976 15.7 0.499756 17.6 0.499756 19.9V20.7H8.89976V19.9ZM2.29976 19.1C2.69976 18.1 3.59976 17.4 4.69976 17.4C5.79976 17.4 6.69976 18.1 7.09976 19.1H2.29976Z" fill="#70A6A6"/>
<path d="M12.1997 21.6C12.1997 23 13.2997 24.1 14.6997 24.1C16.0997 24.1 17.1997 23 17.1997 21.6C17.1997 20.2 16.0997 19.1 14.6997 19.1C13.2997 19.1 12.1997 20.2 12.1997 21.6ZM15.5997 21.6C15.5997 22.1 15.1997 22.4 14.7997 22.4C14.3997 22.4 13.9997 22 13.9997 21.6C13.9997 21.1 14.3997 20.8 14.7997 20.8C15.1997 20.8 15.5997 21.1 15.5997 21.6Z" fill="#70A6A6"/>
<path d="M18.8998 28.4C18.8998 26.1 16.9998 24.2 14.6998 24.2C12.3998 24.2 10.4998 26.1 10.4998 28.4V29.2H18.8998V28.4ZM12.3998 27.5C12.6998 26.5 13.6998 25.7999 14.7998 25.7999C15.8998 25.7999 16.7998 26.5 17.1998 27.5H12.3998Z" fill="#70A6A6"/>
<path d="M5.4998 8.20003C5.4998 6.80003 6.6998 5.60003 7.9998 5.60003H8.7998V3.90002H7.9998C5.6998 3.90002 3.7998 5.80003 3.7998 8.10003V9.00002H5.4998V8.20003Z" fill="#70A6A6"/>
<path d="M23.9997 8.2V9H25.6997V8.2C25.6997 5.9 23.7997 4 21.4997 4H20.6997V5.7H21.4997C22.7997 5.6 23.9997 6.8 23.9997 8.2Z" fill="#70A6A6"/>
<path d="M3.7998 22.3999V23.1999C3.7998 25.4999 5.6998 27.3999 7.9998 27.3999H8.7998V25.6999H7.9998C6.5998 25.6999 5.4998 24.4999 5.4998 23.0999V22.2999H3.7998V22.3999Z" fill="#70A6A6"/>
<path d="M25.6997 23.3V22.5H23.9997V23.3C23.9997 24.7 22.7997 25.9 21.4997 25.9H20.6997V27.6H21.4997C23.7997 27.5 25.6997 25.6 25.6997 23.3Z" fill="#70A6A6"/>
</svg>
