<svg width="20" height="18" viewBox="0 0 20 18" fill="none" xmlns="http://www.w3.org/2000/svg">
<path d="M3.10036 17.7C4.40036 17.7 5.50036 16.7 5.50036 15.3C5.50036 14.7 5.30036 14.1 4.90036 13.7L7.40036 9.5C8.00036 9.6 8.60036 9.60002 9.10036 9.30002L10.6004 10.8C10.4004 11.1 10.3004 11.5 10.3004 11.9C10.3004 13.2 11.4004 14.3 12.7004 14.3C14.0004 14.3 15.1004 13.2 15.1004 11.9C15.1004 11.2 14.8004 10.6 14.4004 10.2L17.1004 4.80002C17.2004 4.80002 17.4004 4.80002 17.5004 4.80002C18.8004 4.80002 19.9004 3.70002 19.9004 2.40002C19.9004 1.10002 18.8004 0 17.5004 0C16.2004 0 15.1004 1.10002 15.1004 2.40002C15.1004 3.10002 15.4004 3.70001 15.8004 4.20001L13.1004 9.60001C12.6004 9.50001 12.0004 9.60002 11.6004 9.90002L10.1004 8.40002C10.3004 8.10002 10.4004 7.70002 10.4004 7.30002C10.4004 6.00002 9.40036 4.90002 8.00036 4.90002C6.70036 4.90002 5.60036 5.90002 5.60036 7.30002C5.60036 7.90002 5.80036 8.50002 6.20036 8.90002L3.70036 13.1C2.40036 12.8 1.10036 13.5 0.80036 14.8C0.50036 16.1 1.20036 17.4 2.50036 17.7C2.70036 17.7 2.90036 17.7 3.10036 17.7ZM17.3004 1.5C17.9004 1.5 18.3004 2 18.3004 2.5C18.3004 3.1 17.8004 3.5 17.3004 3.5C16.8004 3.5 16.3004 3 16.3004 2.5C16.3004 1.9 16.7004 1.5 17.3004 1.5ZM12.6004 10.9C13.2004 10.9 13.6004 11.4 13.6004 11.9C13.6004 12.4 13.1004 12.9 12.6004 12.9C12.1004 12.9 11.6004 12.4 11.6004 11.9C11.6004 11.4 12.0004 10.9 12.6004 10.9ZM7.80036 6.20001C8.40036 6.20001 8.80036 6.70001 8.80036 7.20001C8.80036 7.70001 8.30036 8.20001 7.80036 8.20001C7.30036 8.20001 6.80036 7.70001 6.80036 7.20001C6.80036 6.70001 7.30036 6.20001 7.80036 6.20001ZM3.10036 14.3C3.70036 14.3 4.10036 14.8 4.10036 15.3C4.10036 15.8 3.60036 16.3 3.10036 16.3C2.50036 16.3 2.10036 15.8 2.10036 15.3C2.10036 14.8 2.50036 14.3 3.10036 14.3Z" fill="#70A6A6"/>
</svg>
