<svg width="19" height="26" viewBox="0 0 19 26" fill="none" xmlns="http://www.w3.org/2000/svg">
<path d="M1.19995 25.3L5.59995 23.8L9.19995 25.3C9.39995 25.4 9.59996 25.4 9.79996 25.3L13.4 23.8L17.8 25.3C17.9 25.3 18 25.3 18 25.3C18.2 25.3 18.3 25.2001 18.5 25.2001C18.7 25.1001 18.8 24.8001 18.8 24.6001V1.20006C18.8 0.900061 18.7 0.700055 18.5 0.600055C18.3 0.500055 18 0.400049 17.8 0.500049L13.4 2.00005L9.79996 0.500049C9.59996 0.400049 9.39995 0.400049 9.19995 0.500049L5.59995 2.00005L1.19995 0.500049C0.999951 0.400049 0.699954 0.500055 0.499954 0.600055C0.299954 0.700055 0.199951 1.00006 0.199951 1.20006V24.6001C0.199951 24.9001 0.299954 25.1001 0.499954 25.2001C0.699954 25.4001 0.999951 25.4 1.19995 25.3ZM1.69995 2.20006L5.39996 3.40004C5.59996 3.50004 5.79996 3.50004 5.89996 3.40004L9.49995 2.00005L13.1 3.40004C13.3 3.50004 13.5 3.50004 13.6 3.40004L17.3 2.20006V23.5L13.6 22.3C13.4 22.2 13.2 22.2 13.1 22.3L9.49995 23.7001L5.89996 22.3C5.79996 22.3 5.69995 22.2001 5.59995 22.2001C5.49995 22.2001 5.39996 22.2001 5.39996 22.2001L1.69995 23.4V2.20006Z" fill="#70A6A6"/>
<path d="M4.10004 6.60001H10.3C10.7 6.60001 11.1 6.29999 11.1 5.79999C11.1 5.29999 10.8 5 10.3 5H4.10004C3.70004 5 3.30005 5.29999 3.30005 5.79999C3.30005 6.29999 3.60004 6.60001 4.10004 6.60001Z" fill="#70A6A6"/>
<path d="M4.10004 12.9001H8.80005C9.20005 12.9001 9.60004 12.6001 9.60004 12.1001C9.60004 11.6001 9.30005 11.3 8.80005 11.3H4.10004C3.70004 11.3 3.30005 11.6001 3.30005 12.1001C3.30005 12.6001 3.60004 12.9001 4.10004 12.9001Z" fill="#70A6A6"/>
<path d="M9.49995 16.8C9.49995 16.4 9.19995 16 8.69995 16H3.99995C3.59995 16 3.19995 16.4 3.19995 16.8C3.19995 17.2 3.49995 17.6 3.99995 17.6H8.69995C9.19995 17.6 9.49995 17.2 9.49995 16.8Z" fill="#70A6A6"/>
<path d="M4.10004 9.80005H15C15.4 9.80005 15.8 9.40006 15.8 9.00006C15.8 8.60006 15.5 8.20007 15 8.20007H4.10004C3.70004 8.20007 3.30005 8.60006 3.30005 9.00006C3.30005 9.40006 3.60004 9.80005 4.10004 9.80005Z" fill="#70A6A6"/>
<path d="M13.4 15.2001C12.9 15.2001 12.6 14.9 12.6 14.8C12.6 14.7 12.9 14.4001 13.4 14.4001C13.6 14.4001 13.9 14.5001 14 14.6001C14.4 14.8001 14.8 14.7001 15.1 14.4001C15.3 14.0001 15.2 13.6 14.9 13.3C14.7 13.2 14.5 13.1001 14.2 13.0001V12.1001C14.2 11.7001 13.9 11.3 13.4 11.3C13 11.3 12.6 11.6001 12.6 12.1001V13.0001C11.7 13.3001 11 14 11 14.8C11 15.9 12.1 16.8 13.3 16.8C13.8 16.8 14.1 17.1001 14.1 17.2001C14.1 17.3001 13.8 17.6001 13.3 17.6001C13.1 17.6001 12.8 17.5001 12.7 17.4001C12.3 17.2001 11.9 17.3001 11.6 17.6001C11.4 18.0001 11.5 18.4001 11.8 18.7001C12 18.8001 12.2 18.9001 12.5 19.0001V19.9001C12.5 20.3001 12.8 20.7001 13.3 20.7001C13.7 20.7001 14.1 20.4001 14.1 19.9001V19.0001C15 18.7001 15.7 18.0001 15.7 17.2001C15.8 16.1001 14.7 15.2001 13.4 15.2001Z" fill="#70A6A6"/>
</svg>
