<svg width="20" height="18" viewBox="0 0 20 18" fill="none" xmlns="http://www.w3.org/2000/svg">
<path d="M4.6 17.5002C4.3 17.5002 4 17.2002 4 16.9002V3.8002C4 3.5002 4.3 3.2002 4.6 3.2002C4.9 3.2002 5.2 3.5002 5.2 3.8002V16.9002C5.2 17.2002 4.9 17.5002 4.6 17.5002Z" fill="#70A6A6"/>
<path d="M18.4 8.40021H4.6C4.3 8.40021 4 8.1002 4 7.8002C4 7.5002 4.3 7.2002 4.6 7.2002H18.5C18.8 7.2002 19.1 7.5002 19.1 7.8002C19 8.1002 18.8 8.40021 18.4 8.40021Z" fill="#70A6A6"/>
<path d="M18.4 13.0999H4.6C4.3 13.0999 4 12.7999 4 12.4999C4 12.1999 4.3 11.8999 4.6 11.8999H18.5C18.8 11.8999 19.1 12.1999 19.1 12.4999C19 12.8999 18.8 13.0999 18.4 13.0999Z" fill="#70A6A6"/>
<path d="M16.9 17.5H2.2C1 17.5 0 16.5 0 15.3V2.2C0 0.999997 1 0 2.2 0H16.8C18 0 19 0.999997 19 2.2V15.3C19 16.5 18.1 17.5 16.9 17.5ZM2.2 1.2C1.7 1.2 1.2 1.6 1.2 2.2V15.3C1.2 15.8 1.6 16.3 2.2 16.3H16.8C17.3 16.3 17.8 15.9 17.8 15.3V2.2C17.8 1.7 17.4 1.2 16.8 1.2H2.2Z" fill="#70A6A6"/>
<path d="M18.4 3.9998H0.599999C0.299999 3.9998 0 3.69981 0 3.39981C0 3.09981 0.299999 2.7998 0.599999 2.7998H18.4C18.7 2.7998 19 3.09981 19 3.39981C19 3.69981 18.8 3.9998 18.4 3.9998Z" fill="#70A6A6"/>
</svg>
