<svg width="26" height="21" viewBox="0 0 26 21" fill="none" xmlns="http://www.w3.org/2000/svg">
<path d="M25.1998 3.69999C25.1998 3.69999 24.1998 3.69999 22.7998 3.69999V0.799965C22.7998 0.399965 22.3998 -4.70057e-05 21.9998 0.099953C19.1998 0.299953 15.5998 1.59994 13.3998 3.89994C11.2998 1.59994 7.6998 0.399953 4.7998 0.099953C4.3998 0.099953 3.99981 0.399965 3.99981 0.799965V3.79997C3.19981 3.79997 2.39981 3.69999 1.59981 3.69999C1.19981 3.69999 0.799805 3.99994 0.799805 4.39994V17.8C0.799805 18.2 1.09981 18.5 1.49981 18.5C4.39981 18.7 9.29981 18.7 12.9998 20.3C13.2998 20.4 13.5998 20.3 13.5998 20.3C17.2998 18.7 22.1998 18.7 25.0998 18.5C25.4998 18.5 25.7998 18.2 25.7998 17.8V4.39994C25.8998 3.99994 25.5998 3.69999 25.1998 3.69999ZM21.2998 1.59995V14.2C19.1998 14.7 16.4998 15.7 14.0998 17.8C14.0998 17.2 14.0998 5.49999 14.0998 5.19999C15.7998 3.19999 18.7998 1.99995 21.2998 1.59995ZM5.49981 1.59995C7.99981 1.99995 10.9998 3.19999 12.6998 5.19999V17.8C10.3998 15.7 7.69981 14.6 5.49981 14.2V1.59995ZM2.39981 17.1V5.19999C2.89981 5.19999 3.49981 5.19997 4.09981 5.29997V14.8999C4.09981 15.2999 4.39981 15.6 4.69981 15.6C6.39981 15.9 8.59981 16.6 10.5998 18.1C7.69981 17.3 4.59981 17.2 2.39981 17.1ZM24.4998 17.1C22.2998 17.2 19.1998 17.3 16.2998 18C18.2998 16.5 20.4998 15.8 22.1998 15.5C22.4998 15.4 22.7998 15.1 22.7998 14.8V5.09995C23.4998 5.09995 24.0998 5.09995 24.4998 5.09995V17.1Z" fill="#70A6A6"/>
<path d="M10.7997 6.89994C10.1997 6.49994 9.19975 5.99996 8.19975 5.79996C7.79975 5.69996 7.39975 5.99994 7.39975 6.39994C7.29975 6.79994 7.59975 7.19999 7.99975 7.19999C8.79975 7.29999 9.59975 7.69997 9.99975 7.99997C10.2998 8.19997 10.7998 8.19996 10.9998 7.79996C11.1998 7.59996 11.0997 7.09994 10.7997 6.89994Z" fill="#70A6A6"/>
<path d="M10.6997 11C10.1997 10.7 9.19975 10.1 8.19975 9.99997C7.79975 9.89997 7.39975 10.1999 7.39975 10.5999C7.29975 10.9999 7.59975 11.3999 7.99975 11.3999C8.79975 11.4999 9.69975 12 9.99975 12.3C10.2998 12.5 10.7998 12.3999 10.9998 12.0999C11.1998 11.6999 11.0997 11.2 10.6997 11Z" fill="#70A6A6"/>
<path d="M16.9 8.09995C17.3 7.79995 18.1 7.39996 18.9 7.29996C19.3 7.19996 19.5999 6.89997 19.4999 6.49997C19.3999 6.09997 19.0999 5.79993 18.6999 5.89993C17.6999 6.09993 16.6999 6.59997 16.0999 6.99997C15.7999 7.19997 15.7 7.69997 15.9 7.99997C16.1 8.19997 16.6 8.29995 16.9 8.09995Z" fill="#70A6A6"/>
<path d="M18.7 10C17.7 10.2 16.7 10.7 16.2 11C15.9 11.2 15.7 11.7 16 12C16.2 12.3 16.7 12.5 17 12.2C17.3 12 18.2 11.5 19 11.3C19.4 11.2 19.7 10.9 19.6 10.5C19.4 10.2 19.1 9.90002 18.7 10Z" fill="#70A6A6"/>
</svg>
