<svg width="20" height="20" viewBox="0 0 20 20" fill="none" xmlns="http://www.w3.org/2000/svg">
<path d="M17.8998 4.075C17.8998 3.975 17.8998 4.075 17.8998 4.075C17.5998 3.775 17.4998 3.47498 17.2998 3.27498C17.1998 3.17498 17.1998 3.175 17.0998 3.075C16.8998 2.875 16.6998 2.67499 16.4998 2.47499L16.3998 2.37499C15.7998 1.87499 15.1998 1.47501 14.5998 1.17501H14.4998C14.1998 1.07501 13.8998 0.874982 13.5998 0.774982C13.4998 0.774982 13.4998 0.775006 13.3998 0.675006C13.0998 0.575006 12.8998 0.474988 12.5998 0.374988C12.4998 0.374988 12.3998 0.374982 12.3998 0.274982C12.0998 0.174982 11.8998 0.175 11.5998 0.075C11.4998 0.075 11.3998 0.075 11.2998 0.075C10.5998 -0.025 9.8998 -0.025 9.0998 0.075C8.9998 0.075 8.89981 0.075 8.7998 0.075C8.4998 0.075 8.1998 0.174982 7.9998 0.274982C7.8998 0.274982 7.7998 0.274988 7.7998 0.374988C7.4998 0.474988 7.2998 0.575006 6.9998 0.675006C6.8998 0.675006 6.8998 0.674982 6.7998 0.774982C6.4998 0.874982 6.1998 0.975006 5.8998 1.17501H5.7998C5.1998 1.47501 4.4998 1.87499 3.9998 2.37499L3.8998 2.47499C3.6998 2.67499 3.4998 2.875 3.2998 3.075C3.1998 3.175 3.1998 3.17498 3.0998 3.27498C2.8998 3.47498 2.6998 3.77499 2.4998 3.97499L2.3998 4.075C0.0998046 7.375 0.0998046 11.775 2.3998 15.075L2.4998 15.175C2.6998 15.375 2.8998 15.675 3.0998 15.875C3.1998 15.975 3.1998 15.975 3.2998 16.075C3.4998 16.275 3.6998 16.475 3.8998 16.675L3.9998 16.775C4.5998 17.275 5.1998 17.675 5.7998 17.975H5.8998C6.1998 18.075 6.4998 18.275 6.7998 18.375C6.8998 18.375 6.8998 18.375 6.9998 18.475C7.2998 18.575 7.4998 18.675 7.7998 18.775C7.8998 18.775 7.9998 18.775 7.9998 18.875C8.2998 18.975 8.4998 18.975 8.7998 19.075C8.89981 19.075 8.9998 19.075 9.0998 19.075C9.7998 19.175 10.4998 19.175 11.2998 19.075C11.3998 19.075 11.4998 19.075 11.5998 19.075C11.8998 19.075 12.1998 18.975 12.3998 18.875C12.4998 18.875 12.5998 18.875 12.5998 18.775C12.8998 18.675 13.0998 18.575 13.3998 18.475C13.4998 18.475 13.4998 18.475 13.5998 18.375C13.8998 18.275 14.1998 18.175 14.4998 17.975H14.5998C15.1998 17.675 15.7998 17.275 16.3998 16.775L16.4998 16.675C16.6998 16.475 16.8998 16.275 17.0998 16.075C17.1998 15.975 17.1998 15.975 17.2998 15.875C17.4998 15.675 17.6998 15.375 17.8998 15.175L17.9998 15.075C20.2998 11.775 20.2998 7.375 17.8998 4.075ZM17.1998 13.775C16.1998 13.275 14.9998 12.875 13.8998 12.675C14.0998 11.875 14.1998 11.075 14.2998 10.275H18.3998C18.1998 11.475 17.7998 12.675 17.1998 13.775ZM16.2998 14.975C16.0998 15.175 15.9998 15.375 15.7998 15.475L15.6998 15.575C15.4998 15.775 15.3998 15.875 15.1998 15.975L15.0998 16.075C14.8998 16.175 14.6998 16.375 14.4998 16.475L14.3998 16.575C14.1998 16.675 13.9998 16.775 13.7998 16.875C13.7998 16.875 13.6998 16.875 13.6998 16.975C13.4998 17.075 13.1998 17.175 12.9998 17.275H12.8998C12.6998 17.375 12.3998 17.375 12.1998 17.475H12.0998C11.9998 17.475 11.8998 17.475 11.7998 17.475C12.4998 16.375 13.1998 15.175 13.5998 13.875C14.4998 14.175 15.3998 14.475 16.2998 14.975C16.2998 14.975 16.2998 14.875 16.2998 14.975ZM8.3998 17.475C8.1998 17.375 7.8998 17.375 7.6998 17.275H7.5998C7.3998 17.175 7.0998 17.075 6.8998 16.975C6.8998 16.975 6.7998 16.975 6.7998 16.875C6.5998 16.775 6.3998 16.675 6.1998 16.575L6.0998 16.475C5.8998 16.375 5.6998 16.275 5.4998 16.075L5.3998 15.975C5.1998 15.875 4.9998 15.675 4.8998 15.575L4.7998 15.475C4.5998 15.275 4.4998 15.175 4.2998 14.975C4.2998 14.975 4.2998 14.975 4.1998 14.875C5.0998 14.475 6.0998 14.075 7.0998 13.975C7.5998 15.275 8.19981 16.475 8.89981 17.575C8.7998 17.575 8.6998 17.575 8.5998 17.575C8.3998 17.475 8.3998 17.475 8.3998 17.475ZM2.0998 10.275H6.1998C6.1998 11.075 6.3998 11.875 6.5998 12.675C5.4998 12.875 4.2998 13.275 3.2998 13.775C2.5998 12.675 2.1998 11.475 2.0998 10.275ZM3.1998 5.37499C4.1998 5.87499 5.3998 6.27499 6.4998 6.47499C6.2998 7.27499 6.1998 8.07499 6.0998 8.87499H1.9998C2.1998 7.67499 2.5998 6.47499 3.1998 5.37499ZM4.0998 4.17501C4.2998 3.97501 4.3998 3.77501 4.5998 3.67501L4.6998 3.575C4.8998 3.375 4.9998 3.27501 5.1998 3.17501L5.2998 3.075C5.4998 2.975 5.6998 2.77501 5.8998 2.67501L5.9998 2.575C6.1998 2.475 6.3998 2.37498 6.5998 2.27498C6.5998 2.27498 6.6998 2.27501 6.6998 2.17501C6.8998 2.07501 7.1998 1.97499 7.3998 1.87499H7.4998C7.6998 1.77499 7.9998 1.77501 8.1998 1.67501H8.2998C8.3998 1.67501 8.4998 1.67501 8.5998 1.67501C7.8998 2.77501 7.1998 4.07498 6.7998 5.27498C5.8998 4.97498 4.9998 4.67501 4.0998 4.17501C4.0998 4.27501 4.0998 4.17501 4.0998 4.17501ZM11.9998 1.67501C12.1998 1.77501 12.4998 1.77499 12.6998 1.87499H12.7998C12.9998 1.97499 13.2998 2.07501 13.4998 2.17501C13.4998 2.17501 13.5998 2.17498 13.5998 2.27498C13.7998 2.37498 13.9998 2.475 14.1998 2.575L14.2998 2.67501C14.4998 2.77501 14.6998 2.875 14.8998 3.075L14.9998 3.17501C15.1998 3.27501 15.3998 3.475 15.4998 3.575L15.5998 3.67501C15.7998 3.87501 15.8998 3.97501 16.0998 4.17501C16.0998 4.17501 16.0998 4.17498 16.1998 4.27498C15.2998 4.67498 14.2998 5.07501 13.2998 5.17501C12.7998 3.87501 12.1998 2.675 11.4998 1.575C11.5998 1.575 11.6998 1.575 11.7998 1.575C11.9998 1.575 11.9998 1.67501 11.9998 1.67501ZM10.1998 12.275C9.3998 12.275 8.6998 12.275 7.8998 12.375C7.6998 11.675 7.5998 10.975 7.4998 10.175H12.8998C12.7998 10.875 12.6998 11.675 12.4998 12.375C11.6998 12.375 10.9998 12.275 10.1998 12.275ZM12.0998 13.775C11.5998 14.975 10.9998 16.175 10.1998 17.275C9.3998 16.175 8.7998 14.975 8.2998 13.775C9.5998 13.575 10.7998 13.575 12.0998 13.775ZM7.4998 8.87499C7.5998 8.17499 7.6998 7.37501 7.8998 6.67501C8.6998 6.77501 9.3998 6.77498 10.1998 6.77498C10.9998 6.77498 11.6998 6.77501 12.4998 6.67501C12.6998 7.37501 12.7998 8.07499 12.8998 8.87499H7.4998ZM10.1998 5.47499C9.5998 5.47499 8.8998 5.47499 8.2998 5.37499C8.7998 4.17499 9.3998 2.97499 10.1998 1.87499C10.9998 2.97499 11.5998 4.17499 12.0998 5.37499C11.4998 5.47499 10.7998 5.47499 10.1998 5.47499ZM14.1998 8.87499C14.1998 8.07499 13.9998 7.27499 13.7998 6.47499C14.8998 6.27499 16.0998 5.87499 17.0998 5.37499C17.6998 6.47499 18.0998 7.67499 18.1998 8.87499H14.1998Z" fill="#70A6A6"/>
</svg>
