<svg width="16" height="19" viewBox="0 0 16 19" fill="none" xmlns="http://www.w3.org/2000/svg">
<path d="M8.20039 19C8.00039 19 7.80039 18.9 7.70039 18.8L2.10039 12.2C1.60039 11.6 1.20039 11 1.00039 10.4C0.10039 8.10002 0.400392 5.40002 1.90039 3.30002C3.40039 1.20002 5.60039 0 8.20039 0C10.8004 0 13.1004 1.20002 14.5004 3.30002C15.9004 5.40002 16.3004 8.00002 15.4004 10.4C15.2004 11 14.8004 11.7 14.3004 12.2L8.70039 18.8C8.60039 18.9 8.40039 19 8.20039 19ZM8.20039 1.40002C6.10039 1.40002 4.20039 2.40001 3.00039 4.10001C1.80039 5.80001 1.50039 8.00002 2.30039 9.90002C2.50039 10.4 2.80039 10.9 3.20039 11.3L8.30039 17.3L13.4004 11.3C13.8004 10.8 14.1004 10.4 14.3004 9.90002C15.0004 8.00002 14.8004 5.8 13.6004 4C12.2004 2.3 10.3004 1.40002 8.20039 1.40002Z" fill="#70A6A6"/>
<path d="M8.2 11.4C6.1 11.4 4.5 9.70001 4.5 7.70001C4.5 5.60001 6.2 4 8.2 4C10.2 4 11.9 5.70001 11.9 7.70001C11.9 9.70001 10.2 11.4 8.2 11.4ZM8.2 5.30002C6.9 5.30002 5.8 6.40001 5.8 7.70001C5.8 9.00001 6.9 10.1 8.2 10.1C9.5 10.1 10.6 9.00001 10.6 7.70001C10.6 6.40001 9.5 5.30002 8.2 5.30002Z" fill="#70A6A6"/>
</svg>
