<svg width="20" height="19" viewBox="0 0 20 19" fill="none" xmlns="http://www.w3.org/2000/svg">
<path d="M16.176 13.7519C15.5534 13.9028 14.9902 14.0419 14.426 14.1749C13.7428 14.3359 13.2217 13.8877 13.275 13.1899C13.3036 12.8096 13.5526 12.5353 13.9789 12.4321C14.8764 12.215 15.7738 12.0036 16.6741 11.7893C16.9944 11.713 17.3141 11.6356 17.6338 11.5599C18.1835 11.4292 18.6542 11.7119 18.7854 12.2565C19.0808 13.4808 19.3749 14.7057 19.6677 15.9311C19.7979 16.478 19.5376 16.9195 19.0204 17.0423C18.4836 17.1696 18.0579 16.9004 17.9216 16.344C17.8094 15.8885 17.7012 15.4325 17.5901 14.977C17.5873 14.9652 17.5738 14.9551 17.5531 14.9293C17.3848 15.1155 17.2249 15.3057 17.0522 15.4835C14.9487 17.6515 12.3836 18.6611 9.37488 18.4177C5.21623 18.0811 1.78341 15.0101 0.925764 10.9272C0.860049 10.619 0.813033 10.3071 0.784974 9.99323C0.741783 9.45699 1.07833 9.04808 1.58316 8.99872C2.07901 8.95105 2.48961 9.27918 2.55411 9.80645C2.75155 11.423 3.34725 12.8691 4.44609 14.0773C6.12885 15.9283 8.23285 16.7983 10.7345 16.6295C12.8593 16.4859 14.6099 15.5637 16.0072 13.9623C16.0549 13.9107 16.0941 13.8552 16.176 13.7519Z" fill="#70A6A6"/>
<path d="M4.22156 4.66483L5.45558 4.37035C5.64629 4.32435 5.83532 4.27163 6.02715 4.23236C6.52357 4.13084 6.94706 4.40681 7.07215 4.90827C7.19218 5.38898 6.94538 5.85174 6.46131 5.97402C5.18989 6.28963 3.91698 6.59346 2.64257 6.88551C2.20618 6.98591 1.75183 6.7004 1.63965 6.25223C1.32217 4.98306 1.01572 3.71071 0.720303 2.43518C0.615411 1.98645 0.932891 1.53154 1.39341 1.41823C1.61699 1.36277 1.8534 1.39666 2.0524 1.51271C2.2514 1.62876 2.39731 1.81782 2.45915 2.03973C2.58928 2.51763 2.69474 3.00171 2.8187 3.51551C2.97463 3.3405 3.11038 3.184 3.25061 3.03144C4.65795 1.50518 6.4097 0.61612 8.4234 0.175799C12.4777 -0.709892 18.2916 1.75086 19.4847 7.56254C19.538 7.8228 19.5683 8.08812 19.6087 8.35119C19.6962 8.91996 19.4011 9.35523 18.8767 9.43208C18.3062 9.51622 17.8911 9.1864 17.8244 8.5879C17.733 7.76671 17.535 6.97245 17.1737 6.23204C15.942 3.68995 13.9283 2.16369 11.1181 1.82434C8.42901 1.49901 6.1786 2.43013 4.3831 4.46066C4.33823 4.50833 4.29952 4.56387 4.22156 4.66483Z" fill="#70A6A6"/>
</svg>
