<svg width="20" height="19" viewBox="0 0 20 19" fill="none" xmlns="http://www.w3.org/2000/svg">
<path d="M2.2002 18.2C2.0002 18.2 1.70019 18.1 1.50019 18C1.00019 17.7 0.700195 17.2 0.700195 16.7V1.5C0.700195 0.7 1.4002 0 2.2002 0H18.2002C19.0002 0 19.7002 0.7 19.7002 1.5V14.5C19.7002 15.3 19.0002 16 18.2002 16H5.7002L3.10019 17.9C2.80019 18.1 2.5002 18.2 2.2002 18.2ZM2.2002 1.29999C2.1002 1.29999 2.1002 1.39999 2.2002 1.29999L2.10019 16.7C2.10019 16.7 2.1002 16.8 2.2002 16.8C2.3002 16.8 2.3002 16.8 2.3002 16.8L4.9002 14.9C5.2002 14.7 5.5002 14.6 5.8002 14.6H18.2002C18.3002 14.6 18.3002 14.6 18.3002 14.5V1.5C18.3002 1.4 18.3002 1.40002 18.2002 1.40002H2.2002V1.29999Z" fill="#70A6A6"/>
<path d="M10.2002 7.7002V10.2002" stroke="#70A6A6" stroke-width="1.4" stroke-miterlimit="10" stroke-linecap="round"/>
<path d="M10.2002 5.6001V6.00006" stroke="#70A6A6" stroke-width="1.4" stroke-miterlimit="10" stroke-linecap="round"/>
<path d="M10.2 12.2999C12.5196 12.2999 14.4 10.4195 14.4 8.09991C14.4 5.78032 12.5196 3.8999 10.2 3.8999C7.8804 3.8999 6 5.78032 6 8.09991C6 10.4195 7.8804 12.2999 10.2 12.2999Z" stroke="#70A6A6" stroke-width="1.4" stroke-miterlimit="10"/>
</svg>
