<svg width="19" height="18" viewBox="0 0 19 18" fill="none" xmlns="http://www.w3.org/2000/svg">
<path d="M17.3996 14.0001H15.3996C15.0996 12.9001 14.0996 12.1001 12.8996 12.1001C11.6996 12.1001 10.6996 12.9001 10.3996 14.0001H0.899611C0.499611 14.0001 0.0996094 14.3001 0.0996094 14.8001C0.0996094 15.3001 0.399611 15.6001 0.899611 15.6001H10.3996C10.6996 16.7001 11.6996 17.5001 12.8996 17.5001C14.0996 17.5001 15.0996 16.7001 15.3996 15.6001H17.3996C17.7996 15.6001 18.1996 15.3001 18.1996 14.8001C18.1996 14.3001 17.8996 14.0001 17.3996 14.0001ZM12.8996 15.8001C12.2996 15.8001 11.7996 15.3001 11.7996 14.7001C11.7996 14.1001 12.2996 13.6001 12.8996 13.6001C13.4996 13.6001 13.9996 14.1001 13.9996 14.7001C14.0996 15.3001 13.5996 15.8001 12.8996 15.8001Z" fill="#70A6A6"/>
<path d="M0.899611 3.5H10.3996C10.6996 4.6 11.6996 5.40002 12.8996 5.40002C14.0996 5.40002 15.0996 4.6 15.3996 3.5H17.3996C17.7996 3.5 18.1996 3.20001 18.1996 2.70001C18.1996 2.30001 17.8996 1.90002 17.3996 1.90002H15.3996C15.0996 0.800024 14.0996 0 12.8996 0C11.6996 0 10.6996 0.800024 10.3996 1.90002H0.899611C0.499611 1.90002 0.0996094 2.20001 0.0996094 2.70001C0.199609 3.10001 0.499611 3.5 0.899611 3.5ZM12.8996 1.60001C13.4996 1.60001 13.9996 2.10001 13.9996 2.70001C13.9996 3.30001 13.4996 3.80002 12.8996 3.80002C12.2996 3.80002 11.7996 3.30001 11.7996 2.70001C11.7996 2.10001 12.2996 1.60001 12.8996 1.60001Z" fill="#70A6A6"/>
<path d="M17.3996 8.00009H7.89961C7.59961 6.90009 6.59961 6.1001 5.39961 6.1001C4.19961 6.1001 3.19961 6.90009 2.89961 8.00009H0.899611C0.499611 8.00009 0.0996094 8.30011 0.0996094 8.80011C0.0996094 9.30011 0.399611 9.6001 0.899611 9.6001H2.89961C3.19961 10.7001 4.19961 11.5001 5.39961 11.5001C6.59961 11.5001 7.59961 10.7001 7.89961 9.6001H17.3996C17.7996 9.6001 18.1996 9.30011 18.1996 8.80011C18.1996 8.30011 17.8996 8.00009 17.3996 8.00009ZM5.39961 9.80011C4.79961 9.80011 4.29961 9.3001 4.29961 8.7001C4.29961 8.1001 4.79961 7.6001 5.39961 7.6001C5.99961 7.6001 6.49961 8.1001 6.49961 8.7001C6.59961 9.3001 6.09961 9.80011 5.39961 9.80011Z" fill="#70A6A6"/>
</svg>
