<svg width="28" height="25" viewBox="0 0 28 25" fill="none" xmlns="http://www.w3.org/2000/svg">
<path d="M3.42087 24.9C5.22087 24.9 6.82087 23.4 6.82087 21.6C6.82087 20.7 6.52087 19.9 5.92087 19.3L9.42087 13.3C10.2209 13.5 11.1209 13.4 11.8209 13L14.0209 15.2C13.7209 15.7 13.6209 16.2 13.6209 16.8C13.6209 18.7 15.1209 20.2 16.9209 20.2C18.8209 20.2 20.3209 18.7 20.3209 16.9C20.3209 16 19.9209 15.1 19.2209 14.4L23.0209 6.7C23.2209 6.7 23.4209 6.8 23.6209 6.8C25.5209 6.8 27.0209 5.29999 27.0209 3.39999C27.0209 1.49999 25.5209 0 23.6209 0C21.7209 0 20.2209 1.49999 20.2209 3.39999C20.2209 4.29999 20.6209 5.19999 21.3209 5.89999L17.5209 13.6C16.8209 13.5 16.0209 13.6 15.3209 14L13.1209 11.8C13.4209 11.3 13.5209 10.8 13.5209 10.2C13.5209 8.3 12.0209 6.8 10.2209 6.8C8.32087 6.8 6.82087 8.29999 6.82087 10.1C6.82087 11 7.12087 11.8 7.72087 12.4L4.22087 18.4C2.42087 17.9 0.620869 19 0.120869 20.8C-0.379131 22.6 0.720871 24.4 2.52087 24.9C2.82087 24.8 3.12087 24.9 3.42087 24.9ZM23.5209 1.8C24.3209 1.8 24.9209 2.4 24.9209 3.2C24.9209 4 24.3209 4.59999 23.5209 4.59999C22.7209 4.59999 22.1209 4 22.1209 3.2C22.1209 2.5 22.8209 1.8 23.5209 1.8ZM16.8209 15.3C17.6209 15.3 18.2209 15.9 18.2209 16.7C18.2209 17.5 17.6209 18.1 16.8209 18.1C16.0209 18.1 15.4209 17.5 15.4209 16.7C15.4209 15.9 16.0209 15.3 16.8209 15.3ZM10.1209 8.5C10.9209 8.5 11.5209 9.09999 11.5209 9.89999C11.5209 10.7 10.9209 11.3 10.1209 11.3C9.32087 11.3 8.72087 10.7 8.72087 9.89999C8.72087 9.09999 9.32087 8.5 10.1209 8.5ZM3.42087 20.1C4.22087 20.1 4.82087 20.7 4.82087 21.5C4.82087 22.3 4.22087 22.9 3.42087 22.9C2.62087 22.9 2.02087 22.3 2.02087 21.5C2.02087 20.7 2.62087 20.1 3.42087 20.1Z" fill="#70A6A6"/>
</svg>
