<svg width="25" height="26" viewBox="0 0 25 26" fill="none" xmlns="http://www.w3.org/2000/svg">
<path d="M15.2998 10.9001L18.1998 8.80009C18.7998 8.40009 18.4998 7.5001 17.7998 7.5001H14.1998L13.0998 4.0001C12.8998 3.3001 11.8998 3.3001 11.6998 4.0001L10.5998 7.5001H6.99978C6.29978 7.5001 5.99978 8.40009 6.59978 8.80009L9.49978 10.9001L8.39978 14.4001C8.19978 15.1001 8.99978 15.6001 9.49978 15.2001L12.3998 13.1001L15.2998 15.2001C15.8998 15.6001 16.5998 15.1001 16.3998 14.4001L15.2998 10.9001ZM13.7998 10.8001L14.3998 12.6001L12.8998 11.5001C12.5998 11.3001 12.2998 11.3001 11.9998 11.5001L10.4998 12.6001L11.0998 10.8001C11.1998 10.5001 11.0998 10.2001 10.7998 10.0001L9.29978 8.90009H11.1998C11.4998 8.90009 11.7998 8.70009 11.8998 8.40009L12.4998 6.6001L13.0998 8.40009C13.1998 8.70009 13.4998 8.90009 13.7998 8.90009H15.6998L13.9998 10.0001C13.7998 10.2001 13.6998 10.5001 13.7998 10.8001Z" fill="#70A6A6"/>
<path d="M24.2998 23.4001L20.0998 16.0001C21.3998 14.4001 22.0998 12.3001 22.0998 10.1001C22.0998 4.70007 17.6998 0.300049 12.3998 0.300049C6.99979 0.300049 2.69978 4.70007 2.69978 10.1001C2.69978 12.4001 3.49978 14.4001 4.69978 16.1001L0.499788 23.4001C-0.000212252 24.3001 0.599786 25.3 1.59979 25.3H7.79979C8.49979 25.3 9.09979 24.9001 9.39979 24.4001L11.9998 19.9001C12.2998 19.9001 12.4998 19.9001 12.7998 19.9001L15.3998 24.4001C15.6998 25.0001 16.2998 25.3 16.9998 25.3H23.1998C24.0998 25.3 24.7998 24.2001 24.2998 23.4001ZM8.19978 23.6001C8.09978 23.7001 7.99979 23.8 7.89979 23.8H1.99979L5.79979 17.2001C7.09979 18.4001 8.69979 19.3001 10.4998 19.7001L8.19978 23.6001ZM4.09979 10.1001C4.09979 5.50007 7.79979 1.80005 12.3998 1.80005C16.9998 1.80005 20.6998 5.50007 20.6998 10.1001C20.6998 14.7001 16.9998 18.4001 12.3998 18.4001C7.79979 18.4001 4.09979 14.7001 4.09979 10.1001ZM16.8998 23.8C16.7998 23.8 16.5998 23.7001 16.5998 23.6001L14.2998 19.6001C16.0998 19.2001 17.6998 18.3001 18.9998 17.1001L22.7998 23.8H16.8998Z" fill="#70A6A6"/>
</svg>
