<svg width="20" height="19" viewBox="0 0 20 19" fill="none" xmlns="http://www.w3.org/2000/svg">
<path d="M6.70078 8.94513C6.70078 7.74513 5.70078 6.74512 4.50078 6.74512C3.30078 6.74512 2.30078 7.74513 2.30078 8.94513C2.30078 10.1451 3.30078 11.1451 4.50078 11.1451C5.70078 11.1451 6.70078 10.1451 6.70078 8.94513ZM5.40078 8.94513C5.40078 9.34513 5.00078 9.74512 4.60078 9.74512C4.20078 9.74512 3.80078 9.34513 3.80078 8.94513C3.80078 8.54513 4.20078 8.14514 4.60078 8.14514C5.00078 8.14514 5.40078 8.54513 5.40078 8.94513Z" fill="#70A6A6"/>
<path d="M6 13.845C6 15.045 7 16.045 8.2 16.045C9.4 16.045 10.4 15.045 10.4 13.845C10.4 12.645 9.4 11.645 8.2 11.645C7 11.645 6 12.645 6 13.845ZM7.4 13.845C7.4 13.445 7.8 13.045 8.2 13.045C8.6 13.045 9 13.445 9 13.845C9 14.245 8.6 14.645 8.2 14.645C7.8 14.645 7.4 14.245 7.4 13.845Z" fill="#70A6A6"/>
<path d="M19.1002 11.645L17.3002 9.94501C18.4002 9.04501 18.8002 7.645 18.4002 6.245C17.4002 3.245 14.9002 0.944997 11.8002 0.244997C8.70021 -0.455003 5.50021 0.345021 3.20021 2.64502C-0.399788 6.14502 -0.499789 11.945 3.00021 15.545C4.80021 17.345 7.20021 18.345 9.60021 18.345C11.3002 18.345 13.1002 17.845 14.6002 16.845C15.4002 16.345 15.8002 15.345 15.5002 14.445C15.2002 13.545 14.4002 12.945 13.5002 12.945C12.8002 12.945 12.4002 12.445 12.4002 11.945C12.3002 11.445 12.6002 10.945 13.2002 10.745L16.6002 14.345C17.0002 14.745 17.4002 14.945 17.9002 14.945C18.4002 14.945 18.9002 14.745 19.2002 14.345C19.6002 13.945 19.8002 13.545 19.8002 13.045C19.6002 12.545 19.4002 12.045 19.1002 11.645ZM12.6002 7.44501L18.1002 12.645C18.3002 12.845 18.3002 13.145 18.1002 13.345C17.9002 13.545 17.6002 13.545 17.4002 13.345C17.1002 13.045 13.0002 8.64497 12.2002 7.84497C12.4002 7.74497 12.5002 7.64501 12.6002 7.44501ZM9.30021 6.745C8.90021 6.345 8.60021 4.94502 8.40021 3.64502C9.70021 3.84502 11.1002 4.24498 11.5002 4.54498C12.1002 5.14498 12.1002 6.145 11.5002 6.745C11.2002 7.045 10.8002 7.14502 10.4002 7.14502C10.0002 7.14502 9.60021 7.045 9.30021 6.745ZM13.2002 6.14502C13.4002 5.24502 13.1002 4.24498 12.4002 3.54498C11.4002 2.54498 8.20021 2.14502 7.60021 2.14502C7.40021 2.14502 7.20021 2.14497 7.00021 2.34497C6.90021 2.44497 6.80021 2.74501 6.80021 2.94501C6.90021 3.54501 7.30021 6.745 8.20021 7.745C8.90021 8.445 9.80021 8.74498 10.8002 8.54498L12.0002 9.745C11.4002 10.145 11.0002 10.745 10.9002 11.545C10.8002 12.345 11.1002 13.145 11.7002 13.645C12.2002 14.045 12.8002 14.345 13.4002 14.345C13.8002 14.345 14.1002 14.645 14.1002 14.845C14.2002 15.145 14.1002 15.445 13.8002 15.745C10.7002 17.745 6.50021 17.345 3.90021 14.645C0.900213 11.545 1.00021 6.64502 4.00021 3.64502C5.50021 2.14502 7.40021 1.34497 9.50021 1.34497C10.1002 1.34497 10.7002 1.44498 11.3002 1.54498C13.9002 2.14498 16.0002 4.14502 16.9002 6.64502C17.2002 7.44502 16.9002 8.44501 16.1002 8.94501L13.2002 6.14502Z" fill="#70A6A6"/>
</svg>
