<svg width="89" height="89" viewBox="0 0 89 89" fill="none" xmlns="http://www.w3.org/2000/svg">
<rect x="2.17638" y="2.17638" width="84.7799" height="84.7799" rx="12.7653" fill="#002430" stroke="#00CDB8" stroke-width="3.64724"/>
<path d="M44.5652 29.1795H47.2649V59.7759H41.8324V40.9569L31.4588 56.2717L21.0871 40.9569V59.7759H15.6575V29.1795H18.3571L31.4654 47.9616L44.5652 29.1795Z" fill="white"/>
<path d="M64.3747 43.1336C65.3556 43.7568 66.1426 44.6421 66.6465 45.6894L66.7279 45.8597L71.6057 43.6826L71.4684 43.3986C70.531 41.4441 69.0624 39.7928 67.2305 38.6338C65.3987 37.4747 63.2776 36.8546 61.11 36.8445H61.0588V42.169H61.1024C62.2619 42.1783 63.3956 42.5125 64.3747 43.1336Z" fill="#00CDB8"/>
<path d="M67.2448 47.925C67.2571 48.0774 67.2637 48.2298 67.2637 48.3813C67.2623 49.5189 66.9487 50.6343 66.3568 51.6059C65.765 52.5775 64.9178 53.368 63.9076 53.8911C62.8974 54.4143 61.763 54.65 60.628 54.5727C59.4929 54.4953 58.401 54.1079 57.471 53.4525C56.5411 52.7972 55.809 51.8991 55.3545 50.8562C54.8999 49.8133 54.7404 48.6656 54.8934 47.5383C55.0463 46.411 55.5059 45.3473 56.2218 44.4633C56.9378 43.5792 57.8828 42.9086 58.9537 42.5247L57.1552 37.5135C54.687 38.4012 52.5946 40.1026 51.2222 42.3378C49.8498 44.573 49.2791 47.2087 49.6042 49.8114C49.9292 52.4141 51.1305 54.8286 53.0105 56.6576C54.8904 58.4867 57.337 59.6212 59.9476 59.8747C60.3174 59.9094 60.6872 59.9271 61.057 59.9277C64.119 59.9277 67.0556 58.7117 69.2212 56.5469C71.3868 54.3822 72.6041 51.4461 72.6053 48.3841C72.6053 48.0995 72.594 47.8139 72.5712 47.5274L67.2448 47.925Z" fill="white"/>
<path d="M61.0598 30.2999V34.5198C63.7391 34.5223 66.3605 35.2992 68.6086 36.7569C70.8566 38.2146 72.6354 40.291 73.7308 42.7361L77.5815 41.0181L78.6048 40.5609C77.0923 37.1716 74.6305 34.2931 71.5169 32.2732C68.4033 30.2533 64.7712 29.1787 61.0598 29.1791V30.2999Z" fill="#00CDB8"/>
</svg>
