<svg width="229" height="40" viewBox="0 0 229 40" fill="none" xmlns="http://www.w3.org/2000/svg">
<path d="M33.6242 3.25052H35.3345V38.7078H32.4179V9.93873L17.9291 33.1771L3.49594 9.93873V38.7113H0.575928V3.254H2.23756L17.9291 28.1506L33.6242 3.25052Z" fill="white"/>
<path d="M201.097 38.7428C200.88 38.9602 200.603 39.1082 200.302 39.1682C200 39.2283 199.688 39.1975 199.404 39.08C199.12 38.9624 198.877 38.7632 198.707 38.5076C198.536 38.2521 198.445 37.9517 198.445 37.6443C198.445 37.3369 198.536 37.0365 198.707 36.7809C198.877 36.5254 199.12 36.3262 199.404 36.2086C199.688 36.0911 200 36.0603 200.302 36.1203C200.603 36.1804 200.88 36.3284 201.097 36.5458C201.384 36.8398 201.544 37.234 201.544 37.6443C201.544 38.0546 201.384 38.4488 201.097 38.7428Z" fill="white"/>
<path d="M204.75 18.7163C204.752 18.5131 204.795 18.3123 204.876 18.1258C204.957 17.9393 205.074 17.7706 205.221 17.6297C205.367 17.4887 205.54 17.3782 205.73 17.3046C205.919 17.2309 206.121 17.1956 206.324 17.2007C206.524 17.1993 206.722 17.2376 206.906 17.3132C207.091 17.3889 207.258 17.5005 207.399 17.6415C207.54 17.7825 207.652 17.9502 207.728 18.1347C207.803 18.3192 207.841 18.5169 207.84 18.7163C207.842 18.9175 207.805 19.1171 207.73 19.3038C207.655 19.4905 207.544 19.6605 207.403 19.8042C207.262 19.9479 207.095 20.0624 206.91 20.1412C206.724 20.2199 206.526 20.2614 206.324 20.2632C206.119 20.2651 205.916 20.2265 205.726 20.1498C205.536 20.073 205.363 19.9596 205.217 19.8159C205.07 19.6723 204.954 19.5012 204.874 19.3126C204.794 19.1239 204.752 18.9213 204.75 18.7163ZM205.076 39.0104V22.9364H207.541V39.0104H205.076Z" fill="white"/>
<path d="M213.722 36.782C212.918 36.0338 212.277 35.1278 211.838 34.1206C211.399 33.1134 211.173 32.0267 211.173 30.9281C211.173 29.8295 211.399 28.7428 211.838 27.7356C212.277 26.7284 212.918 25.8224 213.722 25.0742C214.547 24.2803 215.52 23.6568 216.586 23.2393C217.652 22.8217 218.79 22.6184 219.934 22.6408C221.074 22.6164 222.208 22.819 223.269 23.2367C224.33 23.6545 225.298 24.279 226.115 25.0742C226.928 25.8162 227.575 26.7208 228.015 27.7294C228.455 28.7379 228.679 29.8277 228.67 30.9281C228.68 32.0317 228.455 33.1248 228.009 34.1343C227.563 35.1438 226.907 36.0465 226.084 36.782C225.269 37.5668 224.308 38.1835 223.256 38.5968C222.203 39.0102 221.079 39.2121 219.948 39.191C217.637 39.2363 215.401 38.3711 213.722 36.782ZM224.391 26.6211C223.807 26.0418 223.113 25.5854 222.35 25.2791C221.587 24.9728 220.77 24.8227 219.948 24.8378C219.119 24.8229 218.296 24.9729 217.525 25.2791C216.755 25.5852 216.053 26.0414 215.46 26.6211C214.877 27.1734 214.412 27.8389 214.094 28.5771C213.776 29.3153 213.612 30.1105 213.612 30.9142C213.612 31.7179 213.776 32.5131 214.094 33.2513C214.412 33.9894 214.877 34.655 215.46 35.2073C216.053 35.787 216.755 36.2432 217.525 36.5493C218.296 36.8555 219.119 37.0055 219.948 36.9906C220.773 37.0075 221.592 36.8584 222.358 36.552C223.123 36.2456 223.82 35.7883 224.405 35.2073C224.989 34.655 225.454 33.9894 225.771 33.2513C226.089 32.5131 226.253 31.7179 226.253 30.9142C226.253 30.1105 226.089 29.3153 225.771 28.5771C225.454 27.8389 224.989 27.1734 224.405 26.6211H224.391Z" fill="white"/>
<path d="M160.543 2.95496H163.671V39.0101H157.376V16.7138L145.355 34.6127L133.338 16.7138V39.0101H127.046V2.95496H130.175L145.362 24.8967L160.543 2.95496Z" fill="#00CDB8"/>
<path d="M191.444 35.1758C188.538 37.8731 184.719 39.3722 180.754 39.3722C176.789 39.3722 172.971 37.8731 170.065 35.1758C167.1 32.3635 165.615 29.0368 165.615 25.0948C165.615 21.1528 167.1 17.7947 170.065 14.9686C172.971 12.2712 176.789 10.7722 180.754 10.7722C184.719 10.7722 188.538 12.2712 191.444 14.9686C194.408 17.782 195.891 21.1574 195.893 25.0948C195.883 29.0368 194.398 32.3635 191.444 35.1758ZM187.199 18.7577C186.354 17.914 185.348 17.2485 184.241 16.8006C183.134 16.3528 181.948 16.1317 180.754 16.1505C179.553 16.1317 178.36 16.3525 177.245 16.8002C176.13 17.2478 175.116 17.9133 174.261 18.7577C173.419 19.5801 172.75 20.5625 172.293 21.6472C171.836 22.7319 171.601 23.897 171.601 25.0739C171.601 26.2509 171.836 27.4159 172.293 28.5006C172.75 29.5853 173.419 30.5678 174.261 31.3902C175.115 32.2352 176.13 32.9013 177.245 33.3495C178.36 33.7978 179.553 34.0192 180.754 34.0008C181.949 34.0197 183.135 33.7984 184.242 33.3499C185.349 32.9015 186.355 32.235 187.199 31.3902C188.056 30.5764 188.738 29.5967 189.205 28.5108C189.671 27.425 189.911 26.2556 189.911 25.0739C189.911 23.8922 189.671 22.7228 189.205 21.637C188.738 20.5511 188.056 19.5715 187.199 18.7577Z" fill="#00CDB8"/>
<path d="M66.7041 26.124H42.256C42.5332 29.0155 43.8838 31.6983 46.0416 33.643C48.1736 35.5576 50.9492 36.5979 53.8144 36.5561C57.7529 36.5561 61.3821 35.0231 63.5825 32.2108L65.5779 33.8446C62.9707 37.1714 58.5212 39.2154 53.4112 39.2154C49.3197 39.2154 45.9443 37.8249 43.285 35.1239C40.6778 32.4159 39.3464 29.037 39.3464 25.102C39.3464 21.1113 40.6778 17.7359 43.285 15.021C45.9443 12.313 49.3197 10.9295 53.4112 10.9295C57.5026 10.9295 60.6764 12.2609 63.0785 14.9202C65.4805 17.5795 66.7111 21.0557 66.7111 25.3001L66.7041 26.124ZM45.7357 16.3559C43.6971 18.3105 42.4581 20.9533 42.2595 23.7706H63.8432C63.4956 17.583 59.5988 13.3907 53.4146 13.3907C50.3382 13.3907 47.7797 14.3605 45.7357 16.3559Z" fill="white"/>
<path d="M70.9868 25.3037C70.9868 21.0593 72.2139 17.5831 74.6194 14.9238C77.025 12.2645 80.2439 10.9331 84.2833 10.9331C88.3226 10.9331 91.7502 12.3236 94.4095 15.0246C97.0687 17.7256 98.348 21.1114 98.348 25.1056C98.348 29.0406 97.0201 32.4056 94.4095 35.1275C91.7988 37.8493 88.3748 39.2189 84.2833 39.2189C79.1698 39.2189 74.7203 37.1749 72.1166 33.8482L74.1084 32.2144C76.3089 35.0267 79.9415 36.5597 83.88 36.5597C86.7451 36.6008 89.5205 35.5606 91.6528 33.6466C93.8106 31.7019 95.1613 29.0191 95.4384 26.1276H70.9868V25.3037ZM84.2833 13.3908C78.0956 13.3908 74.2023 17.5831 73.8547 23.7707H95.4384C95.2398 20.9534 94.0008 18.3106 91.9622 16.356C89.9113 14.3606 87.3528 13.3908 84.2833 13.3908Z" fill="white"/>
<path d="M118.096 13.9503H107.918V29.5932C107.918 34.2478 109.864 36.6012 113.699 36.6012C115.143 36.6054 116.584 36.4515 117.995 36.1424V38.5514C116.301 39.037 114.543 39.2609 112.781 39.2153C108.262 39.2153 105.008 36.2501 105.008 31.0845V13.9503H100.141V11.437H105.008V0.44873H107.921V11.437H118.096V13.9503Z" fill="white"/>
</svg>
