<svg width="342" height="89" viewBox="0 0 342 89" fill="none" xmlns="http://www.w3.org/2000/svg">
<path d="M146.624 28.2505H148.334V63.7078H145.418V34.9387L130.929 58.1771L116.496 34.9387V63.7113H113.576V28.254H115.238L130.929 53.1506L146.624 28.2505Z" fill="white"/>
<path d="M314.097 63.7428C313.88 63.9602 313.603 64.1082 313.302 64.1682C313 64.2283 312.688 64.1975 312.404 64.08C312.12 63.9624 311.877 63.7632 311.707 63.5076C311.536 63.2521 311.445 62.9517 311.445 62.6443C311.445 62.3369 311.536 62.0365 311.707 61.7809C311.877 61.5254 312.12 61.3262 312.404 61.2086C312.688 61.0911 313 61.0603 313.302 61.1203C313.603 61.1804 313.88 61.3284 314.097 61.5458C314.384 61.8398 314.544 62.234 314.544 62.6443C314.544 63.0546 314.384 63.4488 314.097 63.7428V63.7428Z" fill="white"/>
<path d="M317.75 43.7163C317.752 43.5131 317.795 43.3123 317.876 43.1258C317.957 42.9393 318.074 42.7706 318.221 42.6297C318.367 42.4887 318.54 42.3782 318.73 42.3046C318.919 42.2309 319.121 42.1956 319.324 42.2007C319.524 42.1993 319.722 42.2376 319.906 42.3132C320.091 42.3889 320.258 42.5005 320.399 42.6415C320.54 42.7825 320.652 42.9502 320.728 43.1347C320.803 43.3192 320.841 43.5169 320.84 43.7163C320.842 43.9175 320.805 44.1171 320.73 44.3038C320.655 44.4905 320.544 44.6605 320.403 44.8042C320.262 44.9479 320.095 45.0624 319.91 45.1412C319.724 45.2199 319.526 45.2614 319.324 45.2632C319.119 45.2651 318.916 45.2265 318.726 45.1498C318.536 45.073 318.363 44.9596 318.217 44.8159C318.07 44.6723 317.954 44.5012 317.874 44.3126C317.794 44.1239 317.752 43.9213 317.75 43.7163V43.7163ZM318.076 64.0104V47.9364H320.541V64.0104H318.076Z" fill="white"/>
<path d="M326.722 61.782C325.918 61.0338 325.277 60.1278 324.838 59.1206C324.399 58.1134 324.173 57.0267 324.173 55.9281C324.173 54.8295 324.399 53.7428 324.838 52.7356C325.277 51.7284 325.918 50.8224 326.722 50.0742C327.547 49.2803 328.52 48.6568 329.586 48.2393C330.652 47.8217 331.79 47.6184 332.934 47.6408C334.074 47.6164 335.208 47.819 336.269 48.2367C337.33 48.6545 338.298 49.279 339.115 50.0742C339.928 50.8162 340.575 51.7208 341.015 52.7294C341.455 53.7379 341.679 54.8277 341.67 55.9281C341.68 57.0317 341.455 58.1248 341.009 59.1343C340.563 60.1438 339.907 61.0465 339.084 61.782C338.269 62.5668 337.308 63.1835 336.256 63.5968C335.203 64.0102 334.079 64.2121 332.948 64.191C330.637 64.2363 328.401 63.3711 326.722 61.782V61.782ZM337.391 51.6211C336.807 51.0418 336.113 50.5854 335.35 50.2791C334.587 49.9728 333.77 49.8227 332.948 49.8378C332.119 49.8229 331.296 49.9729 330.525 50.2791C329.755 50.5852 329.053 51.0414 328.46 51.6211C327.877 52.1734 327.412 52.8389 327.094 53.5771C326.776 54.3153 326.612 55.1105 326.612 55.9142C326.612 56.7179 326.776 57.5131 327.094 58.2513C327.412 58.9894 327.877 59.655 328.46 60.2073C329.053 60.787 329.755 61.2432 330.525 61.5493C331.296 61.8555 332.119 62.0055 332.948 61.9906C333.773 62.0075 334.592 61.8584 335.358 61.552C336.123 61.2456 336.82 60.7883 337.405 60.2073C337.989 59.655 338.454 58.9894 338.771 58.2513C339.089 57.5131 339.253 56.7179 339.253 55.9142C339.253 55.1105 339.089 54.3153 338.771 53.5771C338.454 52.8389 337.989 52.1734 337.405 51.6211H337.391Z" fill="white"/>
<path d="M273.543 27.955H276.671V64.0101H270.376V41.7138L258.355 59.6127L246.338 41.7138V64.0101H240.046V27.955H243.175L258.362 49.8967L273.543 27.955Z" fill="#00CDB8"/>
<path d="M304.444 60.1758C301.538 62.8732 297.719 64.3722 293.754 64.3722C289.789 64.3722 285.971 62.8732 283.065 60.1758C280.1 57.3635 278.615 54.0368 278.615 50.0948C278.615 46.1528 280.1 42.7947 283.065 39.9686C285.971 37.2712 289.789 35.7722 293.754 35.7722C297.719 35.7722 301.538 37.2712 304.444 39.9686C307.408 42.782 308.891 46.1574 308.893 50.0948C308.883 54.0368 307.398 57.3635 304.444 60.1758ZM300.199 43.7577C299.354 42.914 298.348 42.2485 297.241 41.8006C296.134 41.3528 294.948 41.1317 293.754 41.1505C292.553 41.1317 291.36 41.3525 290.245 41.8002C289.13 42.2478 288.116 42.9133 287.261 43.7577C286.419 44.5801 285.75 45.5625 285.293 46.6472C284.836 47.7319 284.601 48.897 284.601 50.0739C284.601 51.2509 284.836 52.4159 285.293 53.5006C285.75 54.5853 286.419 55.5678 287.261 56.3902C288.115 57.2352 289.13 57.9013 290.245 58.3495C291.36 58.7978 292.553 59.0192 293.754 59.0008C294.949 59.0197 296.135 58.7984 297.242 58.3499C298.349 57.9015 299.355 57.235 300.199 56.3902C301.056 55.5764 301.738 54.5967 302.205 53.5108C302.671 52.425 302.911 51.2556 302.911 50.0739C302.911 48.8922 302.671 47.7228 302.205 46.637C301.738 45.5511 301.056 44.5715 300.199 43.7577V43.7577Z" fill="#00CDB8"/>
<path d="M179.704 51.124H155.256C155.533 54.0155 156.884 56.6983 159.042 58.643C161.174 60.5576 163.949 61.5979 166.814 61.5561C170.753 61.5561 174.382 60.0231 176.583 57.2108L178.578 58.8446C175.971 62.1714 171.521 64.2154 166.411 64.2154C162.32 64.2154 158.944 62.8249 156.285 60.1239C153.678 57.4159 152.346 54.037 152.346 50.102C152.346 46.1113 153.678 42.7359 156.285 40.021C158.944 37.313 162.32 35.9295 166.411 35.9295C170.503 35.9295 173.676 37.2609 176.078 39.9202C178.481 42.5795 179.711 46.0557 179.711 50.3001L179.704 51.124ZM158.736 41.3559C156.697 43.3105 155.458 45.9533 155.259 48.7706H176.843C176.496 42.583 172.599 38.3907 166.415 38.3907C163.338 38.3907 160.78 39.3605 158.736 41.3559V41.3559Z" fill="white"/>
<path d="M183.987 50.3037C183.987 46.0593 185.214 42.5831 187.619 39.9238C190.025 37.2645 193.244 35.9331 197.283 35.9331C201.323 35.9331 204.75 37.3236 207.409 40.0246C210.069 42.7256 211.348 46.1114 211.348 50.1056C211.348 54.0406 210.02 57.4056 207.409 60.1275C204.799 62.8493 201.375 64.2189 197.283 64.2189C192.17 64.2189 187.72 62.1749 185.117 58.8482L187.108 57.2144C189.309 60.0267 192.942 61.5597 196.88 61.5597C199.745 61.6008 202.52 60.5606 204.653 58.6466C206.811 56.7019 208.161 54.0191 208.438 51.1276H183.987V50.3037ZM197.283 38.3908C191.096 38.3908 187.202 42.5831 186.855 48.7707H208.438C208.24 45.9534 207.001 43.3106 204.962 41.356C202.911 39.3606 200.353 38.3908 197.283 38.3908Z" fill="white"/>
<path d="M231.096 38.9503H220.918V54.5932C220.918 59.2478 222.864 61.6012 226.699 61.6012C228.143 61.6054 229.584 61.4515 230.995 61.1424V63.5514C229.301 64.037 227.543 64.2609 225.781 64.2153C221.262 64.2153 218.008 61.2501 218.008 56.0845V38.9503H213.141V36.437H218.008V25.4487H220.921V36.437H231.096V38.9503Z" fill="white"/>
<rect x="2.17638" y="2.17638" width="84.7799" height="84.7799" rx="12.7653" fill="#002430" stroke="#00CDB8" stroke-width="3.64724"/>
<path d="M44.5652 29.1795H47.2649V59.7759H41.8324V40.9569L31.4588 56.2717L21.0871 40.9569V59.7759H15.6575V29.1795H18.3571L31.4654 47.9616L44.5652 29.1795Z" fill="white"/>
<path d="M64.3747 43.1336C65.3556 43.7568 66.1426 44.6421 66.6465 45.6894L66.7279 45.8597L71.6057 43.6826L71.4684 43.3986C70.531 41.4441 69.0624 39.7928 67.2305 38.6338C65.3987 37.4747 63.2776 36.8546 61.11 36.8445H61.0588V42.169H61.1024C62.2619 42.1783 63.3956 42.5125 64.3747 43.1336V43.1336Z" fill="#00CDB8"/>
<path d="M67.2448 47.925C67.2571 48.0774 67.2637 48.2298 67.2637 48.3813C67.2623 49.5189 66.9487 50.6343 66.3568 51.6059C65.765 52.5775 64.9178 53.368 63.9076 53.8911C62.8974 54.4143 61.763 54.65 60.628 54.5727C59.4929 54.4953 58.401 54.1079 57.471 53.4525C56.5411 52.7972 55.809 51.8991 55.3545 50.8562C54.8999 49.8133 54.7404 48.6656 54.8934 47.5383C55.0463 46.411 55.5059 45.3473 56.2218 44.4633C56.9378 43.5792 57.8828 42.9086 58.9537 42.5247L57.1552 37.5135C54.687 38.4012 52.5946 40.1026 51.2222 42.3378C49.8498 44.573 49.2791 47.2087 49.6042 49.8114C49.9292 52.4141 51.1305 54.8286 53.0105 56.6576C54.8904 58.4867 57.337 59.6212 59.9476 59.8747C60.3174 59.9094 60.6872 59.9271 61.057 59.9277C64.119 59.9277 67.0556 58.7117 69.2212 56.5469C71.3868 54.3822 72.6041 51.4461 72.6053 48.3841C72.6053 48.0995 72.594 47.8139 72.5712 47.5274L67.2448 47.925Z" fill="white"/>
<path d="M61.0598 30.2999V34.5198C63.7391 34.5223 66.3605 35.2992 68.6086 36.7569C70.8566 38.2146 72.6354 40.291 73.7308 42.7361L77.5815 41.0181L78.6048 40.5609C77.0923 37.1716 74.6305 34.2931 71.5169 32.2732C68.4033 30.2533 64.7712 29.1787 61.0598 29.1791V30.2999Z" fill="#00CDB8"/>
</svg>
