<svg width="141" height="141" viewBox="0 0 141 141" fill="none" xmlns="http://www.w3.org/2000/svg">
<path d="M139.985 104.377C139.955 104.257 139.922 104.139 139.883 104.021C139.822 103.833 139.775 103.639 139.744 103.443C139.248 99.7386 138.147 96.1412 136.486 92.7937C129.541 78.6448 112.414 71.4688 97.4998 76.4886C82.0138 81.6844 72.9273 96.4596 75.3977 112.426C77.2726 124.531 84.1458 133.074 95.8314 137.776C97.7265 138.541 99.7536 138.974 101.713 139.397C102.59 139.587 103.5 139.783 104.37 140.003L104.475 140.027H110.353L110.451 140.003C111.273 139.807 112.143 139.634 112.959 139.465C114.847 139.138 116.703 138.651 118.509 138.009C130.492 133.365 137.629 124.517 139.721 111.705C139.765 111.434 139.826 111.16 139.893 110.873C139.927 110.73 139.961 110.585 139.992 110.443L140.012 110.355V104.468L139.985 104.377ZM132.556 107.66C132.296 121.613 120.952 132.773 107.246 132.529C103.881 132.492 100.557 131.784 97.4676 130.448C94.3787 129.111 91.5871 127.172 89.2559 124.744C86.9977 122.404 85.2291 119.637 84.0535 116.605C82.8779 113.572 82.3191 110.336 82.4097 107.085C82.7482 93.359 93.9159 82.375 107.395 82.375H107.896C121.494 82.6424 132.563 93.9751 132.556 107.647V107.66Z" fill="#70A6A6"/>
<path d="M73.5439 126.443C72.7249 126.47 71.9025 126.545 71.1039 126.612L70.9211 126.629V70.8661H126.652C126.625 71.2046 126.601 71.5093 126.577 71.8207L126.527 72.3792C126.486 72.8294 126.442 73.2931 126.439 73.767C126.439 75.9807 127.901 77.6563 129.924 77.7544C131.948 77.8526 133.562 76.3801 133.823 74.1766C134.513 68.3195 134.377 62.3945 133.42 56.575C131.288 43.4788 125.921 32.119 117.467 22.8071C101.429 5.1379 81.3918 -2.32583 57.9056 0.629201C42.1759 2.60599 28.6528 9.70077 17.7151 21.7172C4.3036 36.4483 -1.53749 54.0093 0.344109 73.9126C1.69778 88.2138 7.21737 100.809 16.7438 111.35C30.443 126.507 47.3199 134.164 66.9955 134.164C69.2899 134.164 71.6228 134.06 73.994 133.853C75.0615 133.793 76.0709 133.347 76.8333 132.597C77.1803 132.228 77.4436 131.789 77.6054 131.31C77.7672 130.83 77.8236 130.321 77.7707 129.818C77.588 127.75 75.8519 126.379 73.5439 126.443ZM70.9279 28.7003V7.90676C73.6995 8.54651 76.2918 9.95802 79.0093 12.2868C83.5576 16.1896 87.1076 21.267 90.4512 28.6901L70.9279 28.7003ZM105.362 63.2975C104.986 53.4169 103.643 44.5417 101.264 36.2351H103.331C108.408 36.2351 113.166 36.2351 118.015 36.2622C118.106 36.2973 118.187 36.353 118.252 36.4246C123.182 44.5726 126.063 53.7949 126.648 63.3008L105.362 63.2975ZM109.112 28.7883C105.964 28.7883 102.709 28.7883 99.5073 28.8188C98.8575 28.8188 98.6883 28.7104 98.4412 28.0842C96.0723 21.9711 93.1112 16.7752 89.436 12.2022C89.26 11.9856 89.0975 11.7723 88.9013 11.5557C98.1826 15.2217 106.403 21.146 112.817 28.7917L109.112 28.7883ZM70.8704 63.3144V36.34H93.3447C96.1056 45.0731 97.6242 54.1513 97.8558 63.3076L70.8704 63.3144ZM63.3033 105.49V126.274C60.5012 125.62 57.8887 124.209 55.1813 121.873C50.5991 117.937 47.0593 112.859 43.7529 105.48L63.3033 105.49ZM43.7462 28.6732C46 20.4072 56.9445 8.84438 63.327 7.95415V28.6732H43.7462ZM56.738 97.9759C51.787 97.9759 46.6667 97.9759 41.6277 98.0063C40.9847 98.0063 40.8866 97.9353 40.6835 97.2786C38.1488 89.1616 36.7274 80.5199 36.345 70.8864H63.3101V97.9657C63.1443 97.9657 62.9717 97.986 62.8228 97.986L56.738 97.9759ZM28.8761 70.8966C29.1222 80.056 30.4917 89.1504 32.954 97.9759H30.5073C25.986 97.9759 21.3091 97.9759 16.7134 97.9454C16.4176 97.927 16.135 97.8169 15.9046 97.6306C11.0009 89.5254 8.14582 80.347 7.58625 70.8898L28.8761 70.8966ZM25.5224 105.423H28.091C30.3076 105.423 32.5953 105.44 34.8593 105.392C35.4177 105.392 35.5362 105.453 35.7257 105.974C38.142 112.179 41.1031 117.412 44.7716 121.978C44.907 122.151 45.0491 122.317 45.1878 122.493C35.9389 118.908 28.1214 113.296 21.4106 105.423H25.5224ZM37.7054 23.5857C37.3162 24.3879 36.9711 25.2104 36.636 26.0093C36.301 26.8081 35.9592 27.6137 35.5835 28.3787C35.483 28.5374 35.3415 28.666 35.1741 28.7511C31.1435 28.7951 27.1265 28.7951 22.876 28.7917H21.3937C28.0064 21.0064 35.7798 15.3942 45.0491 11.7486C42.1607 15.4001 39.7002 19.3705 37.7156 23.5823L37.7054 23.5857ZM46.9578 63.3821H36.3585C36.5921 54.18 38.1175 45.0565 40.8899 36.2791H63.3879C63.3879 36.3569 63.3879 36.4348 63.3879 36.5059V44.9682C63.3879 50.964 63.3879 56.9598 63.3879 62.9556C63.3925 63.0971 63.3846 63.2386 63.3643 63.3787C63.2715 63.3945 63.1774 63.4013 63.0834 63.399C57.7397 63.3855 52.2946 63.3821 46.9578 63.3821ZM32.9439 36.2453C30.4857 45.0642 29.1218 54.1521 28.8829 63.3042H7.4678C7.56256 62.6036 7.65732 61.9029 7.74869 61.209C8.03973 58.9817 8.31723 56.8763 8.74025 54.7776C10.0276 48.422 12.4008 42.3359 15.7557 36.7868C15.8921 36.567 16.0865 36.3889 16.3174 36.2723C21.1568 36.2249 26.0808 36.2351 30.8457 36.2419L32.9439 36.2453Z" fill="#70A6A6"/>
<path d="M120.168 114.89L119.701 114.427L112.719 107.467L114.333 105.853C116.557 103.635 118.733 101.452 120.909 99.2791C121.377 98.8289 121.792 98.3257 122.144 97.7795C122.578 97.0736 122.756 96.24 122.648 95.4185C122.54 94.597 122.153 93.8375 121.552 93.2675C120.956 92.7003 120.187 92.3494 119.368 92.2709C118.549 92.1923 117.727 92.3907 117.034 92.8342C116.544 93.1728 116.091 93.5607 115.68 93.9918L110.942 98.7307L107.839 101.835L107.45 102.204L105.805 100.552C103.633 98.3719 101.497 96.2259 99.3517 94.0866C98.8711 93.5753 98.3275 93.1272 97.734 92.753C97.1312 92.3771 96.4268 92.1975 95.7177 92.2387C95.0086 92.2799 94.3297 92.54 93.7745 92.9831C92.4209 93.9715 91.9403 95.3526 92.4209 96.7573C92.7454 97.6697 93.2651 98.5003 93.9437 99.1911C96.0825 101.388 98.2992 103.591 100.441 105.734L102.184 107.474C102.052 107.616 101.924 107.752 101.792 107.884C100.847 108.835 99.8999 109.779 98.9523 110.727C97.2873 112.392 95.6257 114.059 93.9674 115.726C93.5323 116.141 93.1451 116.603 92.8134 117.104C92.3815 117.794 92.1927 118.609 92.2772 119.419C92.3616 120.228 92.7144 120.987 93.2794 121.573C93.8443 122.159 94.5891 122.539 95.3951 122.653C96.2011 122.767 97.022 122.608 97.7272 122.202C98.3141 121.826 98.8538 121.382 99.3347 120.878C101.497 118.722 103.656 116.559 105.846 114.362L107.48 112.721L108.75 114L112.76 118.038L113.623 118.908C114.432 119.731 115.271 120.58 116.13 121.393C116.911 122.2 117.973 122.675 119.095 122.72C119.573 122.713 120.046 122.61 120.483 122.415C120.92 122.22 121.312 121.938 121.636 121.586C123.173 120.022 123.065 117.913 121.356 116.089C120.956 115.665 120.557 115.269 120.168 114.89Z" fill="#00CDB8"/>
</svg>
