<svg width="177" height="46" viewBox="0 0 177 46" fill="none" xmlns="http://www.w3.org/2000/svg">
<path d="M75.8325 14.5538H76.7179V32.909H75.208V18.0161L67.7076 30.0459L60.236 18.0161V32.9108H58.7244V14.5556H59.5845L67.7076 27.4438L75.8325 14.5538Z" fill="white"/>
<path d="M162.529 32.9271C162.416 33.0397 162.273 33.1163 162.117 33.1474C161.961 33.1784 161.799 33.1625 161.652 33.1017C161.505 33.0408 161.38 32.9377 161.291 32.8054C161.203 32.6731 161.156 32.5176 161.156 32.3585C161.156 32.1994 161.203 32.0438 161.291 31.9115C161.38 31.7792 161.505 31.6761 161.652 31.6153C161.799 31.5544 161.961 31.5385 162.117 31.5696C162.273 31.6006 162.416 31.6773 162.529 31.7898C162.677 31.942 162.76 32.146 162.76 32.3585C162.76 32.5709 162.677 32.7749 162.529 32.9271Z" fill="white"/>
<path d="M164.419 22.5599C164.421 22.4547 164.443 22.3508 164.485 22.2542C164.527 22.1576 164.587 22.0703 164.663 21.9974C164.739 21.9244 164.829 21.8672 164.927 21.8291C165.025 21.7909 165.129 21.7727 165.235 21.7753C165.338 21.7746 165.44 21.7944 165.536 21.8336C165.631 21.8727 165.718 21.9305 165.791 22.0035C165.864 22.0765 165.922 22.1633 165.961 22.2588C166 22.3543 166.02 22.4567 166.019 22.5599C166.02 22.664 166.001 22.7674 165.962 22.864C165.923 22.9606 165.866 23.0487 165.793 23.1231C165.72 23.1974 165.633 23.2567 165.537 23.2975C165.442 23.3383 165.339 23.3597 165.235 23.3607C165.129 23.3616 165.023 23.3417 164.925 23.3019C164.826 23.2622 164.737 23.2035 164.661 23.1291C164.585 23.0548 164.525 22.9662 164.484 22.8686C164.442 22.7709 164.42 22.666 164.419 22.5599ZM164.589 33.0655V24.7445H165.864V33.0655H164.589Z" fill="white"/>
<path d="M169.064 31.9121C168.648 31.5248 168.316 31.0558 168.089 30.5344C167.862 30.013 167.745 29.4504 167.745 28.8817C167.745 28.313 167.862 27.7504 168.089 27.229C168.316 26.7077 168.648 26.2386 169.064 25.8513C169.491 25.4403 169.995 25.1176 170.547 24.9014C171.099 24.6853 171.688 24.58 172.28 24.5916C172.87 24.579 173.457 24.6838 174.007 24.9001C174.556 25.1164 175.057 25.4397 175.48 25.8513C175.9 26.2354 176.236 26.7037 176.463 27.2258C176.691 27.7479 176.807 28.3121 176.802 28.8817C176.808 29.453 176.691 30.0189 176.46 30.5415C176.229 31.064 175.89 31.5313 175.464 31.9121C175.042 32.3184 174.545 32.6376 174 32.8516C173.455 33.0656 172.873 33.1701 172.287 33.1592C171.091 33.1826 169.933 32.7347 169.064 31.9121ZM174.587 26.6521C174.285 26.3522 173.926 26.116 173.531 25.9574C173.136 25.7988 172.713 25.7211 172.287 25.7289C171.858 25.7212 171.432 25.7989 171.033 25.9574C170.634 26.1158 170.271 26.352 169.964 26.6521C169.662 26.938 169.421 27.2825 169.257 27.6647C169.092 28.0468 169.007 28.4585 169.007 28.8745C169.007 29.2906 169.092 29.7022 169.257 30.0844C169.421 30.4665 169.662 30.811 169.964 31.0969C170.271 31.397 170.634 31.6332 171.033 31.7917C171.432 31.9501 171.858 32.0278 172.287 32.0201C172.714 32.0289 173.138 31.9516 173.535 31.793C173.931 31.6344 174.291 31.3977 174.594 31.0969C174.897 30.811 175.137 30.4665 175.302 30.0844C175.466 29.7022 175.551 29.2906 175.551 28.8745C175.551 28.4585 175.466 28.0468 175.302 27.6647C175.137 27.2825 174.897 26.938 174.594 26.6521H174.587Z" fill="white"/>
<path d="M141.534 14.4008H143.154V33.0655H139.895V21.5233L133.672 30.7891L127.451 21.5233V33.0655H124.194V14.4008H125.814L133.676 25.7594L141.534 14.4008Z" fill="#00CDB8"/>
<path d="M157.531 31.0806C156.026 32.4769 154.05 33.2529 151.997 33.2529C149.945 33.2529 147.968 32.4769 146.464 31.0806C144.929 29.6248 144.16 27.9026 144.16 25.8619C144.16 23.8213 144.929 22.0829 146.464 20.6199C147.968 19.2236 149.945 18.4476 151.997 18.4476C154.05 18.4476 156.026 19.2236 157.531 20.6199C159.065 22.0763 159.833 23.8237 159.834 25.8619C159.829 27.9026 159.06 29.6248 157.531 31.0806ZM155.333 22.5814C154.896 22.1446 154.375 21.8001 153.802 21.5683C153.229 21.3365 152.615 21.222 151.997 21.2318C151.375 21.222 150.758 21.3363 150.18 21.5681C149.603 21.7998 149.078 22.1443 148.636 22.5814C148.2 23.0071 147.853 23.5157 147.617 24.0772C147.38 24.6388 147.259 25.2419 147.259 25.8512C147.259 26.4604 147.38 27.0635 147.617 27.6251C147.853 28.1866 148.2 28.6952 148.636 29.1209C149.078 29.5583 149.603 29.9032 150.18 30.1352C150.757 30.3673 151.375 30.4819 151.997 30.4723C152.615 30.4821 153.229 30.3676 153.802 30.1354C154.376 29.9032 154.896 29.5582 155.333 29.1209C155.777 28.6996 156.13 28.1925 156.372 27.6303C156.613 27.0682 156.737 26.4629 156.737 25.8512C156.737 25.2394 156.613 24.6341 156.372 24.072C156.13 23.5098 155.777 23.0027 155.333 22.5814Z" fill="#00CDB8"/>
<path d="M92.9577 26.3947H80.3016C80.4451 27.8916 81.1443 29.2804 82.2613 30.2871C83.365 31.2783 84.8018 31.8168 86.285 31.7951C88.3239 31.7951 90.2026 31.0015 91.3417 29.5457L92.3747 30.3915C91.025 32.1136 88.7216 33.1718 86.0763 33.1718C83.9583 33.1718 82.2109 32.4519 80.8343 31.0537C79.4846 29.6519 78.7954 27.9027 78.7954 25.8657C78.7954 23.7998 79.4846 22.0525 80.8343 20.647C82.2109 19.2452 83.9583 18.529 86.0763 18.529C88.1943 18.529 89.8373 19.2182 91.0808 20.5949C92.3243 21.9715 92.9613 23.771 92.9613 25.9682L92.9577 26.3947ZM82.1029 21.3381C81.0476 22.3499 80.4062 23.718 80.3034 25.1764H91.4767C91.2967 21.9733 89.2795 19.8031 86.0781 19.8031C84.4855 19.8031 83.1611 20.3051 82.1029 21.3381Z" fill="white"/>
<path d="M95.1736 25.9701C95.1736 23.7729 95.8088 21.9733 97.0541 20.5967C98.2994 19.22 99.9657 18.5308 102.057 18.5308C104.148 18.5308 105.922 19.2506 107.299 20.6489C108.675 22.0471 109.338 23.7998 109.338 25.8675C109.338 27.9046 108.65 29.6465 107.299 31.0555C105.947 32.4646 104.175 33.1736 102.057 33.1736C99.4097 33.1736 97.1063 32.1155 95.7584 30.3933L96.7896 29.5475C97.9287 31.0034 99.8092 31.797 101.848 31.797C103.331 31.8182 104.768 31.2798 105.872 30.2889C106.989 29.2822 107.688 27.8934 107.831 26.3966H95.1736V25.9701ZM102.057 19.8031C98.8536 19.8031 96.8381 21.9733 96.6582 25.1765H107.831C107.729 23.7181 107.087 22.35 106.032 21.3381C104.97 20.3052 103.646 19.8031 102.057 19.8031Z" fill="white"/>
<path d="M119.56 20.0927H114.291V28.1906C114.291 30.6002 115.299 31.8185 117.284 31.8185C118.032 31.8206 118.777 31.7409 119.508 31.5809V32.828C118.631 33.0794 117.721 33.1953 116.809 33.1717C114.469 33.1717 112.785 31.6367 112.785 28.9626V20.0927H110.266V18.7917H112.785V13.1034H114.293V18.7917H119.56V20.0927Z" fill="white"/>
<rect x="1.03448" y="1.03448" width="43.931" height="43.931" rx="6.75862" fill="#002430" stroke="#00CDB8" stroke-width="1.93104"/>
<path d="M22.9981 15.0347H24.3957V30.8736H21.5835V21.1315L16.2133 29.0595L10.8442 21.1315V30.8736H8.03345V15.0347H9.43098L16.2168 24.7576L22.9981 15.0347Z" fill="white"/>
<path d="M33.2527 22.2584C33.7605 22.581 34.1678 23.0393 34.4287 23.5815L34.4709 23.6697L36.9959 22.5426L36.9249 22.3956C36.4396 21.3838 35.6793 20.529 34.731 19.929C33.7828 19.329 32.6847 19.008 31.5626 19.0027H31.5361V21.7591H31.5587C32.1589 21.7639 32.7458 21.9369 33.2527 22.2584Z" fill="#00CDB8"/>
<path d="M34.7392 24.7388C34.7455 24.8177 34.749 24.8966 34.749 24.975C34.7483 25.564 34.5859 26.1414 34.2795 26.6443C33.9731 27.1473 33.5346 27.5565 33.0116 27.8273C32.4887 28.0981 31.9014 28.2202 31.3138 28.1801C30.7263 28.1401 30.161 27.9395 29.6796 27.6003C29.1982 27.261 28.8192 26.7961 28.5839 26.2562C28.3486 25.7164 28.266 25.1222 28.3452 24.5387C28.4244 23.9551 28.6623 23.4045 29.0329 22.9468C29.4035 22.4891 29.8927 22.142 30.4471 21.9433L29.5161 19.3491C28.2384 19.8086 27.1552 20.6894 26.4447 21.8465C25.7343 23.0036 25.4389 24.3681 25.6071 25.7154C25.7754 27.0627 26.3973 28.3126 27.3705 29.2595C28.3437 30.2063 29.6102 30.7936 30.9616 30.9248C31.153 30.9428 31.3445 30.952 31.5359 30.9523C33.121 30.9523 34.6412 30.3228 35.7623 29.2022C36.8834 28.0816 37.5135 26.5616 37.5141 24.9765C37.5141 24.8292 37.5083 24.6813 37.4965 24.533L34.7392 24.7388Z" fill="white"/>
<path d="M31.5366 15.6148V17.7993C32.9236 17.8006 34.2807 18.2027 35.4444 18.9574C36.6081 19.712 37.529 20.7869 38.096 22.0526L40.0894 21.1632L40.6191 20.9266C39.8362 19.1721 38.5618 17.6819 36.9499 16.6363C35.3381 15.5907 33.4579 15.0343 31.5366 15.0346V15.6148Z" fill="#00CDB8"/>
</svg>
