<svg width="20" height="20" viewBox="0 0 20 20" fill="none" xmlns="http://www.w3.org/2000/svg">
<path d="M8.95871 14.0625C9.06288 14.1667 9.27121 14.2708 9.47954 14.2708C9.68788 14.2708 9.89621 14.1667 10.0004 14.0625L12.0837 11.9792C12.3962 11.6667 12.3962 11.25 12.0837 10.9375C11.7712 10.625 11.3545 10.625 11.042 10.9375L9.47954 12.5L8.8545 11.875C8.542 11.5625 8.12534 11.5625 7.81284 11.875C7.70867 11.9792 7.60449 12.1875 7.60449 12.3959C7.60449 12.6042 7.70867 12.8125 7.81284 12.9167L8.95871 14.0625Z" fill="#70A6A6"/>
<path d="M9.89613 17.2913C12.5003 17.2913 14.6878 15.1038 14.6878 12.4996C14.6878 9.89548 12.5003 7.70801 9.89613 7.70801C7.29197 7.70801 5.10449 9.89548 5.10449 12.4996C5.10449 15.1038 7.29197 17.2913 9.89613 17.2913ZM6.56279 12.4996C6.56279 10.6246 8.02113 9.16637 9.89613 9.16637C11.7711 9.16637 13.2295 10.6246 13.2295 12.4996C13.2295 14.3746 11.7711 15.833 9.89613 15.833C8.1253 15.833 6.56279 14.3746 6.56279 12.4996Z" fill="#70A6A6"/>
<path d="M17.7083 1.25001H16.7709V0.729179C16.7709 0.312513 16.4583 0 16.0417 0C15.625 0 15.3125 0.312513 15.3125 0.729179V1.25001H14.375V0.729179C14.375 0.312513 14.0625 0 13.6459 0C13.2292 0 12.9167 0.312513 12.9167 0.729179V1.25001H6.77083V0.729179C6.77083 0.312513 6.45832 0 6.04165 0C5.62498 0 5.31253 0.312513 5.31253 0.729179V1.25001H4.37501V0.729179C4.37501 0.312513 4.0625 0 3.64583 0C3.22916 0 2.91665 0.312513 2.91665 0.729179V1.25001H1.97919C0.833358 1.25001 0 2.18754 0 3.2292V18.0209C0 19.1667 0.937525 20 1.97919 20H17.5C18.6458 20 19.4792 19.0625 19.4792 18.0209V3.2292C19.6875 2.18754 18.8542 1.25001 17.7083 1.25001ZM1.5625 6.3542H18.3334V18.0209C18.3334 18.3334 18.0208 18.6458 17.7083 18.6458H2.18754C1.87504 18.6458 1.5625 18.3334 1.5625 18.0209V6.3542ZM3.75004 3.95838C4.1667 3.95838 4.47915 3.64587 4.47915 3.2292V2.70837H5.41668V3.2292C5.41668 3.64587 5.72919 3.95838 6.14585 3.95838C6.56252 3.95838 6.87503 3.64587 6.87503 3.2292V2.70837H13.0208V3.2292C13.0208 3.64587 13.3333 3.95838 13.75 3.95838C14.1667 3.95838 14.4792 3.64587 14.4792 3.2292V2.70837H15.4166V3.2292C15.4166 3.64587 15.7292 3.95838 16.1458 3.95838C16.5625 3.95838 16.875 3.64587 16.875 3.2292V2.70837H17.8125C18.125 2.70837 18.4375 3.02084 18.4375 3.33334V5.00005H1.6667V3.33334C1.6667 3.02084 1.97918 2.70837 2.29168 2.70837H3.2292V3.2292C3.12504 3.64587 3.43754 3.95838 3.75004 3.95838Z" fill="#70A6A6"/>
</svg>
