<svg width="25" height="17" viewBox="0 0 25 17" fill="none" xmlns="http://www.w3.org/2000/svg">
<path d="M24.2004 2.10034C23.9004 1.90034 23.6004 1.90034 23.4004 2.10034L17.7004 5.00037V2.90027C17.7004 1.40027 16.5003 0.200317 15.1003 0.200317H3.00037C1.60037 0.200317 0.400391 1.40027 0.400391 2.90027V13.6003C0.400391 15.1003 1.60037 16.3003 3.00037 16.3003H15.1003C16.5003 16.3003 17.7004 15.1003 17.7004 13.6003V11.5004L23.4004 14.4003C23.8004 14.6003 24.3003 14.4004 24.6003 14.0004C24.7003 13.9004 24.7004 13.7003 24.7004 13.6003V2.90027C24.6004 2.60027 24.5004 2.30034 24.2004 2.10034ZM15.9004 13.6003C15.9004 14.1003 15.5004 14.5004 15.0004 14.5004H2.90039C2.40039 14.5004 2.00037 14.1003 2.00037 13.6003V2.90027C2.00037 2.40027 2.40039 2.00037 2.90039 2.00037H15.0004C15.5004 2.00037 15.9004 2.40027 15.9004 2.90027V13.6003ZM22.9004 12.2003L17.7004 9.50037V7.00037L22.9004 4.30029V12.2003Z" fill="#70A6A6"/>
</svg>
