<svg width="20" height="20" viewBox="0 0 20 20" fill="none" xmlns="http://www.w3.org/2000/svg">
<path d="M10 20C15.5228 20 20 15.5228 20 10C20 4.47715 15.5228 0 10 0C4.47715 0 0 4.47715 0 10C0 15.5228 4.47715 20 10 20Z" fill="#70A6A6"/>
<g opacity="0.9">
<path opacity="0.9" d="M5.80005 12.6L12.6 5.80005C13.1 5.30005 13.8 5.30005 14.2 5.80005C14.7 6.30005 14.7 7.00009 14.2 7.40009L7.40005 14.2001C6.90005 14.7001 6.20005 14.7001 5.80005 14.2001C5.30005 13.8001 5.30005 13.1 5.80005 12.6Z" fill="#1B3944"/>
<path opacity="0.9" d="M12.6 14.3001L5.80005 7.50012C5.30005 7.00012 5.30005 6.30015 5.80005 5.90015C6.30005 5.40015 7.00005 5.40015 7.40005 5.90015L14.2 12.7001C14.7 13.2001 14.7 13.9001 14.2 14.3001C13.7 14.7001 13 14.7001 12.6 14.3001Z" fill="#1B3944"/>
</g>
</svg>
