<svg width="19" height="19" viewBox="0 0 19 19" fill="none" xmlns="http://www.w3.org/2000/svg">
<path d="M11.2 4.40002H4.39999C1.99999 4.40002 0 6.40002 0 8.80002V14.1C0 16.5 1.99999 18.5 4.39999 18.5H11.2C13.6 18.5 15.6 16.5 15.6 14.1V8.80002C15.5 6.30002 13.6 4.40002 11.2 4.40002ZM13.8 8.70001V14C13.8 15.5 12.6 16.7 11.1 16.7H4.29999C2.79999 16.7 1.59998 15.5 1.59998 14V8.70001C1.59998 7.20001 2.79999 6.00002 4.29999 6.00002H11.1C12.6 6.10002 13.8 7.30001 13.8 8.70001Z" fill="#70A6A6"/>
<path d="M14 0H7.19997C5.79997 0 4.39997 0.700009 3.59997 1.90001C3.29997 2.30001 3.39998 2.80001 3.79998 3.10001C3.99998 3.20001 4.19998 3.3 4.39998 3.2C4.59998 3.2 4.79998 3 4.89998 2.8C5.39998 2.1 6.19997 1.7 7.09997 1.7H13.9C15.4 1.7 16.6 2.90001 16.6 4.40001V11.5C16.6 12 17 12.4 17.5 12.4C18 12.4 18.4 12 18.4 11.5V4.40001C18.3 2.00001 16.4 0 14 0Z" fill="#70A6A6"/>
</svg>
