<svg width="24" height="18" viewBox="0 0 24 18" fill="none" xmlns="http://www.w3.org/2000/svg">
<path d="M21.7617 0.182373H2.23834C0.994818 0.182373 0 1.17718 0 2.4207V14.8559C0 16.0995 0.994818 17.0943 2.23834 17.0943H21.7617C23.0052 17.0943 24 16.0995 24 14.8559V2.4207C24 1.17718 23.0052 0.182373 21.7617 0.182373ZM16.6632 8.63832L22.2591 3.04246V14.2342L16.6632 8.63832ZM17.285 5.65387C15.4197 7.51915 13.5544 9.38445 13.3057 9.5088C12.9326 9.88185 12.4352 10.1306 11.9378 10.1306C11.4404 10.1306 10.943 9.88185 10.5699 9.5088C10.4456 9.38445 4.35233 3.29117 2.8601 1.79894H21.0155C20.5181 2.54505 18.9016 4.03729 17.285 5.65387ZM8.58031 9.88184L9.45078 10.7523C10.0725 11.3741 11.0674 11.8715 12.0622 11.8715C13.057 11.8715 13.9275 11.4984 14.6736 10.7523L15.544 9.88184L21.1399 15.4777H2.98445L8.58031 9.88184ZM7.33679 8.63832L1.74093 14.2342V3.04246L7.33679 8.63832Z" fill="#70A6A6"/>
</svg>
