<svg width="22" height="19" viewBox="0 0 22 19" fill="none" xmlns="http://www.w3.org/2000/svg">
<path d="M0.0015533 2.39869C0.11779 2.0629 0.187209 1.69912 0.359412 1.39723C0.881401 0.472177 1.70475 0.0158398 2.76325 0.00722964C4.30985 -0.00514743 5.85645 0.000772036 7.40304 0.00722964C8.25545 0.00722964 8.97278 0.322038 9.55558 0.95273C10.1879 1.63616 10.839 2.30183 11.474 2.98257C11.5955 3.11828 11.7452 3.22571 11.9126 3.2973C12.0801 3.36889 12.2612 3.4029 12.4432 3.39693C14.6915 3.39047 16.9398 3.39047 19.1882 3.39693C20.5561 3.39693 21.6227 4.22404 21.9257 5.51825C21.9755 5.74803 21.9989 5.98274 21.9956 6.21783C22.0003 9.41075 22.0012 12.6037 21.9983 15.7966C21.9983 17.4514 20.8289 18.625 19.1731 18.6261C14.3755 18.6283 9.578 18.6283 4.78072 18.6261C4.01441 18.6261 3.2465 18.6487 2.48343 18.5997C1.23765 18.5206 0.245866 17.5821 0.0392225 16.3525C0.0293085 16.3113 0.0161736 16.271 -6.10352e-05 16.232L0.0015533 2.39869ZM10.9795 16.9654H19.1413C19.9227 16.9654 20.3382 16.5559 20.3387 15.7788C20.3387 12.6003 20.3387 9.42134 20.3387 6.24204C20.3426 6.10645 20.3297 5.9709 20.3005 5.83844C20.1746 5.34767 19.7661 5.05976 19.2048 5.05923C16.9422 5.05923 14.6795 5.05923 12.4168 5.05923C12.0185 5.06702 11.6231 4.9894 11.2573 4.8316C10.8915 4.6738 10.5637 4.43948 10.296 4.1444C9.65352 3.46097 8.99968 2.7883 8.36253 2.09949C8.23793 1.95685 8.0831 1.84376 7.90931 1.76846C7.73552 1.69315 7.54713 1.65752 7.35784 1.66414C5.85429 1.67329 4.35075 1.66737 2.8472 1.66791C2.08413 1.66791 1.66331 2.08496 1.66331 2.84857C1.66331 7.15902 1.66331 11.4693 1.66331 15.7794C1.65912 15.9151 1.67159 16.0508 1.70044 16.1835C1.8269 16.6797 2.23857 16.9665 2.81545 16.967L10.9795 16.9654Z" fill="#70A6A6"/>
</svg>
