<svg width="21" height="14" viewBox="0 0 21 14" fill="none" xmlns="http://www.w3.org/2000/svg">
<path d="M3.35068 12.5602V10.2481H17.2229V12.5602" stroke="#70A6A6" stroke-width="1.18869" stroke-miterlimit="10" stroke-linecap="round" stroke-linejoin="round"/>
<path d="M10.2867 10.2481V12.5602H19.5733V5.62408C18.9349 5.62408 18.4173 5.10645 18.4173 4.46806C18.4173 3.8296 18.9349 3.31205 19.5733 3.31205V1.00001H1V3.31205C1.63847 3.31205 2.15602 3.8296 2.15602 4.46806C2.15602 5.10645 1.63847 5.62408 1 5.62408V12.5602H7.97463V10.2481" stroke="#70A6A6" stroke-width="1.18869" stroke-miterlimit="10" stroke-linecap="round" stroke-linejoin="round"/>
<path d="M5.66293 10.2481V12.5602" stroke="#70A6A6" stroke-width="1.18869" stroke-miterlimit="10" stroke-linecap="round" stroke-linejoin="round"/>
<path d="M12.5996 10.2481V12.5602" stroke="#70A6A6" stroke-width="1.18869" stroke-miterlimit="10" stroke-linecap="round" stroke-linejoin="round"/>
<path d="M14.9111 10.2481V12.5602" stroke="#70A6A6" stroke-width="1.18869" stroke-miterlimit="10" stroke-linecap="round" stroke-linejoin="round"/>
<path d="M6.81887 7.93616H4.50684V3.31209H6.81887V7.93616Z" stroke="#70A6A6" stroke-width="1.18869" stroke-miterlimit="10" stroke-linecap="round" stroke-linejoin="round"/>
<path d="M11.4419 7.93616H9.12988V3.31209H11.4419V7.93616Z" stroke="#70A6A6" stroke-width="1.18869" stroke-miterlimit="10" stroke-linecap="round" stroke-linejoin="round"/>
<path d="M16.0667 7.9361H13.7547V3.31203H16.0667V7.9361Z" stroke="#70A6A6" stroke-width="1.18869" stroke-miterlimit="10" stroke-linecap="round" stroke-linejoin="round"/>
</svg>
