<svg width="19" height="23" viewBox="0 0 19 23" fill="none" xmlns="http://www.w3.org/2000/svg">
<path d="M9.40056 10.9273C10.2441 10.9273 10.9278 10.2435 10.9278 9.40001C10.9278 8.55652 10.2441 7.87274 9.40056 7.87274C8.55707 7.87274 7.87329 8.55652 7.87329 9.40001C7.87329 10.2435 8.55707 10.9273 9.40056 10.9273Z" stroke="#70A6A6" stroke-width="1.6" stroke-miterlimit="10" stroke-linejoin="round"/>
<path d="M17.8002 9.39673C17.8002 4.75935 14.0394 1 9.40024 1C4.76106 1 1.00024 4.75935 1.00024 9.39673C1.00024 13.384 3.78045 16.722 7.50873 17.5797C8.31624 18.9778 9.40024 22 9.40024 22L11.2918 17.5797C15.02 16.722 17.8002 13.384 17.8002 9.39673Z" stroke="#70A6A6" stroke-width="1.6" stroke-miterlimit="10" stroke-linejoin="round"/>
<path d="M13.219 6.34544C15.2554 8.03244 15.2554 10.7675 13.219 12.4545" stroke="#70A6A6" stroke-width="1.6" stroke-miterlimit="10" stroke-linecap="round" stroke-linejoin="round"/>
<path d="M5.58233 6.34544C3.54596 8.03242 3.54596 10.7675 5.58233 12.4545" stroke="#70A6A6" stroke-width="1.6" stroke-miterlimit="10" stroke-linecap="round" stroke-linejoin="round"/>
</svg>
