<svg width="24" height="20" viewBox="0 0 24 20" fill="none" xmlns="http://www.w3.org/2000/svg">
<path d="M8.50488 18.0144C3.80755 16.0842 1.56436 10.7115 3.49459 6.01415C4.4597 3.6655 6.28542 1.93036 8.45707 1.02367" stroke="#70A6A6" stroke-width="1.52" stroke-miterlimit="10" stroke-linecap="round" stroke-linejoin="round"/>
<path d="M15.495 1.00391C20.1923 2.93414 22.4355 8.30686 20.5053 13.0042C19.5402 15.3528 17.7144 17.088 15.5428 17.9947" stroke="#70A6A6" stroke-width="1.52" stroke-miterlimit="10" stroke-linecap="round" stroke-linejoin="round"/>
<path d="M13.4648 11.0684C12.6585 11.8731 11.3512 11.8731 10.5449 11.0684C9.7386 10.2637 9.7386 8.95896 10.5449 8.15419C11.3512 7.34948 12.6585 7.34948 13.4648 8.15419C14.271 8.95896 14.271 10.2637 13.4648 11.0684Z" fill="#70A6A6" stroke="#70A6A6" stroke-width="1.52" stroke-miterlimit="10" stroke-linecap="round" stroke-linejoin="round"/>
<path d="M16.2843 6.013C18.2755 8.00029 18.2755 11.2222 16.2843 13.2095" stroke="#70A6A6" stroke-width="1.52" stroke-miterlimit="10" stroke-linecap="round" stroke-linejoin="round"/>
<path d="M7.71907 6.01293C5.72792 8.00022 5.72792 11.2222 7.71907 13.2095" stroke="#70A6A6" stroke-width="1.52" stroke-miterlimit="10" stroke-linecap="round" stroke-linejoin="round"/>
</svg>
