<svg width="18" height="18" viewBox="0 0 18 18" fill="none" xmlns="http://www.w3.org/2000/svg">
<path d="M9.04449 0H7.62229C7.26673 0 7 0.266623 7 0.622179V2.04449C7 2.40004 7.26673 2.66667 7.62229 2.66667H9.04449C9.40004 2.66667 9.66667 2.40004 9.66667 2.04449V0.622179C9.66667 0.266623 9.40004 0 9.04449 0Z" fill="#70A6A6"/>
<path d="M12.3327 4.71111V3.2888C12.3327 2.93325 12.0661 2.66663 11.7105 2.66663H10.2883C9.93275 2.66663 9.66602 2.93325 9.66602 3.2888V4.71111C9.66602 5.06667 9.93275 5.33329 10.2883 5.33329H11.7105C12.0661 5.33329 12.3327 5.06667 12.3327 4.71111Z" fill="#70A6A6"/>
<path d="M11.0444 9H9.62223C9.26668 9 8.99995 8.73338 8.99995 8.37782V6.95551C8.99995 6.59996 8.73332 6.33333 8.37777 6.33333H6.95557C6.60001 6.33333 6.33328 6.06671 6.33328 5.71115V4.28885C6.33328 3.93329 6.06666 3.66667 5.7111 3.66667H4.2889C3.93334 3.66667 3.66661 3.40004 3.66661 3.04449V1.62218C3.66661 1.26662 3.39999 1 3.04443 1H1.62223C1.26668 1 1 1.26662 1 1.62218V3.66667V6.33333V9V11.6667V14.3333V16.3778C1 16.7334 1.26668 17 1.62223 17H3.66661H6.33328H8.99995H11.6666H14.3333H16.3778C16.7333 17 16.9999 16.7334 16.9999 16.3778V14.9555C16.9999 14.6 16.7333 14.3333 16.3778 14.3333H14.9556C14.6 14.3333 14.3333 14.0667 14.3333 13.7112V12.2888C14.3333 11.9333 14.0667 11.6667 13.7111 11.6667H12.2889C11.9333 11.6667 11.6666 11.4 11.6666 11.0445V9.62218C11.6666 9.26662 11.4 9 11.0444 9Z" stroke="#70A6A6" stroke-width="1.6" stroke-miterlimit="10" stroke-linecap="round" stroke-linejoin="round"/>
<path d="M14.3765 0H12.9543C12.5988 0 12.332 0.266623 12.332 0.622179V2.04449C12.332 2.40004 12.5988 2.66667 12.9543 2.66667H14.3765C14.7321 2.66667 14.9987 2.40004 14.9987 2.04449V0.622179C14.9987 0.266623 14.7321 0 14.3765 0Z" fill="#70A6A6"/>
<path d="M12.332 5.95543V7.37774C12.332 7.7333 12.5988 7.99992 12.9543 7.99992H14.3765C14.7321 7.99992 14.9987 7.7333 14.9987 7.37774V5.95543C14.9987 5.59988 14.7321 5.33325 14.3765 5.33325H12.9543C12.5988 5.33325 12.332 5.59988 12.332 5.95543Z" fill="#70A6A6"/>
<path d="M17.6667 4.71124V3.28893C17.6667 2.93337 17.4 2.66675 17.0445 2.66675H15.6223C15.2667 2.66675 15 2.93337 15 3.28893V4.71124C15 5.06679 15.2667 5.33341 15.6223 5.33341H17.0445C17.4 5.33341 17.6667 5.06679 17.6667 4.71124Z" fill="#70A6A6"/>
<path d="M17.6667 10.0445V8.62218C17.6667 8.26662 17.4 8 17.0445 8H15.6223C15.2667 8 15 8.26662 15 8.62218V10.0445C15 10.4 15.2667 10.6667 15.6223 10.6667H17.0445C17.4 10.6667 17.6667 10.4 17.6667 10.0445Z" fill="#70A6A6"/>
</svg>
