<svg width="40" height="35" viewBox="0 0 40 35" fill="none" xmlns="http://www.w3.org/2000/svg">
<path d="M39.8741 6.29591C39.8741 2.79818 37.0759 0 33.5782 0H6.29594C2.79821 0 0 2.79818 0 6.29591V27.9818C0 31.4796 2.79821 34.2777 6.29594 34.2777H27.5154H34.9773C37.5423 34.2777 39.6409 32.1791 39.6409 29.6141V19.8205C39.6409 19.8205 39.6409 19.8205 39.6409 19.5873V6.29591H39.8741ZM6.52907 31.2464C4.89679 31.2464 3.49773 29.8473 3.49773 28.215V6.5291C3.49773 4.89682 4.89679 3.49773 6.52907 3.49773H33.8114C35.4437 3.49773 36.8427 4.89682 36.8427 6.5291V15.6232L30.78 8.86091C30.5469 8.62773 30.0805 8.39455 29.6141 8.39455C29.1478 8.39455 28.6814 8.62773 28.4482 9.0941L16.5559 24.2509L12.5918 18.8877C12.3586 18.4214 11.8923 18.1882 11.4259 18.1882C10.9595 18.1882 10.4932 18.4214 10.26 18.8877L6.76226 23.3182C6.2959 24.0177 6.29591 24.9505 6.99546 25.4168C7.695 25.8832 8.62772 25.8832 9.09408 25.1837L11.1927 22.3855L17.955 31.2464H6.52907ZM35.2105 31.2464H23.7846H21.9191L18.4214 26.5827L29.6141 12.1255L36.8427 20.0536V29.3809C36.8427 30.3137 36.1432 31.2464 35.2105 31.2464Z" fill="#70A6A6"/>
<path d="M10.9595 15.1574C13.5245 15.1574 15.6232 13.0587 15.6232 10.4937C15.6232 7.92872 13.5245 5.83008 10.9595 5.83008C8.39454 5.83008 6.2959 7.92872 6.2959 10.4937C6.52908 13.0587 8.39454 15.1574 10.9595 15.1574ZM10.9595 8.86144C11.8923 8.86144 12.5918 9.56099 12.5918 10.4937C12.5918 11.4264 11.8923 12.126 10.9595 12.126C10.0268 12.126 9.32724 11.4264 9.32724 10.4937C9.56042 9.56099 10.26 8.86144 10.9595 8.86144Z" fill="#70A6A6"/>
</svg>
