<svg width="22" height="22" viewBox="0 0 22 22" fill="none" xmlns="http://www.w3.org/2000/svg">
<g clip-path="url(#clip0_22134_62006)">
<path d="M20.6709 11.6875C20.8532 11.6875 21.0281 11.6151 21.157 11.4861C21.286 11.3572 21.3584 11.1823 21.3584 11C21.3584 10.8177 21.286 10.6428 21.157 10.5139C21.0281 10.3849 20.8532 10.3125 20.6709 10.3125H18.6084V7.5625H20.6709C20.8532 7.5625 21.0281 7.49007 21.157 7.36114C21.286 7.2322 21.3584 7.05734 21.3584 6.875C21.3584 6.69266 21.286 6.5178 21.157 6.38886C21.0281 6.25993 20.8532 6.1875 20.6709 6.1875H18.5396C18.3972 5.50371 18.0499 4.87954 17.5439 4.39809C17.0378 3.91664 16.3972 3.60075 15.7071 3.4925V1.375C15.7071 1.19266 15.6347 1.0178 15.5058 0.888864C15.3769 0.759933 15.202 0.6875 15.0196 0.6875C14.8373 0.6875 14.6624 0.759933 14.5335 0.888864C14.4046 1.0178 14.3321 1.19266 14.3321 1.375V3.4375H11.7334V1.375C11.7334 1.19266 11.661 1.0178 11.532 0.888864C11.4031 0.759933 11.2282 0.6875 11.0459 0.6875C10.8636 0.6875 10.6887 0.759933 10.5598 0.888864C10.4308 1.0178 10.3584 1.19266 10.3584 1.375V3.4375H7.45715V1.375C7.45715 1.19266 7.38472 1.0178 7.25578 0.888864C7.12685 0.759933 6.95198 0.6875 6.76965 0.6875C6.58731 0.6875 6.41244 0.759933 6.28351 0.888864C6.15458 1.0178 6.08215 1.19266 6.08215 1.375V3.55438C5.45567 3.71129 4.88606 4.04152 4.4386 4.50722C3.99114 4.97292 3.68392 5.55525 3.55215 6.1875H1.4209C1.23856 6.1875 1.06369 6.25993 0.934762 6.38886C0.805831 6.5178 0.733398 6.69266 0.733398 6.875C0.733398 7.05734 0.805831 7.2322 0.934762 7.36114C1.06369 7.49007 1.23856 7.5625 1.4209 7.5625H3.4834V10.3125H1.4209C1.23856 10.3125 1.06369 10.3849 0.934762 10.5139C0.805831 10.6428 0.733398 10.8177 0.733398 11C0.733398 11.1823 0.805831 11.3572 0.934762 11.4861C1.06369 11.6151 1.23856 11.6875 1.4209 11.6875H3.4834V14.4375H1.4209C1.23856 14.4375 1.06369 14.5099 0.934762 14.6389C0.805831 14.7678 0.733398 14.9427 0.733398 15.125C0.733398 15.3073 0.805831 15.4822 0.934762 15.6111C1.06369 15.7401 1.23856 15.8125 1.4209 15.8125H3.55215C3.68392 16.4447 3.99114 17.0271 4.4386 17.4928C4.88606 17.9585 5.45567 18.2887 6.08215 18.4456V20.625C6.08215 20.8073 6.15458 20.9822 6.28351 21.1111C6.41244 21.2401 6.58731 21.3125 6.76965 21.3125C6.95198 21.3125 7.12685 21.2401 7.25578 21.1111C7.38472 20.9822 7.45715 20.8073 7.45715 20.625V18.5625H10.3584V20.625C10.3584 20.8073 10.4308 20.9822 10.5598 21.1111C10.6887 21.2401 10.8636 21.3125 11.0459 21.3125C11.2282 21.3125 11.4031 21.2401 11.532 21.1111C11.661 20.9822 11.7334 20.8073 11.7334 20.625V18.5625H14.3321V20.625C14.3321 20.8073 14.4046 20.9822 14.5335 21.1111C14.6624 21.2401 14.8373 21.3125 15.0196 21.3125C15.202 21.3125 15.3769 21.2401 15.5058 21.1111C15.6347 20.9822 15.7071 20.8073 15.7071 20.625V18.5075C16.3972 18.3992 17.0378 18.0834 17.5439 17.6019C18.0499 17.1205 18.3972 16.4963 18.5396 15.8125H20.6709C20.8532 15.8125 21.0281 15.7401 21.157 15.6111C21.286 15.4822 21.3584 15.3073 21.3584 15.125C21.3584 14.9427 21.286 14.7678 21.157 14.6389C21.0281 14.5099 20.8532 14.4375 20.6709 14.4375H18.6084V11.6875H20.6709ZM15.1709 17.1875H6.9209C6.37389 17.1875 5.84928 16.9702 5.46249 16.5834C5.0757 16.1966 4.8584 15.672 4.8584 15.125V6.875C4.8584 6.32799 5.0757 5.80339 5.46249 5.41659C5.84928 5.0298 6.37389 4.8125 6.9209 4.8125H15.1709C15.7179 4.8125 16.2425 5.0298 16.6293 5.41659C17.0161 5.80339 17.2334 6.32799 17.2334 6.875V15.125C17.2334 15.672 17.0161 16.1966 16.6293 16.5834C16.2425 16.9702 15.7179 17.1875 15.1709 17.1875Z" fill="#70A6A6"/>
<path d="M13.75 6.1875H8.25C7.70299 6.1875 7.17839 6.4048 6.79159 6.79159C6.4048 7.17839 6.1875 7.70299 6.1875 8.25V13.75C6.1875 14.297 6.4048 14.8216 6.79159 15.2084C7.17839 15.5952 7.70299 15.8125 8.25 15.8125H13.75C14.297 15.8125 14.8216 15.5952 15.2084 15.2084C15.5952 14.8216 15.8125 14.297 15.8125 13.75V8.25C15.8125 7.70299 15.5952 7.17839 15.2084 6.79159C14.8216 6.4048 14.297 6.1875 13.75 6.1875ZM14.4375 13.75C14.4375 13.9323 14.3651 14.1072 14.2361 14.2361C14.1072 14.3651 13.9323 14.4375 13.75 14.4375H8.25C8.06766 14.4375 7.8928 14.3651 7.76386 14.2361C7.63493 14.1072 7.5625 13.9323 7.5625 13.75V8.25C7.5625 8.06766 7.63493 7.8928 7.76386 7.76386C7.8928 7.63493 8.06766 7.5625 8.25 7.5625H13.75C13.9323 7.5625 14.1072 7.63493 14.2361 7.76386C14.3651 7.8928 14.4375 8.06766 14.4375 8.25V13.75Z" fill="#70A6A6"/>
</g>
<defs>
<clipPath id="clip0_22134_62006">
<rect width="22" height="22" fill="white"/>
</clipPath>
</defs>
</svg>
