<svg width="8" height="10" viewBox="0 0 8 10" fill="none" xmlns="http://www.w3.org/2000/svg">
<path d="M0.313843 6.5L3.51385 9.70001C3.81385 10 4.31385 10 4.61385 9.70001L7.71384 6.60004C8.01384 6.30004 8.01384 5.8 7.71384 5.5C7.41384 5.2 6.91385 5.2 6.61385 5.5L4.81384 7.29999V0.799988C4.81384 0.399988 4.41385 0 4.01385 0C3.61385 0 3.21384 0.399988 3.21384 0.799988V7.20001L1.41385 5.40002C1.21385 5.20002 1.01384 5.20001 0.813843 5.20001C0.613843 5.20001 0.413845 5.30002 0.213845 5.40002C-0.0861554 5.70002 -0.086157 6.2 0.313843 6.5Z" fill="#70A6A6"/>
</svg>
