<svg width="22" height="25" viewBox="0 0 22 25" fill="none" xmlns="http://www.w3.org/2000/svg">
<path d="M8.79207 24.9481V20.8522H0.0307617V0H1.281V7.2667H8.79207V3.15239H9.13239C10.6304 3.15239 12.1293 3.15828 13.6273 3.1465C13.8646 3.1465 13.9869 3.22015 14.0971 3.39913C14.3618 3.83295 14.6603 4.24984 14.9226 4.68292C15.0239 4.85085 15.143 4.90388 15.349 4.90388C17.4102 4.89725 19.4714 4.89946 21.5326 4.89946H21.8769V12.5816H8.7977V8.49967H1.31559V19.6406H8.78403V15.5366C8.91275 15.5292 9.00044 15.5211 9.08814 15.5211C10.6167 15.5211 12.1453 15.5211 13.6739 15.5167C13.7519 15.5085 13.8306 15.5228 13.8992 15.5575C13.9679 15.5923 14.023 15.6457 14.0569 15.7104C14.3385 16.1663 14.6458 16.609 14.9274 17.0656C14.9629 17.134 15.0206 17.1907 15.0926 17.228C15.1646 17.2653 15.2473 17.2814 15.3297 17.2741C17.3804 17.2674 19.4328 17.2696 21.4835 17.2696H21.8657V24.9481H8.79207ZM10.1155 16.7172V23.7762H20.5776V18.4503H20.2317C18.6636 18.4503 17.094 18.4503 15.5276 18.4503C15.1253 18.4503 14.6571 18.5505 14.3481 18.3929C14.0392 18.2352 13.8654 17.8353 13.7246 17.509C13.435 16.8307 12.9362 16.6289 12.1687 16.7055C11.4953 16.7681 10.8082 16.7172 10.1131 16.7172H10.1155ZM20.5744 11.4105V6.08014H20.189C18.3289 6.08014 16.4689 6.08014 14.6096 6.08382C14.4061 6.08382 14.283 6.03668 14.18 5.86286C13.9185 5.4283 13.6208 5.01142 13.357 4.57833C13.3202 4.50008 13.257 4.43469 13.1766 4.39174C13.0962 4.34879 13.003 4.33055 12.9104 4.33969C12.0762 4.35295 11.2419 4.34485 10.4076 4.34558C10.311 4.34558 10.2145 4.35516 10.1203 4.35958V11.4083L20.5744 11.4105Z" fill="#70A6A6"/>
</svg>
