<svg width="22" height="22" viewBox="0 0 22 22" fill="none" xmlns="http://www.w3.org/2000/svg">
<path d="M0 19.096L2.90399 22L16.808 8.09599L13.9039 5.19199L0 19.096ZM2.81596 20.152L1.76 19.096L10.12 10.736L11.176 11.792L2.81596 20.152ZM12.1439 10.912L11.088 9.85599L13.816 7.12798L14.872 8.18398L12.1439 10.912Z" fill="#70A6A6"/>
<path d="M6.42456 8.976L8.00854 6.072L10.9126 4.488L8.00854 2.904L6.42456 0L4.84057 2.904L1.93652 4.488L4.84057 6.072L6.42456 8.976ZM5.63253 3.696L6.42456 2.288L7.21652 3.696L8.6245 4.488L7.21652 5.28L6.42456 6.688L5.63253 5.28L4.22456 4.488L5.63253 3.696Z" fill="#70A6A6"/>
<path d="M18.2166 7.568L19.5366 5.104L22.0006 3.784L19.5366 2.464L18.2166 0L16.8966 2.464L14.4326 3.784L16.8966 5.104L18.2166 7.568ZM19.7126 3.784L18.7445 4.312L18.2166 5.28L17.6886 4.312L16.7206 3.784L17.6886 3.256L18.2166 2.288L18.7445 3.256L19.7126 3.784Z" fill="#70A6A6"/>
<path d="M19.5366 12.496L18.2166 10.032L16.8966 12.496L14.4326 13.816L16.8966 15.136L18.2166 17.6L19.5366 15.136L22.0006 13.816L19.5366 12.496ZM18.7445 14.344L18.2166 15.4L17.6886 14.344L16.6326 13.816L17.6886 13.288L18.2166 12.232L18.7445 13.288L19.8006 13.816L18.7445 14.344Z" fill="#70A6A6"/>
</svg>
