<svg width="22" height="22" viewBox="0 0 22 22" fill="none" xmlns="http://www.w3.org/2000/svg">
<path d="M10.9468 7.56281C9.10382 7.56281 7.49121 9.05239 7.49121 11.0003C7.49121 12.8336 8.98863 14.4378 10.9468 14.4378C12.905 14.4378 14.4024 12.9482 14.4024 11.0003C14.4024 9.05239 12.7898 7.56281 10.9468 7.56281ZM10.9468 12.7191C10.0253 12.7191 9.21901 11.917 9.21901 11.0003C9.21901 10.0836 10.0253 9.28156 10.9468 9.28156C11.8683 9.28156 12.6746 10.0836 12.6746 11.0003C12.6746 11.917 11.8683 12.7191 10.9468 12.7191Z" fill="#70A6A6"/>
<path d="M21.5445 13.5208L19.356 11.8021C19.4712 11.2292 19.4712 10.6562 19.356 10.0833L21.5445 8.36458C21.8901 8.13542 22.0053 7.67708 21.7749 7.21875L19.5864 3.66667C19.356 3.32292 18.8952 3.09375 18.5497 3.32292L15.9004 4.35417C15.4396 4.01042 14.8637 3.66667 14.403 3.4375L14.0574 0.6875C13.9422 0.34375 13.4815 0 13.1359 0H8.75883C8.41327 0 7.95253 0.34375 7.95253 0.6875L7.49178 3.4375C7.03104 3.66667 6.45511 4.01042 5.99436 4.35417L3.34507 3.32292C2.99951 3.09375 2.53877 3.32292 2.3084 3.66667L0.119854 7.33333C-0.110519 7.67708 0.00466716 8.13542 0.350226 8.47917L2.53877 10.1979C2.42358 10.7708 2.42358 11.3437 2.53877 11.9167L0.350226 13.6354C0.00466716 13.8646 -0.110519 14.3229 0.119854 14.7812L2.3084 18.3333C2.53877 18.6771 2.99951 18.9062 3.34507 18.6771L5.99436 17.6458C6.45511 17.9896 7.03104 18.3333 7.49178 18.5625L7.83734 21.3125C7.95253 21.7708 8.29809 22 8.64365 22H13.0207C13.4815 22 13.827 21.6562 13.827 21.3125L14.1726 18.5625C14.7485 18.3333 15.2093 17.9896 15.67 17.6458L18.3193 18.6771C18.6649 18.7917 19.1256 18.6771 19.356 18.3333L21.5445 14.6667C22.0053 14.3229 21.8901 13.75 21.5445 13.5208ZM18.5497 16.7292L16.1308 15.8125C15.7852 15.6979 15.5548 15.6979 15.3245 15.9271C14.7485 16.3854 14.0574 16.7292 13.3663 17.0729C13.0207 17.1875 12.9055 17.4167 12.7904 17.7604L12.4448 20.2812H9.56514L9.21958 17.7604C9.21958 17.4167 8.98921 17.1875 8.64365 17.0729C7.95253 16.8437 7.26141 16.5 6.68548 15.9271C6.45511 15.6979 6.10955 15.6979 5.87917 15.8125L3.46026 16.7292L2.07802 14.3229L4.15138 12.8333C4.38175 12.6042 4.49694 12.375 4.49694 12.0312C4.38175 11.3437 4.38175 10.5417 4.49694 9.85417C4.49694 9.51042 4.38175 9.16667 4.15138 9.05208L1.96284 7.5625L3.34507 5.15625L5.76399 6.07292C6.10955 6.1875 6.33992 6.1875 6.57029 5.95833C7.14622 5.5 7.83734 5.15625 8.52846 4.8125C8.87402 4.8125 9.10439 4.46875 9.21958 4.23958L9.56514 1.71875H12.4448L12.6752 4.23958C12.6752 4.58333 12.9055 4.8125 13.2511 4.92708C13.9422 5.15625 14.6333 5.5 15.2093 6.07292C15.4396 6.30208 15.7852 6.30208 16.0156 6.1875L18.4345 5.27083L19.8167 7.67708L17.7434 9.16667C17.513 9.39583 17.3978 9.625 17.3978 9.96875C17.513 10.6562 17.513 11.4583 17.3978 12.1458C17.3978 12.4896 17.513 12.8333 17.7434 12.9479L19.8167 14.4375L18.5497 16.7292Z" fill="#70A6A6"/>
</svg>
