<svg width="23" height="23" viewBox="0 0 23 23" fill="none" xmlns="http://www.w3.org/2000/svg">
<path d="M10.3021 16.1719C10.4219 16.2917 10.6615 16.4115 10.9011 16.4115C11.1406 16.4115 11.3802 16.2917 11.5 16.1719L13.8958 13.776C14.2552 13.4167 14.2552 12.9375 13.8958 12.5781C13.5365 12.2188 13.0573 12.2188 12.6979 12.5781L10.9011 14.375L10.1823 13.6563C9.82289 13.2969 9.34372 13.2969 8.98435 13.6563C8.86456 13.7761 8.74475 14.0157 8.74475 14.2552C8.74475 14.4948 8.86456 14.7344 8.98435 14.8542L10.3021 16.1719Z" fill="#70A6A6"/>
<path d="M11.3801 19.8854C14.3749 19.8854 16.8906 17.3698 16.8906 14.375C16.8906 11.3802 14.3749 8.86459 11.3801 8.86459C8.38535 8.86459 5.86975 11.3802 5.86975 14.375C5.86975 17.3698 8.38535 19.8854 11.3801 19.8854ZM7.54679 14.375C7.54679 12.2187 9.22389 10.5417 11.3801 10.5417C13.5364 10.5417 15.2135 12.2187 15.2135 14.375C15.2135 16.5312 13.5364 18.2083 11.3801 18.2083C9.34368 18.2083 7.54679 16.5312 7.54679 14.375Z" fill="#70A6A6"/>
<path d="M20.3646 1.43751H19.2865V0.838556C19.2865 0.359389 18.9271 0 18.4479 0C17.9688 0 17.6094 0.359389 17.6094 0.838556V1.43751H16.5312V0.838556C16.5312 0.359389 16.1719 0 15.6927 0C15.2136 0 14.8542 0.359389 14.8542 0.838556V1.43751H7.78645V0.838556C7.78645 0.359389 7.42706 0 6.9479 0C6.46873 0 6.10942 0.359389 6.10942 0.838556V1.43751H5.03126V0.838556C5.03126 0.359389 4.67187 0 4.19271 0C3.71354 0 3.35415 0.359389 3.35415 0.838556V1.43751H2.27607C0.958362 1.43751 0 2.51567 0 3.71358V20.724C0 22.0417 1.07815 23 2.27607 23H20.125C21.4427 23 22.401 21.9219 22.401 20.724V3.71358C22.6406 2.51567 21.6823 1.43751 20.3646 1.43751ZM1.79687 7.30733H21.0834V20.724C21.0834 21.0834 20.7239 21.4427 20.3646 21.4427H2.51567C2.15629 21.4427 1.79687 21.0834 1.79687 20.724V7.30733ZM4.31254 4.55214C4.79171 4.55214 5.15102 4.19275 5.15102 3.71358V3.11463H6.22918V3.71358C6.22918 4.19275 6.58857 4.55214 7.06773 4.55214C7.5469 4.55214 7.90629 4.19275 7.90629 3.71358V3.11463H14.9739V3.71358C14.9739 4.19275 15.3333 4.55214 15.8125 4.55214C16.2917 4.55214 16.6511 4.19275 16.6511 3.71358V3.11463H17.7291V3.71358C17.7291 4.19275 18.0885 4.55214 18.5677 4.55214C19.0469 4.55214 19.4063 4.19275 19.4063 3.71358V3.11463H20.4844C20.8438 3.11463 21.2031 3.47397 21.2031 3.83335V5.75005H1.91671V3.83335C1.91671 3.47397 2.27605 3.11463 2.63543 3.11463H3.71358V3.71358C3.59379 4.19275 3.95317 4.55214 4.31254 4.55214Z" fill="#70A6A6"/>
</svg>
