<svg width="23" height="22" viewBox="0 0 23 22" fill="none" xmlns="http://www.w3.org/2000/svg">
<path d="M15.6714 0.180823C15.1892 -0.0602745 14.707 -0.0602745 14.2248 0.180823L4.94248 5.84656H3.01372C1.32604 5.84656 0 7.1726 0 8.86029V13.0795C0 14.7672 1.32604 16.0932 3.01372 16.0932H4.58092L14.2248 21.759C14.4659 21.8795 14.707 22 14.9481 22C15.1892 22 15.4303 21.8795 15.6714 21.759C16.1536 21.5179 16.3946 21.0357 16.3946 20.5535V1.38631C16.5152 0.904117 16.1536 0.421921 15.6714 0.180823ZM4.09869 14.4057H3.01372C2.29043 14.4057 1.80823 13.8029 1.80823 13.2002V8.98095C1.80823 8.25766 2.41098 7.77546 3.01372 7.77546H4.09869V14.4057ZM14.5864 19.9507L5.90693 14.8877V7.41376L14.5864 2.10943V19.9507Z" fill="white"/>
<path d="M18.9268 5.96741C18.4446 5.96741 18.083 6.329 18.083 6.81119V15.9727C18.083 16.4549 18.4446 16.8168 18.9268 16.8168C19.409 16.8168 19.7707 16.4549 19.7707 15.9727V6.81119C19.7707 6.329 19.409 5.96741 18.9268 5.96741Z" fill="white"/>
<path d="M22.0607 2.95367C21.5785 2.95367 21.2168 3.31526 21.2168 3.79746V18.7454C21.2168 19.2276 21.5785 19.5892 22.0607 19.5892C22.5429 19.5892 22.9045 19.2276 22.9045 18.7454V3.79746C22.9045 3.31526 22.5429 2.95367 22.0607 2.95367Z" fill="white"/>
</svg>
