<svg width="26" height="23" viewBox="0 0 26 23" fill="none" xmlns="http://www.w3.org/2000/svg">
<path d="M1 5.0678V3.0339C1 1.91063 1.91063 1 3.0339 1H5.0678" stroke="#70A6A6" stroke-width="1.6" stroke-miterlimit="10" stroke-linecap="round" stroke-linejoin="round"/>
<path d="M20.9321 1H22.966C24.0893 1 24.9999 1.91063 24.9999 3.0339V5.0678" stroke="#70A6A6" stroke-width="1.6" stroke-miterlimit="10" stroke-linecap="round" stroke-linejoin="round"/>
<path d="M24.9999 17.2712V19.3051C24.9999 20.4284 24.0893 21.339 22.966 21.339H20.9321" stroke="#70A6A6" stroke-width="1.6" stroke-miterlimit="10" stroke-linecap="round" stroke-linejoin="round"/>
<path d="M5.0678 21.339H3.0339C1.91063 21.339 1 20.4284 1 19.3051V17.2712" stroke="#70A6A6" stroke-width="1.6" stroke-miterlimit="10" stroke-linecap="round" stroke-linejoin="round"/>
<path d="M15.2213 8.81432L10.5095 13.5261" stroke="#70A6A6" stroke-width="1.6" stroke-miterlimit="10" stroke-linecap="round" stroke-linejoin="round"/>
<path d="M15.8106 11.4753C16.5908 11.3351 17.3622 10.8462 18.058 10.1492L18.2822 9.92208C19.6944 8.50762 20.2477 6.739 18.7725 5.26144C17.295 3.78625 15.5573 4.34101 14.1428 5.75317L13.9157 5.97741C13.2295 6.66246 12.7448 7.42086 12.5962 8.18868" stroke="#70A6A6" stroke-width="1.6" stroke-miterlimit="10" stroke-linecap="round" stroke-linejoin="round"/>
<path d="M13.1704 14.1151C13.0303 14.8952 12.5413 15.6667 11.8443 16.3625L11.6172 16.5867C10.2028 17.9989 8.43415 18.5522 6.9566 17.077C5.4814 15.5994 6.03613 13.8618 7.44829 12.4472L7.67254 12.2202C8.35761 11.534 9.11601 11.0492 9.88384 10.9007" stroke="#70A6A6" stroke-width="1.6" stroke-miterlimit="10" stroke-linecap="round" stroke-linejoin="round"/>
</svg>
