<svg width="8" height="10" viewBox="0 0 8 10" fill="none" xmlns="http://www.w3.org/2000/svg">
<path d="M7.62499 3.42501L4.425 0.225C4.125 -0.075 3.62499 -0.075 3.32499 0.225L0.225 3.32498C-0.075 3.62498 -0.075 4.12501 0.225 4.42501C0.525 4.72501 1.02499 4.72501 1.32499 4.42501L3.12499 2.62502V9.12502C3.12499 9.52502 3.525 9.92501 3.925 9.92501C4.325 9.92501 4.725 9.52502 4.725 9.12502V2.725L6.52499 4.52499C6.72499 4.72499 6.92499 4.725 7.12499 4.725C7.32499 4.725 7.525 4.62499 7.725 4.52499C8.025 4.32499 8.02499 3.82501 7.62499 3.42501Z" fill="#70A6A6"/>
</svg>
