<svg width="22" height="18" viewBox="0 0 22 18" fill="none" xmlns="http://www.w3.org/2000/svg">
<path d="M20.3668 0.547852H1.95149C1.19765 0.547852 0.65918 1.08631 0.65918 1.84015V11.7478C0.65918 12.5016 1.19765 13.0401 1.95149 13.0401H20.3668C21.1206 13.0401 21.6591 12.5016 21.6591 11.7478V1.84015C21.6591 1.194 21.1206 0.547852 20.3668 0.547852ZM20.2591 1.94785V11.6401H2.05919V1.94785H20.2591Z" fill="#70A6A6"/>
<path d="M8.84381 10.2402C8.95151 10.2402 9.05922 10.3479 9.16691 10.3479C9.2746 10.3479 9.38229 10.3479 9.59767 10.2402L13.5822 7.44022C13.7976 7.33253 13.9053 7.11715 13.9053 6.90176C13.9053 6.68638 13.7976 6.471 13.5822 6.3633L9.59767 3.56332C9.38229 3.45562 9.0592 3.34793 8.84381 3.56332C8.62843 3.67101 8.52075 3.88639 8.52075 4.20947V9.91713C8.52075 9.91713 8.62843 10.1325 8.84381 10.2402ZM9.92073 8.30176V5.28639L11.9669 6.79407L9.92073 8.30176Z" fill="#70A6A6"/>
<path d="M21.0132 14.8709H13.1516C12.8286 14.1171 12.1824 13.5786 11.3209 13.5786C10.4594 13.5786 9.81321 14.1171 9.49013 14.8709H1.41325C0.98248 14.8709 0.76709 15.194 0.76709 15.5171C0.76709 15.8401 1.09017 16.1632 1.41325 16.1632H9.49013C9.81321 16.9171 10.4594 17.4555 11.3209 17.4555C12.1824 17.4555 12.8286 16.9171 13.1516 16.1632H21.0132C21.4439 16.1632 21.6593 15.8401 21.6593 15.5171C21.6593 15.194 21.3362 14.8709 21.0132 14.8709ZM11.8594 15.6248C11.8594 15.9478 11.644 16.1632 11.3209 16.1632C10.9978 16.1632 10.7824 15.9478 10.7824 15.6248C10.7824 15.3017 10.9978 15.0863 11.3209 15.0863C11.644 15.0863 11.8594 15.3017 11.8594 15.6248Z" fill="#70A6A6"/>
</svg>
