<svg width="23" height="16" viewBox="0 0 23 16" fill="none" xmlns="http://www.w3.org/2000/svg">
<path d="M8.26927 7.57537C8.26927 7.38593 8.19402 7.20425 8.06006 7.07029C7.92611 6.93634 7.74443 6.86108 7.55499 6.86108H0.714285C0.524845 6.86108 0.343163 6.93634 0.209209 7.07029C0.0752548 7.20425 0 7.38593 0 7.57537C0 7.76481 0.0752548 7.94649 0.209209 8.08044C0.343163 8.2144 0.524845 8.28965 0.714285 8.28965H7.55499C7.74443 8.28965 7.92611 8.2144 8.06006 8.08044C8.19402 7.94649 8.26927 7.76481 8.26927 7.57537Z" fill="#70A6A6"/>
<path d="M21.2874 6.86108H14.4467C14.2573 6.86108 14.0756 6.93634 13.9416 7.07029C13.8077 7.20425 13.7324 7.38593 13.7324 7.57537C13.7324 7.76481 13.8077 7.94649 13.9416 8.08044C14.0756 8.2144 14.2573 8.28965 14.4467 8.28965H21.2874C21.4769 8.28965 21.6585 8.2144 21.7925 8.08044C21.9264 7.94649 22.0017 7.76481 22.0017 7.57537C22.0017 7.38593 21.9264 7.20425 21.7925 7.07029C21.6585 6.93634 21.4769 6.86108 21.2874 6.86108Z" fill="#70A6A6"/>
<path d="M13.1912 5.3851C13.0572 5.25119 12.8756 5.17596 12.6862 5.17596C12.4968 5.17596 12.3151 5.25119 12.1812 5.3851L11.0005 6.56581L9.81977 5.3851C9.68505 5.25499 9.50462 5.18299 9.31734 5.18462C9.13005 5.18624 8.9509 5.26136 8.81847 5.3938C8.68603 5.52623 8.61091 5.70538 8.60929 5.89267C8.60766 6.07995 8.67966 6.26038 8.80977 6.3951L9.99048 7.57581L8.80977 8.75652C8.74155 8.82241 8.68713 8.90123 8.6497 8.98838C8.61226 9.07552 8.59256 9.16925 8.59173 9.26409C8.59091 9.35893 8.60898 9.45299 8.6449 9.54077C8.68081 9.62856 8.73385 9.70831 8.80091 9.77537C8.86798 9.84244 8.94773 9.89548 9.03551 9.93139C9.1233 9.96731 9.21735 9.98538 9.3122 9.98456C9.40704 9.98373 9.50077 9.96403 9.58791 9.92659C9.67506 9.88916 9.75388 9.83474 9.81977 9.76652L11.0005 8.58581L12.1812 9.76652C12.2471 9.83474 12.3259 9.88916 12.413 9.92659C12.5002 9.96403 12.5939 9.98373 12.6888 9.98456C12.7836 9.98538 12.8777 9.96731 12.9654 9.93139C13.0532 9.89548 13.133 9.84244 13.2 9.77537C13.2671 9.70831 13.3201 9.62856 13.3561 9.54077C13.392 9.45299 13.41 9.35893 13.4092 9.26409C13.4084 9.16925 13.3887 9.07552 13.3513 8.98838C13.3138 8.90123 13.2594 8.82241 13.1912 8.75652L12.0105 7.57581L13.1912 6.3951C13.3251 6.26115 13.4003 6.0795 13.4003 5.8901C13.4003 5.70069 13.3251 5.51905 13.1912 5.3851Z" fill="#70A6A6"/>
<path d="M17.5217 9.80782C17.4366 9.76838 17.3445 9.74612 17.2507 9.74229C17.1569 9.73847 17.0633 9.75316 16.9752 9.78553C16.8871 9.8179 16.8063 9.86732 16.7373 9.93095C16.6683 9.99459 16.6125 10.0712 16.5732 10.1564C16.081 11.2208 15.2944 12.1222 14.3064 12.7539C13.3184 13.3856 12.1702 13.7212 10.9975 13.7212C9.82475 13.7212 8.67654 13.3856 7.68851 12.7539C6.70048 12.1222 5.91392 11.2208 5.42176 10.1564C5.34219 9.98438 5.19756 9.85102 5.01966 9.78565C4.84177 9.72028 4.6452 9.72826 4.47319 9.80782C4.30118 9.88739 4.16782 10.032 4.10245 10.2099C4.03708 10.3878 4.04505 10.5844 4.12462 10.7564C4.73112 12.0686 5.70061 13.1798 6.91852 13.9586C8.13643 14.7374 9.55184 15.1513 10.9975 15.1513C12.4431 15.1513 13.8585 14.7374 15.0764 13.9586C16.2943 13.1798 17.2638 12.0686 17.8703 10.7564C17.9097 10.6712 17.932 10.5791 17.9358 10.4854C17.9397 10.3916 17.925 10.298 17.8926 10.2099C17.8602 10.1218 17.8108 10.0409 17.7472 9.97194C17.6835 9.90296 17.6069 9.84719 17.5217 9.80782Z" fill="#70A6A6"/>
<path d="M4.47329 5.34346C4.55845 5.3829 4.65055 5.40516 4.74433 5.40899C4.8381 5.41281 4.93171 5.39812 5.01981 5.36575C5.1079 5.33338 5.18875 5.28396 5.25774 5.22033C5.32672 5.15669 5.38249 5.08009 5.42186 4.99489C5.91402 3.93045 6.70058 3.02913 7.68861 2.39742C8.67664 1.76572 9.82485 1.43004 10.9976 1.43004C12.1703 1.43004 13.3185 1.76572 14.3065 2.39742C15.2945 3.02913 16.0811 3.93045 16.5733 4.99489C16.6528 5.1669 16.7975 5.30026 16.9754 5.36563C17.1533 5.431 17.3498 5.42302 17.5218 5.34346C17.6939 5.26389 17.8272 5.11926 17.8926 4.94136C17.9579 4.76347 17.95 4.5669 17.8704 4.39489C17.2639 3.08264 16.2944 1.97146 15.0765 1.19266C13.8586 0.413857 12.4432 0 10.9976 0C9.55194 0 8.13653 0.413857 6.91862 1.19266C5.70071 1.97146 4.73122 3.08264 4.12472 4.39489C4.08528 4.48005 4.06301 4.57216 4.05919 4.66593C4.05536 4.75971 4.07006 4.85331 4.10243 4.94141C4.1348 5.0295 4.18421 5.11035 4.24785 5.17934C4.31148 5.24832 4.38809 5.30409 4.47329 5.34346Z" fill="#70A6A6"/>
</svg>
