<svg width="22" height="15" viewBox="0 0 22 15" fill="none" xmlns="http://www.w3.org/2000/svg">
<path d="M21.829 6.49742C21.601 6.26944 16.9275 0 11 0C5.07254 0 0.398964 6.26944 0.170984 6.49742C-0.0569948 6.83939 -0.0569948 7.18135 0.170984 7.52332C0.398964 7.7513 5.07254 14.0207 11 14.0207C16.9275 14.0207 21.601 7.7513 21.829 7.52332C22.057 7.18135 22.057 6.7254 21.829 6.49742ZM11 12.3109C6.78238 12.3109 3.13472 8.32125 1.99483 6.95337C3.13472 5.5855 6.78238 1.59585 11 1.59585C15.2176 1.59585 18.8653 5.5855 20.0052 6.95337C18.8653 8.32125 15.2176 12.3109 11 12.3109Z" fill="#70A6A6"/>
<path d="M11 2.5083C8.60625 2.5083 6.55444 4.44612 6.55444 6.95389C6.55444 9.46166 8.49226 11.3995 11 11.3995C13.5078 11.3995 15.4456 9.46166 15.4456 6.95389C15.4456 4.44612 13.3938 2.5083 11 2.5083ZM11 9.68963C9.51817 9.68963 8.26429 8.43575 8.26429 6.95389C8.26429 5.47202 9.51817 4.21815 11 4.21815C12.4819 4.21815 13.7358 5.47202 13.7358 6.95389C13.7358 8.43575 12.4819 9.68963 11 9.68963Z" fill="#70A6A6"/>
</svg>
