<svg width="20" height="20" viewBox="0 0 20 20" fill="none" xmlns="http://www.w3.org/2000/svg">
<path d="M16.292 14.5127C15.6365 14.6719 15.0436 14.8187 14.4496 14.959C13.7303 15.1289 13.1817 14.6559 13.2378 13.9195C13.2679 13.5182 13.5301 13.2287 13.9789 13.1198C14.9238 12.8907 15.8686 12.6675 16.8135 12.4414C17.1506 12.3609 17.4872 12.2792 17.8238 12.1993C18.4026 12.0614 18.898 12.3597 19.0362 12.9345C19.3476 14.2266 19.6572 15.5192 19.9651 16.8124C20.1021 17.3896 19.8281 17.8555 19.2836 17.9851C18.7185 18.1195 18.2703 17.8353 18.1268 17.2481C18.0087 16.7674 17.8947 16.2862 17.7778 15.8055C17.7778 15.7931 17.7607 15.7824 17.7388 15.7552C17.5617 15.9517 17.3934 16.1524 17.2115 16.34C14.9999 18.628 12.2995 19.6935 9.13186 19.4366C4.75369 19.0814 1.13966 15.8404 0.236739 11.5316C0.167554 11.2063 0.118056 10.8772 0.0885154 10.546C0.0430448 9.98004 0.397362 9.54851 0.928838 9.49641C1.45086 9.4461 1.88313 9.79239 1.95104 10.3488C2.15891 12.0549 2.78605 13.5809 3.94289 14.856C5.71448 16.8095 7.92955 17.7276 10.5633 17.5494C12.8002 17.3979 14.6433 16.4247 16.1143 14.7346C16.1645 14.6802 16.2058 14.6216 16.292 14.5127Z" fill="#70A6A6"/>
<path d="M3.70724 4.92296L5.00641 4.61218C5.20719 4.56364 5.40619 4.508 5.60815 4.46656C6.13077 4.35942 6.57662 4.65066 6.70831 5.17987C6.83468 5.68718 6.57485 6.17554 6.06522 6.30459C4.72669 6.63766 3.38659 6.95831 2.04491 7.26652C1.58548 7.37248 1.10715 7.07117 0.989043 6.5982C0.654804 5.2588 0.33218 3.91604 0.0211688 2.56993C-0.08926 2.09636 0.244979 1.61629 0.729803 1.49671C0.965194 1.43818 1.21408 1.47395 1.42358 1.59642C1.63309 1.71889 1.7867 1.91841 1.85181 2.1526C1.98881 2.65695 2.09983 3.16781 2.23033 3.71004C2.3945 3.52535 2.53741 3.36019 2.68504 3.19918C4.16668 1.58846 6.01089 0.650213 8.13089 0.185527C12.3992 -0.749174 18.5201 1.84774 19.7761 7.98101C19.8322 8.25568 19.8641 8.53568 19.9066 8.8133C19.9987 9.41355 19.6881 9.8729 19.1389 9.954C18.5384 10.0428 18.1014 9.69473 18.0311 9.06311C17.9348 8.19648 17.7264 7.35827 17.3461 6.57689C16.0469 3.89769 13.9269 2.28697 10.9684 1.92884C8.13739 1.5855 5.76819 2.56815 3.87791 4.71104C3.83008 4.7578 3.78933 4.81641 3.70724 4.92296Z" fill="#70A6A6"/>
</svg>
