<svg width="21" height="21" viewBox="0 0 21 21" fill="none" xmlns="http://www.w3.org/2000/svg">
<path d="M20.2025 18.7479L16.7645 15.3099C17.9545 13.7231 18.7479 11.7397 18.7479 9.62396C18.7479 4.59917 14.6488 0.5 9.62396 0.5C4.59917 0.5 0.5 4.59917 0.5 9.62396C0.5 14.6488 4.59917 18.7479 9.62396 18.7479C11.7397 18.7479 13.7232 17.9546 15.3099 16.7645L18.7479 20.2025C19.1446 20.5992 19.8058 20.5992 20.2025 20.2025C20.5992 19.8058 20.5992 19.1446 20.2025 18.7479ZM2.74793 9.62396C2.74793 5.78925 5.92149 2.61571 9.7562 2.61571C13.5909 2.61571 16.7645 5.78925 16.7645 9.62396C16.7645 11.6074 15.9711 13.3264 14.6488 14.6488C13.3265 15.9711 11.6074 16.7645 9.62396 16.7645C5.92148 16.7645 2.74793 13.5909 2.74793 9.62396Z" fill="#70A6A6"/>
</svg>
