<svg width="27" height="22" viewBox="0 0 27 22" fill="none" xmlns="http://www.w3.org/2000/svg">
<path d="M6.80524 16.0018C7.49964 16.0018 7.91634 15.4402 7.91634 14.8788C7.91634 14.177 7.36076 13.7558 6.80524 13.7558C6.11084 13.7558 5.69431 14.3173 5.69431 14.8788C5.69431 15.4402 6.24972 16.0018 6.80524 16.0018Z" fill="#70A6A6"/>
<path d="M26.8036 12.6328L21.2484 1.40365C20.8318 0.561459 19.8597 0 19.0264 0H8.0549C7.08275 0 6.24951 0.561459 5.83287 1.40365L0.277691 12.6328C0.138812 12.9136 0 13.3347 0 13.7558V18.6686C0 20.0722 1.11093 21.1952 2.49973 21.1952H24.4427C25.8315 21.1952 26.9425 20.0722 26.9425 18.6686V13.7558C27.0813 13.3347 26.9425 12.9136 26.8036 12.6328ZM25.276 13.6153V18.5281C25.276 18.9492 24.9982 19.2299 24.5816 19.2299H2.63857C2.22193 19.2299 1.94418 18.9492 1.94418 18.5281V13.6153C1.94418 13.1942 2.22193 12.9135 2.63857 12.9135H24.5816C24.8593 12.9135 25.276 13.1942 25.276 13.6153ZM2.91643 11.089L7.22166 2.24597V2.10547C7.36054 1.82474 7.6383 1.68431 7.91606 1.68431H18.8876C19.1653 1.68431 19.4431 1.82474 19.582 2.10547L24.026 10.9485H2.91643V11.089Z" fill="#70A6A6"/>
<path d="M3.74985 16.0018C4.44425 16.0018 4.86095 15.4402 4.86095 14.8788C4.86095 14.177 4.30537 13.7558 3.74985 13.7558C3.05545 13.7558 2.63875 14.3173 2.63875 14.8788C2.63875 15.4402 3.19433 16.0018 3.74985 16.0018Z" fill="#70A6A6"/>
<path d="M3.47216 16.8438C3.05552 16.8438 2.63875 17.265 2.63875 17.6861C2.63875 18.2475 3.05552 18.5281 3.47216 18.5281H23.4707C23.8873 18.5281 24.3041 18.1072 24.3041 17.6861C24.3041 17.1246 23.8873 16.8438 23.4707 16.8438H3.47216Z" fill="#70A6A6"/>
</svg>
