<svg width="22" height="22" viewBox="0 0 22 22" fill="none" xmlns="http://www.w3.org/2000/svg">
<path d="M10.9997 0.400024C4.99969 0.400024 0.199707 5.20001 0.199707 11.2C0.199707 17.2 4.99969 22 10.9997 22C16.9997 22 21.7997 17.2 21.7997 11.2C21.7997 5.20001 16.9997 0.400024 10.9997 0.400024ZM10.9997 20.4C5.89969 20.4 1.79968 16.3 1.79968 11.2C1.79968 6.10001 5.89969 2 10.9997 2C16.0997 2 20.1997 6.10001 20.1997 11.2C20.1997 16.3 16.0997 20.4 10.9997 20.4Z" fill="#00CDB8"/>
<path d="M15.6996 6.80002L8.4996 14L6.29958 11.8C5.99958 11.5 5.49961 11.5 5.19961 11.8C4.89961 12.1 4.89961 12.6001 5.19961 12.9001L7.9996 15.7C8.1996 15.9 8.3996 15.9001 8.5996 15.9001C8.7996 15.9001 8.99961 15.8 9.19961 15.7L16.8996 8.00003C17.1996 7.70003 17.1996 7.20006 16.8996 6.90006C16.5996 6.60006 15.9996 6.50002 15.6996 6.80002Z" fill="#00CDB8"/>
</svg>
