<svg width="38" height="39" viewBox="0 0 38 39" fill="none" xmlns="http://www.w3.org/2000/svg">
<path d="M19 18.7856V26.0713" stroke="white" stroke-width="3.42857" stroke-miterlimit="10" stroke-linecap="round"/>
<path d="M19 13V13.8571" stroke="white" stroke-width="3.42857" stroke-miterlimit="10" stroke-linecap="round"/>
<path d="M28.4898 10.0894C23.2506 4.85025 14.7493 4.85028 9.51014 10.0895C4.27095 15.3287 4.27092 23.83 9.51011 29.0691C14.7493 34.3083 23.2506 34.3083 28.4898 29.0691C33.729 23.83 33.729 15.3286 28.4898 10.0894ZM10.8941 27.6852C6.44571 23.2368 6.44571 16.1195 10.8941 11.6711C15.3424 7.22275 22.4598 7.22272 26.9082 11.6711C31.3565 16.1195 31.3565 23.2369 26.9082 27.6852C22.4598 32.1336 15.3424 32.1336 10.8941 27.6852Z" fill="white"/>
</svg>
