<svg width="23" height="16" viewBox="0 0 23 16" fill="none" xmlns="http://www.w3.org/2000/svg">
<path d="M22.0065 2.63307C21.7577 2.469 21.5088 2.469 21.2599 2.63307L16.0335 5.25813V3.28932C16.0335 1.9768 14.955 0.828339 13.6277 0.828339H2.42816C1.10081 0.828339 0.0223389 1.89476 0.0223389 3.28932V13.0512C0.0223389 14.3638 1.10081 15.5122 2.42816 15.5122H13.6277C14.955 15.5122 16.0335 14.4458 16.0335 13.0512V11.0824L21.2599 13.7075C21.6747 13.8716 22.1725 13.7075 22.3384 13.3793C22.4213 13.2973 22.4213 13.1333 22.4213 13.0512V3.28932C22.4213 3.04322 22.2554 2.79714 22.0065 2.63307ZM14.4573 13.0512C14.4573 13.4614 14.1254 13.8716 13.6277 13.8716H2.42816C2.01336 13.8716 1.59857 13.5434 1.59857 13.0512V3.28932C1.59857 2.87916 1.9304 2.46899 2.42816 2.46899H13.6277C14.0425 2.46899 14.4573 2.79713 14.4573 3.28932V13.0512ZM20.8451 11.7387L16.0335 9.27771V7.06281L20.8451 4.60183V11.7387Z" fill="#70A6A6"/>
</svg>
