<svg width="18" height="17" viewBox="0 0 18 17" fill="none" xmlns="http://www.w3.org/2000/svg">
<path d="M5.41732 0.940762H0.506714V5.8462C0.506714 6.19659 0.76974 6.45939 1.1205 6.45939C1.47126 6.45939 1.73439 6.19659 1.73439 5.8462V2.25472H5.32965C5.68041 2.25472 5.94343 1.99192 5.94343 1.64153C5.94343 1.29114 5.76808 0.940762 5.41732 0.940762Z" fill="#70A6A6"/>
<path d="M12.3443 0.940825C11.9935 0.940825 11.7304 1.20357 11.7304 1.55396C11.7304 1.90435 11.9935 2.16716 12.3443 2.16716H15.9396V5.75869C15.9396 6.10908 16.2026 6.37183 16.5533 6.37183C16.9041 6.37183 17.1672 6.10908 17.1672 5.75869V0.853195H12.3443V0.940825Z" fill="#70A6A6"/>
<path d="M5.41656 15.4818H1.82131V11.8903C1.82131 11.5399 1.55817 11.2771 1.20741 11.2771C0.856654 11.2771 0.593628 11.5399 0.593628 11.8903V16.7957H5.50423C5.85499 16.7957 6.11812 16.5329 6.11812 16.1826C6.11812 15.8322 5.76732 15.4818 5.41656 15.4818Z" fill="#70A6A6"/>
<path d="M16.5533 11.2771C16.2026 11.2771 15.9396 11.5399 15.9396 11.8903V15.4818H12.3443C11.9935 15.4818 11.7304 15.7446 11.7304 16.095C11.7304 16.4454 11.9935 16.7082 12.3443 16.7082H17.2549V11.8027C17.1672 11.5399 16.9041 11.2771 16.5533 11.2771Z" fill="#70A6A6"/>
</svg>
