<svg width="70" height="59" viewBox="0 0 70 59" fill="none" xmlns="http://www.w3.org/2000/svg">
<g filter="url(#filter0_d_3120_236)">
<path d="M10.1687 32.2784L12.0377 34.0817C12.361 34.3942 12.8723 34.1434 12.8723 33.674V31.6059C12.8723 31.4504 12.8105 31.3018 12.7036 31.1982L10.8347 29.3949C10.5114 29.0824 10 29.3332 10 29.8026V31.8707C10 32.0262 10.0618 32.1748 10.1687 32.2784Z" fill="#CACACA"/>
<path d="M30.7569 10.0312L29.2125 8.30076C29.1185 8.19427 28.9884 8.13543 28.8532 8.13543H26.1714C25.7129 8.13543 25.4952 8.75053 25.8353 9.0854L27.596 10.8158C27.6888 10.9069 27.8086 10.9559 27.9322 10.9559H30.3975C30.8406 10.9559 31.066 10.3759 30.7569 10.0312Z" fill="#CACACA"/>
<path d="M23.1484 9.20023L10.6595 26.6753C10.4972 26.9023 10.5243 27.2259 10.7213 27.4179L12.9342 29.5616C13.1506 29.7718 13.4855 29.7382 13.6632 29.4888L26.1521 12.0137C26.3144 11.7867 26.2874 11.4631 26.0903 11.2711L23.8774 9.12737C23.6611 8.91719 23.3262 8.95082 23.1484 9.20023Z" fill="#CACACA"/>
<path d="M25.6741 24.9617H26.8501C26.9055 24.9617 26.9506 24.9127 26.9506 24.8524V23.2131C26.9506 23.1094 26.8295 23.0646 26.7715 23.1458L25.5955 24.7852C25.544 24.8566 25.5917 24.9617 25.6741 24.9617Z" fill="#CACACA"/>
<path d="M53.4947 31.2626L40.1145 12.549C40.0308 12.4327 39.9084 12.3584 39.7732 12.3416L39.5671 12.3164H35.247C34.97 12.3164 34.7459 12.5602 34.7459 12.8614V24.4152C34.7459 24.7165 34.97 24.9603 35.247 24.9603H39.0196C39.2966 24.9603 39.5207 24.7165 39.5207 24.4152V20.2553C39.5207 20.0297 39.6366 19.8643 39.7899 19.7775C39.8479 19.8125 39.9032 19.8559 39.9496 19.9204L47.7333 30.8311C47.9896 31.1898 47.7539 31.711 47.3366 31.711H19.9154C19.498 31.711 19.2636 31.1898 19.5186 30.8311L27.3023 19.9204C27.3487 19.8559 27.4041 19.8125 27.462 19.7775C27.6153 19.8643 27.7312 20.0297 27.7312 20.2553V24.4152C27.7312 24.7165 27.9553 24.9603 28.2323 24.9603H32.005C32.2819 24.9603 32.506 24.7165 32.506 24.4152V12.8614C32.506 12.5602 32.2819 12.3164 32.005 12.3164H27.6849L27.4788 12.3416C27.3435 12.3584 27.2212 12.4327 27.1374 12.549L13.7572 31.2626C13.689 31.3579 13.6516 31.4756 13.6516 31.5975V35.197C13.6516 35.4983 13.8757 35.7421 14.1527 35.7421H27.2289C27.5058 35.7421 27.7299 35.9859 27.7299 36.2871V43.9121C27.7299 44.2008 27.9373 44.4348 28.1988 44.4544V44.4586H39.0171C39.294 44.4586 39.5181 44.2148 39.5181 43.9136V36.2885C39.5181 35.9873 39.7422 35.7435 40.0192 35.7435H53.0954C53.3723 35.7435 53.5965 35.4997 53.5965 35.1984V31.5989C53.5965 31.477 53.5591 31.3593 53.4908 31.264L53.4947 31.2626Z" fill="#CACACA"/>
<path d="M43.6628 6.95947H39.2324C39.0428 6.95947 38.8601 7.02322 38.7078 7.14187L35.5516 9.62106C34.8815 10.147 35.2369 11.2644 36.0763 11.2644H40.5067C40.6962 11.2644 40.879 11.2007 41.0313 11.082L44.1874 8.60282C44.8576 8.07688 44.5022 6.95947 43.6628 6.95947Z" fill="#CACACA"/>
<path d="M40.8718 24.9617H42.0478C42.1315 24.9617 42.1779 24.8566 42.1264 24.7852L40.9504 23.1458C40.8911 23.0646 40.7713 23.1094 40.7713 23.2131V24.8524C40.7713 24.9127 40.8164 24.9617 40.8718 24.9617Z" fill="#CACACA"/>
<path d="M24.3461 26.5324L22.2517 29.472C21.9967 29.8307 22.2311 30.3519 22.6484 30.3519H45.0746C45.4919 30.3519 45.7263 29.8307 45.4713 29.472L43.2262 26.3208" fill="#CACACA"/>
<path d="M48.6903 13.0491L45.8763 9.04925C45.7219 8.82988 45.4333 8.78815 45.2316 8.95603L41.5539 12.0172C41.3522 12.1851 41.3138 12.499 41.4682 12.7184L44.2822 16.7182C44.4365 16.9376 44.7252 16.9793 44.9269 16.8114L48.6046 13.7503C48.8063 13.5824 48.8447 13.2685 48.6903 13.0491Z" fill="#FF4615"/>
<path d="M49.6732 14.8099L50.7606 16.2418L47.3042 18.9072L48.3524 20.2875L47.277 21.1167L45.1414 18.3045L49.6732 14.8099Z" fill="#CACACA"/>
<path d="M47.6934 21.665L52.2253 18.1704L53.3127 19.6024L48.7808 23.097L47.6934 21.665Z" fill="#CACACA"/>
<path d="M52.387 24.892L56.2144 23.4235L57.3704 24.9457L51.6728 26.9052L50.267 25.054L53.6331 20.0243L54.7891 21.5465L52.387 24.892Z" fill="#CACACA"/>
<path d="M60 28.4084L58.867 29.2821L57.6425 27.6696L57.0856 28.099L58.1632 29.518L57.0943 30.3423L56.0167 28.9233L55.3766 29.4169L56.6011 31.0294L55.4682 31.903L53.1562 28.8586L57.688 25.364L60 28.4084Z" fill="#CACACA"/>
</g>
<defs>
<filter id="filter0_d_3120_236" x="0" y="0.959473" width="70" height="57.4991" filterUnits="userSpaceOnUse" color-interpolation-filters="sRGB">
<feFlood flood-opacity="0" result="BackgroundImageFix"/>
<feColorMatrix in="SourceAlpha" type="matrix" values="0 0 0 0 0 0 0 0 0 0 0 0 0 0 0 0 0 0 127 0" result="hardAlpha"/>
<feOffset dy="4"/>
<feGaussianBlur stdDeviation="5"/>
<feComposite in2="hardAlpha" operator="out"/>
<feColorMatrix type="matrix" values="0 0 0 0 0 0 0 0 0 0 0 0 0 0 0 0 0 0 0.5 0"/>
<feBlend mode="normal" in2="BackgroundImageFix" result="effect1_dropShadow_3120_236"/>
<feBlend mode="normal" in="SourceGraphic" in2="effect1_dropShadow_3120_236" result="shape"/>
</filter>
</defs>
</svg>
