<svg width="31" height="31" viewBox="0 0 31 31" fill="none" xmlns="http://www.w3.org/2000/svg">
<path d="M8.53662 1.21948V6.09753" stroke="white" stroke-width="2" stroke-linecap="round" stroke-linejoin="round"/>
<path d="M20.7319 1.21948V6.09753" stroke="white" stroke-width="2" stroke-linecap="round" stroke-linejoin="round"/>
<path d="M11.9943 28.0488H6.09778C3.40375 28.0488 1.21973 25.8648 1.21973 23.1708V8.53662C1.21973 5.84241 3.40375 3.65857 6.09778 3.65857H23.1709C25.865 3.65857 28.049 5.84241 28.049 8.53662V10.9756H1.21973" stroke="white" stroke-width="2" stroke-linecap="round" stroke-linejoin="round"/>
<path d="M22.6828 30C26.7239 30 29.9999 26.724 29.9999 22.6829C29.9999 18.6418 26.7239 15.3658 22.6828 15.3658C18.6417 15.3658 15.3657 18.6418 15.3657 22.6829C15.3657 26.724 18.6417 30 22.6828 30Z" stroke="white" stroke-width="2" stroke-linecap="round" stroke-linejoin="round"/>
<path d="M22.6831 22.6829V20.2439" stroke="white" stroke-width="2" stroke-linecap="round" stroke-linejoin="round"/>
<path d="M25.1221 22.683H22.6831" stroke="white" stroke-width="2" stroke-linecap="round" stroke-linejoin="round"/>
</svg>
