<svg width="32" height="32" viewBox="0 0 32 32" fill="none" xmlns="http://www.w3.org/2000/svg">
<path d="M31 31H6.08475C3.2765 31 1 28.7235 1 25.9153V1" stroke="#808080" stroke-width="2" stroke-linecap="round" stroke-linejoin="round"/>
<path d="M8.62733 25.9152C7.22324 25.9152 6.08496 24.777 6.08496 23.3729V13.2034C6.08496 11.7993 7.22324 10.661 8.62733 10.661C10.0314 10.661 11.1697 11.7993 11.1697 13.2034V23.3729C11.1697 24.777 10.0314 25.9152 8.62733 25.9152Z" stroke="#808080" stroke-width="2" stroke-linecap="round" stroke-linejoin="round"/>
<path d="M18.5424 25.9153C17.1383 25.9153 16 24.777 16 23.3729V5.57631C16 4.17222 17.1383 3.03394 18.5424 3.03394C19.9465 3.03394 21.0847 4.17222 21.0847 5.57631V23.3729C21.0847 24.777 19.9465 25.9153 18.5424 25.9153Z" stroke="#808080" stroke-width="2" stroke-linecap="round" stroke-linejoin="round"/>
<path d="M28.4574 25.9152C27.0533 25.9152 25.915 24.7769 25.915 23.3728V18.2881C25.915 16.884 27.0533 15.7457 28.4574 15.7457C29.8615 15.7457 30.9998 16.884 30.9998 18.2881V23.3728C30.9998 24.7769 29.8615 25.9152 28.4574 25.9152Z" stroke="#808080" stroke-width="2" stroke-linecap="round" stroke-linejoin="round"/>
</svg>
