<svg width="32" height="32" viewBox="0 0 32 32" fill="none" xmlns="http://www.w3.org/2000/svg">
<path d="M7.22407 26.0207H4.73444C2.67197 26.0207 1 27.6927 1 29.7552V31H10.9585V29.7552C10.9585 27.6927 9.28654 26.0207 7.22407 26.0207Z" stroke="#808080" stroke-width="2" stroke-linecap="round" stroke-linejoin="round"/>
<path d="M17.2446 7.22412H14.7549C12.6925 7.22412 11.0205 8.89609 11.0205 10.9586V12.2034H20.979V10.9586C20.979 8.89609 19.307 7.22412 17.2446 7.22412Z" stroke="#808080" stroke-width="2" stroke-linecap="round" stroke-linejoin="round"/>
<path d="M27.2656 26.0207H24.7759C22.7135 26.0207 21.0415 27.6927 21.0415 29.7552V31H31V29.7552C31 27.6927 29.328 26.0207 27.2656 26.0207Z" stroke="#808080" stroke-width="2" stroke-linecap="round" stroke-linejoin="round"/>
<path d="M9.09125 22.9087C9.09125 24.6274 7.69793 26.0208 5.97922 26.0208C4.26051 26.0208 2.86719 24.6274 2.86719 22.9087C2.86719 21.19 4.26051 19.7967 5.97922 19.7967C7.69793 19.7967 9.09125 21.19 9.09125 22.9087Z" stroke="#808080" stroke-width="2" stroke-linecap="round" stroke-linejoin="round"/>
<path d="M19.1123 4.11209C19.1123 5.8308 17.7189 7.22412 16.0002 7.22412C14.2815 7.22412 12.8882 5.8308 12.8882 4.11209C12.8882 2.39337 14.2815 1.00005 16.0002 1.00005C17.7189 1.00005 19.1123 2.39337 19.1123 4.11209Z" stroke="#808080" stroke-width="2" stroke-linecap="round" stroke-linejoin="round"/>
<path d="M29.1328 22.9087C29.1328 24.6274 27.7394 26.0208 26.0207 26.0208C24.302 26.0208 22.9087 24.6274 22.9087 22.9087C22.9087 21.19 24.302 19.7967 26.0207 19.7967C27.7394 19.7967 29.1328 21.19 29.1328 22.9087Z" stroke="#808080" stroke-width="2" stroke-linecap="round" stroke-linejoin="round"/>
<path d="M16 17.9294V12.2033" stroke="#808080" stroke-width="2" stroke-linecap="round" stroke-linejoin="round"/>
<path d="M17.8673 19.7967C17.8673 20.8279 17.0312 21.6639 16 21.6639C14.9688 21.6639 14.1328 20.8279 14.1328 19.7967C14.1328 18.7655 14.9688 17.9295 16 17.9295C17.0312 17.9295 17.8673 18.7655 17.8673 19.7967Z" stroke="#808080" stroke-width="2" stroke-linecap="round" stroke-linejoin="round"/>
<path d="M14.2165 20.3505L8.95215 21.9855" stroke="#808080" stroke-width="2" stroke-linecap="round" stroke-linejoin="round"/>
<path d="M23.0481 21.9855L17.7837 20.3505" stroke="#808080" stroke-width="2" stroke-linecap="round" stroke-linejoin="round"/>
</svg>
