<svg width="32" height="28" viewBox="0 0 32 28" fill="none" xmlns="http://www.w3.org/2000/svg">
<path d="M22.9507 19.7874C23.6829 19.0551 23.6829 17.8679 22.9507 17.1357" stroke="#808080" stroke-width="2" stroke-linecap="round" stroke-linejoin="round"/>
<path d="M25.6025 22.439C27.7993 20.2423 27.7993 16.6807 25.6025 14.484" stroke="#808080" stroke-width="2" stroke-linecap="round" stroke-linejoin="round"/>
<path d="M28.2539 25.0906C31.9151 21.4295 31.9151 15.4936 28.2539 11.8324" stroke="#808080" stroke-width="2" stroke-linecap="round" stroke-linejoin="round"/>
<path d="M14.5834 26.58H4.57454L5.11815 20.5936C5.24207 19.2288 4.75025 17.8788 3.77369 16.9173C2.06158 15.2315 1 12.8869 1 10.2943C1 5.1454 5.14305 1.00142 10.2919 1.00036C14.8028 0.959157 18.8444 4.45683 19.3391 8.52849V10.5286L21.5426 15.6724L18.8728 16.6276V20.533C18.8728 21.3226 18.2327 21.9628 17.443 21.9628H14.5834V26.58Z" stroke="#808080" stroke-width="2" stroke-linecap="round" stroke-linejoin="round"/>
</svg>
