<svg width="31" height="32" viewBox="0 0 31 32" fill="none" xmlns="http://www.w3.org/2000/svg">
<path d="M8.53662 1.21948V6.09753" stroke="#808080" stroke-width="2" stroke-linecap="round" stroke-linejoin="round"/>
<path d="M20.7319 1.21948V6.09753" stroke="#808080" stroke-width="2" stroke-linecap="round" stroke-linejoin="round"/>
<path d="M11.9943 28.0488H6.09778C3.40375 28.0488 1.21973 25.8648 1.21973 23.1708V8.53662C1.21973 5.84241 3.40375 3.65857 6.09778 3.65857H23.1709C25.865 3.65857 28.049 5.84241 28.049 8.53662V10.9756H1.21973" stroke="#808080" stroke-width="2" stroke-linecap="round" stroke-linejoin="round"/>
<path d="M16 28.3407H30" stroke="#808080" stroke-width="2" stroke-linecap="round" stroke-linejoin="round"/>
<path d="M28.5999 28.3407H17.3999V22.7407C17.3999 19.6479 19.9071 17.1407 22.9999 17.1407C26.0927 17.1407 28.5999 19.6479 28.5999 22.7407V28.3407Z" stroke="#808080" stroke-width="2" stroke-linecap="round" stroke-linejoin="round"/>
<path d="M23.1397 31H22.8597C21.3906 31 20.1997 29.8091 20.1997 28.34H25.7997C25.7997 29.8091 24.6088 31 23.1397 31Z" stroke="#808080" stroke-width="2" stroke-linecap="round" stroke-linejoin="round"/>
<path d="M24.3299 15.8101C24.3299 16.5447 23.7345 17.1401 22.9999 17.1401C22.2654 17.1401 21.6699 16.5447 21.6699 15.8101C21.6699 15.0756 22.2654 14.4801 22.9999 14.4801C23.7345 14.4801 24.3299 15.0756 24.3299 15.8101Z" stroke="#808080" stroke-width="2" stroke-linecap="round" stroke-linejoin="round"/>
</svg>
