<svg width="33" height="33" viewBox="0 0 33 33" fill="none" xmlns="http://www.w3.org/2000/svg">
<path d="M5.28938 16.6591H1.6665" stroke="#808080" stroke-width="2" stroke-linecap="round" stroke-linejoin="round"/>
<path d="M31.6665 16.6591H15.9038" stroke="#808080" stroke-width="2" stroke-linecap="round" stroke-linejoin="round"/>
<path d="M16.4758 5.86169H1.6665" stroke="#808080" stroke-width="2" stroke-linecap="round" stroke-linejoin="round"/>
<path d="M31.6667 5.86169H26.6455" stroke="#808080" stroke-width="2" stroke-linecap="round" stroke-linejoin="round"/>
<path d="M16.4729 27.5354H1.6665" stroke="#808080" stroke-width="2" stroke-linecap="round" stroke-linejoin="round"/>
<path d="M31.6665 27.5354H26.7725" stroke="#808080" stroke-width="2" stroke-linecap="round" stroke-linejoin="round"/>
<path d="M12.9164 20.7981C11.5123 20.7981 10.374 19.6598 10.374 18.2557V14.9506C10.374 13.5465 11.5123 12.4083 12.9164 12.4083C14.3205 12.4083 15.4588 13.5465 15.4588 14.9506V18.2557C15.4588 19.6598 14.3205 20.7981 12.9164 20.7981Z" stroke="#808080" stroke-width="2" stroke-linecap="round" stroke-linejoin="round"/>
<path d="M24.1 31.6667C22.6958 31.6667 21.5576 30.5285 21.5576 29.1244V25.8828C21.5576 24.4788 22.6958 23.3405 24.1 23.3405C25.5041 23.3405 26.6424 24.4788 26.6424 25.8828V29.1244C26.6424 30.5285 25.5041 31.6667 24.1 31.6667Z" stroke="#808080" stroke-width="2" stroke-linecap="round" stroke-linejoin="round"/>
<path d="M24.1029 9.99304C22.6988 9.99304 21.5605 8.85476 21.5605 7.45067V4.20914C21.5605 2.80505 22.6988 1.66677 24.1029 1.66677C25.507 1.66677 26.6453 2.80505 26.6453 4.20914V7.45067C26.6453 8.85476 25.507 9.99304 24.1029 9.99304Z" stroke="#808080" stroke-width="2" stroke-linecap="round" stroke-linejoin="round"/>
</svg>
