<svg width="32" height="25" viewBox="0 0 32 25" fill="none" xmlns="http://www.w3.org/2000/svg">
<path d="M11.1805 23.6804C5.00579 21.143 2.05707 14.0805 4.5944 7.90572C5.86306 4.81837 8.26302 2.5375 11.1177 1.34563" stroke="#70A6A6" stroke-width="2" stroke-miterlimit="10" stroke-linecap="round" stroke-linejoin="round"/>
<path d="M20.3682 1.31964C26.5429 3.85697 29.4916 10.9195 26.9543 17.0943C25.6857 20.1816 23.2857 22.4625 20.431 23.6544" stroke="#70A6A6" stroke-width="2" stroke-miterlimit="10" stroke-linecap="round" stroke-linejoin="round"/>
<path d="M17.7005 14.5496C16.6407 15.6074 14.9222 15.6074 13.8623 14.5496C12.8024 13.4918 12.8024 11.7767 13.8623 10.7189C14.9222 9.66105 16.6407 9.66105 17.7005 10.7189C18.7604 11.7767 18.7604 13.4918 17.7005 14.5496Z" fill="#70A6A6" stroke="#70A6A6" stroke-width="2" stroke-miterlimit="10" stroke-linecap="round" stroke-linejoin="round"/>
<path d="M21.4064 7.90422C24.0238 10.5166 24.0238 14.7519 21.4064 17.3642" stroke="#70A6A6" stroke-width="2" stroke-miterlimit="10" stroke-linecap="round" stroke-linejoin="round"/>
<path d="M10.1467 7.90413C7.52924 10.5165 7.52924 14.7519 10.1467 17.3642" stroke="#70A6A6" stroke-width="2" stroke-miterlimit="10" stroke-linecap="round" stroke-linejoin="round"/>
</svg>
