<svg width="27" height="28" viewBox="0 0 27 28" fill="none" xmlns="http://www.w3.org/2000/svg">
<path d="M23.7804 26.0573H3.21955C1.99372 26.0573 1 25.0636 1 23.8377V3.27684C1 2.05101 1.99372 1.05728 3.21955 1.05728H23.7804C25.0063 1.05728 26 2.05101 26 3.27684V23.8377C26 25.0636 25.0063 26.0573 23.7804 26.0573Z" stroke="#70A6A6" stroke-width="2" stroke-miterlimit="10" stroke-linecap="round" stroke-linejoin="round"/>
<path d="M4.03821 5.99997H22.8748" stroke="#70A6A6" stroke-width="2" stroke-miterlimit="10" stroke-linecap="round" stroke-linejoin="round"/>
<path d="M4.12524 9.99997H8.95756" stroke="#70A6A6" stroke-width="2" stroke-miterlimit="10" stroke-linecap="round" stroke-linejoin="round"/>
<path d="M13 9.99997H22.8757" stroke="#70A6A6" stroke-width="2" stroke-miterlimit="10" stroke-linecap="round" stroke-linejoin="round"/>
<path d="M13.5 16.5V18.5L15 20M9 18.5C9 20.9853 11.0147 23 13.5 23C15.9853 23 18 20.9853 18 18.5C18 16.0147 15.9853 14 13.5 14C11.0147 14 9 16.0147 9 18.5Z" stroke="#70A6A6" stroke-width="1.6" stroke-miterlimit="10" stroke-linecap="round" stroke-linejoin="round"/>
</svg>
