<svg width="23" height="25" viewBox="0 0 23 25" fill="none" xmlns="http://www.w3.org/2000/svg">
<path d="M11.3125 0.999847V2.87485" stroke="#70A6A6" stroke-width="2" stroke-miterlimit="10" stroke-linecap="round" stroke-linejoin="round"/>
<path d="M11.3125 12.2498V23.1248" stroke="#70A6A6" stroke-width="2" stroke-miterlimit="10" stroke-linecap="round" stroke-linejoin="round"/>
<path d="M3.8125 23.1248V21.2498" stroke="#70A6A6" stroke-width="2" stroke-miterlimit="10" stroke-linecap="round" stroke-linejoin="round"/>
<path d="M3.8125 12.0623V0.999847" stroke="#70A6A6" stroke-width="2" stroke-miterlimit="10" stroke-linecap="round" stroke-linejoin="round"/>
<path d="M6.625 14.8748C6.625 13.3216 5.3658 12.0623 3.8125 12.0623C2.2592 12.0623 1 13.3216 1 14.8748C1 16.4281 2.2592 17.6873 3.8125 17.6873C5.3658 17.6873 6.625 16.4281 6.625 14.8748Z" stroke="#70A6A6" stroke-width="2" stroke-miterlimit="10" stroke-linecap="round" stroke-linejoin="round"/>
<path d="M14.125 9.43732C14.125 7.88402 12.8658 6.62482 11.3125 6.62482C9.7592 6.62482 8.5 7.88402 8.5 9.43732C8.5 10.9906 9.7592 12.2498 11.3125 12.2498C12.8658 12.2498 14.125 10.9906 14.125 9.43732Z" stroke="#70A6A6" stroke-width="2" stroke-miterlimit="10" stroke-linecap="round" stroke-linejoin="round"/>
<path d="M18.8125 23.1248V21.2498" stroke="#70A6A6" stroke-width="2" stroke-miterlimit="10" stroke-linecap="round" stroke-linejoin="round"/>
<path d="M18.8125 12.0623V0.999847" stroke="#70A6A6" stroke-width="2" stroke-miterlimit="10" stroke-linecap="round" stroke-linejoin="round"/>
<path d="M21.625 14.8748C21.625 13.3216 20.3658 12.0623 18.8125 12.0623C17.2592 12.0623 16 13.3216 16 14.8748C16 16.4281 17.2592 17.6873 18.8125 17.6873C20.3658 17.6873 21.625 16.4281 21.625 14.8748Z" stroke="#70A6A6" stroke-width="2" stroke-miterlimit="10" stroke-linecap="round" stroke-linejoin="round"/>
</svg>
