<svg width="26" height="21" viewBox="0 0 26 21" fill="none" xmlns="http://www.w3.org/2000/svg">
<path d="M2.85547 16.6197V20" stroke="#70A6A6" stroke-width="2" stroke-miterlimit="10" stroke-linecap="round" stroke-linejoin="round"/>
<path d="M9.30078 11.6519V20" stroke="#70A6A6" stroke-width="2" stroke-miterlimit="10" stroke-linecap="round" stroke-linejoin="round"/>
<path d="M15.7461 14.9508V20" stroke="#70A6A6" stroke-width="2" stroke-miterlimit="10" stroke-linecap="round" stroke-linejoin="round"/>
<path d="M22.1914 9.32604V20" stroke="#70A6A6" stroke-width="2" stroke-miterlimit="10" stroke-linecap="round" stroke-linejoin="round"/>
<path d="M4.71094 10.9774C4.71094 12.0021 3.88022 12.8328 2.85547 12.8328C1.83071 12.8328 1 12.0021 1 10.9774C1 9.9526 1.83071 9.12189 2.85547 9.12189C3.88022 9.12189 4.71094 9.9526 4.71094 10.9774Z" stroke="#70A6A6" stroke-width="2" stroke-miterlimit="10" stroke-linecap="round" stroke-linejoin="round"/>
<path d="M11.1562 6.00949C11.1562 7.03425 10.3255 7.86496 9.30078 7.86496C8.27603 7.86496 7.44531 7.03425 7.44531 6.00949C7.44531 4.98474 8.27603 4.15402 9.30078 4.15402C10.3255 4.15402 11.1562 4.98474 11.1562 6.00949Z" stroke="#70A6A6" stroke-width="2" stroke-miterlimit="10" stroke-linecap="round" stroke-linejoin="round"/>
<path d="M17.6016 9.30835C17.6016 10.3331 16.7708 11.1638 15.7461 11.1638C14.7213 11.1638 13.8906 10.3331 13.8906 9.30835C13.8906 8.28359 14.7213 7.45288 15.7461 7.45288C16.7708 7.45288 17.6016 8.28359 17.6016 9.30835Z" stroke="#70A6A6" stroke-width="2" stroke-miterlimit="10" stroke-linecap="round" stroke-linejoin="round"/>
<path d="M24.0469 3.68365C24.0469 4.70841 23.2162 5.53912 22.1914 5.53912C21.1667 5.53912 20.3359 4.70841 20.3359 3.68365C20.3359 2.6589 21.1667 1.82819 22.1914 1.82819C23.2162 1.82819 24.0469 2.6589 24.0469 3.68365Z" stroke="#70A6A6" stroke-width="2" stroke-miterlimit="10" stroke-linecap="round" stroke-linejoin="round"/>
<path d="M4.32422 9.84457L7.83018 7.14228" stroke="#70A6A6" stroke-width="2" stroke-miterlimit="10" stroke-linecap="round" stroke-linejoin="round"/>
<path d="M20.7938 4.90368L17.1445 8.08835" stroke="#70A6A6" stroke-width="2" stroke-miterlimit="10" stroke-linecap="round" stroke-linejoin="round"/>
<path d="M14.0934 8.4628L10.9521 6.85504" stroke="#70A6A6" stroke-width="2" stroke-miterlimit="10" stroke-linecap="round" stroke-linejoin="round"/>
</svg>
