<svg width="24" height="27" viewBox="0 0 24 27" fill="none" xmlns="http://www.w3.org/2000/svg">
<path d="M15.8305 2.69492H20.0678C21.2379 2.69492 22.1864 3.64349 22.1864 4.81356V23.8814C22.1864 25.0514 21.2379 26 20.0678 26H3.11864C1.94857 26 1 25.0514 1 23.8814V4.81356C1 3.64349 1.94857 2.69492 3.11864 2.69492H11.5932" stroke="#70A6A6" stroke-width="2" stroke-miterlimit="10" stroke-linecap="round" stroke-linejoin="round"/>
<path d="M5.2373 7.99153L6.29663 9.05085L8.41527 6.93221" stroke="#70A6A6" stroke-width="2" stroke-miterlimit="10" stroke-linecap="round" stroke-linejoin="round"/>
<path d="M5.2373 14.3475L6.29663 15.4068L8.41527 13.2881" stroke="#70A6A6" stroke-width="2" stroke-miterlimit="10" stroke-linecap="round" stroke-linejoin="round"/>
<path d="M5.2373 20.7034L6.29663 21.7627L8.41527 19.6441" stroke="#70A6A6" stroke-width="2" stroke-miterlimit="10" stroke-linecap="round" stroke-linejoin="round"/>
<path d="M11.5928 4.81356V1" stroke="#70A6A6" stroke-width="2" stroke-miterlimit="10" stroke-linecap="round" stroke-linejoin="round"/>
<path d="M11.5928 9.05084H17.9487" stroke="#70A6A6" stroke-width="2" stroke-miterlimit="10" stroke-linecap="round" stroke-linejoin="round"/>
<path d="M11.5928 15.4068H17.9487" stroke="#70A6A6" stroke-width="2" stroke-miterlimit="10" stroke-linecap="round" stroke-linejoin="round"/>
<path d="M11.5928 21.7627H17.9487" stroke="#70A6A6" stroke-width="2" stroke-miterlimit="10" stroke-linecap="round" stroke-linejoin="round"/>
</svg>
