<svg width="27" height="27" viewBox="0 0 27 27" fill="none" xmlns="http://www.w3.org/2000/svg">
<path d="M21.851 16.8862L24.8467 16.0835C25.6768 15.8611 26.1694 15.0079 25.947 14.1778L22.7252 2.15383C22.5027 1.3238 21.6495 0.831165 20.8195 1.05357L3.7855 5.61783C2.95542 5.84024 2.46283 6.6934 2.68524 7.52353L3.43892 10.3362" stroke="#FF4615" stroke-width="2" stroke-linecap="round" stroke-linejoin="round"/>
<path d="M3.43891 10.3359L3.35645 10.0282L23.3964 4.65851L24.2019 7.66447L14.2319 10.3359" stroke="#FF4615" stroke-width="2" stroke-linecap="round" stroke-linejoin="round"/>
<path d="M2.55601 10.4399H20.1908C21.0502 10.4399 21.7469 11.1365 21.7469 11.9959V24.444C21.7469 25.3033 21.0502 26 20.1908 26H2.55601C1.69668 26 1 25.3033 1 24.444V11.9959C1 11.1365 1.69668 10.4399 2.55601 10.4399Z" stroke="#FF4615" stroke-width="2" stroke-linecap="round" stroke-linejoin="round"/>
<path d="M4.1123 13.552H9.29902V16.6641H4.1123V13.552Z" stroke="#FF4615" stroke-width="2" stroke-linecap="round" stroke-linejoin="round"/>
<path d="M16.041 13.5518H18.6344" stroke="#FF4615" stroke-width="2" stroke-linecap="round" stroke-linejoin="round"/>
<path d="M16.041 16.6641H18.6344" stroke="#FF4615" stroke-width="2" stroke-linecap="round" stroke-linejoin="round"/>
<path d="M4.1123 22.8882H9.29902" stroke="#FF4615" stroke-width="2" stroke-linecap="round" stroke-linejoin="round"/>
<path d="M4.1123 19.7759H5.66832" stroke="#FF4615" stroke-width="2" stroke-linecap="round" stroke-linejoin="round"/>
<path d="M8.78027 19.7759H10.3363" stroke="#FF4615" stroke-width="2" stroke-linecap="round" stroke-linejoin="round"/>
<path d="M13.4482 19.7759H15.0043" stroke="#FF4615" stroke-width="2" stroke-linecap="round" stroke-linejoin="round"/>
</svg>
