<svg width="27" height="28" viewBox="0 0 27 28" fill="none" xmlns="http://www.w3.org/2000/svg">
<path d="M13.5 20.417C13.5 23.8688 10.7018 26.667 7.25 26.667C3.79823 26.667 1 23.8688 1 20.417C1 16.9652 3.79823 14.167 7.25 14.167C10.7018 14.167 13.5 16.9652 13.5 20.417Z" stroke="#FF4615" stroke-width="2" stroke-linecap="round" stroke-linejoin="round"/>
<path d="M6.81632 20.4173H7.68439C8.16381 20.4173 8.55241 20.806 8.55241 21.2854V22.1534C8.55241 22.6328 8.16381 23.0215 7.68439 23.0215H6.81632C6.33689 23.0215 5.94824 22.6328 5.94824 22.1534" stroke="#FF4615" stroke-width="2" stroke-linecap="round" stroke-linejoin="round"/>
<path d="M7.68434 20.417H6.81626C6.33684 20.417 5.94824 20.0283 5.94824 19.5489V18.6809C5.94824 18.2015 6.33684 17.8128 6.81626 17.8128H7.68434C8.16376 17.8128 8.55241 18.2015 8.55241 18.6809" stroke="#FF4615" stroke-width="2" stroke-linecap="round" stroke-linejoin="round"/>
<path d="M7.25 17.8125V16.7708" stroke="#FF4615" stroke-width="2" stroke-linecap="round" stroke-linejoin="round"/>
<path d="M7.25 24.0625V23.0208" stroke="#FF4615" stroke-width="2" stroke-linecap="round" stroke-linejoin="round"/>
<path d="M7.25 26.667H24.4375C25.3004 26.667 26 25.9674 26 25.1045V6.77132L20.7919 1.56283H8.8125C7.94958 1.56283 7.25 2.26241 7.25 3.12533V14.167" stroke="#FF4615" stroke-width="2" stroke-linecap="round" stroke-linejoin="round"/>
<path d="M20.792 1.56315V6.77148H26.0003L20.792 1.56315Z" stroke="#FF4615" stroke-width="2" stroke-linecap="round" stroke-linejoin="round"/>
<path d="M11.3838 15.7295H22.3545" stroke="#FF4615" stroke-width="2" stroke-linecap="round" stroke-linejoin="round"/>
<path d="M10.8955 11.042H22.3538" stroke="#FF4615" stroke-width="2" stroke-linecap="round" stroke-linejoin="round"/>
<path d="M13.5 20.417H22.3542" stroke="#FF4615" stroke-width="2" stroke-linecap="round" stroke-linejoin="round"/>
</svg>
