<svg width="27" height="27" viewBox="0 0 27 27" fill="none" xmlns="http://www.w3.org/2000/svg">
<path d="M19.9737 7.56593C19.9737 4.05509 17.1276 1.20898 13.6168 1.20898C10.1059 1.20898 7.25977 4.05504 7.25977 7.56593C7.25977 10.482 9.22335 12.9393 11.9004 13.6882V18.085H9.55427V24.3801H11.9004V26H15.1005V13.7484C17.8956 13.08 19.9737 10.5658 19.9737 7.56593Z" stroke="#FF4615" stroke-width="2" stroke-linecap="round" stroke-linejoin="round"/>
<path d="M13.5 7.60147C14.3758 7.60147 15.0858 6.89144 15.0858 6.01558C15.0858 5.13972 14.3758 4.42969 13.5 4.42969C12.6241 4.42969 11.9141 5.13972 11.9141 6.01558C11.9141 6.89144 12.6241 7.60147 13.5 7.60147Z" stroke="#FF4615" stroke-width="2" stroke-linecap="round" stroke-linejoin="round"/>
<path d="M9.55371 21.3428H11.3737" stroke="#FF4615" stroke-width="2" stroke-linecap="round" stroke-linejoin="round"/>
<path d="M2.6597 4.3194C3.57633 4.3194 4.3194 3.57633 4.3194 2.6597C4.3194 1.74307 3.57633 1 2.6597 1C1.74307 1 1 1.74307 1 2.6597C1 3.57633 1.74307 4.3194 2.6597 4.3194Z" stroke="#FF4615" stroke-width="2" stroke-linecap="round" stroke-linejoin="round"/>
<path d="M2.66016 4.31934L3.93614 6.75191H7.30699" stroke="#FF4615" stroke-width="2" stroke-linecap="round" stroke-linejoin="round"/>
<path d="M2.6597 12.7745C3.57633 12.7745 4.3194 12.0314 4.3194 11.1148C4.3194 10.1982 3.57633 9.45508 2.6597 9.45508C1.74307 9.45508 1 10.1982 1 11.1148C1 12.0314 1.74307 12.7745 2.6597 12.7745Z" stroke="#FF4615" stroke-width="2" stroke-linecap="round" stroke-linejoin="round"/>
<path d="M4.31934 11.1152H8.34076" stroke="#FF4615" stroke-width="2" stroke-linecap="round" stroke-linejoin="round"/>
<path d="M24.3404 4.3194C25.257 4.3194 26.0001 3.57633 26.0001 2.6597C26.0001 1.74307 25.257 1 24.3404 1C23.4237 1 22.6807 1.74307 22.6807 2.6597C22.6807 3.57633 23.4237 4.3194 24.3404 4.3194Z" stroke="#FF4615" stroke-width="2" stroke-linecap="round" stroke-linejoin="round"/>
<path d="M24.3403 4.31934L23.0643 6.75191H19.9238" stroke="#FF4615" stroke-width="2" stroke-linecap="round" stroke-linejoin="round"/>
<path d="M24.3404 12.7745C25.257 12.7745 26.0001 12.0314 26.0001 11.1148C26.0001 10.1982 25.257 9.45508 24.3404 9.45508C23.4237 9.45508 22.6807 10.1982 22.6807 11.1148C22.6807 12.0314 23.4237 12.7745 24.3404 12.7745Z" stroke="#FF4615" stroke-width="2" stroke-linecap="round" stroke-linejoin="round"/>
<path d="M22.681 11.1152H18.8828" stroke="#FF4615" stroke-width="2" stroke-linecap="round" stroke-linejoin="round"/>
</svg>
