<svg width="24" height="27" viewBox="0 0 24 27" fill="none" xmlns="http://www.w3.org/2000/svg">
<path d="M1 21.9756H22.1866" stroke="#FF4615" stroke-width="2" stroke-linecap="round" stroke-linejoin="round"/>
<path d="M20.0684 21.9756H3.11914V13.5009C3.11914 8.82057 6.91339 5.02631 11.5938 5.02631C16.2742 5.02631 20.0684 8.82057 20.0684 13.5009V21.9756Z" stroke="#FF4615" stroke-width="2" stroke-linecap="round" stroke-linejoin="round"/>
<path d="M11.8047 26H11.3809C9.15771 26 7.35547 24.1978 7.35547 21.9745H15.8301C15.8301 24.1978 14.0279 26 11.8047 26Z" stroke="#FF4615" stroke-width="2" stroke-linecap="round" stroke-linejoin="round"/>
<path d="M13.6055 3.01266C13.6055 4.12427 12.7044 5.02539 11.5928 5.02539C10.4812 5.02539 9.58008 4.12427 9.58008 3.01266C9.58008 1.90106 10.4812 0.999938 11.5928 0.999938C12.7044 0.999938 13.6055 1.90106 13.6055 3.01266Z" stroke="#FF4615" stroke-width="2" stroke-linecap="round" stroke-linejoin="round"/>
</svg>
