<svg width="27" height="24" viewBox="0 0 27 24" fill="none" xmlns="http://www.w3.org/2000/svg">
<path d="M7.4834 4.98081V2.67127C7.4834 1.75207 8.23547 1 9.15466 1H17.8453C18.7646 1 19.5166 1.75207 19.5166 2.67127V4.98081" stroke="#808080" stroke-width="2" stroke-linecap="round" stroke-linejoin="round"/>
<path d="M24.9624 12.4497V21.306C24.9624 22.1617 24.2621 22.8621 23.4064 22.8621H3.59313C2.73747 22.8621 2.03711 22.1618 2.03711 21.306V12.5016" stroke="#808080" stroke-width="2" stroke-linecap="round" stroke-linejoin="round"/>
<path d="M11.4253 15.0691C5.93833 14.7553 1 13.1863 1 10.362V6.67955C1 5.82255 1.69896 5.12354 2.55602 5.12354H24.444C25.301 5.12354 26 5.8226 26 6.67955V10.362C26 13.204 20.9993 14.7749 15.471 15.0748" stroke="#808080" stroke-width="2" stroke-linecap="round" stroke-linejoin="round"/>
<path fill-rule="evenodd" clip-rule="evenodd" d="M11.5811 13.5259H15.4192V15.3153C15.4192 16.2995 14.614 17.1047 13.6298 17.1047H13.3705C12.3863 17.1047 11.5811 16.2995 11.5811 15.3153V13.5259Z" stroke="#808080" stroke-width="2" stroke-linecap="round" stroke-linejoin="round"/>
</svg>
