<svg width="40" height="42" viewBox="0 0 40 42" fill="none" xmlns="http://www.w3.org/2000/svg">
<path d="M39.9204 12.7801C39.8435 12.6787 39.7713 12.5726 39.6935 12.4609C39.5233 12.1915 39.324 11.9418 39.0992 11.7165C36.7596 9.52965 34.3774 7.31121 32.0702 5.16628C30.3629 3.57751 28.656 1.98843 26.9494 0.399038C26.8137 0.266839 26.653 0.163443 26.4767 0.0950171C26.3005 0.0265908 26.1124 -0.00546525 25.9235 0.000760371C20.7388 0.00634371 15.4671 0.00634368 10.3694 0.00727424H3.89408C1.45635 0.00820479 0 1.48034 0 3.94539V37.0583C0 39.2981 0.961022 40.5274 3.11545 41.0374L3.1349 41.0504L3.22748 41.1081H36.7096L36.7549 41.0969C36.8133 41.0811 36.8725 41.0671 36.9308 41.0522C37.0632 41.0197 37.2003 40.9862 37.3364 40.9471C38.5835 40.586 39.4241 39.7746 39.8361 38.5332C39.8621 38.4551 39.8935 38.376 39.9287 38.2922L39.9759 38.1694L40 38.1052V12.8797L39.9204 12.7801ZM37.1262 14.5677V37.1541C37.1262 37.9916 36.9355 38.1778 36.1078 38.1778H3.89501C3.06175 38.1778 2.87659 37.987 2.87659 37.1541C2.87659 26.0836 2.87659 15.0131 2.87659 3.9426C2.87659 3.07997 3.06175 2.89386 3.91816 2.89386H24.6079C24.6079 2.94969 24.6079 3.00366 24.6079 3.05578V6.20664C24.6079 7.73275 24.6079 9.25886 24.6079 10.785C24.6079 13.0425 26.1226 14.5621 28.3705 14.5668C30.3583 14.5668 32.3785 14.5668 34.332 14.5668H37.1262V14.5677ZM28.4566 11.6737C27.6993 11.6737 27.4919 11.4624 27.4919 10.6919V4.84896L34.8357 11.6737C32.7068 11.6743 30.5793 11.6743 28.4529 11.6737H28.4566Z" fill="#70A6A6"/>
<path d="M26.479 18.2721C26.4244 18.2386 26.3688 18.206 26.3133 18.1735L24.6625 17.2159C22.3831 15.8927 20.1037 14.5703 17.8242 13.249C17.5797 13.1009 17.3218 12.9762 17.0539 12.8767C16.3309 12.6246 15.6013 12.6664 15.0004 12.994C14.3996 13.3215 13.9718 13.9059 13.7876 14.6457C13.7123 14.9922 13.6781 15.3464 13.6857 15.701C13.6793 16.9033 13.6802 18.1204 13.6857 19.3069V25.6105C13.6857 25.644 13.6857 25.6784 13.6857 25.7119C13.7024 26.8193 14.1653 27.7079 14.9541 28.1574C15.3044 28.3544 15.6999 28.4561 16.1012 28.4524C16.6518 28.4417 17.1901 28.2871 17.6631 28.0039C20.7055 26.2628 23.67 24.5422 26.4744 22.8858C27.4058 22.3368 27.9437 21.5058 27.9501 20.6059C27.9566 19.7061 27.4187 18.8463 26.479 18.2721ZM24.7199 20.5836L16.5864 25.3024V15.8666L24.7199 20.5836Z" fill="#70A6A6"/>
<path d="M5.67826 16.3289H6.20321C6.42726 16.3289 6.64947 16.3289 6.87259 16.3289C7.28089 16.3234 7.69381 16.3094 8.09285 16.2964L8.62243 16.2787L8.9687 16.2685L8.98166 15.9214C8.98814 15.7436 8.99647 15.5668 9.00388 15.39C9.02054 14.9899 9.03813 14.5767 9.04647 14.1673C9.0548 13.7578 9.05202 13.3419 9.04647 12.9389C9.04647 12.7575 9.04647 12.576 9.04647 12.3918V12.0195H4.76538V16.3271H5.13572L5.67826 16.3289Z" fill="#70A6A6"/>
<path d="M9.09445 24.9922H4.86151V29.2606H9.09445V24.9922Z" fill="#70A6A6"/>
<path d="M9.22503 33.3505V31.4521H4.95227V35.7681H6.70674C7.34372 35.7681 7.96403 35.7681 8.5936 35.7522C8.92876 35.7457 9.20003 35.3419 9.21206 35.0832C9.23243 34.6495 9.22965 34.2122 9.22688 33.7897C9.22595 33.6445 9.22503 33.4966 9.22503 33.3505Z" fill="#70A6A6"/>
<path d="M35.2994 18.7041H31.0544V22.9493H35.2994V18.7041Z" fill="#70A6A6"/>
<path d="M35.2503 25.168H31.0118V29.4336H35.2503V25.168Z" fill="#70A6A6"/>
<path d="M35.3403 31.6455H31.1008V35.9065H35.3403V31.6455Z" fill="#70A6A6"/>
<path d="M9.06399 5.55664H4.82086V9.80556H9.06399V5.55664Z" fill="#70A6A6"/>
<path d="M9.13982 18.5146H4.91058V22.7673H9.13982V18.5146Z" fill="#70A6A6"/>
</svg>
