<svg width="12" height="12" viewBox="0 0 12 12" fill="none" xmlns="http://www.w3.org/2000/svg">
<path d="M0.375 9.17499L9.17499 0.375C9.67499 -0.125 10.375 -0.125 10.775 0.375C11.275 0.875 11.275 1.57498 10.775 1.97498L1.97498 10.775C1.47498 11.275 0.775 11.275 0.375 10.775C-0.125 10.375 -0.125 9.57499 0.375 9.17499Z" fill="#70A6A6"/>
<path d="M9.17499 10.775L0.375 1.97498C-0.125 1.47498 -0.125 0.775 0.375 0.375C0.875 -0.125 1.57498 -0.125 1.97498 0.375L10.775 9.17499C11.275 9.67499 11.275 10.375 10.775 10.775C10.375 11.275 9.57499 11.275 9.17499 10.775Z" fill="#70A6A6"/>
</svg>
