<svg width="22" height="18" viewBox="0 0 22 18" fill="none" xmlns="http://www.w3.org/2000/svg">
<path d="M18.3819 5.72161C17.3327 1.64158 13.2527 -0.806383 9.17263 0.242769C6.02518 1.05878 3.6937 3.73983 3.46056 7.12043C1.24568 7.47014 -0.386361 9.68513 0.0799289 11.9C0.429646 13.8817 2.17823 15.3972 4.15996 15.3972H7.65714V13.9984H4.15996C2.64452 13.9984 1.36234 12.7159 1.36234 11.2005C1.36234 9.68502 2.64452 8.40284 4.15996 8.40284C4.50968 8.40284 4.85951 8.05301 4.85951 7.70329C4.85951 4.20612 7.65716 1.52518 11.0378 1.52518C14.0686 1.52518 16.6333 3.62325 17.0996 6.53756C17.0996 6.88728 17.4493 7.00385 17.6825 7.12043C19.5476 7.35357 20.9465 9.10233 20.5968 11.0841C20.3636 12.8326 18.8482 13.9982 17.2162 14.1148H14.4184V15.5139H17.2162C19.8973 15.5139 22.1122 13.2988 21.9956 10.6176C21.9956 8.16958 20.4802 6.1879 18.3819 5.72161Z" fill="#70A6A6"/>
<path d="M10.455 8.51965L7.65723 11.3173L8.58986 12.2499L10.2219 10.6177V17.2626H11.6207V10.6177L13.2528 12.2499L14.1854 11.3173L11.3876 8.51965C11.1545 8.2865 10.8047 8.2865 10.455 8.51965Z" fill="#70A6A6"/>
</svg>
