<svg width="22" height="22" viewBox="0 0 22 22" fill="none" xmlns="http://www.w3.org/2000/svg">
<path d="M22 10.9553C21.489 10.5769 20.903 10.312 20.2812 10.1784V2.71949C20.2812 2.04746 19.9517 1.71703 19.2818 1.71703H2.71949C2.04875 1.71703 1.71875 2.04703 1.71875 2.7182V19.2805C1.71875 19.9495 2.05004 20.2795 2.72207 20.2795H10.178C10.3146 20.9006 10.58 21.4862 10.957 21.9983H2.23438C2.1884 21.9832 2.14371 21.9639 2.09688 21.9553C1.33891 21.7925 0.739062 21.3924 0.360508 20.7152C0.197227 20.4226 0.117734 20.0836 0 19.7656V2.23438C0.0173167 2.19658 0.0316825 2.15751 0.0429688 2.1175C0.17918 1.43 0.515625 0.85207 1.10902 0.479101C1.45277 0.264258 1.8584 0.155977 2.23609 0H19.7656C19.8108 0.0167689 19.8568 0.0311122 19.9036 0.0429688C20.6637 0.203242 21.2605 0.606719 21.6395 1.28348C21.8032 1.57566 21.8823 1.91512 22 2.23309V10.9553Z" fill="#70A6A6"/>
<path d="M14.0507 21.9983C13.6308 21.884 13.2196 21.7568 12.8613 21.4895C11.2753 20.3045 11.5477 17.857 13.3632 17.0663C13.4976 17.0079 13.5423 16.9456 13.5398 16.8016C13.5307 16.295 13.5363 15.7876 13.5363 15.2548H13.2931C12.3478 15.2548 11.4025 15.2625 10.4572 15.2518C9.52346 15.241 8.76421 14.4714 8.77452 13.545H13.5299V8.78926C14.1546 8.71535 14.8726 9.17941 15.1171 9.83125C15.1998 10.0591 15.2434 10.2992 15.246 10.5415C15.2607 11.4507 15.2521 12.36 15.2521 13.2692V13.5334H16.2201C16.4492 13.5334 16.7147 13.6043 16.8969 13.512C17.0658 13.426 17.1453 13.1648 17.2656 12.9817C17.5459 12.5537 17.947 12.2186 18.4182 12.0191C18.8893 11.8195 19.4091 11.7645 19.9116 11.8611C20.9321 12.0545 21.7412 12.8674 21.9539 13.9111C21.9656 13.9579 21.9799 14.004 21.9969 14.0491V14.7366C21.9801 14.7817 21.9658 14.8278 21.9539 14.8745C21.739 15.9345 20.9016 16.76 19.8703 16.9293C18.7888 17.1076 17.7142 16.6427 17.214 15.6875C17.0159 15.3093 16.7968 15.2148 16.4152 15.2453C16.0337 15.2758 15.6487 15.2522 15.2525 15.2522C15.2525 15.7734 15.2581 16.2662 15.2491 16.7591C15.2465 16.9198 15.2847 17.0002 15.4463 17.0762C16.3637 17.5059 16.8935 18.2407 16.9588 19.2509C17.0258 20.2795 16.5901 21.0912 15.7058 21.6236C15.4136 21.7998 15.0613 21.8763 14.7369 21.9983H14.0507ZM19.426 13.5334C19.2561 13.5326 19.0897 13.5822 18.9479 13.6759C18.8061 13.7696 18.6953 13.9033 18.6294 14.06C18.5636 14.2167 18.5457 14.3894 18.5781 14.5562C18.6104 14.7231 18.6915 14.8766 18.8111 14.9974C18.9306 15.1182 19.0834 15.2008 19.2499 15.2348C19.4164 15.2688 19.5893 15.2527 19.7466 15.1884C19.904 15.1241 20.0388 15.0147 20.1339 14.8738C20.229 14.733 20.2803 14.5671 20.2811 14.3971C20.2821 14.1693 20.1926 13.9503 20.0323 13.7885C19.872 13.6266 19.6539 13.535 19.426 13.5339V13.5334ZM14.3944 18.5612C14.2243 18.5612 14.0581 18.6117 13.9167 18.7062C13.7753 18.8008 13.6652 18.9351 13.6002 19.0923C13.5352 19.2495 13.5184 19.4224 13.5517 19.5892C13.5851 19.756 13.6672 19.9091 13.7876 20.0292C13.9081 20.1493 14.0615 20.2309 14.2283 20.2638C14.3952 20.2966 14.5681 20.2792 14.7251 20.2138C14.882 20.1484 15.0161 20.0378 15.1102 19.8962C15.2043 19.7545 15.2543 19.5881 15.2538 19.418C15.2531 19.1905 15.1623 18.9726 15.0012 18.812C14.8401 18.6514 14.6219 18.5612 14.3944 18.5612Z" fill="#70A6A6"/>
<path d="M5.0593 3.407V5.10126H3.36719V3.407H5.0593Z" fill="#70A6A6"/>
<path d="M8.45109 5.10126H6.75684V3.40915H8.45109V5.10126Z" fill="#70A6A6"/>
<path d="M10.1553 3.40227H11.8474V5.09438H10.1553V3.40227Z" fill="#70A6A6"/>
<path d="M15.2366 5.10383H13.5488V3.40442H15.2366V5.10383Z" fill="#70A6A6"/>
<path d="M16.9463 3.40227H18.6354V5.10211H16.9463V3.40227Z" fill="#70A6A6"/>
<path d="M3.40918 16.8945H5.10129V18.5866H3.40918V16.8945Z" fill="#70A6A6"/>
<path d="M6.71973 16.8945H8.40969V18.5943H6.71973V16.8945Z" fill="#70A6A6"/>
</svg>
