<svg width="20" height="20" viewBox="0 0 20 20" fill="none" xmlns="http://www.w3.org/2000/svg">
<path d="M8.20508 15.2528L5.89078 17.5671C5.47001 17.9878 4.83889 18.3034 4.20773 18.3034C3.57658 18.3034 2.94546 18.093 2.52469 17.5671C1.57796 16.6203 1.57796 15.0425 2.52469 14.0957L7.25833 9.3621C7.6791 8.94133 8.31023 8.62574 8.94138 8.62574C9.57253 8.62574 10.2037 8.83614 10.6244 9.3621C10.94 9.67768 11.5712 9.67768 11.8868 9.3621C12.2024 9.04653 12.2024 8.41536 11.8868 8.09978C10.2037 6.41671 7.57383 6.41671 5.99595 8.09978L1.26231 12.8334C-0.420768 14.5165 -0.420768 17.1463 1.26231 18.7242C2.10384 19.5657 3.15581 19.9865 4.20773 19.9865C5.25965 19.9865 6.31163 19.5657 7.15316 18.7242L9.46734 16.4099C9.78291 16.0943 9.78291 15.4632 9.46734 15.1477C9.15176 14.8321 8.62585 14.8321 8.20508 15.2528Z" fill="#70A6A6"/>
<path d="M18.7243 1.26232C17.8827 0.420781 16.8307 0 15.7788 0C14.6217 0 13.5697 0.420781 12.8334 1.26232L9.99326 4.10252C9.67768 4.41809 9.67768 5.04919 9.99326 5.36477C10.3088 5.68035 10.9399 5.68035 11.2555 5.36477L14.0958 2.52464C15.0425 1.57791 16.6203 1.57791 17.567 2.52464C17.9878 2.9454 18.3035 3.57653 18.3035 4.20768C18.3035 4.83884 18.093 5.46996 17.567 5.89073L12.4127 11.0452C11.992 11.4659 11.3607 11.7815 10.7296 11.7815C10.0984 11.7815 9.46727 11.5711 9.04651 11.0452C8.73093 10.7296 8.09983 10.7296 7.78425 11.0452C7.57387 11.2556 7.57379 11.4659 7.57379 11.6763C7.57379 11.8867 7.67906 12.0971 7.78425 12.3075C8.62579 13.149 9.67763 13.5698 10.7296 13.5698C11.7815 13.5698 12.8334 13.149 13.675 12.3075L18.8294 7.15305C20.4073 5.57517 20.4073 2.94539 18.7243 1.26232Z" fill="#70A6A6"/>
</svg>
