<svg width="34" height="33" viewBox="0 0 34 33" fill="none" xmlns="http://www.w3.org/2000/svg">
<path d="M32.7359 22.4558C32.5264 22.2423 32.212 22.1248 31.85 22.124C30.191 22.1192 28.9129 22.1192 27.6976 22.124C26.9832 22.124 26.5672 22.54 26.5593 23.2584C26.5593 23.483 26.5593 23.7077 26.5593 23.9323C26.5593 24.1093 26.5593 24.2871 26.5593 24.4642C26.5514 25.7343 25.7306 26.5503 24.4684 26.5511C19.4737 26.5511 14.2703 26.5511 8.56203 26.5511C7.26654 26.5511 6.46082 25.743 6.46082 24.4451C6.46082 19.4441 6.46082 14.2542 6.46082 8.56892C6.46082 7.26389 7.27527 6.45262 8.58347 6.45183C13.8644 6.45183 19.1456 6.45183 24.4271 6.45183C25.7607 6.45183 26.5585 7.25199 26.5601 8.59511C26.5601 9.53287 26.5601 10.4704 26.5601 11.4076V14.5828C26.5601 16.4091 26.5601 18.2349 26.5601 20.0601C26.5601 20.7277 26.9745 21.1968 27.5658 21.2C28.1572 21.2032 28.5716 20.7404 28.5819 20.0728C28.5819 19.9601 28.5819 19.8466 28.5819 19.7291H29.4138C30.1775 19.7291 30.9409 19.7291 31.704 19.7291C31.8689 19.7307 32.0336 19.7174 32.1961 19.6894C32.3319 19.6651 32.4609 19.6121 32.5745 19.5339C32.6882 19.4558 32.7838 19.3542 32.855 19.2361C32.927 19.1155 32.973 18.9812 32.99 18.8417C33.0069 18.7023 32.9945 18.5608 32.9534 18.4264C32.8526 18.0938 32.5748 17.6969 31.8199 17.6946C31.1848 17.6946 30.5577 17.6946 29.9274 17.6946H28.6073V15.3115H29.1558C30.0155 15.3115 30.8641 15.3115 31.7127 15.3115C31.8906 15.3127 32.0681 15.2949 32.2422 15.2584C32.6494 15.1671 32.9209 14.8662 32.9884 14.4328C33.0558 13.9994 32.886 13.6493 32.5391 13.4675C32.3051 13.3484 32.0466 13.2856 31.7841 13.2841C31.0507 13.273 30.3061 13.2746 29.5853 13.2754H28.8836C28.7891 13.2754 28.697 13.2754 28.5986 13.2754V10.8821H31.8445C32.3827 10.8821 32.7455 10.6685 32.9233 10.247C32.9887 10.1007 33.0166 9.94037 33.0044 9.78054C32.9922 9.62071 32.9403 9.46646 32.8534 9.33177C32.6573 9.0325 32.312 8.85548 31.9056 8.85548C31.1443 8.84834 30.372 8.84913 29.6242 8.85072H28.6716H28.5867C28.6415 7.48933 28.2573 6.4161 27.415 5.57705C26.5728 4.73799 25.5162 4.36808 24.1604 4.41729V3.20753C24.1604 2.53199 24.1604 1.83424 24.1604 1.14362C24.1604 0.592717 23.9373 0.232326 23.5047 0.0711831C23.3566 0.0123758 23.1965 -0.00939575 23.0381 0.00775798C22.8797 0.0249117 22.7278 0.0804726 22.5958 0.169616C22.3061 0.368862 22.1386 0.715757 22.1354 1.12219C22.129 1.83662 22.1306 2.56216 22.1354 3.26547C22.1354 3.62904 22.1354 3.99287 22.1354 4.35696C22.1354 4.37204 22.1354 4.38713 22.1354 4.40221H19.746V3.86718C19.746 3.02574 19.746 2.19462 19.746 1.36351C19.7467 1.19309 19.7359 1.02282 19.7135 0.85388C19.6912 0.662866 19.6107 0.483336 19.4829 0.339632C19.3551 0.195928 19.1861 0.0950034 18.999 0.0505444C18.8558 0.0042655 18.7037 -0.00741715 18.5551 0.0164536C18.4065 0.0403244 18.2656 0.0990687 18.1441 0.187873C17.8718 0.390295 17.7139 0.74354 17.7107 1.15791C17.7059 1.90409 17.7067 2.66139 17.7107 3.39487C17.7107 3.70604 17.7107 4.01721 17.7107 4.32839V4.40777H15.3293V3.59649C15.3293 2.81856 15.3293 2.04063 15.3293 1.26269C15.3303 1.09449 15.3121 0.926712 15.2753 0.762592C15.1856 0.371244 14.9062 0.11008 14.4894 0.0283179C14.0727 -0.0534445 13.6956 0.107699 13.5067 0.440305C13.3754 0.682207 13.3054 0.952562 13.3027 1.22776C13.29 1.96283 13.2916 2.70901 13.2931 3.43059C13.2931 3.73303 13.2931 4.03547 13.2931 4.33791C13.2931 4.36172 13.2931 4.38633 13.2931 4.41174H10.8879V3.45916C10.8879 2.69393 10.8879 1.92843 10.8879 1.16267C10.8879 0.622881 10.6736 0.26011 10.2528 0.0830909C10.1066 0.0179058 9.94641 -0.00963453 9.78682 0.00298321C9.62723 0.0156009 9.47333 0.0679755 9.33917 0.155328C9.04149 0.351399 8.86765 0.6975 8.86289 1.1079C8.85574 1.86837 8.85733 2.64075 8.85812 3.38772C8.85812 3.70524 8.85812 4.02277 8.85812 4.34029V4.41967C7.49515 4.3649 6.42113 4.75069 5.58287 5.59292C4.7446 6.43516 4.37548 7.49092 4.4247 8.84754H4.31912H3.4237C2.70054 8.84754 1.95198 8.84754 1.2177 8.84119C0.615203 8.83325 0.211947 9.09442 0.0206392 9.61754L0.00396929 9.66437V10.0867L0.0261959 10.1383C0.241318 10.6463 0.647749 10.8884 1.26771 10.8797C1.99167 10.8694 2.72912 10.8718 3.44196 10.8733H4.33023H4.40961V13.2611H4.32388H3.66502C2.86645 13.2611 2.04089 13.2651 1.22882 13.2572H1.20977C0.590595 13.2572 0.188927 13.5263 0.0134952 14.0573L0 14.0994V14.5201L0.0238145 14.5741C0.245287 15.0702 0.658862 15.3084 1.27248 15.3012C1.99802 15.2925 2.73626 15.2941 3.45069 15.2957L4.3469 15.3115H4.42152V17.693H3.45466C2.74023 17.693 2.00278 17.693 1.27803 17.6882C0.658862 17.6834 0.246081 17.9184 0.0285772 18.4145L0.00476327 18.4685V18.8892L0.0182579 18.9313C0.195277 19.4679 0.603296 19.7402 1.23358 19.7315C1.96865 19.7251 2.71721 19.7267 3.44037 19.7315H4.32944H4.41358V22.1208H4.36278H3.55944C2.8085 22.1208 2.03136 22.1256 1.26851 22.1153C0.648543 22.1073 0.242112 22.3487 0.0269899 22.8559L0.00476327 22.9083V23.3306L0.0214332 23.3766C0.212741 23.8998 0.614409 24.1585 1.2185 24.153C1.95118 24.1435 2.69816 24.1451 3.41973 24.1474H4.31912H4.42628C4.37786 25.5025 4.7573 26.5693 5.58366 27.4021C6.4251 28.2483 7.49833 28.6332 8.85812 28.5769C8.85812 28.6047 8.85812 28.6317 8.85812 28.6563C8.85812 28.9254 8.85812 29.1945 8.85812 29.4636C8.85812 30.2264 8.86289 31.0147 8.85177 31.7886C8.84384 32.3896 9.105 32.792 9.62812 32.9794L9.67416 32.9968H10.0973L10.1497 32.9746C10.6569 32.7595 10.899 32.3522 10.8903 31.7299C10.88 31.0044 10.8823 30.2653 10.8839 29.5509C10.8839 29.254 10.8839 28.9571 10.8839 28.6602V28.5848H13.2717V28.6642C13.2717 28.9651 13.2717 29.2651 13.2717 29.5652C13.2717 30.2875 13.2717 31.0337 13.2677 31.7672C13.2622 32.3959 13.5321 32.8063 14.0703 32.9857L14.1131 33H14.5339L14.5886 32.9754C15.084 32.7547 15.3221 32.3459 15.315 31.7267C15.3062 31.002 15.3078 30.2637 15.3094 29.5493C15.3094 29.254 15.3094 28.9582 15.3094 28.6618V28.5824H17.6908V28.6618C17.6908 28.9571 17.6908 29.2524 17.6908 29.5477C17.6908 30.2621 17.6908 31.0012 17.6861 31.7267C17.6789 32.3459 17.9171 32.7547 18.4124 32.9754L18.4664 33H18.8879L18.9316 32.9857C19.4682 32.8047 19.7373 32.3943 19.7301 31.7656C19.7214 30.9909 19.7238 30.2026 19.7262 29.4398C19.7262 29.181 19.7262 28.9222 19.7262 28.6634C19.7262 28.638 19.7262 28.6134 19.7262 28.584H22.1282V29.2937C22.1282 29.5318 22.1282 29.77 22.1282 30.0137C22.1282 30.5765 22.133 31.1576 22.1219 31.7283C22.11 32.3419 22.36 32.7603 22.8625 32.9746L22.9149 32.9968H23.3372L23.3841 32.9794C23.9064 32.7881 24.1667 32.3864 24.158 31.7839C24.1469 31.0425 24.1493 30.2876 24.1517 29.5612C24.1517 29.2596 24.1517 28.9574 24.1517 28.6547V28.5753C25.5146 28.6301 26.5903 28.2451 27.4293 27.4021C28.2684 26.559 28.6399 25.5017 28.5883 24.1474H29.7099C30.4156 24.1474 31.1451 24.1474 31.8627 24.1474C32.5462 24.1474 32.9939 23.7505 33.0034 23.1504C33.0078 23.0226 32.9863 22.8952 32.9403 22.7759C32.8944 22.6566 32.8249 22.5477 32.7359 22.4558Z" fill="#70A6A6"/>
<path d="M21.403 22.1217H17.4094C16.6997 22.1217 16.4171 22.4828 16.3052 22.7845C16.2462 22.9319 16.2241 23.0914 16.2408 23.2493C16.2576 23.4071 16.3127 23.5585 16.4013 23.6902C16.6005 23.9784 16.949 24.1451 17.3538 24.1475H17.5269C18.1794 24.1514 18.8422 24.1554 19.5114 24.1554C20.21 24.1554 20.9125 24.1506 21.6094 24.1387C22.0079 24.1354 22.4011 24.0472 22.7628 23.88C23.6908 23.4275 24.1599 22.6226 24.1576 21.489C24.1528 19.6839 24.1536 17.8486 24.1576 16.0736C24.1576 15.0681 24.1576 14.0626 24.1576 13.0571C24.1576 12.9103 24.1576 12.7634 24.1576 12.6174C24.1576 12.1347 24.1576 11.6362 24.1369 11.1425C24.0782 9.94065 23.0589 8.91981 21.8658 8.87298C21.1673 8.8444 20.46 8.84678 19.7749 8.84916H19.0034C18.6747 8.84916 18.2699 8.88091 18.0032 9.14684C17.7364 9.41277 17.7023 9.82078 17.7023 10.1462V11.3108C17.7023 12.9444 17.7023 14.6337 17.7079 16.2951C17.7079 16.442 17.696 16.4634 17.5729 16.5253C17.0809 16.7773 16.6884 17.1881 16.459 17.6911C16.2297 18.1941 16.1769 18.7598 16.3092 19.2965C16.4444 19.8355 16.7541 20.3146 17.19 20.6592C17.6259 21.0038 18.1636 21.1945 18.7192 21.2016H18.7287C19.2855 21.1931 19.8239 21.001 20.2603 20.6551C20.6967 20.3091 21.0066 19.8287 21.1419 19.2886C21.2725 18.7458 21.2142 18.1747 20.9765 17.6696C20.7388 17.1645 20.336 16.7555 19.8345 16.5102C19.7448 16.4674 19.7353 16.4626 19.7368 16.3245C19.7416 15.5497 19.7408 14.763 19.7368 14.0018V10.8877C20.2904 10.8877 20.8437 10.8861 21.3967 10.8829C21.7103 10.8829 21.8992 10.925 21.9905 11.0155C22.0818 11.106 22.1238 11.2917 22.1238 11.6029V21.3945C22.1278 22.0058 22.0111 22.1217 21.403 22.1217ZM18.2667 18.7154C18.2679 18.6549 18.2812 18.5953 18.3059 18.5401C18.3306 18.4849 18.3661 18.4352 18.4104 18.3939C18.4916 18.3118 18.6014 18.2643 18.7168 18.2614H18.7295C18.8478 18.2663 18.9595 18.3172 19.0408 18.4031C19.1222 18.4891 19.1669 18.6034 19.1653 18.7218C19.1647 18.78 19.1526 18.8376 19.1297 18.8912C19.1068 18.9448 19.0736 18.9934 19.032 19.0342C18.9903 19.0749 18.9411 19.1071 18.887 19.1288C18.8329 19.1505 18.7751 19.1614 18.7168 19.1608C18.5985 19.1599 18.4852 19.1129 18.4011 19.0297C18.317 18.9465 18.2688 18.8337 18.2667 18.7154Z" fill="#70A6A6"/>
<path d="M15.402 16.4959C15.9059 16.2532 16.3111 15.8448 16.5498 15.339C16.7886 14.8333 16.8463 14.2608 16.7134 13.7176C16.5797 13.1778 16.2719 12.6971 15.8375 12.3499C15.4032 12.0026 14.8665 11.8082 14.3105 11.7965C13.1809 11.7838 12.1315 12.6126 11.8735 13.7263C11.7431 14.2704 11.8031 14.8428 12.0436 15.3479C12.2842 15.8531 12.6906 16.2605 13.1952 16.5023C13.2746 16.5419 13.2826 16.5451 13.2826 16.661C13.277 17.9938 13.2778 19.3489 13.2786 20.6594V22.1216H11.5774C11.017 22.1216 10.8884 21.9907 10.8884 21.4247C10.8884 18.151 10.8884 14.8776 10.8884 11.6044C10.8884 10.9972 11.0035 10.8829 11.6163 10.8821H12.9555C13.8398 10.8821 14.7241 10.8821 15.6084 10.8821C16.3181 10.8821 16.5999 10.5201 16.711 10.2169C16.7698 10.0695 16.7917 9.9101 16.7748 9.75239C16.7579 9.59468 16.7028 9.44348 16.6142 9.31192C16.4149 9.02456 16.0664 8.85865 15.6568 8.85627H15.4751C14.1422 8.84913 12.7634 8.84119 11.406 8.8658C11.0081 8.86891 10.6156 8.95744 10.255 9.12538C9.32541 9.57944 8.85547 10.3828 8.85865 11.514C8.86341 13.327 8.85865 15.1702 8.85865 16.9531C8.85865 17.9375 8.85865 18.9223 8.85865 19.9077C8.85865 20.0577 8.85865 20.2086 8.85865 20.3586C8.85865 20.8476 8.85468 21.3532 8.87849 21.8525C8.93723 23.0583 9.95252 24.0792 11.1424 24.1284C11.6537 24.1498 12.1744 24.1546 12.6801 24.1546H13.2651C13.5215 24.1546 13.7787 24.1546 14.0351 24.1546H14.0438C14.5058 24.1546 14.8051 24.0625 15.0115 23.8561C15.2179 23.6497 15.3139 23.3433 15.3139 22.8678V21.8898C15.3139 20.1736 15.3139 18.3971 15.3099 16.6507C15.3107 16.5404 15.3163 16.538 15.402 16.4959ZM14.2955 13.8438C14.3851 13.8414 14.4734 13.8664 14.5484 13.9154C14.6235 13.9645 14.6818 14.0353 14.7155 14.1184C14.7493 14.2015 14.7569 14.293 14.7373 14.3805C14.7176 14.468 14.6718 14.5475 14.6058 14.6082C14.5646 14.6507 14.5153 14.6845 14.4607 14.7076C14.4062 14.7306 14.3475 14.7425 14.2883 14.7424C14.17 14.7382 14.0581 14.688 13.9763 14.6024C13.8946 14.5168 13.8496 14.4027 13.8509 14.2843C13.8504 14.226 13.8615 14.1681 13.8837 14.1142C13.9059 14.0602 13.9387 14.0113 13.9802 13.9702C14.0216 13.9291 14.0709 13.8968 14.125 13.8751C14.1792 13.8534 14.2371 13.8427 14.2955 13.8438Z" fill="#70A6A6"/>
<path d="M8.41452 9.39448C8.67641 9.38535 8.92439 9.27437 9.10569 9.08515C9.28698 8.89594 9.38726 8.64343 9.38519 8.38139C9.38313 8.11935 9.27887 7.86847 9.09461 7.68214C8.91035 7.49581 8.66065 7.38875 8.39865 7.38376C8.1369 7.39111 7.88834 7.50026 7.7058 7.688C7.52326 7.87574 7.42114 8.12727 7.42114 8.38912C7.42114 8.65097 7.52326 8.9025 7.7058 9.09024C7.88834 9.27798 8.1369 9.38713 8.39865 9.39448H8.41452Z" fill="#70A6A6"/>
<path d="M24.6264 7.38379C24.3646 7.39027 24.1156 7.49861 23.9325 7.68578C23.7493 7.87295 23.6463 8.12418 23.6455 8.38606C23.6447 8.64794 23.746 8.89982 23.928 9.08814C24.11 9.27646 24.3583 9.38638 24.62 9.39451H24.6375C24.8993 9.38585 25.1474 9.27539 25.329 9.08663C25.5106 8.89786 25.6114 8.64569 25.61 8.38375C25.6085 8.1218 25.5049 7.87076 25.3212 7.68401C25.1376 7.49727 24.8883 7.38956 24.6264 7.38379Z" fill="#70A6A6"/>
<path d="M7.68048 25.3136C7.77353 25.409 7.88459 25.485 8.00722 25.5372C8.12986 25.5894 8.26163 25.6167 8.39491 25.6176H8.40364C8.63776 25.6178 8.86472 25.5369 9.04597 25.3887C9.22723 25.2405 9.35159 25.0341 9.39795 24.8046C9.44431 24.5751 9.4098 24.3367 9.30029 24.1298C9.19078 23.9228 9.01302 23.7602 8.79719 23.6694C8.58137 23.5787 8.34079 23.5655 8.11631 23.632C7.89184 23.6985 7.69731 23.8407 7.56576 24.0343C7.43422 24.228 7.37377 24.4613 7.39468 24.6944C7.41559 24.9276 7.51657 25.1464 7.68048 25.3136Z" fill="#70A6A6"/>
<path d="M24.6194 25.6199H24.6282C24.8935 25.6188 25.1475 25.5124 25.3345 25.3242C25.5215 25.136 25.6262 24.8813 25.6256 24.616C25.625 24.3507 25.5192 24.0964 25.3314 23.909C25.1436 23.7216 24.8891 23.6164 24.6238 23.6164C24.3585 23.6164 24.104 23.7216 23.9162 23.909C23.7284 24.0964 23.6226 24.3507 23.622 24.616C23.6214 24.8813 23.7261 25.136 23.9131 25.3242C24.1001 25.5124 24.3541 25.6188 24.6194 25.6199Z" fill="#70A6A6"/>
</svg>
