<svg width="17" height="17" viewBox="0 0 17 17" fill="none" xmlns="http://www.w3.org/2000/svg">
<path d="M16.375 9.87495C16.125 9.74995 15.875 9.62495 15.5 9.87495C14.5 10.3749 13.5 10.75 12.5 10.75C9.24999 10.75 6.50001 7.99998 6.50001 4.74998C6.50001 3.74998 6.75002 2.74995 7.37502 1.74995C7.50002 1.49995 7.50002 1.12501 7.37502 0.875009C7.25002 0.625009 6.87502 0.499994 6.62502 0.624994C5.00002 1.12499 3.50002 2.12498 2.37502 3.49998C1.25002 4.87498 0.75 6.62498 0.75 8.49998C0.75 13 4.375 16.625 8.875 16.625C10.625 16.625 12.375 16 13.875 15C15.25 14 16.25 12.375 16.75 10.75C16.75 10.375 16.625 9.99995 16.375 9.87495ZM14.5 11.7499C13.25 13.7499 11.125 15 8.74999 15C4.99999 15 2 12 2 8.24996C2 5.87496 3.25001 3.74999 5.25001 2.49999C5.12501 3.12499 4.99999 3.74996 4.99999 4.49996C4.99999 8.62496 8.37499 12 12.5 12C13.25 12.125 13.875 11.9999 14.5 11.7499Z" fill="#70A6A6"/>
</svg>
