<svg width="20" height="23" viewBox="0 0 20 23" fill="none" xmlns="http://www.w3.org/2000/svg">
<path d="M17.2804 3.28566H14.7249V2.9206C14.7249 1.33858 13.3862 0 11.8042 0H7.78841C6.20639 0 4.86773 1.33858 4.86773 2.9206V3.28566H2.3122C0.973577 3.28566 0 4.38093 0 5.59787V7.3016C0 7.78837 0.36505 8.03173 0.730131 8.03173H1.3386L2.43387 22.2699C2.43387 22.635 2.79892 23 3.164 23H16.3069C16.672 23 17.0371 22.635 17.0371 22.2699L18.1323 8.03173H18.7408C19.2276 8.03173 19.4709 7.66668 19.4709 7.3016V5.59787C19.5926 4.25924 18.619 3.28566 17.2804 3.28566ZM6.57147 2.79893C6.57147 2.06877 7.17991 1.46026 7.91007 1.46026H11.926C12.6562 1.46026 13.2646 2.06877 13.2646 2.79893V3.164H6.69314V2.79893H6.57147ZM1.58207 5.59787C1.58207 5.11109 1.94712 4.86773 2.3122 4.86773H17.1587C17.6455 4.86773 17.8889 5.23278 17.8889 5.59787V6.5714H1.46026V5.59787H1.58207ZM15.6985 21.5397H4.01594L3.04233 8.03173H16.6719L15.6985 21.5397Z" fill="#70A6A6"/>
<path d="M9.85708 19.9577C10.3439 19.9577 10.5872 19.5927 10.5872 19.2276V10.5873C10.5872 10.1005 10.2222 9.85718 9.85708 9.85718C9.37031 9.85718 9.12695 10.2222 9.12695 10.5873V19.2276C9.12695 19.5927 9.492 19.9577 9.85708 19.9577Z" fill="#70A6A6"/>
<path d="M12.8996 19.9576C13.0213 19.9576 13.0213 19.9576 12.8996 19.9576C13.3863 19.9576 13.7515 19.5925 13.7515 19.2274L14.2382 10.5871C14.2382 10.1004 13.8731 9.73535 13.508 9.73535C13.0213 9.73535 12.6562 10.1004 12.6562 10.4655L12.1694 19.1057C12.1694 19.5925 12.5345 19.9576 12.8996 19.9576Z" fill="#70A6A6"/>
<path d="M6.69309 19.9576C6.69309 19.9576 6.81478 19.9576 6.69309 19.9576C7.17986 19.9576 7.54491 19.5925 7.42322 19.1057L6.93642 10.4655C6.93642 9.97871 6.5714 9.73535 6.08462 9.73535C5.59785 9.73535 5.35449 10.1004 5.35449 10.5871L5.8413 19.2274C5.96299 19.5925 6.32801 19.9576 6.69309 19.9576Z" fill="#70A6A6"/>
</svg>
