<svg width="71" height="73" viewBox="0 0 71 73" fill="none" xmlns="http://www.w3.org/2000/svg">
<path d="M17.5688 29.9766H13.1475C12.7456 29.9766 11.9418 30.3785 11.5399 30.7804C11.1379 31.1823 10.7361 31.5843 10.7361 32.3881V48.4652C10.7361 49.671 11.5399 50.4748 12.7457 50.4748C13.9515 50.4748 14.7554 49.671 14.7554 48.4652V43.6421C15.5592 43.6421 16.363 43.6421 17.1668 43.6421C20.7842 43.6421 23.9996 40.8286 23.9996 36.8093C23.9996 33.192 21.1861 29.9766 17.5688 29.9766ZM17.5688 39.2209C17.1668 39.2209 15.961 39.2209 15.1572 39.2209C15.1572 38.417 15.1572 37.2112 15.1572 36.8093C15.1572 36.4074 15.1572 35.2016 15.1572 34.3978H17.5688C18.7745 34.3978 19.9804 35.6035 19.9804 36.8093C19.9804 38.0151 18.7745 39.2209 17.5688 39.2209Z" fill="#70A6A6"/>
<path d="M35.6559 29.9766H31.2347C30.8328 29.9766 30.0289 30.3785 29.627 30.7804C29.2251 31.1823 28.8232 31.5843 28.8232 32.3881V48.0633C28.8232 48.4652 29.2251 49.2691 29.627 49.671C30.0289 50.0729 30.4309 50.4748 31.2347 50.4748C31.2347 50.4748 34.4501 50.4748 35.6559 50.4748C40.479 50.4748 44.0964 46.0536 44.0964 40.4267C44.0964 33.9958 40.479 29.9766 35.6559 29.9766ZM35.6559 45.6517C35.254 45.6517 34.0482 45.6517 33.2443 45.6517C33.2443 43.6421 33.2443 36.0055 33.2443 34.3978H35.6559C39.6752 34.3978 39.6752 38.819 39.6752 40.0247C39.6752 42.8382 38.4694 45.6517 35.6559 45.6517Z" fill="#70A6A6"/>
<path d="M57.7618 33.9958C58.9676 33.9958 59.7714 33.192 59.7714 31.9862C59.7714 30.7804 58.9676 29.9766 57.7618 29.9766H51.3309C50.1251 29.9766 49.3213 30.7804 49.3213 31.9862V48.0633C49.3213 49.269 50.1251 50.0729 51.3309 50.0729C52.5367 50.0729 53.3406 49.269 53.3406 48.0633V42.0344H57.3598C58.5656 42.0344 59.3695 41.2305 59.3695 40.0247C59.3695 38.8189 58.5656 38.0151 57.3598 38.0151H53.3406V34.3978H57.7618V33.9958Z" fill="#70A6A6"/>
<path d="M64.1924 21.135H62.5847V20.3311C62.5847 17.5176 61.3788 15.1061 59.7711 13.0964L50.9288 3.85213C48.9192 1.8425 46.1056 0.636719 43.2921 0.636719H15.1573C11.5399 0.636719 8.72652 3.45021 8.72652 7.06755V21.135H7.11872C3.50138 21.135 0.687988 23.9485 0.687988 27.5658V52.8872C0.687988 56.5045 3.50138 59.318 7.11872 59.318H8.72652V66.5527C8.72652 70.17 11.5399 72.9835 15.1573 72.9835H56.1538C59.7712 72.9835 62.5847 70.17 62.5847 66.5527V59.318H64.1924C67.8097 59.318 70.6232 56.5045 70.6232 52.8872V27.5658C70.6232 23.9485 67.8097 21.135 64.1924 21.135ZM12.7458 7.06755C12.7458 5.86177 13.5496 5.05791 14.7554 5.05791H42.8903C44.498 5.05791 46.5075 5.86177 47.3114 7.06755L56.1538 16.3119C57.3596 17.5176 57.7615 19.1253 57.7615 20.7331V21.5369H12.3438V7.06755H12.7458ZM58.1635 66.5527C58.1635 67.7585 57.3596 68.5623 56.1538 68.5623H14.7554C13.5496 68.5623 12.7458 67.7585 12.7458 66.5527V59.318H58.1635V66.5527ZM66.202 52.8872C66.202 54.093 65.3981 54.8968 64.1924 54.8968H7.11872C5.91294 54.8968 5.10908 54.093 5.10908 52.8872V27.5658C5.10908 26.36 5.91294 25.5562 7.11872 25.5562H64.1924C65.3981 25.5562 66.202 26.36 66.202 27.5658V52.8872Z" fill="#70A6A6"/>
</svg>
