<svg width="27" height="27" viewBox="0 0 27 27" fill="none" xmlns="http://www.w3.org/2000/svg">
<path d="M26 13.5C26 20.4035 20.4035 26 13.5 26C6.59646 26 1 20.4035 1 13.5C1 6.59646 6.59646 1 13.5 1C20.4035 1 26 6.59646 26 13.5Z" stroke="#808080" stroke-width="2" stroke-linecap="round" stroke-linejoin="round"/>
<path d="M10.9336 16.0642C10.9336 17.4807 12.0819 18.6289 13.4983 18.6289C14.9147 18.6289 16.0629 17.4807 16.0629 16.0642C16.0629 14.6478 14.9147 13.4996 13.4983 13.4996C12.0819 13.4996 10.9336 12.3513 10.9336 10.9349C10.9336 9.51847 12.0819 8.37024 13.4983 8.37024C14.9147 8.37024 16.0629 9.51847 16.0629 10.9349" stroke="#808080" stroke-width="2" stroke-linecap="round" stroke-linejoin="round"/>
<path d="M13.4971 8.37012V5.40053" stroke="#808080" stroke-width="2" stroke-linecap="round" stroke-linejoin="round"/>
<path d="M13.4971 18.629V21.5986" stroke="#808080" stroke-width="2" stroke-linecap="round" stroke-linejoin="round"/>
</svg>
