<svg width="19" height="20" viewBox="0 0 19 20" fill="none" xmlns="http://www.w3.org/2000/svg">
<path d="M18.2 12C17.8 12 17.4 12.4 17.4 12.8V17.5H1.59998V12.8C1.59998 12.4 1.19993 12 0.799927 12C0.399927 12 0 12.4 0 12.8V18.3C0 18.7 0.399927 19.1 0.799927 19.1H18.2C18.6 19.1 19 18.7 19 18.3V12.8C19 12.3 18.7 12 18.2 12Z" fill="#70A6A6"/>
<path d="M9.00002 13.3C9.40002 13.7 9.9 13.5 10.1 13.3L14.9 8.5C15.2 8.2 15.2 7.69999 14.9 7.39999C14.6 7.09999 14.1 7.09999 13.8 7.39999L10.3 10.9V0.799988C10.3 0.399988 9.90002 0 9.50002 0C9.10002 0 8.69998 0.399988 8.69998 0.799988V10.8L5.19998 7.29999C4.89998 6.99999 4.4 6.99999 4.1 7.29999C3.8 7.59999 3.8 8.09999 4.1 8.39999L9.00002 13.3Z" fill="#70A6A6"/>
</svg>
