<svg width="50" height="48" viewBox="0 0 50 48" fill="none" xmlns="http://www.w3.org/2000/svg">
<path d="M23.2012 27.0288L10.3864 18.7649C9.9705 18.4967 9.4295 18.5251 9.04402 18.8353L0.428474 25.7685C-0.181723 26.2596 -0.132197 27.2039 0.526074 27.6284L13.3409 35.8924C13.7568 36.1606 14.2978 36.1322 14.6833 35.8219L23.2988 28.8888C23.909 28.3977 23.8595 27.4533 23.2012 27.0288Z" fill="#1587EA"/>
<path d="M26.7009 28.8887L35.3164 35.8218C35.702 36.1321 36.2429 36.1605 36.6588 35.8922L49.4736 27.6283C50.1319 27.2038 50.1814 26.2594 49.5712 25.7684L40.9557 18.8353C40.5701 18.5251 40.0292 18.4967 39.6133 18.7649L26.7985 27.0288C26.1403 27.4533 26.0907 28.3977 26.7009 28.8887Z" fill="#1587EA"/>
<path d="M23.2988 7.1868L14.6833 0.253716C14.2977 -0.0565255 13.7568 -0.0849224 13.3409 0.183283L0.526074 8.44722C-0.132197 8.87172 -0.181723 9.81609 0.428474 10.3071L9.04402 17.2402C9.42962 17.5504 9.9705 17.5788 10.3864 17.3106L23.2012 9.04669C23.8595 8.62219 23.909 7.67782 23.2988 7.1868Z" fill="#1587EA"/>
<path d="M49.4737 8.44722L36.6589 0.183283C36.243 -0.0849224 35.702 -0.0565255 35.3165 0.253716L26.7009 7.1868C26.0907 7.67782 26.1403 8.62219 26.7985 9.04669L39.6135 17.3106C40.0294 17.5788 40.5704 17.5504 40.9558 17.2402L49.5714 10.3071C50.1815 9.81598 50.1319 8.87161 49.4737 8.44722Z" fill="#1587EA"/>
<path d="M24.3723 30.106L14.724 37.8023C14.3743 38.0813 13.8857 38.1059 13.5098 37.8635L11.1317 36.3298C10.4385 35.8827 9.52539 36.3805 9.52539 37.2053V38.0344C9.52539 38.3987 9.71567 38.7365 10.0271 38.9253L24.3912 47.6327C24.7231 47.8339 25.1393 47.8339 25.4712 47.6327L39.8353 38.9253C40.1467 38.7365 40.337 38.3988 40.337 38.0344V37.2944C40.337 36.4696 39.4238 35.9718 38.7307 36.4189L36.492 37.8626C36.1155 38.1054 35.6258 38.0803 35.2761 37.8001L25.6734 30.1073C25.2933 29.8029 24.7529 29.8023 24.3723 30.106Z" fill="#1587EA"/>
</svg>
