<svg width="20" height="25" viewBox="0 0 20 25" fill="none" xmlns="http://www.w3.org/2000/svg">
<path d="M8.02092 24.9481V20.8522H0V0H1.14458V7.2667H8.02092V3.15239H8.33247C9.70391 3.15239 11.0761 3.15828 12.4475 3.1465C12.6648 3.1465 12.7768 3.22015 12.8777 3.39913C13.12 3.83295 13.3932 4.24984 13.6334 4.68292C13.7262 4.85085 13.8352 4.90388 14.0237 4.90388C15.9107 4.89725 17.7977 4.89946 19.6848 4.89946H20V12.5816H8.02607V8.49967H1.17625V19.6406H8.01355V15.5366C8.1314 15.5292 8.21168 15.5211 8.29196 15.5211C9.69139 15.5211 11.0908 15.5211 12.4902 15.5167C12.5616 15.5085 12.6336 15.5228 12.6965 15.5575C12.7593 15.5923 12.8098 15.6457 12.8408 15.7104C13.0986 16.1663 13.38 16.609 13.6378 17.0656C13.6703 17.134 13.7231 17.1907 13.789 17.228C13.8549 17.2653 13.9307 17.2814 14.006 17.2741C15.8835 17.2674 17.7624 17.2696 19.6398 17.2696H19.9897V24.9481H8.02092ZM9.23253 16.7172V23.7762H18.8105V18.4503H18.4938C17.0583 18.4503 15.6213 18.4503 14.1872 18.4503C13.819 18.4503 13.3903 18.5505 13.1075 18.3929C12.8246 18.2352 12.6655 17.8353 12.5366 17.509C12.2715 16.8307 11.8148 16.6289 11.1122 16.7055C10.4957 16.7681 9.86669 16.7172 9.23032 16.7172H9.23253ZM18.8075 11.4105V6.08014H18.4547C16.7519 6.08014 15.049 6.08014 13.3468 6.08382C13.1605 6.08382 13.0478 6.03668 12.9535 5.86286C12.7141 5.4283 12.4416 5.01142 12.2 4.57833C12.1664 4.50008 12.1085 4.43469 12.0349 4.39174C11.9614 4.34879 11.876 4.33055 11.7913 4.33969C11.0275 4.35295 10.2637 4.34485 9.49989 4.34558C9.4115 4.34558 9.32312 4.35516 9.23695 4.35958V11.4083L18.8075 11.4105Z" fill="#70A6A6"/>
</svg>
