<svg width="20" height="23" viewBox="0 0 20 23" fill="none" xmlns="http://www.w3.org/2000/svg">
<path d="M17.2804 3.28566H14.7249V2.9206C14.7249 1.33858 13.3862 0 11.8042 0H7.78841C6.20639 0 4.86773 1.33858 4.86773 2.9206V3.28566H2.3122C0.973577 3.28566 0 4.38093 0 5.59787V7.3016C0 7.78837 0.36505 8.03173 0.730131 8.03173H1.3386L2.43387 22.2699C2.43387 22.635 2.79892 23 3.164 23H16.3069C16.672 23 17.0371 22.635 17.0371 22.2699L18.1323 8.03173H18.7408C19.2276 8.03173 19.4709 7.66668 19.4709 7.3016V5.59787C19.5926 4.25924 18.619 3.28566 17.2804 3.28566ZM6.57147 2.79893C6.57147 2.06877 7.17991 1.46026 7.91007 1.46026H11.926C12.6562 1.46026 13.2646 2.06877 13.2646 2.79893V3.164H6.69314V2.79893H6.57147ZM1.58207 5.59787C1.58207 5.11109 1.94712 4.86773 2.3122 4.86773H17.1587C17.6455 4.86773 17.8889 5.23278 17.8889 5.59787V6.5714H1.46026V5.59787H1.58207ZM15.6985 21.5397H4.01594L3.04233 8.03173H16.6719L15.6985 21.5397Z" fill="#70A6A6"/>
<path d="M9.85684 19.9577C10.3436 19.9577 10.587 19.5926 10.587 19.2275V10.5873C10.587 10.1005 10.2219 9.85714 9.85684 9.85714C9.37007 9.85714 9.12671 10.2222 9.12671 10.5873V19.2275C9.12671 19.5926 9.49176 19.9577 9.85684 19.9577Z" fill="#70A6A6"/>
<path d="M12.8993 19.9577C13.021 19.9577 13.021 19.9577 12.8993 19.9577C13.3861 19.9577 13.7513 19.5926 13.7513 19.2275L14.2379 10.5873C14.2379 10.1005 13.8729 9.73546 13.5078 9.73546C13.021 9.73546 12.656 10.1005 12.656 10.4656L12.1692 19.1058C12.1692 19.5926 12.5342 19.9577 12.8993 19.9577Z" fill="#70A6A6"/>
<path d="M6.69333 19.9577C6.69333 19.9577 6.81503 19.9577 6.69333 19.9577C7.18011 19.9577 7.54516 19.5926 7.42346 19.1058L6.93666 10.4656C6.93666 9.97882 6.57164 9.73546 6.08487 9.73546C5.59809 9.73546 5.35474 10.1005 5.35474 10.5873L5.84154 19.2275C5.96323 19.5926 6.32825 19.9577 6.69333 19.9577Z" fill="#70A6A6"/>
</svg>
