<svg width="84" height="71" viewBox="0 0 84 71" fill="none" xmlns="http://www.w3.org/2000/svg">
<path d="M0.00616382 9.14092C0.449977 7.86127 0.715031 6.47499 1.37253 5.32454C3.36558 1.79936 6.50926 0.060362 10.5508 0.0275506C16.456 -0.0196158 22.3612 0.00294206 28.2664 0.0275506C31.521 0.0275506 34.2599 1.22722 36.4852 3.63065C38.8994 6.23506 41.3856 8.77179 43.8101 11.3659C44.2738 11.8831 44.8455 12.2925 45.4848 12.5653C46.1242 12.8381 46.8157 12.9677 47.5106 12.945C56.0951 12.9204 64.6796 12.9204 73.2641 12.945C78.4872 12.945 82.5596 16.0969 83.7164 21.0289C83.9065 21.9045 83.9961 22.7989 83.9835 23.6948C84.0013 35.8624 84.0047 48.03 83.9937 60.1975C83.9937 66.5035 79.5289 70.9761 73.2066 70.9802C54.8883 70.9884 36.5708 70.9884 18.2539 70.9802C15.328 70.9802 12.396 71.0663 9.4824 70.8797C4.72579 70.5782 0.938993 67.0018 0.149992 62.3159C0.112138 62.1591 0.0619869 62.0055 0 61.8565L0.00616382 9.14092ZM41.9219 64.6517H73.0854C76.0688 64.6517 77.655 63.0911 77.6571 60.1298C77.6571 48.017 77.6571 35.9027 77.6571 23.7871C77.6718 23.2704 77.6228 22.7538 77.5112 22.2491C77.0304 20.3788 75.4709 19.2817 73.3278 19.2796C64.6885 19.2796 56.0492 19.2796 47.41 19.2796C45.8891 19.3093 44.3795 19.0136 42.9827 18.4122C41.586 17.8109 40.3345 16.9179 39.3124 15.7934C36.8591 13.189 34.3627 10.6256 31.9299 8.00072C31.4541 7.45714 30.863 7.02619 30.1994 6.73922C29.5358 6.45224 28.8165 6.31644 28.0938 6.34169C22.353 6.37656 16.6122 6.354 10.8714 6.35605C7.95782 6.35605 6.35105 7.94535 6.35105 10.8553C6.35105 27.2815 6.35105 43.707 6.35105 60.1319C6.33504 60.6491 6.38266 61.1663 6.49282 61.672C6.97568 63.5627 8.54752 64.6558 10.7501 64.6578L41.9219 64.6517Z" fill="#70A6A6"/>
</svg>
