<svg width="50" height="50" viewBox="0 0 50 50" fill="none" xmlns="http://www.w3.org/2000/svg">
<path d="M49.1905 21.4977C49.1905 10.0388 39.9002 0.749207 28.4397 0.749207C16.9792 0.749207 7.68848 10.0388 7.68848 21.4977C7.68848 32.9571 16.9792 42.2462 28.4397 42.2462C39.9002 42.2462 49.1905 32.9571 49.1905 21.4977Z" fill="#00CDB8"/>
<path d="M29.3438 0.770203C37.9489 3.72736 44.1333 11.89 44.1333 21.4977C44.1333 31.1058 37.9489 39.2685 29.3438 42.2257C40.3846 41.7523 49.1905 32.6542 49.1905 21.4977C49.1905 10.3417 40.3846 1.24361 29.3438 0.770203Z" fill="#00CDB8"/>
<path d="M43.6423 6.29654C39.5812 2.23618 34.1819 0 28.4393 0C22.6962 0 17.2969 2.23618 13.2358 6.29654C9.17503 10.3569 6.93848 15.7555 6.93848 21.4977C6.93848 27.24 9.17503 32.6389 13.2358 36.6993C17.2969 40.7597 22.6962 42.9958 28.4393 42.9958C34.1819 42.9958 39.5812 40.7597 43.6423 36.6993C47.7031 32.6389 49.9397 27.24 49.9397 21.4977C49.9397 15.7555 47.7031 10.3569 43.6423 6.29654ZM40.1054 20.7485C40.0573 18.1149 39.7559 15.5624 39.2234 13.1916C40.4945 13.6013 41.6843 14.0865 42.7703 14.6435C46.0666 16.333 48.027 18.4776 48.3817 20.7485H40.1054ZM38.6066 21.2151H29.1885V11.6184C32.1483 11.6726 34.994 12.048 37.5701 12.7129C38.198 15.1966 38.5532 18.3868 38.6066 21.2151ZM29.1885 10.1192V1.55411C31.5395 1.89934 33.7577 3.86467 35.5006 7.17545C36.1228 8.35686 36.6576 9.66034 37.1005 11.0577C34.6305 10.4893 31.9541 10.1688 29.1885 10.1192ZM27.6897 1.55373V10.1192C24.924 10.1685 22.2476 10.4893 19.7776 11.0577C20.2205 9.65996 20.7553 8.35648 21.3771 7.17545C23.1208 3.86467 25.3387 1.89934 27.6897 1.55373ZM27.6897 11.6184V21.2151H18.2716C18.325 18.3868 18.6801 15.197 19.308 12.7129C21.8841 12.048 24.7298 11.6726 27.6897 11.6184ZM16.7728 20.7485H8.49678C8.85117 18.4776 10.8119 16.333 14.1078 14.6435C15.1939 14.0865 16.3837 13.6013 17.6547 13.1916C17.1218 15.5624 16.8208 18.1149 16.7728 20.7485ZM16.7728 22.2473C16.8208 24.881 17.1222 27.433 17.6547 29.8038C16.3837 29.3941 15.1939 28.9089 14.1078 28.3524C10.8119 26.6628 8.85117 24.5182 8.4964 22.2473H16.7728ZM18.2716 22.2473H27.6897V31.3774C24.7298 31.3232 21.8841 30.9479 19.308 30.283C18.6801 27.7988 18.325 25.0755 18.2716 22.2473ZM27.6897 32.8762V41.4417C25.3387 41.0961 23.1208 39.1312 21.3771 35.8204C20.7553 34.639 20.2205 33.3355 19.7776 31.9382C22.248 32.5066 24.924 32.827 27.6897 32.8762ZM29.1885 41.4417V32.8766C31.9541 32.8274 34.6301 32.5066 37.1005 31.9382C36.6576 33.3359 36.1228 34.6394 35.5006 35.8204C33.7577 39.1312 31.5395 41.0965 29.1885 41.4417ZM29.1885 31.3774V22.2473H38.6062C38.5528 25.0755 38.198 27.7988 37.5701 30.283C34.994 30.9479 32.1483 31.3232 29.1885 31.3774ZM40.1054 22.2473H48.3817C48.027 24.5182 46.0666 26.6628 42.7703 28.3524C41.6843 28.9089 40.4945 29.3941 39.2234 29.8038C39.7559 27.433 40.0573 24.881 40.1054 22.2473ZM47.8065 16.4936C46.7338 15.3175 45.2716 14.2414 43.4543 13.3099C42.0474 12.5885 40.48 11.9812 38.795 11.496C38.28 9.67369 37.6201 7.98378 36.827 6.47736C35.8855 4.68941 34.801 3.24669 33.6169 2.17972C40.5494 4.039 46.0078 9.53789 47.8065 16.4936ZM23.2612 2.17972C22.0771 3.24669 20.9926 4.68941 20.0511 6.47736C19.258 7.98378 18.5981 9.67369 18.0831 11.496C16.3982 11.9812 14.8307 12.5889 13.4242 13.3099C11.6065 14.2414 10.1443 15.3175 9.07166 16.4936C10.8703 9.53789 16.3287 4.039 23.2612 2.17972ZM9.07166 26.5018C10.1443 27.6783 11.6065 28.7544 13.4242 29.686C14.8307 30.407 16.3982 31.0143 18.0831 31.4999C18.5981 33.3221 19.258 35.0121 20.0511 36.5185C20.9926 38.3064 22.0771 39.7491 23.2612 40.8161C16.3287 38.9565 10.8703 33.4579 9.07166 26.5018ZM33.6169 40.8161C34.801 39.7491 35.8855 38.3064 36.827 36.5185C37.6201 35.0121 38.28 33.3221 38.795 31.4999C40.48 31.0146 42.0474 30.407 43.4543 29.686C45.2716 28.7544 46.7338 27.6783 47.8069 26.5022C46.0078 33.4579 40.5494 38.9568 33.6169 40.8161Z" fill="#21464F"/>
<path d="M48.3403 35.1028C47.9265 35.1028 47.5908 35.4382 47.5908 35.8521V42.189C47.5908 43.565 46.4711 44.6846 45.0952 44.6846H43.9561L44.6813 43.9594C44.9739 43.6668 44.9739 43.1923 44.6813 42.8997C44.3887 42.6071 43.9142 42.6071 43.6216 42.8997L41.7054 44.8154C41.5082 44.9505 41.3789 45.1771 41.3789 45.4338C41.3789 45.4369 41.3793 45.4399 41.3793 45.443C41.3793 45.446 41.3789 45.4491 41.3789 45.4525C41.3789 45.6512 41.4579 45.8416 41.5986 45.9824L43.5849 47.9683C43.731 48.1144 43.9229 48.1876 44.1148 48.1876C44.3063 48.1876 44.4982 48.1144 44.6447 47.9683C44.9373 47.6757 44.9373 47.2012 44.6447 46.9086L43.9191 46.1834H45.0952C47.2978 46.1834 49.0896 44.3916 49.0896 42.1894V35.8524C49.0896 35.4382 48.7542 35.1028 48.3403 35.1028Z" fill="#FF1759"/>
<path d="M9.59286 3.33098L7.60655 1.34505C7.31396 1.05246 6.83942 1.05246 6.54645 1.34505C6.25386 1.63764 6.25386 2.11219 6.54645 2.40477L7.272 3.12995H6.09631C3.89371 3.12995 2.10156 4.92171 2.10156 7.12394V13.4613C2.10156 13.8748 2.43726 14.2105 2.85115 14.2105C3.26505 14.2105 3.60036 13.8748 3.60036 13.4613V7.12394C3.60036 5.74797 4.71997 4.62874 6.09631 4.62874H7.23538L6.50983 5.35392C6.21724 5.6465 6.21724 6.12105 6.50983 6.41364C6.65631 6.55974 6.84819 6.63298 7.04007 6.63298C7.23157 6.63298 7.42345 6.55974 7.56993 6.41364L9.48605 4.49752C9.68289 4.36248 9.81221 4.13588 9.81221 3.87915C9.81221 3.8761 9.81183 3.87343 9.81183 3.87038C9.81412 3.67545 9.74164 3.47976 9.59286 3.33098Z" fill="#87B45F"/>
<path d="M35.8723 50H3.49159C1.56326 50 0 48.4371 0 46.5092V18.1248C0 17.7689 0.288391 17.4805 0.644302 17.4805H14.2891C14.5042 17.4805 14.7053 17.588 14.8247 17.767L16.724 20.612C16.8434 20.7909 17.0444 20.8984 17.2596 20.8984H38.7199C39.0755 20.8984 39.3639 21.1868 39.3639 21.5424V46.5092C39.3639 48.4371 37.8006 50 35.8723 50Z" fill="#00CDB8"/>
<path d="M38.7196 20.8984H17.2596C17.0441 20.8984 16.8434 20.7909 16.7236 20.612L14.8247 17.767C14.7053 17.588 14.5042 17.4805 14.2891 17.4805H0.644302C0.288391 17.4805 0 17.7689 0 18.1248V20.6833H9.37576C10.6594 20.6833 11.8584 21.3242 12.5713 22.3919C13.2839 23.4596 14.4829 24.1009 15.7669 24.1009H32.3189C34.441 24.1009 36.161 25.8209 36.161 27.9423V49.7116C36.161 49.8047 36.1561 49.8966 36.1488 49.9878C37.9478 49.8466 39.3639 48.3437 39.3639 46.5088V21.5424C39.3639 21.1868 39.0755 20.8984 38.7196 20.8984Z" fill="#21464F"/>
<path d="M9.88965 39.3162V30.3765C9.88965 30.2021 9.96747 30.0644 10.1235 29.9633C10.2799 29.8622 10.4634 29.8119 10.6747 29.8119H15.4828C15.6662 29.8119 15.804 29.8874 15.8959 30.0389C15.9878 30.1907 16.034 30.3719 16.034 30.5832C16.034 30.8037 15.9855 30.9918 15.889 31.1478C15.7929 31.3042 15.6571 31.382 15.4828 31.382H11.6803V34.137H13.7883C13.9626 34.137 14.098 34.2057 14.1945 34.3438C14.291 34.4815 14.3391 34.6512 14.3391 34.8534C14.3391 35.0369 14.291 35.1975 14.1945 35.3356C14.098 35.4729 13.9626 35.5419 13.7883 35.5419H11.6803V39.3162C11.6803 39.4909 11.591 39.6286 11.4117 39.7297C11.2328 39.8308 11.0238 39.8812 10.785 39.8812C10.537 39.8812 10.3257 39.8308 10.1513 39.7297C9.97662 39.6286 9.88965 39.4909 9.88965 39.3162Z" fill="white"/>
<path d="M16.2266 30.5905C16.2266 30.3845 16.2746 30.2037 16.3711 30.0469C16.4677 29.8901 16.6077 29.8119 16.7915 29.8119H22.6189C22.8023 29.8119 22.9423 29.8901 23.0388 30.0469C23.1354 30.2037 23.1838 30.3845 23.1838 30.5905C23.1838 30.8052 23.1331 30.9906 23.032 31.1474C22.9309 31.3042 22.7932 31.382 22.6189 31.382H20.6074V39.3135C20.6074 39.489 20.5177 39.6275 20.3388 39.729C20.1595 39.8304 19.9505 39.8812 19.7121 39.8812C19.4641 39.8812 19.2528 39.8304 19.078 39.729C18.9037 39.6275 18.8164 39.489 18.8164 39.3135V31.382H16.7915C16.6168 31.382 16.4791 31.3061 16.378 31.1539C16.2769 31.0021 16.2266 30.814 16.2266 30.5905Z" fill="white"/>
<path d="M24.1611 39.3162V30.3627C24.1611 30.2159 24.2233 30.0873 24.3473 29.9771C24.4713 29.8668 24.6342 29.8119 24.8363 29.8119H27.6054C28.5511 29.8119 29.3091 30.0621 29.8786 30.5626C30.4478 31.0631 30.7327 31.8459 30.7327 32.9109V32.9937C30.7327 34.0679 30.4363 34.858 29.8439 35.363C29.2515 35.8681 28.4687 36.1206 27.4952 36.1206H25.9521V39.3162C25.9521 39.4909 25.8629 39.6286 25.6836 39.7293C25.5043 39.8308 25.2956 39.8812 25.0568 39.8812C24.8089 39.8812 24.5975 39.8308 24.4232 39.7293C24.2485 39.6286 24.1611 39.4909 24.1611 39.3162ZM25.9521 34.7157H27.4952C27.9545 34.7157 28.3104 34.5826 28.5629 34.3163C28.8154 34.05 28.9417 33.6552 28.9417 33.1314V32.9663C28.9417 32.4429 28.8154 32.0481 28.5629 31.7814C28.3104 31.5155 27.9545 31.382 27.4952 31.382H25.9521V34.7157Z" fill="white"/>
</svg>
