<svg width="27" height="27" viewBox="0 0 27 27" fill="none" xmlns="http://www.w3.org/2000/svg">
<path d="M16 3.81547C16.9171 4.05214 17.7834 4.41547 18.5788 4.8859C18.5788 4.8859 18.962 4.50255 19.3925 4.0721C19.705 3.75924 20.1292 3.58377 20.5713 3.58377C21.0129 3.58377 21.4371 3.75924 21.7496 4.0721C22.1287 4.45131 22.5488 4.87127 22.9279 5.25048C23.2408 5.56298 23.4162 5.98715 23.4162 6.4288C23.4162 6.87091 23.2408 7.29503 22.9279 7.60753C22.4975 8.03798 22.1142 8.42127 22.1142 8.42127C22.5845 9.21671 22.9479 10.0829 23.1846 11.0001H24.3333C25.2537 11.0001 26 11.7463 26 12.6667V14.3334C26 15.2538 25.2537 16.0001 24.3333 16.0001H23.1846C22.9479 16.9171 22.5845 17.7834 22.1142 18.5788C22.1142 18.5788 22.4975 18.9621 22.9279 19.3925C23.2408 19.7051 23.4162 20.1292 23.4162 20.5713C23.4162 21.013 23.2408 21.4371 22.9279 21.7496C22.5488 22.1288 22.1287 22.5488 21.7496 22.928C21.4371 23.2409 21.0129 23.4163 20.5713 23.4163C20.1292 23.4163 19.705 23.2409 19.3925 22.928C18.962 22.4975 18.5788 22.1142 18.5788 22.1142C17.7834 22.5846 16.9171 22.948 16 23.1846V24.3334C16 25.2538 15.2537 26.0001 14.3333 26.0001H12.6667C11.7462 26.0001 11 25.2538 11 24.3334V23.1846C10.0829 22.948 9.21665 22.5846 8.42121 22.1142C8.42121 22.1142 8.03792 22.4975 7.60747 22.928C7.29497 23.2409 6.8708 23.4163 6.42874 23.4163C5.98709 23.4163 5.56286 23.2409 5.25042 22.928C4.87127 22.5488 4.45125 22.1288 4.07204 21.7496C3.75918 21.4371 3.58371 21.013 3.58371 20.5713C3.58371 20.1292 3.75918 19.7051 4.07204 19.3925C4.50249 18.9621 4.88584 18.5788 4.88584 18.5788C4.4154 17.7834 4.05213 16.9171 3.8154 16.0001H2.6667C1.74627 16.0001 1 15.2538 1 14.3334V12.6667C1 11.7463 1.74627 11.0001 2.6667 11.0001H3.8154C4.05213 10.0829 4.4154 9.21671 4.88584 8.42127C4.88584 8.42127 4.50249 8.03798 4.07204 7.60753C3.75918 7.29503 3.58371 6.87091 3.58371 6.4288C3.58371 5.98715 3.75918 5.56298 4.07204 5.25048C4.45125 4.87127 4.87127 4.45131 5.25042 4.0721C5.56286 3.75924 5.98709 3.58377 6.42874 3.58377C6.8708 3.58377 7.29497 3.75924 7.60747 4.0721C8.03792 4.50255 8.42121 4.8859 8.42121 4.8859C9.21665 4.41547 10.0829 4.05214 11 3.81547V2.66671C11 1.74627 11.7462 1.00006 12.6667 1.00006H14.3333C15.2537 1.00006 16 1.74627 16 2.66671V3.81547Z" stroke="#808080" stroke-width="2" stroke-linecap="round" stroke-linejoin="round"/>
<path d="M13.5 8.50006C16.2596 8.50006 18.5 10.7405 18.5 13.5001C18.5 16.2596 16.2596 18.5001 13.5 18.5001C10.7404 18.5001 8.5 16.2596 8.5 13.5001C8.5 10.7405 10.7404 8.50006 13.5 8.50006Z" stroke="#808080" stroke-width="2" stroke-linecap="round" stroke-linejoin="round"/>
</svg>
