<svg width="27" height="27" viewBox="0 0 27 27" fill="none" xmlns="http://www.w3.org/2000/svg">
<path d="M21.851 16.8861L24.8467 16.0834C25.6768 15.861 26.1694 15.0077 25.947 14.1777L22.7252 2.15371C22.5027 1.32368 21.6495 0.831043 20.8195 1.05345L3.7855 5.61771C2.95542 5.84011 2.46283 6.69328 2.68524 7.52341L3.43892 10.3361" stroke="#808080" stroke-width="2" stroke-linecap="round" stroke-linejoin="round"/>
<path d="M3.43891 10.3361L3.35645 10.0284L23.3964 4.65869L24.2019 7.66465L14.2319 10.3361" stroke="#808080" stroke-width="2" stroke-linecap="round" stroke-linejoin="round"/>
<path d="M2.55601 10.4399H20.1908C21.0502 10.4399 21.7469 11.1365 21.7469 11.9959V24.444C21.7469 25.3033 21.0502 26 20.1908 26H2.55601C1.69668 26 1 25.3033 1 24.444V11.9959C1 11.1365 1.69668 10.4399 2.55601 10.4399Z" stroke="#808080" stroke-width="2" stroke-linecap="round" stroke-linejoin="round"/>
<path d="M4.1123 13.5519H9.29902V16.6639H4.1123V13.5519Z" stroke="#808080" stroke-width="2" stroke-linecap="round" stroke-linejoin="round"/>
<path d="M16.041 13.5519H18.6344" stroke="#808080" stroke-width="2" stroke-linecap="round" stroke-linejoin="round"/>
<path d="M16.041 16.6639H18.6344" stroke="#808080" stroke-width="2" stroke-linecap="round" stroke-linejoin="round"/>
<path d="M4.1123 22.888H9.29902" stroke="#808080" stroke-width="2" stroke-linecap="round" stroke-linejoin="round"/>
<path d="M4.1123 19.7759H5.66832" stroke="#808080" stroke-width="2" stroke-linecap="round" stroke-linejoin="round"/>
<path d="M8.78027 19.7759H10.3363" stroke="#808080" stroke-width="2" stroke-linecap="round" stroke-linejoin="round"/>
<path d="M13.4482 19.7759H15.0043" stroke="#808080" stroke-width="2" stroke-linecap="round" stroke-linejoin="round"/>
</svg>
