<svg width="27" height="28" viewBox="0 0 27 28" fill="none" xmlns="http://www.w3.org/2000/svg">
<path d="M13.5 20.4166C13.5 23.8684 10.7018 26.6666 7.25 26.6666C3.79823 26.6666 1 23.8684 1 20.4166C1 16.9649 3.79823 14.1666 7.25 14.1666C10.7018 14.1666 13.5 16.9649 13.5 20.4166Z" stroke="#808080" stroke-width="2" stroke-linecap="round" stroke-linejoin="round"/>
<path d="M6.81632 20.4166H7.68439C8.16381 20.4166 8.55241 20.8052 8.55241 21.2847V22.1527C8.55241 22.6321 8.16381 23.0208 7.68439 23.0208H6.81632C6.33689 23.0208 5.94824 22.6321 5.94824 22.1527" stroke="#808080" stroke-width="2" stroke-linecap="round" stroke-linejoin="round"/>
<path d="M7.68434 20.4166H6.81626C6.33684 20.4166 5.94824 20.028 5.94824 19.5486V18.6805C5.94824 18.2011 6.33684 17.8125 6.81626 17.8125H7.68434C8.16376 17.8125 8.55241 18.2011 8.55241 18.6805" stroke="#808080" stroke-width="2" stroke-linecap="round" stroke-linejoin="round"/>
<path d="M7.25 17.8125V16.7708" stroke="#808080" stroke-width="2" stroke-linecap="round" stroke-linejoin="round"/>
<path d="M7.25 24.0625V23.0208" stroke="#808080" stroke-width="2" stroke-linecap="round" stroke-linejoin="round"/>
<path d="M7.25 26.6666H24.4375C25.3004 26.6666 26 25.967 26 25.1041V6.77095L20.7919 1.56246H8.8125C7.94958 1.56246 7.25 2.26204 7.25 3.12496V14.1666" stroke="#808080" stroke-width="2" stroke-linecap="round" stroke-linejoin="round"/>
<path d="M20.792 1.56242V6.77075H26.0003L20.792 1.56242Z" stroke="#808080" stroke-width="2" stroke-linecap="round" stroke-linejoin="round"/>
<path d="M11.3838 15.7291H22.3545" stroke="#808080" stroke-width="2" stroke-linecap="round" stroke-linejoin="round"/>
<path d="M10.8955 11.0416H22.3538" stroke="#808080" stroke-width="2" stroke-linecap="round" stroke-linejoin="round"/>
<path d="M13.5 20.4166H22.3542" stroke="#808080" stroke-width="2" stroke-linecap="round" stroke-linejoin="round"/>
</svg>
