<svg width="20" height="21" viewBox="0 0 20 21" fill="none" xmlns="http://www.w3.org/2000/svg">
<path d="M15.1914 19.9999H1V0.999945H11.9895C13.24 2.25036 13.941 2.95142 15.1914 4.20183V12.5058" stroke="#70A6A6" stroke-width="1.43508" stroke-miterlimit="10" stroke-linecap="round" stroke-linejoin="round"/>
<path d="M11.6444 1.00003L11.6449 4.54754L15.1924 4.54797" stroke="#70A6A6" stroke-width="1.43508" stroke-miterlimit="10" stroke-linecap="round" stroke-linejoin="round"/>
<path d="M3.27429 4.64987H5.66939" stroke="#70A6A6" stroke-width="1.43508" stroke-miterlimit="10" stroke-linecap="round" stroke-linejoin="round"/>
<path d="M8.6853 7.22337L7.50403 12.8779" stroke="#70A6A6" stroke-width="1.43508" stroke-miterlimit="10" stroke-linecap="round" stroke-linejoin="round"/>
<path d="M5.08777 11.2947L3.84363 10.0506L5.08777 8.80649" stroke="#70A6A6" stroke-width="1.43508" stroke-miterlimit="10" stroke-linecap="round" stroke-linejoin="round"/>
<path d="M11.1035 8.80649L12.3477 10.0506L11.1035 11.2947" stroke="#70A6A6" stroke-width="1.43508" stroke-miterlimit="10" stroke-linecap="round" stroke-linejoin="round"/>
<path d="M18.9385 16.2529C18.9385 18.3223 17.2608 20 15.1914 20C13.1219 20 11.4443 18.3223 11.4443 16.2529C11.4443 14.1834 13.1219 12.5058 15.1914 12.5058C17.2608 12.5058 18.9385 14.1834 18.9385 16.2529Z" stroke="#70A6A6" stroke-width="1.43508" stroke-miterlimit="10" stroke-linecap="round" stroke-linejoin="round"/>
<path d="M16.7239 15.225L14.6179 17.331L13.4746 16.1877" stroke="#70A6A6" stroke-width="1.43508" stroke-miterlimit="10" stroke-linecap="round" stroke-linejoin="round"/>
</svg>
