<svg width="27" height="28" viewBox="0 0 27 28" fill="none" xmlns="http://www.w3.org/2000/svg">
<path d="M25.2187 26.46H1.78125C1.34979 26.46 1 26.1102 1 25.6787V23.8558C1 23.4243 1.34979 23.0745 1.78125 23.0745H25.2187C25.6502 23.0745 26 23.4243 26 23.8558V25.6787C26 26.1102 25.6502 26.46 25.2187 26.46Z" stroke="#808080" stroke-width="2" stroke-linecap="round" stroke-linejoin="round"/>
<path d="M13.2098 1.41981L1.49109 6.21147C1.19453 6.33012 1 6.61736 1 6.93684V8.95996C1 9.39147 1.34979 9.74121 1.78125 9.74121H25.2187C25.6502 9.74121 26 9.39147 26 8.95996V6.93684C26 6.61736 25.8055 6.33012 25.5089 6.21147L13.7902 1.41981C13.6039 1.34528 13.3961 1.34528 13.2098 1.41981Z" stroke="#808080" stroke-width="2" stroke-linecap="round" stroke-linejoin="round"/>
<path d="M13.5 4.74105V6.40771" stroke="#808080" stroke-width="2" stroke-linecap="round" stroke-linejoin="round"/>
<path d="M6.83333 23.0747H3.5V9.74138H6.83333V23.0747Z" stroke="#808080" stroke-width="2" stroke-linecap="round" stroke-linejoin="round"/>
<path d="M15.1663 23.0747H11.833V9.74138H15.1663V23.0747Z" stroke="#808080" stroke-width="2" stroke-linecap="round" stroke-linejoin="round"/>
<path d="M23.5003 23.0747H20.167V9.74138H23.5003V23.0747Z" stroke="#808080" stroke-width="2" stroke-linecap="round" stroke-linejoin="round"/>
</svg>
