<svg width="28" height="27" viewBox="0 0 28 27" fill="none" xmlns="http://www.w3.org/2000/svg">
<path d="M7.41149 25.8196H1V19.4611H7.41149V25.8196Z" stroke="#808080" stroke-width="2" stroke-linecap="round" stroke-linejoin="round"/>
<path d="M16.9493 25.8196H10.5908V19.4611H16.9493V25.8196Z" stroke="#808080" stroke-width="2" stroke-linecap="round" stroke-linejoin="round"/>
<path d="M26.5404 25.8196H20.1289V19.4611H26.5404V25.8196Z" stroke="#808080" stroke-width="2" stroke-linecap="round" stroke-linejoin="round"/>
<path d="M4.23145 16.2818V14.6922H23.307V16.2818" stroke="#808080" stroke-width="2" stroke-linecap="round" stroke-linejoin="round"/>
<path d="M13.7705 13.1025V16.2817" stroke="#808080" stroke-width="2" stroke-linecap="round" stroke-linejoin="round"/>
<path d="M15.3599 3.56485C15.3599 4.44275 14.6482 5.15448 13.7703 5.15448C12.8924 5.15448 12.1807 4.44275 12.1807 3.56485C12.1807 2.68696 12.8924 1.97523 13.7703 1.97523C14.6482 1.97523 15.3599 2.68696 15.3599 3.56485Z" stroke="#808080" stroke-width="2" stroke-linecap="round" stroke-linejoin="round"/>
<path d="M13.7701 6.74409C12.0142 6.74409 10.5908 8.16749 10.5908 9.92334H16.9493C16.9493 8.16749 15.5259 6.74409 13.7701 6.74409Z" stroke="#808080" stroke-width="2" stroke-linecap="round" stroke-linejoin="round"/>
</svg>
