<svg width="31" height="33" viewBox="0 0 31 33" fill="none" xmlns="http://www.w3.org/2000/svg">
<path d="M7.00098 7.62926V3.86496C7.00098 3.33443 7.21147 2.82595 7.58695 2.45096C7.96194 2.07548 8.47043 1.86498 9.00089 1.86498H14.0007C14.5312 1.86498 15.0397 2.07548 15.4147 2.45096C15.7902 2.82595 16.0007 3.33443 16.0007 3.86496C16.0007 4.39535 16.2111 4.90384 16.5866 5.27883C16.9616 5.65437 17.4701 5.8648 18.0006 5.8648H27.0001C28.657 5.8648 30.0001 7.20795 30.0001 8.8648V19.8643C30.0001 20.3948 29.7897 20.9033 29.4142 21.2783C29.0392 21.6538 28.5307 21.8643 28.0002 21.8643H19.0007C17.3438 21.8643 16.0007 20.5202 16.0007 18.8634V18.8634C16.0007 17.0069 15.2632 15.227 13.9507 13.9145C12.6383 12.6021 10.8578 11.8647 9.00188 11.8647H9.00089" stroke="#808080" stroke-width="2" stroke-linecap="round" stroke-linejoin="round"/>
<path d="M16.5522 24.9689C16.2134 24.2914 15.5209 23.8634 14.7634 23.8634H3.23595C2.47842 23.8634 1.78591 24.2914 1.44714 24.969V24.969C0.782272 26.2987 1.74923 27.8633 3.23595 27.8633H14.7634C16.2501 27.8633 17.2171 26.2987 16.5522 24.9689V24.9689Z" stroke="#808080" stroke-width="2" stroke-linecap="round" stroke-linejoin="round"/>
<path d="M22.9958 3.86337C22.9958 3.33291 22.7853 2.82443 22.4098 2.44938C22.0349 2.07389 21.5264 1.8634 20.9959 1.8634H13.9961H13.9972C15.101 1.8634 15.996 2.75839 15.996 3.86231V3.86337C15.996 4.39377 16.2065 4.90226 16.582 5.27731C16.957 5.65279 17.4655 5.86328 17.996 5.86328H24.9957C23.8913 5.86328 22.9958 4.96779 22.9958 3.86337Z" stroke="#808080" stroke-width="2" stroke-linecap="round" stroke-linejoin="round"/>
<path d="M29.9977 3.86435C29.9977 3.33389 29.7872 2.8254 29.4118 2.45035C29.0368 2.07487 28.5283 1.86438 27.9978 1.86438H20.998H20.999C22.103 1.86438 22.998 2.75937 22.998 3.86329V3.86435C22.998 4.96877 23.8934 5.86426 24.9979 5.86426H27.9978C29.1023 5.86426 29.9977 4.96887 29.9977 3.86435V3.86435Z" stroke="#808080" stroke-width="2" stroke-linecap="round" stroke-linejoin="round"/>
<path d="M12 9.86328H25.9995" stroke="#808080" stroke-width="2" stroke-linecap="round" stroke-linejoin="round"/>
<path d="M16 17.8643H25.9997" stroke="#808080" stroke-width="2" stroke-linecap="round" stroke-linejoin="round"/>
<path d="M13.9023 13.8633H22.0031" stroke="#808080" stroke-width="2" stroke-linecap="round" stroke-linejoin="round"/>
<path d="M9.00089 27.8634C10.1049 27.8634 11.0008 28.7594 11.0008 29.8633C11.0008 30.9673 10.1049 31.8633 9.00089 31.8633C7.8969 31.8633 7.00098 30.9673 7.00098 29.8633C7.00098 28.7594 7.8969 27.8634 9.00089 27.8634Z" stroke="#808080" stroke-width="2" stroke-linecap="round" stroke-linejoin="round"/>
<path d="M8.64097 11.8721C7.62964 11.9233 6.46883 11.7712 6.14894 10.8104C6.04979 10.5126 5.99609 10.1941 5.99609 9.8632C5.99609 8.20784 7.34057 6.8633 8.99599 6.8633C10.6514 6.8633 11.9959 8.20784 11.9959 9.8632C11.9959 10.1936 11.9424 10.5116 11.8435 10.809C11.5243 11.7697 10.364 11.9229 9.35296 11.8721C9.23472 11.8662 9.1157 11.8632 8.99599 11.8632H8.99499C8.87665 11.8632 8.75861 11.8662 8.64097 11.8721Z" stroke="#808080" stroke-width="2" stroke-linecap="round" stroke-linejoin="round"/>
<path d="M15.9975 18.8624C15.9975 17.0065 15.2601 15.226 13.9476 13.9136C12.6352 12.6011 10.8547 11.8637 8.99882 11.8637H8.99682C7.14087 11.8637 5.36042 12.6011 4.04793 13.9136C2.73551 15.226 1.99805 17.0065 1.99805 18.8624V20.8633C1.99805 22.5201 3.34119 23.8633 4.99805 23.8633H12.9975C14.6544 23.8633 15.9975 22.5201 15.9975 20.8633V18.8624Z" stroke="#808080" stroke-width="2" stroke-linecap="round" stroke-linejoin="round"/>
</svg>
