<svg width="28" height="27" viewBox="0 0 28 27" fill="none" xmlns="http://www.w3.org/2000/svg">
<g id="g2676">
<g id="g2678">
<g id="Clip path group">
<g id="g2680">
<g id="g2686">
<path id="path2688" d="M18.6429 13.4999C18.6429 15.8011 16.7774 17.6666 14.4762 17.6666C12.175 17.6666 10.3096 15.8011 10.3096 13.4999C10.3096 11.1988 12.175 9.33326 14.4762 9.33326C16.7774 9.33326 18.6429 11.1988 18.6429 13.4999Z" stroke="#808080" stroke-width="2" stroke-linecap="round" stroke-linejoin="round"/>
</g>
<g id="g2690">
<path id="path2692" d="M23.2053 22.4476C20.9525 24.6457 17.8727 26 14.4767 26C7.5844 26.0001 1.99595 20.4281 1.97661 13.5359C1.95728 6.64381 7.51586 1.04545 14.3928 1.00027C21.3137 0.954876 26.9766 6.68236 26.9766 13.6034C26.9766 15.8475 25.1573 17.6667 22.9133 17.6667H22.7065C20.4624 17.6667 18.6432 15.8475 18.6432 13.6034V13.5" stroke="#808080" stroke-width="2" stroke-linecap="round" stroke-linejoin="round"/>
</g>
</g>
</g>
</g>
</g>
</svg>
