<svg width="43" height="33" viewBox="0 0 43 33" fill="none" xmlns="http://www.w3.org/2000/svg">
<path d="M13.7206 9.88189C13.7206 12.6762 11.4554 14.9414 8.66108 14.9414C5.86671 14.9414 3.60156 12.6762 3.60156 9.88189C3.60156 7.0876 5.86671 4.82237 8.66108 4.82237C11.4554 4.82237 13.7206 7.0876 13.7206 9.88189Z" stroke="#FF4615" stroke-width="2" stroke-linecap="round" stroke-linejoin="round"/>
<path d="M28.8993 6.50884C28.8993 9.30313 26.6341 11.5684 23.8398 11.5684C21.0454 11.5684 18.7803 9.30313 18.7803 6.50884C18.7803 3.71455 21.0454 1.44932 23.8398 1.44932C26.6341 1.44932 28.8993 3.71455 28.8993 6.50884Z" stroke="#FF4615" stroke-width="2" stroke-linecap="round" stroke-linejoin="round"/>
<path d="M16.2394 22.305C16.1189 18.219 12.7768 14.9416 8.66155 14.9416C4.47007 14.9416 1.07227 18.3394 1.07227 22.5309V31.8066" stroke="#FF4615" stroke-width="2" stroke-linecap="round" stroke-linejoin="round"/>
<path d="M41.7171 9.88206L25.6953 25.9039L21.479 21.6876L11.36 31.8066H1.07227" stroke="#FF4615" stroke-width="2" stroke-linecap="round" stroke-linejoin="round"/>
<path d="M23.8403 11.5688C19.6488 11.5688 16.251 14.9666 16.251 19.1581V26.916L21.4791 21.6878L25.6954 25.9041L31.4295 20.17V19.1581C31.4295 14.9666 28.0317 11.5688 23.8403 11.5688Z" stroke="#FF4615" stroke-width="2" stroke-linecap="round" stroke-linejoin="round"/>
<path d="M36.6572 9.88189H41.7167V14.9414" stroke="#FF4615" stroke-width="2" stroke-linecap="round" stroke-linejoin="round"/>
</svg>
