<svg width="22" height="28" viewBox="0 0 22 28" fill="none" xmlns="http://www.w3.org/2000/svg">
<g id="g439">
<g id="g445">
<path id="path447" d="M13.0703 3.81491H17.2017C18.9568 3.81491 20.3796 5.23774 20.3796 6.99287V17.745V23.0079" stroke="#808080" stroke-width="2" stroke-linecap="round" stroke-linejoin="round"/>
</g>
<g id="g449">
<path id="path451" d="M20.3797 22.9887C20.3797 24.7438 18.9569 26.1666 17.2017 26.1666H4.17797C2.42283 26.1666 1 24.7438 1 22.9887V6.9929C1 5.23776 2.42283 3.81493 4.17797 3.81493H8.35641" stroke="#808080" stroke-width="2" stroke-linecap="round" stroke-linejoin="round"/>
</g>
<g id="g453">
<path id="path455" d="M12.8056 1.16665H8.56836V5.40394C8.56836 6.57401 9.51688 7.52258 10.687 7.52258C11.8571 7.52258 12.8056 6.57401 12.8056 5.40394V1.16665Z" stroke="#808080" stroke-width="2" stroke-linecap="round" stroke-linejoin="round"/>
</g>
<g id="g457">
<path id="path459" d="M8.40918 14.62C8.40918 13.3622 9.42888 12.3425 10.6867 12.3425C11.9446 12.3425 12.9643 13.3622 12.9643 14.62C12.9643 15.8779 11.9446 16.8976 10.6867 16.8976C9.42888 16.8976 8.40918 15.8779 8.40918 14.62Z" stroke="#808080" stroke-width="2" stroke-linecap="round" stroke-linejoin="round"/>
</g>
<g id="g461">
<path id="path463" d="M6.7666 20.817C6.7666 18.6523 8.52142 16.8975 10.6861 16.8975C12.8508 16.8975 14.6056 18.6523 14.6056 20.817H6.7666Z" stroke="#808080" stroke-width="2" stroke-linecap="round" stroke-linejoin="round"/>
</g>
</g>
</svg>
