<svg width="50" height="45" viewBox="0 0 50 45" fill="none" xmlns="http://www.w3.org/2000/svg">
<path d="M3.76603 38.2601L5.96434 42.073C6.42109 42.8756 7.07863 43.5068 7.85102 43.9664L15.7364 38.3756L15.7508 30.349L7.88168 26.8037L7.99595e-06 30.3208C-0.00155455 31.2085 0.225893 32.0967 0.682743 32.8993L3.76603 38.2601Z" fill="#0066DD"/>
<path d="M25.0293 14.3284L25.4407 3.87262L17.1783 0.682785C16.4043 1.13963 15.7445 1.76846 15.2848 2.56946L0.691915 27.7446C0.232331 28.5457 0.00156255 29.433 0 30.3208L15.7508 30.3489L25.0293 14.3284Z" fill="#00AD3C"/>
<path d="M25.0318 14.3284L32.6006 10.2566L32.9314 0.710868C32.159 0.251285 31.2716 0.0206141 30.3553 0.0189539L19.7594 8.02089e-06C18.8429 -0.00165218 17.9547 0.254508 17.1807 0.682743L25.0318 14.3284Z" fill="#00831E"/>
<path d="M34.2512 30.382L15.7512 30.349L7.85156 43.9664C8.62395 44.4259 9.51138 44.6566 10.4277 44.6583L39.5236 44.7102C40.44 44.7119 41.3282 44.4557 42.1023 44.0275L42.1329 34.8807L34.2512 30.382Z" fill="#0084FF"/>
<path d="M42.1006 44.0276C42.8747 43.5707 43.5345 42.9419 43.994 42.1409L44.9133 40.5675L49.3084 32.9864C49.768 32.1854 49.9988 31.298 50.0004 30.4102L40.8965 25.6199L34.2783 30.3822L42.1006 44.0276Z" fill="#FF4131"/>
<path d="M42.0673 15.2179L34.8158 2.60427C34.3591 1.80151 33.7015 1.17034 32.929 0.710754L25.0293 14.3282L34.2506 30.3819L49.9727 30.41C49.9743 29.5223 49.7467 28.6341 49.29 27.8314L42.0673 15.2179Z" fill="#FFBA00"/>
</svg>
