<svg width="32" height="32" viewBox="0 0 32 32" fill="none" xmlns="http://www.w3.org/2000/svg">
<path d="M1 1H4.73444V31" stroke="#70A6A6" stroke-width="2" stroke-miterlimit="10" stroke-linecap="round" stroke-linejoin="round"/>
<path d="M4.73444 12.2656H1V7.28632H4.73444" stroke="#70A6A6" stroke-width="2" stroke-miterlimit="10" stroke-linecap="round" stroke-linejoin="round"/>
<path d="M4.73444 20.9793H1V16H4.73444" stroke="#70A6A6" stroke-width="2" stroke-miterlimit="10" stroke-linecap="round" stroke-linejoin="round"/>
<path d="M4.73444 5.4191H31V26.5809H4.73444" stroke="#70A6A6" stroke-width="2" stroke-miterlimit="10" stroke-linecap="round" stroke-linejoin="round"/>
<path d="M14.6929 22.2241C18.1304 22.2241 20.917 19.4375 20.917 16C20.917 12.5625 18.1304 9.77594 14.6929 9.77594C11.2555 9.77594 8.46887 12.5625 8.46887 16C8.46887 19.4375 11.2555 22.2241 14.6929 22.2241Z" stroke="#70A6A6" stroke-width="2" stroke-miterlimit="10" stroke-linecap="round" stroke-linejoin="round"/>
<path d="M14.6934 17.8673C15.7246 17.8673 16.5606 17.0313 16.5606 16C16.5606 14.9688 15.7246 14.1328 14.6934 14.1328C13.6622 14.1328 12.8262 14.9688 12.8262 16C12.8262 17.0313 13.6622 17.8673 14.6934 17.8673Z" stroke="#70A6A6" stroke-width="2" stroke-miterlimit="10" stroke-linecap="round" stroke-linejoin="round"/>
<path d="M24.7137 21.6017H27.2033" stroke="#70A6A6" stroke-width="2" stroke-miterlimit="10" stroke-linecap="round" stroke-linejoin="round"/>
<path d="M24.7137 17.8672H27.2033" stroke="#70A6A6" stroke-width="2" stroke-miterlimit="10" stroke-linecap="round" stroke-linejoin="round"/>
<path d="M24.7137 14.1328H27.2033" stroke="#70A6A6" stroke-width="2" stroke-miterlimit="10" stroke-linecap="round" stroke-linejoin="round"/>
<path d="M24.7137 10.3983H27.2033" stroke="#70A6A6" stroke-width="2" stroke-miterlimit="10" stroke-linecap="round" stroke-linejoin="round"/>
<path d="M16.5605 16C16.5605 14.7968 17.5359 13.8215 18.739 13.8215C19.9421 13.8215 20.9174 14.7968 20.9174 16" stroke="#70A6A6" stroke-width="2" stroke-miterlimit="10" stroke-linecap="round" stroke-linejoin="round"/>
<path d="M12.8257 16C12.8257 17.2031 11.8504 18.1784 10.6473 18.1784C9.44418 18.1784 8.46887 17.2031 8.46887 16" stroke="#70A6A6" stroke-width="2" stroke-miterlimit="10" stroke-linecap="round" stroke-linejoin="round"/>
<path d="M14.6929 14.1328C13.4898 14.1328 12.5145 13.1575 12.5145 11.9544C12.5145 10.7513 13.4898 9.77594 14.6929 9.77594" stroke="#70A6A6" stroke-width="2" stroke-miterlimit="10" stroke-linecap="round" stroke-linejoin="round"/>
<path d="M14.6934 17.8672C15.8965 17.8672 16.8718 18.8425 16.8718 20.0456C16.8718 21.2487 15.8965 22.224 14.6934 22.224" stroke="#70A6A6" stroke-width="2" stroke-miterlimit="10" stroke-linecap="round" stroke-linejoin="round"/>
<path d="M28.3859 26.5809V30.3153H13.4481V26.5809" stroke="#70A6A6" stroke-width="2" stroke-miterlimit="10" stroke-linecap="round" stroke-linejoin="round"/>
<path d="M24.6514 30.3153V26.5809" stroke="#70A6A6" stroke-width="2" stroke-miterlimit="10" stroke-linecap="round" stroke-linejoin="round"/>
<path d="M20.917 30.3153V26.5809" stroke="#70A6A6" stroke-width="2" stroke-miterlimit="10" stroke-linecap="round" stroke-linejoin="round"/>
<path d="M17.1826 30.3153V26.5809" stroke="#70A6A6" stroke-width="2" stroke-miterlimit="10" stroke-linecap="round" stroke-linejoin="round"/>
</svg>
