<svg width="25" height="20" viewBox="0 0 25 20" fill="none" xmlns="http://www.w3.org/2000/svg">
<path d="M25 0V20C24.9108 19.9954 24.8223 19.9863 24.7331 19.9863H0.266927C0.177735 19.9863 0.0891927 19.9954 0 20V0C0.0891927 0.00455285 0.177735 0.013658 0.266927 0.013658C8.42231 0.013658 16.5777 0.013658 24.7331 0.013658C24.821 0.013658 24.9108 0.00455285 25 0ZM15.6901 6.17431V1.49593H9.3099V6.17886L15.6901 6.17431ZM15.6973 13.8276H9.31055V18.5041H15.6986L15.6973 13.8276ZM9.30664 7.66569V12.3343H15.6966V7.66569H9.30664ZM1.47721 6.16975H7.8112V1.49593H1.47721V6.16975ZM17.1888 6.16975H23.5228V1.49593H17.1888V6.16975ZM1.48047 13.8257V18.5041H7.8099V13.8257H1.48047ZM17.1908 13.8218V18.5047H23.5189V13.8218H17.1908ZM1.47852 7.65984V12.335H7.80338V7.65984H1.47852ZM23.5267 7.66829H17.1908V12.3278H23.5267V7.66829Z" fill="#21464F"/>
</svg>
