<svg width="25" height="23" viewBox="0 0 25 23" fill="none" xmlns="http://www.w3.org/2000/svg">
<g id="Group">
<path id="Vector" d="M22.1485 3.47242H18.5822C18.4883 3.47242 18.4883 3.47243 18.3945 3.37858L17.3621 1.31389C16.9867 0.469241 16.1421 0 15.2036 0H9.94804C9.00955 0 8.25875 0.469241 7.7895 1.31389L6.85101 3.37858C6.85101 3.47243 6.75716 3.47242 6.66331 3.47242H3.00318C1.31389 3.47242 0 4.78631 0 6.4756V19.5207C0 21.21 1.31389 22.5239 3.00318 22.5239H21.9608C23.65 22.5239 24.9639 21.21 24.9639 19.5207V6.4756C25.2455 4.88016 23.8378 3.47242 22.1485 3.47242ZM2.34624 6.56946C2.34624 6.10021 2.72163 5.72481 3.19087 5.72481H6.85101C7.7895 5.72481 8.5403 5.25556 9.00955 4.41092L10.0419 2.34624C10.0419 2.25239 10.1357 2.25238 10.2296 2.25238H15.4852C15.579 2.25238 15.579 2.25239 15.6728 2.34624L16.7052 4.41092C17.0806 5.25556 17.9252 5.72481 18.8637 5.72481H22.43C22.8992 5.72481 23.2747 6.10021 23.2747 6.56946V19.6145C23.2747 20.0838 22.8992 20.4592 22.43 20.4592H3.47242C3.00318 20.4592 2.62779 20.0838 2.62779 19.6145V6.56946H2.34624Z" fill="white"/>
<path id="Vector_2" d="M7.78908 13.8895C8.25833 13.8895 8.72757 13.5141 8.72757 12.951C8.72757 10.7925 10.5107 9.00935 12.6692 9.00935C13.5139 9.00935 14.3585 9.29089 15.0155 9.76014L13.9831 10.1355C13.5139 10.3232 13.2323 10.7925 13.42 11.2617C13.5139 11.4494 13.7016 11.6371 13.8893 11.8248C14.077 11.9187 14.3585 11.9187 14.5462 11.9187L16.9863 11.074C17.3617 10.9802 17.6433 10.6048 17.6433 10.2294V7.69545C17.6433 7.2262 17.2679 6.75696 16.7048 6.75696C16.2355 6.75696 15.7663 7.13236 15.7663 7.69545V8.1647C13.5139 6.66311 10.323 6.94466 8.44602 8.9155C7.41368 10.0417 6.85059 11.4494 6.85059 12.951C6.94444 13.5141 7.31983 13.8895 7.78908 13.8895Z" fill="white"/>
<path id="Vector_3" d="M16.7056 12.9511C16.7056 13.9835 16.3302 15.0158 15.5795 15.7666C14.8287 16.5174 13.7963 16.8928 12.764 16.8928C11.9193 16.8928 11.0747 16.6113 10.4177 16.142L11.4501 15.7666C11.6378 15.6728 11.8255 15.5789 12.0132 15.2974C12.107 15.1097 12.107 14.8281 12.107 14.6404C12.0132 14.4527 11.8255 14.265 11.6378 14.0773C11.4501 13.9835 11.1685 13.9835 10.9808 13.9835L8.54075 14.8281C8.16535 14.922 7.88379 15.2974 7.88379 15.6728V18.1129C7.88379 18.5821 8.25919 19.0514 8.82228 19.0514C9.29153 19.0514 9.76078 18.676 9.76078 18.1129V17.6436C12.0132 19.1452 15.204 18.8637 17.081 16.799C18.1134 15.6728 18.6765 14.265 18.6765 12.7634C18.6765 12.2942 18.3011 11.825 17.738 11.825C17.1749 11.825 16.7056 12.4819 16.7056 12.9511Z" fill="white"/>
</g>
</svg>
