<svg width="74" height="74" viewBox="0 0 74 74" fill="none" xmlns="http://www.w3.org/2000/svg">
<rect width="74" height="74" rx="20" transform="matrix(-1 0 0 1 74 0)" fill="#343434"/>
<path d="M66.0564 43.6968V50.1664C66.0564 51.4202 65.0402 52.4364 63.7863 52.4364H57.4302C56.1764 52.4364 55.1602 51.4202 55.1602 50.1664C55.1602 48.9125 56.1764 47.8963 57.4302 47.8963H61.5163V43.6968C61.5163 42.4429 62.5325 41.4267 63.7863 41.4267C65.0402 41.4267 66.0564 42.4429 66.0564 43.6968ZM34.7298 32.5736C35.9837 32.5736 36.9999 31.5574 36.9999 30.3036V25.196H39.2699C40.5237 25.196 41.5399 24.1798 41.5399 22.926V10.2138C41.5399 8.93244 40.4785 7.89939 39.187 7.94506C37.9571 7.98895 36.9999 9.03707 36.9999 10.2683V12.0298H34.7298C33.476 12.0298 32.4598 13.046 32.4598 14.2998C32.4598 15.5537 33.476 16.5699 34.7298 16.5699H36.9999V20.6559H34.7298C33.476 20.6559 32.4598 21.6721 32.4598 22.926V30.3036C32.4598 31.5574 33.476 32.5736 34.7298 32.5736ZM10.2134 41.4267C11.4672 41.4267 12.4834 40.4105 12.4834 39.1567V36.8867H14.867C16.1208 36.8867 17.137 35.8705 17.137 34.6166C17.137 33.3628 16.1208 32.3466 14.867 32.3466H10.2134C8.95956 32.3466 7.94336 33.3628 7.94336 34.6166V39.1567C7.94336 40.4105 8.95956 41.4267 10.2134 41.4267ZM43.81 36.8867H49.9391V43.6422C49.9391 44.8735 50.8963 45.9216 52.1262 45.9655C53.4177 46.0111 54.4792 44.9781 54.4792 43.6968V41.4267H56.8627C58.1165 41.4267 59.1327 40.4105 59.1327 39.1567C59.1327 37.9029 58.1165 36.8867 56.8627 36.8867H54.4792V34.6166C54.4792 33.3628 53.463 32.3466 52.2091 32.3466H43.81C42.5561 32.3466 41.5399 33.3628 41.5399 34.6166C41.5399 35.8705 42.5561 36.8867 43.81 36.8867ZM63.7863 32.3466C62.5325 32.3466 61.5163 33.3628 61.5163 34.6166C61.5163 35.8705 62.5325 36.8867 63.7863 36.8867C65.0402 36.8867 66.0564 35.8705 66.0564 34.6166C66.0564 33.3628 65.0402 32.3466 63.7863 32.3466ZM43.81 41.4267C42.5561 41.4267 41.5399 42.4429 41.5399 43.6968V47.8963H40.4049C39.1511 47.8963 38.1349 48.9125 38.1349 50.1664C38.1349 51.4202 39.1511 52.4364 40.4049 52.4364H43.81C45.0638 52.4364 46.08 51.4202 46.08 50.1664V43.6968C46.08 42.4429 45.0638 41.4267 43.81 41.4267ZM43.81 61.5165H41.5399V59.2465C41.5399 57.9927 40.5237 56.9765 39.2699 56.9765H36.9999V54.7064C36.9999 53.4526 35.9837 52.4364 34.7298 52.4364C33.476 52.4364 32.4598 53.4526 32.4598 54.7064V59.2465C32.4598 60.5003 33.476 61.5165 34.7298 61.5165H36.9999V63.7866C36.9999 65.0404 38.0161 66.0566 39.2699 66.0566H43.81C45.0638 66.0566 46.08 65.0404 46.08 63.7866C46.08 62.5327 45.0638 61.5165 43.81 61.5165ZM52.8901 56.9765C52.8901 55.7226 51.8739 54.7064 50.6201 54.7064H49.4851C48.2312 54.7064 47.215 55.7226 47.215 56.9765C47.215 58.2303 48.2312 59.2465 49.4851 59.2465H50.6201C51.8739 59.2465 52.8901 58.2303 52.8901 56.9765ZM63.7863 61.5165H61.9703V59.2465C61.9703 57.9927 60.9541 56.9765 59.7002 56.9765C58.4464 56.9765 57.4302 57.9927 57.4302 59.2465V61.5165H52.8901C51.6363 61.5165 50.6201 62.5327 50.6201 63.7866C50.6201 65.0404 51.6363 66.0566 52.8901 66.0566H63.7863C65.0402 66.0566 66.0564 65.0404 66.0564 63.7866C66.0564 62.5327 65.0402 61.5165 63.7863 61.5165ZM34.7298 45.6263C35.9837 45.6263 36.9999 44.6101 36.9999 43.3563V39.1567C36.9999 37.9029 35.9837 36.8867 34.7298 36.8867H26.5577V34.6712C26.5577 33.4399 25.6004 32.3918 24.3705 32.3479C23.079 32.3023 22.0176 33.3353 22.0176 34.6166V36.8867H20.8826C19.6287 36.8867 18.6125 37.9029 18.6125 39.1567C18.6125 40.4105 19.6287 41.4267 20.8826 41.4267H32.4598V43.3563C32.4598 44.6101 33.476 45.6263 34.7298 45.6263ZM7.94336 21.5639V14.7538C7.94336 10.9985 10.9982 7.94373 14.7535 7.94373H21.5636C25.3189 7.94373 28.3737 10.9985 28.3737 14.7538V21.5639C28.3737 25.3192 25.3189 28.374 21.5636 28.374H14.7535C10.9982 28.374 7.94336 25.3192 7.94336 21.5639ZM12.4834 21.5639C12.4834 22.8156 13.5019 23.834 14.7535 23.834H21.5636C22.8152 23.834 23.8336 22.8156 23.8336 21.5639V14.7538C23.8336 13.5022 22.8152 12.4838 21.5636 12.4838H14.7535C13.5019 12.4838 12.4834 13.5022 12.4834 14.7538V21.5639ZM18.1585 20.4289C19.4124 20.4289 20.4286 19.4127 20.4286 18.1589C20.4286 16.905 19.4124 15.8889 18.1585 15.8889C16.9047 15.8889 15.8885 16.905 15.8885 18.1589C15.8885 19.4127 16.9047 20.4289 18.1585 20.4289ZM66.0564 14.7538V21.5639C66.0564 25.3192 63.0016 28.374 59.2462 28.374H52.4361C48.6808 28.374 45.626 25.3192 45.626 21.5639V14.7538C45.626 10.9985 48.6808 7.94373 52.4361 7.94373H59.2462C63.0016 7.94373 66.0564 10.9985 66.0564 14.7538ZM61.5163 14.7538C61.5163 13.5022 60.4979 12.4838 59.2462 12.4838H52.4361C51.1845 12.4838 50.1661 13.5022 50.1661 14.7538V21.5639C50.1661 22.8156 51.1845 23.834 52.4361 23.834H59.2462C60.4979 23.834 61.5163 22.8156 61.5163 21.5639V14.7538ZM55.8412 15.8889C54.5873 15.8889 53.5711 16.905 53.5711 18.1589C53.5711 19.4127 54.5873 20.4289 55.8412 20.4289C57.095 20.4289 58.1112 19.4127 58.1112 18.1589C58.1112 16.905 57.095 15.8889 55.8412 15.8889ZM28.3737 52.4364V59.2465C28.3737 63.0018 25.3189 66.0566 21.5636 66.0566H14.7535C10.9982 66.0566 7.94336 63.0018 7.94336 59.2465V52.4364C7.94336 48.6811 10.9982 45.6263 14.7535 45.6263H21.5636C25.3189 45.6263 28.3737 48.6811 28.3737 52.4364ZM23.8336 52.4364C23.8336 51.1848 22.8152 50.1664 21.5636 50.1664H14.7535C13.5019 50.1664 12.4834 51.1848 12.4834 52.4364V59.2465C12.4834 60.4981 13.5019 61.5165 14.7535 61.5165H21.5636C22.8152 61.5165 23.8336 60.4981 23.8336 59.2465V52.4364ZM18.1585 53.5714C16.9047 53.5714 15.8885 54.5876 15.8885 55.8414C15.8885 57.0953 16.9047 58.1115 18.1585 58.1115C19.4124 58.1115 20.4286 57.0953 20.4286 55.8414C20.4286 54.5876 19.4124 53.5714 18.1585 53.5714Z" fill="#808080"/>
</svg>
