<svg width="28" height="27" viewBox="0 0 28 27" fill="none" xmlns="http://www.w3.org/2000/svg">
<path d="M17.8446 9.15764L9.15723 17.845" stroke="#808080" stroke-width="2" stroke-linecap="round" stroke-linejoin="round"/>
<path d="M18.9324 14.0638C20.3709 13.8053 21.7932 12.9039 23.0761 11.6188L23.4895 11.2001C26.0932 8.59221 27.1133 5.33131 24.3935 2.60708C21.6693 -0.112817 18.4654 0.910017 15.8574 3.51369L15.4388 3.92714C14.1735 5.1902 13.2798 6.5885 13.0059 8.00417" stroke="#808080" stroke-width="2" stroke-linecap="round" stroke-linejoin="round"/>
<path d="M14.0638 18.9309C13.8054 20.3693 12.9039 21.7917 11.6188 23.0746L11.2001 23.488C8.59222 26.0917 5.33132 27.1118 2.60708 24.392C-0.11281 21.6677 0.909972 18.4639 3.51365 15.8558L3.92709 15.4372C5.1902 14.172 6.5885 13.2782 8.00418 13.0043" stroke="#808080" stroke-width="2" stroke-linecap="round" stroke-linejoin="round"/>
</svg>
