<svg width="28" height="28" viewBox="0 0 28 28" fill="none" xmlns="http://www.w3.org/2000/svg">
<path d="M18.5111 9.82433L9.82373 18.5117" stroke="#808080" stroke-width="2" stroke-linecap="round" stroke-linejoin="round"/>
<path d="M19.5979 14.7305C21.0364 14.472 22.4587 13.5706 23.7417 12.2855L24.1551 11.8668C26.7587 9.2589 27.7789 5.998 25.059 3.27376C22.3348 0.55387 19.1309 1.5767 16.5229 4.18038L16.1043 4.59382C14.839 5.85689 13.9453 7.25518 13.6714 8.67086" stroke="#808080" stroke-width="2" stroke-linecap="round" stroke-linejoin="round"/>
<path d="M14.7298 19.5976C14.4714 21.036 13.5699 22.4584 12.2848 23.7413L11.8661 24.1547C9.25823 26.7585 5.99734 27.7785 3.2731 25.0588C0.553206 22.3345 1.57599 19.1306 4.17966 16.5226L4.59311 16.104C5.85622 14.8387 7.25452 13.945 8.67019 13.6711" stroke="#808080" stroke-width="2" stroke-linecap="round" stroke-linejoin="round"/>
</svg>
