<svg width="70" height="50" viewBox="0 0 70 50" fill="none" xmlns="http://www.w3.org/2000/svg">
<path d="M0 20C0 8.9543 8.95431 0 20 0H50C61.0457 0 70 8.95431 70 20V30C70 41.0457 61.0457 50 50 50H20C8.9543 50 0 41.0457 0 30V20Z" fill="#262626"/>
<path d="M26.9474 24.0263C26.9474 25.1164 26.0637 26 24.9737 26C23.8836 26 23 25.1164 23 24.0263C23 22.9363 23.8836 22.0526 24.9737 22.0526C26.0637 22.0526 26.9474 22.9363 26.9474 24.0263Z" stroke="#808080" stroke-width="2" stroke-linecap="round" stroke-linejoin="round"/>
<path d="M37.4737 24.0263C37.4737 25.1164 36.5901 26 35.5001 26C34.41 26 33.5264 25.1164 33.5264 24.0263C33.5264 22.9363 34.41 22.0526 35.5001 22.0526C36.5901 22.0526 37.4737 22.9363 37.4737 24.0263Z" stroke="#808080" stroke-width="2" stroke-linecap="round" stroke-linejoin="round"/>
<path d="M48.0001 24.0263C48.0001 25.1164 47.1165 26 46.0264 26C44.9364 26 44.0527 25.1164 44.0527 24.0263C44.0527 22.9363 44.9364 22.0526 46.0264 22.0526C47.1165 22.0526 48.0001 22.9363 48.0001 24.0263Z" stroke="#808080" stroke-width="2" stroke-linecap="round" stroke-linejoin="round"/>
</svg>
