<svg width="26" height="26" viewBox="0 0 26 26" fill="none" xmlns="http://www.w3.org/2000/svg">
<path d="M7.11377 1.01611V5.08115" stroke="#808080" stroke-width="2" stroke-linecap="round" stroke-linejoin="round"/>
<path d="M17.2764 1.01611V5.08115" stroke="#808080" stroke-width="2" stroke-linecap="round" stroke-linejoin="round"/>
<path d="M9.99492 23.374H5.08115C2.83613 23.374 1.01611 21.554 1.01611 19.309V7.11387C1.01611 4.8687 2.83613 3.04883 5.08115 3.04883H19.3088C21.5538 3.04883 23.3738 4.8687 23.3738 7.11387V9.14639H1.01611" stroke="#808080" stroke-width="2" stroke-linecap="round" stroke-linejoin="round"/>
<path d="M18.9022 25.0001C22.2698 25.0001 24.9998 22.2701 24.9998 18.9025C24.9998 15.5349 22.2698 12.8049 18.9022 12.8049C15.5347 12.8049 12.8047 15.5349 12.8047 18.9025C12.8047 22.2701 15.5347 25.0001 18.9022 25.0001Z" stroke="#808080" stroke-width="2" stroke-linecap="round" stroke-linejoin="round"/>
<path d="M18.9023 18.9024V16.8699" stroke="#808080" stroke-width="2" stroke-linecap="round" stroke-linejoin="round"/>
<path d="M20.9349 18.9026H18.9023" stroke="#808080" stroke-width="2" stroke-linecap="round" stroke-linejoin="round"/>
</svg>
