<svg width="21" height="20" viewBox="0 0 21 20" fill="none" xmlns="http://www.w3.org/2000/svg">
<path d="M0.469448 2.85034C0.469448 2.38208 0.465878 1.91381 0.469448 1.44555C0.477183 0.626237 1.09241 0.00862748 1.91173 0.00386749C2.855 -0.00128916 3.79847 -0.00128916 4.74214 0.00386749C4.93038 0.00149535 5.11722 0.0366358 5.29174 0.107239C5.46626 0.177842 5.62498 0.282494 5.75863 0.415088C5.89227 0.547683 5.99818 0.705566 6.07016 0.879524C6.14214 1.05348 6.17875 1.24003 6.17787 1.4283C6.18541 2.38029 6.18541 3.33229 6.17787 4.28429C6.17913 4.47217 6.14306 4.65843 6.07175 4.83225C6.00043 5.00608 5.89529 5.164 5.76244 5.29686C5.62958 5.42971 5.47166 5.53485 5.29784 5.60617C5.12401 5.67748 4.93775 5.71355 4.74987 5.71229C3.79787 5.71863 2.84587 5.71863 1.89388 5.71229C1.09122 5.70574 0.477183 5.08278 0.465878 4.27596C0.465878 3.80115 0.469448 3.32575 0.469448 2.85034ZM1.91589 1.43543V4.2718H4.73678V1.43543H1.91589Z" fill="#21464F"/>
<path d="M3.31533 12.8547C2.8548 12.8547 2.39427 12.8547 1.93374 12.8547C1.08825 12.8487 0.473613 12.2341 0.470638 11.388C0.466275 10.459 0.466275 9.5302 0.470638 8.6016C0.474208 7.76861 1.08884 7.14862 1.91946 7.14445C2.85599 7.13969 3.79232 7.13969 4.72845 7.14445C5.56145 7.14862 6.17549 7.76444 6.18025 8.59922C6.18501 9.53535 6.18501 10.4715 6.18025 11.4076C6.17549 12.237 5.5549 12.8481 4.72012 12.8547C4.25186 12.8576 3.78359 12.8547 3.31533 12.8547ZM1.91232 8.58078V11.4088H4.74154V8.58078H1.91232Z" fill="#21464F"/>
<path d="M0.469448 17.1315C0.469448 16.6632 0.465878 16.195 0.469448 15.7267C0.477183 14.9074 1.09182 14.2886 1.91054 14.2838C2.85341 14.2787 3.79688 14.2787 4.74095 14.2838C4.92922 14.2814 5.1161 14.3165 5.29068 14.387C5.46527 14.4575 5.62407 14.5621 5.75782 14.6946C5.89157 14.8271 5.99759 14.985 6.06971 15.1589C6.14183 15.3328 6.1786 15.5194 6.17787 15.7077C6.18541 16.6597 6.18541 17.6117 6.17787 18.5637C6.17969 18.7519 6.14402 18.9386 6.07295 19.1128C6.00188 19.2871 5.89682 19.4455 5.7639 19.5787C5.63098 19.712 5.47286 19.8174 5.29877 19.889C5.12467 19.9605 4.93808 19.9966 4.74987 19.9952C3.79787 20.0016 2.84587 20.0016 1.89388 19.9952C1.09063 19.9887 0.475993 19.3663 0.465878 18.5601C0.465283 18.0823 0.469448 17.6069 0.469448 17.1315ZM1.90756 18.5512H4.73619V15.7255H1.90756V18.5512Z" fill="#21464F"/>
<path d="M14.0348 2.14468C15.9241 2.14468 17.8131 2.14468 19.7016 2.14468C20.2371 2.14468 20.5911 2.61413 20.4156 3.09132C20.3121 3.37692 20.0997 3.5334 19.7998 3.56732C19.733 3.57188 19.6661 3.57288 19.5993 3.57029H8.46862C8.37213 3.57453 8.27546 3.56914 8.18004 3.55423C8.01078 3.51949 7.85986 3.42456 7.75526 3.28703C7.65066 3.1495 7.59949 2.9787 7.61122 2.80631C7.62252 2.62975 7.69974 2.46387 7.82757 2.34154C7.95541 2.21922 8.12453 2.14938 8.30142 2.14586C8.85894 2.13634 9.41704 2.14289 9.97456 2.14289L14.0348 2.14468Z" fill="#21464F"/>
<path d="M14.0461 9.28466C15.9275 9.28466 17.8091 9.28466 19.6909 9.28466C20.2407 9.28466 20.5983 9.76066 20.4144 10.2426C20.3067 10.5258 20.0919 10.6799 19.7908 10.7097C19.7248 10.7162 19.657 10.7097 19.5903 10.7097H8.47992C8.37601 10.7144 8.27188 10.708 8.16933 10.6906C8.00275 10.6466 7.8577 10.5439 7.76093 10.4013C7.66416 10.2588 7.6222 10.0861 7.64278 9.91501C7.66337 9.74396 7.74511 9.58611 7.87294 9.47059C8.00076 9.35507 8.16605 9.28967 8.33831 9.28645C9.35695 9.28169 10.3756 9.28645 11.3942 9.28645L14.0461 9.28466Z" fill="#21464F"/>
<path d="M14.058 16.4247C15.9394 16.4247 17.821 16.4247 19.7028 16.4247C20.2383 16.4247 20.5911 16.8953 20.4168 17.3725C20.3133 17.6575 20.1008 17.814 19.8004 17.8485C19.7263 17.8538 19.652 17.855 19.5778 17.8521H8.49063C8.3866 17.857 8.28235 17.8514 8.17944 17.8354C8.00588 17.7997 7.85178 17.7008 7.74709 17.5579C7.64241 17.4149 7.59461 17.2381 7.61301 17.0619C7.65049 16.6936 7.95275 16.4235 8.34664 16.4229C9.97575 16.4201 11.6045 16.4201 13.2328 16.4229L14.058 16.4247Z" fill="#21464F"/>
</svg>
