<svg width="22" height="16" viewBox="0 0 22 16" fill="none" xmlns="http://www.w3.org/2000/svg">
<path d="M21.3972 9.80078L17.0972 1.80078C16.7747 1.20078 16.0223 0.800781 15.3773 0.800781H6.88479C6.1323 0.800781 5.48732 1.20078 5.16483 1.80078L0.864849 9.80078C0.757349 10.0008 0.649902 10.3008 0.649902 10.6008V14.1008C0.649902 15.1008 1.50982 15.9009 2.58481 15.9009H19.5698C20.6448 15.9009 21.5047 15.1008 21.5047 14.1008V10.6008C21.6122 10.3008 21.5047 10.0008 21.3972 9.80078ZM20.2147 10.5007V14.0007C20.2147 14.3007 19.9997 14.5007 19.6773 14.5007H2.69229C2.36979 14.5007 2.15479 14.3007 2.15479 14.0007V10.5007C2.15479 10.2007 2.36979 10.0007 2.69229 10.0007H19.6773C19.8923 10.0007 20.2147 10.2007 20.2147 10.5007ZM2.90736 8.70093L6.23982 2.40088V2.30078C6.34732 2.10078 6.56232 2.00073 6.77732 2.00073H15.2698C15.4848 2.00073 15.6998 2.10078 15.8073 2.30078L19.2472 8.60083H2.90736V8.70093Z" fill="#70A6A6"/>
</svg>
