<svg width="19" height="23" viewBox="0 0 19 23" fill="none" xmlns="http://www.w3.org/2000/svg">
<path d="M18.0158 8.40292C18.0116 8.10528 18.0076 7.80743 18.0038 7.50938C18.0052 7.32135 17.9675 7.13509 17.8931 6.96239C17.8188 6.78969 17.7093 6.63431 17.5718 6.5061C16.5685 5.5116 15.5527 4.49641 14.5707 3.51507C13.5562 2.50364 12.5096 1.45647 11.4712 0.429365C11.2878 0.246697 11.0515 0.126464 10.7959 0.0857433C10.2228 0.0244217 9.64664 -0.00405202 9.07027 0.000463628C7.28067 0.0104964 5.4616 0.0274269 3.7021 0.0437302C2.8167 0.0525089 1.9311 0.0606595 1.04529 0.0681841C0.312897 0.0744546 0 0.389235 0 1.12037V21.934C0 22.6827 0.317287 23 1.06034 23H16.9247C17.6709 23 17.9907 22.6827 17.9938 21.9397C17.998 20.8064 18.0026 19.6731 18.0076 18.5398C18.0183 15.9012 18.0295 13.1723 18.0364 10.4885C18.0364 9.79623 18.0277 9.08703 18.0158 8.40292ZM1.7432 21.2574V1.80762H9.8986V7.09991C9.8986 7.83858 10.2121 8.15336 10.9408 8.15336H16.2431V21.2587L1.7432 21.2574ZM11.6412 6.41016V3.1495L14.9018 6.41016H11.6412Z" fill="#70A6A6"/>
<path d="M12.5896 12.887C11.9508 12.4355 11.3117 11.9846 10.6721 11.5344C9.73653 10.8748 8.76962 10.1938 7.82027 9.52097C7.47037 9.27328 7.14493 9.23441 6.82577 9.40308C6.5066 9.57176 6.36426 9.85017 6.36426 10.2678C6.36927 11.0829 6.36802 11.91 6.36739 12.7133C6.36739 13.0247 6.36739 13.3364 6.36739 13.6482C6.36739 13.9601 6.36739 14.2704 6.36739 14.5794C6.36739 15.3945 6.36739 16.2417 6.36739 17.0725C6.36739 17.4676 6.5229 17.7491 6.83517 17.9096C6.95613 17.9739 7.09076 18.008 7.2277 18.0093C7.43099 18.0036 7.62732 17.934 7.78891 17.8106C8.53259 17.2843 9.27627 16.7592 10.02 16.2354C10.8798 15.6297 11.7387 15.0235 12.5965 14.417C12.8862 14.2119 13.0461 13.9423 13.0461 13.6576C13.0461 13.3729 12.8856 13.0945 12.5896 12.887ZM10.6784 13.6526L8.10745 15.4666V11.8392L10.6784 13.6526Z" fill="#70A6A6"/>
</svg>
