<svg width="24" height="25" viewBox="0 0 24 25" fill="none" xmlns="http://www.w3.org/2000/svg">
<path d="M8.95312 8.60168V16.3983" stroke="#70A6A6" stroke-width="1.52" stroke-miterlimit="10" stroke-linecap="round" stroke-linejoin="round"/>
<path d="M14.8005 8.60168V16.3983" stroke="#70A6A6" stroke-width="1.52" stroke-miterlimit="10" stroke-linecap="round" stroke-linejoin="round"/>
<path d="M7.00403 10.5509H10.9023" stroke="#70A6A6" stroke-width="1.52" stroke-miterlimit="10" stroke-linecap="round" stroke-linejoin="round"/>
<path d="M12.8514 14.4491H16.7497" stroke="#70A6A6" stroke-width="1.52" stroke-miterlimit="10" stroke-linecap="round" stroke-linejoin="round"/>
<path d="M22.4923 17.5034C23.0305 16.5711 22.7111 15.3791 21.7789 14.8408L21.6061 14.741C20.9664 14.3717 20.5904 13.6717 20.6348 12.9344C20.6434 12.7907 20.6481 12.6459 20.6481 12.5C20.6481 12.3541 20.6434 12.2092 20.6348 12.0655C20.5904 11.3288 20.9669 10.6279 21.6061 10.2588L21.7789 10.1591C22.7111 9.62086 23.0305 8.4288 22.4923 7.49648L21.5177 5.80846C20.9794 4.87623 19.7874 4.55681 18.8551 5.09502L18.6459 5.21577C18.0109 5.58241 17.2233 5.56131 16.6083 5.16193C16.3661 5.00463 16.1158 4.85913 15.8578 4.7261C15.2096 4.39196 14.8006 3.72189 14.8006 2.99267V2.94915C14.8006 1.87264 13.928 1 12.8514 1H10.9023C9.82577 1 8.95314 1.87264 8.95314 2.94915V2.99262C8.95314 3.72258 8.54474 4.39167 7.89597 4.72615C7.638 4.85918 7.38768 5.00468 7.14544 5.16198C6.53102 5.56097 5.7423 5.58212 5.10785 5.21582L4.89866 5.09502C3.96643 4.55681 2.77437 4.87623 2.23607 5.80846L1.26149 7.49648C0.723279 8.4288 1.0427 9.62086 1.97493 10.1591L2.14767 10.2588C2.78743 10.6282 3.16342 11.3281 3.11903 12.0655C3.11036 12.2092 3.10568 12.3541 3.10568 12.5C3.10568 12.6459 3.11031 12.7907 3.11898 12.9344C3.16333 13.6711 2.78685 14.372 2.14762 14.741L1.97488 14.8408C1.04265 15.3791 0.72323 16.5711 1.26144 17.5034L2.23602 19.1914C2.77432 20.1237 3.96638 20.4431 4.89861 19.9048L5.10756 19.7842C5.74259 19.4175 6.53029 19.4386 7.14525 19.838C7.38753 19.9953 7.63785 20.1408 7.89587 20.2738C8.54406 20.608 8.95314 21.2781 8.95314 22.0073V22.0508C8.95314 23.1273 9.82577 24 10.9023 24H12.8514C13.928 24 14.8006 23.1273 14.8006 22.0508V22.0074C14.8006 21.2775 15.209 20.6084 15.8578 20.2739C16.1158 20.1408 16.3662 19.9953 16.6084 19.838C17.2229 19.439 18.0117 19.4179 18.6461 19.7842L18.8551 19.9049C19.7874 20.4432 20.9794 20.1238 21.5177 19.1914L22.4923 17.5034Z" stroke="#70A6A6" stroke-width="1.52" stroke-miterlimit="10" stroke-linecap="round" stroke-linejoin="round"/>
</svg>
