<svg width="20" height="20" viewBox="0 0 20 20" fill="none" xmlns="http://www.w3.org/2000/svg">
<path d="M6.42623 8.72175C8.31555 8.72175 17.1124 8.72175 19.001 8.72175C19.5365 8.72175 19.8905 9.19121 19.715 9.6684C19.6114 9.954 19.399 10.1105 19.0992 10.1444C19.0324 10.149 18.9655 10.15 18.8986 10.1474L0.86002 10.1474C0.763534 10.1516 0.666866 10.1462 0.571445 10.1313C0.402186 10.0966 0.251263 10.0016 0.146666 9.86411C0.0420679 9.72658 -0.00910866 9.55578 0.00262596 9.38339C0.0139288 9.20682 0.0911469 9.04094 0.218979 8.91862C0.346812 8.7963 0.515931 8.72646 0.692825 8.72294C1.25034 8.71342 1.80845 8.71997 2.36596 8.71997L6.42623 8.72175Z" fill="#70A6A6"/>
<path d="M6.42623 13.1529C8.31555 13.1529 17.1124 13.1529 19.001 13.1529C19.5365 13.1529 19.8905 13.6224 19.715 14.0995C19.6114 14.3851 19.399 14.5416 19.0992 14.5755C19.0324 14.5801 18.9655 14.5811 18.8986 14.5785L0.86002 14.5785C0.763534 14.5828 0.666866 14.5774 0.571445 14.5625C0.402186 14.5277 0.251263 14.4328 0.146666 14.2953C0.0420679 14.1577 -0.00910866 13.9869 0.00262596 13.8145C0.0139288 13.638 0.0911469 13.4721 0.218979 13.3498C0.346812 13.2275 0.515931 13.1576 0.692825 13.1541C1.25034 13.1446 1.80845 13.1511 2.36596 13.1511L6.42623 13.1529Z" fill="#70A6A6"/>
<path d="M6.42623 17.5841C8.31555 17.5841 17.1124 17.5841 19.001 17.5841C19.5365 17.5841 19.8905 18.0535 19.715 18.5307C19.6114 18.8163 19.399 18.9728 19.0992 19.0067C19.0324 19.0113 18.9655 19.0123 18.8986 19.0097L0.86002 19.0097C0.763534 19.0139 0.666866 19.0085 0.571445 18.9936C0.402186 18.9589 0.251263 18.8639 0.146666 18.7264C0.0420679 18.5889 -0.00910866 18.4181 0.00262596 18.2457C0.0139288 18.0691 0.0911469 17.9032 0.218979 17.7809C0.346812 17.6586 0.515931 17.5888 0.692825 17.5852C1.25034 17.5757 1.80845 17.5823 2.36596 17.5823L6.42623 17.5841Z" fill="#70A6A6"/>
<path d="M17.1497 0.00362783C17.6179 0.00362785 18.0862 5.78765e-05 18.5544 0.00362789C19.3738 0.0113629 19.9914 0.626591 19.9961 1.4459C20.0013 2.38918 20.0013 3.33265 19.9961 4.27632C19.9985 4.46456 19.9634 4.6514 19.8928 4.82592C19.8222 5.00044 19.7175 5.15916 19.5849 5.29281C19.4523 5.42645 19.2944 5.53235 19.1205 5.60434C18.9465 5.67632 18.76 5.71293 18.5717 5.71205C17.6197 5.71958 16.6677 5.71958 15.7157 5.71205C15.5278 5.71331 15.3416 5.67724 15.1677 5.60593C14.9939 5.53461 14.836 5.42947 14.7031 5.29662C14.5703 5.16376 14.4651 5.00584 14.3938 4.83201C14.3225 4.65819 14.2864 4.47193 14.2877 4.28405C14.2814 3.33205 14.2814 2.38005 14.2877 1.42806C14.2943 0.625402 14.9172 0.0113629 15.724 5.79185e-05C16.1988 5.79392e-05 16.6743 0.00362781 17.1497 0.00362783ZM18.5646 1.45007L15.7282 1.45007L15.7282 4.27096L18.5646 4.27096L18.5646 1.45007Z" fill="#70A6A6"/>
<path d="M7.14534 2.84951C7.14534 2.38898 7.14534 1.92845 7.14534 1.46792C7.15129 0.622426 7.76593 0.00779219 8.61202 0.00481724C9.54101 0.000453951 10.4698 0.000453992 11.3984 0.00481736C12.2314 0.00838739 12.8514 0.623022 12.8555 1.45364C12.8603 2.39017 12.8603 3.3265 12.8555 4.26263C12.8514 5.09563 12.2356 5.70967 11.4008 5.71443C10.4646 5.71919 9.52851 5.71919 8.59238 5.71443C7.76295 5.70967 7.15189 5.08908 7.14534 4.2543C7.14237 3.78604 7.14534 3.31777 7.14534 2.84951ZM11.4192 1.4465L8.59119 1.4465L8.59119 4.27572L11.4192 4.27572L11.4192 1.4465Z" fill="#70A6A6"/>
<path d="M2.86849 0.00362728C3.33675 0.0036273 3.80502 5.73265e-05 4.27328 0.00362734C5.0926 0.0113624 5.7114 0.625996 5.71615 1.44471C5.72131 2.38759 5.72131 3.33106 5.71615 4.27513C5.7186 4.4634 5.68355 4.65028 5.61303 4.82486C5.5425 4.99945 5.43793 5.15825 5.30539 5.29199C5.17286 5.42574 5.01503 5.53177 4.8411 5.60389C4.66716 5.67601 4.48061 5.71277 4.29232 5.71205C3.34032 5.71958 2.38833 5.71958 1.43633 5.71205C1.24813 5.71387 1.06144 5.6782 0.887171 5.60713C0.712896 5.53606 0.554514 5.43099 0.421263 5.29808C0.288011 5.16516 0.182558 5.00704 0.111049 4.83294C0.039541 4.65885 0.00340824 4.47226 0.00476055 4.28405C-0.00158515 3.33205 -0.00158511 2.38005 0.00476068 1.42805C0.0113048 0.624806 0.633675 0.0101723 1.4399 5.73682e-05C1.91768 -0.00053761 2.39309 0.00362726 2.86849 0.00362728ZM1.44882 1.44174L1.44882 4.27036L4.27447 4.27036L4.27447 1.44174L1.44882 1.44174Z" fill="#70A6A6"/>
</svg>
