<svg width="25" height="20" viewBox="0 0 25 20" fill="none" xmlns="http://www.w3.org/2000/svg">
<path d="M23.312 0H1.52867C0.636954 0 0 0.636938 0 1.52865V13.2483C0 14.14 0.636954 14.777 1.52867 14.777H23.312C24.2037 14.777 24.8406 14.14 24.8406 13.2483V1.52865C24.8406 0.764326 24.2037 0 23.312 0ZM23.1846 1.65604V13.1209H1.65606V1.65604H23.1846Z" fill="#70A6A6"/>
<path d="M9.68098 11.4649C9.80836 11.4649 9.93577 11.5923 10.0632 11.5923C10.1906 11.5923 10.3179 11.5923 10.5727 11.4649L15.286 8.15279C15.5408 8.0254 15.6682 7.77063 15.6682 7.51585C15.6682 7.26108 15.5408 7.0063 15.286 6.87892L10.5727 3.56683C10.3179 3.43945 9.93575 3.31206 9.68098 3.56683C9.4262 3.69422 9.29883 3.949 9.29883 4.33116V11.0827C9.29883 11.0827 9.4262 11.3375 9.68098 11.4649ZM10.9549 9.17189V5.60504L13.3752 7.38847L10.9549 9.17189Z" fill="#70A6A6"/>
<path d="M24.0759 16.9428H14.7765C14.3944 16.0511 13.6301 15.4142 12.611 15.4142C11.5919 15.4142 10.8275 16.0511 10.4454 16.9428H0.891287C0.381736 16.9428 0.126953 17.325 0.126953 17.7071C0.126953 18.0893 0.509124 18.4715 0.891287 18.4715H10.4454C10.8275 19.3632 11.5919 20.0001 12.611 20.0001C13.6301 20.0001 14.3944 19.3632 14.7765 18.4715H24.0759C24.5854 18.4715 24.8402 18.0893 24.8402 17.7071C24.8402 17.325 24.458 16.9428 24.0759 16.9428ZM13.2479 17.8345C13.2479 18.2167 12.9931 18.4715 12.611 18.4715C12.2288 18.4715 11.974 18.2167 11.974 17.8345C11.974 17.4524 12.2288 17.1976 12.611 17.1976C12.9931 17.1976 13.2479 17.4524 13.2479 17.8345Z" fill="#70A6A6"/>
</svg>
