<svg width="24" height="20" viewBox="0 0 24 20" fill="none" xmlns="http://www.w3.org/2000/svg">
<path d="M8.50488 18.0144C3.80755 16.0842 1.56436 10.7115 3.49459 6.01412C4.4597 3.66547 6.28542 1.93033 8.45707 1.02364" stroke="white" stroke-width="1.52" stroke-miterlimit="10" stroke-linecap="round" stroke-linejoin="round"/>
<path d="M15.495 1.00388C20.1923 2.93411 22.4355 8.30683 20.5053 13.0042C19.5402 15.3528 17.7144 17.088 15.5428 17.9946" stroke="white" stroke-width="1.52" stroke-miterlimit="10" stroke-linecap="round" stroke-linejoin="round"/>
<path d="M13.4648 11.0683C12.6585 11.8731 11.3512 11.8731 10.5449 11.0683C9.7386 10.2636 9.7386 8.95891 10.5449 8.15414C11.3512 7.34944 12.6585 7.34944 13.4648 8.15414C14.271 8.95891 14.271 10.2636 13.4648 11.0683Z" fill="white" stroke="white" stroke-width="1.52" stroke-miterlimit="10" stroke-linecap="round" stroke-linejoin="round"/>
<path d="M16.2843 6.01293C18.2755 8.00023 18.2755 11.2222 16.2843 13.2095" stroke="white" stroke-width="1.52" stroke-miterlimit="10" stroke-linecap="round" stroke-linejoin="round"/>
<path d="M7.71907 6.01287C5.72792 8.00016 5.72792 11.2222 7.71907 13.2095" stroke="white" stroke-width="1.52" stroke-miterlimit="10" stroke-linecap="round" stroke-linejoin="round"/>
</svg>
