<svg width="35" height="38" viewBox="0 0 35 38" fill="none" xmlns="http://www.w3.org/2000/svg">
<path d="M2.59998 18.7C2.59998 10.6 9.20005 4 17.3 4C21.4 4 25.4 5.70002 28.1 8.80002L22.2 10.8C21.5 11 21.1 11.8 21.4 12.5C21.6 13.2 22.4 13.6 23.1 13.3L31.1 10.6C31.6 10.4 32 9.90002 32 9.30002V1.30002C32 0.600018 31.4 0 30.7 0C30 0 29.4 0.600018 29.4 1.30002V6.20001C22.5 -0.499988 11.5 -0.299994 4.90002 6.60001C1.80002 9.80001 0 14.2 0 18.7C0 19.4 0.600049 20 1.30005 20C2.00005 20.1 2.59998 19.5 2.59998 18.7Z" fill="#00CDB8"/>
<path d="M33.2997 17.4C32.5997 17.4 31.9996 18 31.9996 18.7C31.9996 26.8 25.3997 33.4 17.2997 33.4C13.1997 33.4 9.19963 31.7 6.49963 28.6L12.3997 26.6C13.0997 26.4 13.4996 25.6 13.1996 24.9C12.9996 24.2 12.1996 23.8 11.4996 24.1L3.49963 26.8C2.99963 27 2.59961 27.5 2.59961 28.1V36.1C2.59961 36.8 3.19966 37.4 3.89966 37.4C4.59966 37.4 5.19958 36.8 5.19958 36.1V31.2C12.0996 37.9 23.0996 37.7 29.6996 30.8C32.7996 27.6 34.5996 23.2 34.5996 18.7C34.6996 18 34.0997 17.4 33.2997 17.4Z" fill="#00CDB8"/>
</svg>
