<svg width="17" height="21" viewBox="0 0 17 21" fill="none" xmlns="http://www.w3.org/2000/svg">
<path d="M15.0264 3.75724H12.8042V3.4398C12.8042 2.06413 11.6402 0.900146 10.2645 0.900146H6.77253C5.39686 0.900146 4.23281 2.06413 4.23281 3.4398V3.75724H2.01061C0.846588 3.75724 0 4.70965 0 5.76785V7.24936C0 7.67265 0.317435 7.88426 0.634896 7.88426H1.164L2.11641 20.2653C2.11641 20.5827 2.43384 20.9001 2.7513 20.9001H14.1799C14.4974 20.9001 14.8148 20.5827 14.8148 20.2653L15.7673 7.88426H16.2964C16.7196 7.88426 16.9313 7.56683 16.9313 7.24936V5.76785C17.0371 4.60383 16.1905 3.75724 15.0264 3.75724ZM5.71432 3.334C5.71432 2.69908 6.2434 2.16994 6.87832 2.16994H10.3704C11.0054 2.16994 11.5344 2.69908 11.5344 3.334V3.65145H5.82012V3.334H5.71432ZM1.37572 5.76785C1.37572 5.34457 1.69315 5.13296 2.01061 5.13296H14.9206C15.3439 5.13296 15.5555 5.45039 15.5555 5.76785V6.6144H1.26979V5.76785H1.37572ZM13.6508 19.6303H3.49212L2.64551 7.88426H14.4973L13.6508 19.6303Z" fill="#70A6A6"/>
<path d="M8.57142 18.2546C8.9947 18.2546 9.20632 17.9372 9.20632 17.6198V10.1065C9.20632 9.68319 8.88888 9.47157 8.57142 9.47157C8.14814 9.47157 7.93652 9.78901 7.93652 10.1065V17.6198C7.93652 17.9372 8.25396 18.2546 8.57142 18.2546Z" fill="#70A6A6"/>
<path d="M11.2169 18.2546C11.3227 18.2546 11.3227 18.2546 11.2169 18.2546C11.6402 18.2546 11.9577 17.9372 11.9577 17.6197L12.3809 10.1065C12.3809 9.68318 12.0635 9.36577 11.746 9.36577C11.3227 9.36577 11.0053 9.6832 11.0053 10.0007L10.582 17.5139C10.582 17.9372 10.8995 18.2546 11.2169 18.2546Z" fill="#70A6A6"/>
<path d="M5.82013 18.2546C5.82013 18.2546 5.92595 18.2546 5.82013 18.2546C6.24341 18.2546 6.56084 17.9372 6.45502 17.5139L6.03171 10.0007C6.03171 9.57738 5.71431 9.36577 5.29102 9.36577C4.86774 9.36577 4.65613 9.68318 4.65613 10.1065L5.07943 17.6197C5.18526 17.9372 5.50266 18.2546 5.82013 18.2546Z" fill="#70A6A6"/>
</svg>
