<svg width="21" height="24" viewBox="0 0 21 24" fill="none" xmlns="http://www.w3.org/2000/svg">
<path d="M19.3194 14.7195H17.2801C17.2801 14.3516 17.0654 13.9836 16.6361 13.9836H11.4843C10.8403 13.9836 10.3037 14.5969 10.3037 15.3329V18.0314H5.68848C4.72251 18.0314 3.86388 17.1728 3.86388 15.9462V14.4743C3.86388 13.3703 4.61518 12.3889 5.68848 12.3889H14.9188C16.5288 12.3889 17.9241 10.9171 17.9241 8.95445V7.4824C17.9241 5.64246 16.6361 4.04793 14.9188 4.04793H10.3037V1.34926C10.3037 0.613284 9.76701 0 9.12303 0H3.9712C3.64922 0 3.32723 0.245296 3.32723 0.735947V0.85858H1.28796C0.64398 0.85858 0 1.47201 0 2.20799V7.35977C0 8.09575 0.53665 8.70903 1.28796 8.70903H3.32723C3.32723 9.07702 3.54189 9.44498 3.9712 9.44498H9.12303C9.76701 9.44498 10.3037 8.83169 10.3037 8.09572V5.39719H14.9188C15.8848 5.39719 16.7435 6.25577 16.7435 7.4824V8.95445C16.7435 10.0584 15.9921 11.0397 14.9188 11.0397C12.8796 11.0397 5.68848 11.0397 5.68848 11.0397C4.07853 11.0397 2.68324 12.5117 2.68324 14.4743V15.9462C2.68324 17.7861 3.9712 19.3808 5.68848 19.3808H10.3037V22.0793C10.3037 22.8153 10.8403 23.4286 11.4843 23.4286H16.6361C16.9581 23.4286 17.2801 23.1833 17.2801 22.6926V22.57H19.3194C19.9633 22.57 20.5 21.9567 20.5 21.2207V16.0688C20.5 15.3328 19.9633 14.7195 19.3194 14.7195ZM3.32723 2.20799V4.17057H1.28796V2.20799H3.32723ZM1.28796 7.4824V5.51983H3.32723V7.4824H1.28796ZM9.0157 8.21835H4.50785C4.50785 7.48237 4.50785 2.33053 4.50785 1.47189H9.0157C9.0157 7.7277 9.0157 8.21835 9.0157 8.21835ZM19.3194 16.0688V18.0314H17.2801V16.0688H19.3194ZM16.0995 22.0793H11.5916V15.3329H16.0995V22.0793ZM19.3194 21.3434H17.2801V19.3808H19.3194V21.3434Z" fill="#70A6A6"/>
</svg>
