<svg width="15" height="15" viewBox="0 0 15 15" fill="none" xmlns="http://www.w3.org/2000/svg">
<path d="M5.33207 4.63171C5.67219 4.28975 6.07655 4.01836 6.52189 3.83319C6.96723 3.64802 7.44474 3.55273 7.92705 3.55273C8.40935 3.55273 8.88698 3.64802 9.33232 3.83319C9.77766 4.01836 10.182 4.28975 10.5221 4.63171C11.0345 5.14769 11.383 5.80354 11.5238 6.51691C11.6647 7.23028 11.5917 7.96936 11.3139 8.64136C11.0361 9.31336 10.566 9.8883 9.96257 10.294C9.35912 10.6997 8.6493 10.9181 7.92216 10.9217C7.43951 10.9224 6.96151 10.8263 6.51664 10.639C6.07178 10.4518 5.669 10.1773 5.33207 9.83173C4.98739 9.49212 4.71373 9.08735 4.5269 8.64099C4.34007 8.19464 4.24382 7.71557 4.24382 7.23169C4.24382 6.74781 4.34007 6.2688 4.5269 5.82245C4.71373 5.37609 4.98739 4.97132 5.33207 4.63171ZM5.56206 7.23169C5.55939 7.54235 5.61871 7.85047 5.73637 8.138C5.85403 8.42553 6.02768 8.68675 6.24736 8.90643C6.46704 9.12611 6.72826 9.29982 7.01579 9.41748C7.30332 9.53514 7.6115 9.59434 7.92216 9.59167C8.54951 9.59329 9.15249 9.34921 9.60209 8.91168C9.88816 8.64055 10.1021 8.30237 10.2245 7.92773C10.347 7.5531 10.374 7.15385 10.3033 6.76611C10.2325 6.37838 10.0662 6.01441 9.81938 5.70715C9.57252 5.3999 9.25283 5.15909 8.88945 5.00647C8.52606 4.85385 8.13042 4.79423 7.7382 4.83307C7.34599 4.87191 6.96962 5.00801 6.64323 5.22894C6.31684 5.44988 6.05073 5.74868 5.86894 6.09839C5.68715 6.44809 5.59542 6.83761 5.60209 7.23169" fill="#70A6A6"/>
<path d="M1.44141 6.57166H2.86145C3.03649 6.57166 3.20435 6.64118 3.32812 6.76495C3.4519 6.88873 3.52148 7.05659 3.52148 7.23163C3.52148 7.40667 3.4519 7.57453 3.32812 7.6983C3.20435 7.82208 3.03649 7.89166 2.86145 7.89166H1.44141C1.26636 7.89166 1.09851 7.82208 0.974731 7.6983C0.850957 7.57453 0.781494 7.40667 0.781494 7.23163C0.781494 7.05659 0.850957 6.88873 0.974731 6.76495C1.09851 6.64118 1.26636 6.57166 1.44141 6.57166Z" fill="#70A6A6"/>
<path d="M7.92188 11.6417C8.09785 11.6417 8.26672 11.7109 8.39209 11.8344C8.51746 11.9579 8.58917 12.1257 8.5918 12.3017V13.7217C8.57185 13.884 8.49322 14.0335 8.37073 14.1418C8.24823 14.2502 8.0903 14.31 7.92676 14.31C7.76321 14.31 7.6054 14.2502 7.48291 14.1418C7.36042 14.0335 7.28178 13.884 7.26184 13.7217V12.3017C7.26442 12.1275 7.33479 11.9611 7.45801 11.8379C7.58123 11.7147 7.74764 11.6443 7.92188 11.6417Z" fill="#70A6A6"/>
<path d="M3.86228 10.3516C3.91863 10.2914 3.98677 10.2435 4.06248 10.2108C4.13818 10.1781 4.21976 10.1614 4.30222 10.1616C4.43168 10.1623 4.55812 10.201 4.66575 10.273C4.77338 10.3449 4.85748 10.4469 4.90757 10.5662C4.95766 10.6856 4.97155 10.8171 4.94749 10.9443C4.92343 11.0715 4.86255 11.1888 4.77232 11.2816L3.77232 12.2816C3.64868 12.4044 3.48144 12.4733 3.30723 12.4733C3.13301 12.4733 2.9659 12.4044 2.84226 12.2816C2.78148 12.2215 2.73342 12.1499 2.70078 12.0709C2.66815 11.9919 2.65167 11.9071 2.65232 11.8217C2.6532 11.6494 2.72133 11.4843 2.84226 11.3616L3.86228 10.3516Z" fill="#70A6A6"/>
<path d="M7.92274 2.83173C7.7476 2.82659 7.5811 2.75404 7.45814 2.62921C7.33518 2.50439 7.26521 2.33688 7.2627 2.16168V0.751709C7.25113 0.657534 7.25972 0.561991 7.28785 0.471375C7.31598 0.380758 7.36304 0.297139 7.42591 0.226074C7.48878 0.155009 7.56597 0.0981147 7.65247 0.0591431C7.73898 0.0201714 7.83274 0 7.92762 0C8.0225 0 8.11638 0.0201714 8.20289 0.0591431C8.2894 0.0981147 8.36658 0.155009 8.42945 0.226074C8.49232 0.297139 8.53938 0.380758 8.56751 0.471375C8.59565 0.561991 8.60423 0.657534 8.59266 0.751709V2.16168C8.59008 2.33857 8.51866 2.50754 8.39356 2.63263C8.26847 2.75772 8.09963 2.82914 7.92274 2.83173Z" fill="#70A6A6"/>
<path d="M4.36155 4.31166C4.18605 4.31232 4.01731 4.2441 3.89158 4.12165L2.89158 3.12165C2.83051 3.06124 2.78193 2.98941 2.74864 2.91023C2.71534 2.83105 2.69795 2.74606 2.69749 2.66017C2.69702 2.57427 2.71351 2.48915 2.74595 2.40962C2.77839 2.33008 2.82617 2.25773 2.88657 2.19666C2.94698 2.1356 3.01882 2.08702 3.098 2.05372C3.17718 2.02042 3.26211 2.00304 3.348 2.00257C3.43389 2.00211 3.51908 2.01859 3.59861 2.05103C3.67814 2.08348 3.75044 2.13125 3.8115 2.19166L4.8115 3.19166C4.87424 3.25028 4.92374 3.32165 4.95652 3.40101C4.9893 3.48037 5.00465 3.56582 5.00156 3.65162C5.00174 3.81894 4.93736 3.97989 4.82188 4.10096C4.70639 4.22203 4.54871 4.29392 4.38157 4.30165" fill="#70A6A6"/>
<path d="M12.3317 7.23163C12.3342 7.05739 12.4046 6.89104 12.5278 6.76782C12.6511 6.6446 12.8175 6.57424 12.9917 6.57166H14.4117C14.5741 6.5916 14.7234 6.67023 14.8318 6.79272C14.9402 6.91522 15 7.07309 15 7.23663C15 7.40018 14.9402 7.55811 14.8318 7.6806C14.7234 7.8031 14.5741 7.88167 14.4117 7.90161H12.9917C12.8157 7.89898 12.6479 7.82727 12.5244 7.7019C12.4009 7.57654 12.3316 7.4076 12.3317 7.23163Z" fill="#70A6A6"/>
<path d="M11.4932 10.1517C11.6687 10.151 11.8374 10.2192 11.9631 10.3417L12.9631 11.3417C13.0248 11.4014 13.0739 11.4729 13.1074 11.5519C13.1409 11.6309 13.1582 11.7159 13.1582 11.8017C13.1582 11.8875 13.1409 11.9725 13.1074 12.0515C13.0739 12.1305 13.0248 12.202 12.9631 12.2617C12.9037 12.3234 12.8322 12.3722 12.7531 12.4049C12.6739 12.4376 12.5888 12.4535 12.5032 12.4517C12.4176 12.453 12.3327 12.4367 12.2537 12.4041C12.1746 12.3714 12.103 12.323 12.0432 12.2617L11.0432 11.2617C10.9549 11.1714 10.8943 11.0576 10.8688 10.9339C10.8432 10.8102 10.8538 10.6817 10.899 10.5638C10.9443 10.4459 11.0225 10.3434 11.1243 10.2686C11.226 10.1938 11.3471 10.1498 11.4731 10.1417" fill="#70A6A6"/>
<path d="M11.9827 4.1217C11.86 4.24264 11.695 4.31083 11.5227 4.31171C11.4372 4.31236 11.3524 4.29588 11.2734 4.26324C11.1944 4.23061 11.1227 4.18249 11.0626 4.1217C10.9996 4.06281 10.9493 3.9916 10.9149 3.91248C10.8805 3.83335 10.8627 3.74797 10.8627 3.66168C10.8615 3.57521 10.8787 3.48952 10.9132 3.41022C10.9477 3.33091 10.9986 3.25984 11.0626 3.20172L12.0626 2.20172C12.1858 2.08199 12.3509 2.01501 12.5227 2.01501C12.6945 2.01501 12.8595 2.08199 12.9827 2.20172C13.0444 2.2614 13.0934 2.33284 13.127 2.41187C13.1605 2.49089 13.1777 2.57585 13.1777 2.66168C13.1777 2.74752 13.1605 2.83247 13.127 2.9115C13.0934 2.99052 13.0444 3.06203 12.9827 3.1217L11.9827 4.1217Z" fill="#70A6A6"/>
</svg>
