<svg width="21" height="20" viewBox="0 0 21 20" fill="none" xmlns="http://www.w3.org/2000/svg">
<path d="M0.468472 2.85034C0.468472 2.38208 0.464902 1.91381 0.468472 1.44555C0.476207 0.626237 1.09144 0.00862748 1.91075 0.00386749C2.85402 -0.00128916 3.79749 -0.00128916 4.74116 0.00386749C4.92941 0.00149535 5.11624 0.0366358 5.29077 0.107239C5.46529 0.177842 5.624 0.282494 5.75765 0.415088C5.8913 0.547683 5.9972 0.705566 6.06918 0.879524C6.14116 1.05348 6.17778 1.24003 6.17689 1.4283C6.18443 2.38029 6.18443 3.33229 6.17689 4.28429C6.17816 4.47217 6.14209 4.65843 6.07077 4.83225C5.99945 5.00608 5.89432 5.164 5.76146 5.29686C5.62861 5.42971 5.47068 5.53485 5.29686 5.60617C5.12303 5.67748 4.93677 5.71355 4.74889 5.71229C3.7969 5.71863 2.8449 5.71863 1.8929 5.71229C1.09025 5.70574 0.476207 5.08278 0.464902 4.27596C0.464902 3.80115 0.468472 3.32575 0.468472 2.85034ZM1.91491 1.43543V4.2718H4.7358V1.43543H1.91491Z" fill="#2A5058"/>
<path d="M3.31435 12.8547C2.85382 12.8547 2.39329 12.8547 1.93276 12.8547C1.08727 12.8487 0.472636 12.2341 0.469661 11.388C0.465298 10.459 0.465298 9.5302 0.469661 8.6016C0.473231 7.76861 1.08787 7.14862 1.91848 7.14445C2.85501 7.13969 3.79134 7.13969 4.72747 7.14445C5.56047 7.14862 6.17451 7.76444 6.17927 8.59922C6.18403 9.53535 6.18403 10.4715 6.17927 11.4076C6.17451 12.237 5.55393 12.8481 4.71914 12.8547C4.25088 12.8576 3.78262 12.8547 3.31435 12.8547ZM1.91134 8.58078V11.4088H4.74056V8.58078H1.91134Z" fill="#2A5058"/>
<path d="M0.468472 17.1315C0.468472 16.6632 0.464902 16.195 0.468472 15.7267C0.476207 14.9074 1.09084 14.2886 1.90956 14.2838C2.85243 14.2787 3.7959 14.2787 4.73997 14.2838C4.92824 14.2814 5.11512 14.3165 5.28971 14.387C5.46429 14.4575 5.62309 14.5621 5.75684 14.6946C5.89059 14.8271 5.99661 14.985 6.06873 15.1589C6.14085 15.3328 6.17762 15.5194 6.17689 15.7077C6.18443 16.6597 6.18443 17.6117 6.17689 18.5637C6.17871 18.7519 6.14305 18.9386 6.07197 19.1128C6.0009 19.2871 5.89584 19.4455 5.76292 19.5787C5.63 19.712 5.47189 19.8174 5.29779 19.889C5.12369 19.9605 4.9371 19.9966 4.74889 19.9952C3.7969 20.0016 2.8449 20.0016 1.8929 19.9952C1.08965 19.9887 0.475017 19.3663 0.464902 18.5601C0.464307 18.0823 0.468472 17.6069 0.468472 17.1315ZM1.90659 18.5512H4.73521V15.7255H1.90659V18.5512Z" fill="#2A5058"/>
<path d="M14.0339 2.14468C15.9232 2.14468 17.8121 2.14468 19.7006 2.14468C20.2361 2.14468 20.5901 2.61413 20.4146 3.09132C20.3111 3.37692 20.0987 3.5334 19.7988 3.56732C19.7321 3.57188 19.6651 3.57288 19.5983 3.57029H8.46764C8.37115 3.57453 8.27448 3.56914 8.17906 3.55423C8.0098 3.51949 7.85888 3.42456 7.75428 3.28703C7.64969 3.1495 7.59851 2.9787 7.61024 2.80631C7.62155 2.62975 7.69877 2.46387 7.8266 2.34154C7.95443 2.21922 8.12355 2.14938 8.30044 2.14586C8.85796 2.13634 9.41607 2.14289 9.97358 2.14289L14.0339 2.14468Z" fill="#2A5058"/>
<path d="M14.0452 9.28466C15.9265 9.28466 17.8081 9.28466 19.6899 9.28466C20.2397 9.28466 20.5973 9.76066 20.4134 10.2426C20.3057 10.5258 20.0909 10.6799 19.7899 10.7097C19.7238 10.7162 19.656 10.7097 19.5894 10.7097H8.47894C8.37503 10.7144 8.27091 10.708 8.16835 10.6906C8.00177 10.6466 7.85672 10.5439 7.75995 10.4013C7.66318 10.2588 7.62122 10.0861 7.64181 9.91501C7.66239 9.74396 7.74414 9.58611 7.87196 9.47059C7.99979 9.35507 8.16507 9.28967 8.33733 9.28645C9.35597 9.28169 10.3746 9.28645 11.3932 9.28645L14.0452 9.28466Z" fill="#2A5058"/>
<path d="M14.0571 16.4247C15.9384 16.4247 17.82 16.4247 19.7018 16.4247C20.2373 16.4247 20.5901 16.8953 20.4158 17.3725C20.3123 17.6575 20.0999 17.814 19.7994 17.8485C19.7253 17.8538 19.6511 17.855 19.5769 17.8521H8.48965C8.38563 17.857 8.28137 17.8514 8.17847 17.8354C8.00491 17.7997 7.8508 17.7008 7.74612 17.5579C7.64143 17.4149 7.59364 17.2381 7.61203 17.0619C7.64951 16.6936 7.95177 16.4235 8.34566 16.4229C9.97477 16.4201 11.6035 16.4201 13.2318 16.4229L14.0571 16.4247Z" fill="#2A5058"/>
</svg>
