<svg width="30" height="23" viewBox="0 0 30 23" fill="none" xmlns="http://www.w3.org/2000/svg">
<path d="M10.2861 21.7859C4.60537 19.4515 1.89254 12.954 4.22689 7.27323C5.39405 4.43287 7.60201 2.33447 10.2283 1.23795" stroke="#70A6A6" stroke-width="2" stroke-miterlimit="10" stroke-linecap="round" stroke-linejoin="round"/>
<path d="M18.7395 1.21396C24.4203 3.5483 27.1331 10.0459 24.7988 15.7266C23.6316 18.567 21.4237 20.6654 18.7974 21.7619" stroke="#70A6A6" stroke-width="2" stroke-miterlimit="10" stroke-linecap="round" stroke-linejoin="round"/>
<path d="M16.2845 13.3857C15.3094 14.3589 13.7284 14.3589 12.7533 13.3857C11.7782 12.4125 11.7782 10.8347 12.7533 9.8614C13.7284 8.88822 15.3094 8.88822 16.2845 9.8614C17.2595 10.8347 17.2595 12.4125 16.2845 13.3857Z" fill="#70A6A6" stroke="#70A6A6" stroke-width="2" stroke-miterlimit="10" stroke-linecap="round" stroke-linejoin="round"/>
<path d="M19.6938 7.27202C22.1019 9.67537 22.1019 13.5719 19.6938 15.9752" stroke="#70A6A6" stroke-width="2" stroke-miterlimit="10" stroke-linecap="round" stroke-linejoin="round"/>
<path d="M9.33482 7.27194C6.9268 9.67529 6.9268 13.5719 9.33482 15.9752" stroke="#70A6A6" stroke-width="2" stroke-miterlimit="10" stroke-linecap="round" stroke-linejoin="round"/>
</svg>
