<svg width="41" height="26" viewBox="0 0 41 26" fill="none" xmlns="http://www.w3.org/2000/svg">
<path d="M25.9703 2.69775H14.9814V22.5067H25.9703V2.69775Z" fill="#DE5F16"/>
<path d="M15.705 12.6754C15.705 8.77149 17.4401 5.15671 20.4765 2.69866C14.9821 -1.63906 7.02949 -0.626926 2.83636 4.86753C-1.50137 10.362 -0.48923 18.3145 5.00522 22.5076C9.63213 26.1224 15.9942 26.1224 20.6211 22.5076C17.4401 20.1942 15.705 16.4348 15.705 12.6754Z" fill="#C80020"/>
<path d="M40.8638 12.6754C40.8638 19.6158 35.2249 25.2548 28.2845 25.2548C25.3927 25.2548 22.6454 24.2427 20.4766 22.5076C25.971 18.1699 26.8386 10.2174 22.6454 4.86752C22.0671 4.14457 21.3441 3.42162 20.4766 2.69866C25.971 -1.63906 33.9234 -0.626926 38.1166 4.86752C39.9963 7.03639 40.8638 9.78363 40.8638 12.6754Z" fill="#E09C2F"/>
<path d="M39.7061 20.4837V20.0499H39.8508V19.9053H39.417V20.0499H39.5615L39.7061 20.4837ZM40.4291 20.4837V20.0499H40.2845L40.1399 20.3391L39.9954 20.0499H39.8508V20.4837H39.9954V20.0499L40.1399 20.3391H40.2845L40.4291 20.0499V20.4837Z" fill="#E09C2F"/>
</svg>
