<svg width="46" height="37" viewBox="0 0 46 37" fill="none" xmlns="http://www.w3.org/2000/svg">
<path d="M42.6723 0H2.79821C1.16594 0 0 1.16591 0 2.79818V24.2509C0 25.8832 1.16594 27.0491 2.79821 27.0491H42.6723C44.3046 27.0491 45.4705 25.8832 45.4705 24.2509V2.79818C45.4705 1.39909 44.3046 0 42.6723 0ZM42.4391 3.03137V24.0177H3.03141V3.03137H42.4391Z" fill="#70A6A6"/>
<path d="M17.7219 20.9863C17.955 20.9863 18.1883 21.2195 18.4214 21.2195C18.6546 21.2195 18.8878 21.2195 19.3542 20.9863L27.9818 14.9236C28.4482 14.6904 28.6814 14.224 28.6814 13.7577C28.6814 13.2913 28.4482 12.8249 27.9818 12.5918L19.3542 6.52902C18.8878 6.29584 18.1882 6.06266 17.7219 6.52902C17.2555 6.7622 17.0223 7.22857 17.0223 7.92811V20.2868C17.0223 20.2868 17.2555 20.7531 17.7219 20.9863ZM20.0537 16.789V10.2599L24.4841 13.5245L20.0537 16.789Z" fill="#70A6A6"/>
<path d="M44.0714 31.013H27.0491C26.3495 29.3808 24.9505 28.2148 23.085 28.2148C21.2196 28.2148 19.8205 29.3808 19.1209 31.013H1.63226C0.699532 31.013 0.233154 31.7126 0.233154 32.4121C0.233154 33.1117 0.932714 33.8112 1.63226 33.8112H19.1209C19.8205 35.4435 21.2196 36.6094 23.085 36.6094C24.9505 36.6094 26.3495 35.4435 27.0491 33.8112H44.0714C45.0041 33.8112 45.4704 33.1117 45.4704 32.4121C45.4704 31.7126 44.771 31.013 44.0714 31.013ZM24.2509 32.6453C24.2509 33.3449 23.7846 33.8112 23.085 33.8112C22.3855 33.8112 21.9191 33.3449 21.9191 32.6453C21.9191 31.9458 22.3855 31.4794 23.085 31.4794C23.7846 31.4794 24.2509 31.9458 24.2509 32.6453Z" fill="#70A6A6"/>
</svg>
