<svg width="177" height="31" viewBox="0 0 177 31" fill="none" xmlns="http://www.w3.org/2000/svg">
<path d="M25.9566 2.69604H27.2752V30.0321H25.0266V7.85237L13.8564 25.7682L2.72899 7.85237V30.0348H0.477783V2.69873H1.75883L13.8564 21.8929L25.9566 2.69604Z" fill="white"/>
<path d="M155.071 30.0591C154.904 30.2267 154.69 30.3409 154.458 30.3871C154.225 30.4334 153.984 30.4097 153.766 30.3191C153.547 30.2284 153.359 30.0749 153.228 29.8778C153.096 29.6808 153.026 29.4492 153.026 29.2122C153.026 28.9753 153.096 28.7436 153.228 28.5466C153.359 28.3496 153.547 28.1961 153.766 28.1054C153.984 28.0148 154.225 27.9911 154.458 28.0373C154.69 28.0836 154.904 28.1978 155.071 28.3654C155.292 28.592 155.415 28.8959 155.415 29.2122C155.415 29.5286 155.292 29.8325 155.071 30.0591V30.0591Z" fill="white"/>
<path d="M157.887 14.6195C157.889 14.4628 157.922 14.3081 157.985 14.1643C158.047 14.0205 158.137 13.8905 158.25 13.7818C158.363 13.6731 158.496 13.5879 158.643 13.5311C158.789 13.4744 158.945 13.4471 159.101 13.4511C159.255 13.45 159.407 13.4795 159.55 13.5378C159.692 13.5962 159.821 13.6822 159.93 13.7909C160.039 13.8996 160.125 14.0289 160.183 14.1711C160.241 14.3134 160.271 14.4658 160.27 14.6195C160.271 14.7746 160.243 14.9285 160.185 15.0724C160.127 15.2164 160.041 15.3475 159.933 15.4582C159.824 15.569 159.695 15.6573 159.552 15.718C159.41 15.7788 159.256 15.8107 159.101 15.8121C158.943 15.8136 158.786 15.7838 158.64 15.7247C158.493 15.6655 158.36 15.578 158.247 15.4673C158.134 15.3565 158.045 15.2247 157.983 15.0792C157.921 14.9338 157.889 14.7776 157.887 14.6195V14.6195ZM158.139 30.2654V17.8731H160.039V30.2654H158.139Z" fill="white"/>
<path d="M164.804 28.5473C164.184 27.9705 163.69 27.272 163.352 26.4955C163.013 25.719 162.839 24.8812 162.839 24.0342C162.839 23.1873 163.013 22.3494 163.352 21.5729C163.69 20.7964 164.184 20.0979 164.804 19.5211C165.44 18.909 166.191 18.4284 167.012 18.1065C167.834 17.7846 168.711 17.6278 169.594 17.6451C170.473 17.6262 171.347 17.7824 172.165 18.1045C172.983 18.4265 173.728 18.9081 174.359 19.5211C174.985 20.0931 175.484 20.7906 175.824 21.5681C176.163 22.3457 176.335 23.1859 176.328 24.0342C176.336 24.885 176.163 25.7277 175.819 26.506C175.475 27.2843 174.969 27.9803 174.335 28.5473C173.707 29.1524 172.966 29.6278 172.154 29.9465C171.343 30.2652 170.476 30.4208 169.604 30.4046C167.823 30.4395 166.099 29.7724 164.804 28.5473V28.5473ZM173.029 20.7137C172.579 20.267 172.045 19.9152 171.456 19.6791C170.868 19.4429 170.238 19.3272 169.604 19.3388C168.965 19.3274 168.33 19.443 167.736 19.679C167.142 19.9151 166.601 20.2667 166.144 20.7137C165.694 21.1395 165.336 21.6526 165.091 22.2217C164.846 22.7908 164.719 23.4039 164.719 24.0235C164.719 24.6431 164.846 25.2562 165.091 25.8253C165.336 26.3944 165.694 26.9075 166.144 27.3333C166.601 27.7802 167.142 28.1319 167.736 28.3679C168.33 28.604 168.965 28.7196 169.604 28.7081C170.24 28.7212 170.872 28.6062 171.462 28.37C172.052 28.1338 172.589 27.7812 173.04 27.3333C173.49 26.9075 173.849 26.3944 174.094 25.8253C174.339 25.2562 174.465 24.6431 174.465 24.0235C174.465 23.4039 174.339 22.7908 174.094 22.2217C173.849 21.6526 173.49 21.1395 173.04 20.7137H173.029Z" fill="white"/>
<path d="M123.806 2.46826H126.218V30.2653H121.364V13.0757L112.097 26.8751L102.832 13.0757V30.2653H97.9814V2.46826H100.393L112.102 19.3844L123.806 2.46826Z" fill="#00CDB8"/>
<path d="M147.629 27.3091C145.389 29.3887 142.445 30.5444 139.388 30.5444C136.331 30.5444 133.387 29.3887 131.147 27.3091C128.861 25.141 127.717 22.5762 127.717 19.5371C127.717 16.498 128.861 13.9091 131.147 11.7302C133.387 9.65066 136.331 8.495 139.388 8.495C142.445 8.495 145.389 9.65066 147.629 11.7302C149.914 13.8993 151.058 16.5015 151.059 19.5371C151.051 22.5762 149.907 25.141 147.629 27.3091ZM144.357 14.6514C143.705 14.001 142.93 13.4879 142.076 13.1427C141.223 12.7974 140.309 12.627 139.388 12.6414C138.462 12.6269 137.542 12.7972 136.682 13.1423C135.823 13.4874 135.041 14.0005 134.382 14.6514C133.733 15.2855 133.217 16.0429 132.865 16.8792C132.513 17.7154 132.331 18.6136 132.331 19.521C132.331 20.4284 132.513 21.3266 132.865 22.1629C133.217 22.9991 133.733 23.7565 134.382 24.3906C135.04 25.042 135.823 25.5556 136.682 25.9012C137.542 26.2468 138.462 26.4174 139.388 26.4033C140.309 26.4179 141.223 26.2472 142.077 25.9015C142.93 25.5557 143.706 25.0419 144.357 24.3906C145.017 23.7632 145.543 23.0079 145.903 22.1707C146.262 21.3336 146.448 20.4321 146.448 19.521C146.448 18.61 146.262 17.7084 145.903 16.8713C145.543 16.0341 145.017 15.2789 144.357 14.6514V14.6514Z" fill="#00CDB8"/>
<path d="M51.4598 20.3305H32.6113C32.825 22.5598 33.8663 24.6281 35.5299 26.1274C37.1735 27.6035 39.3134 28.4054 41.5223 28.3732C44.5588 28.3732 47.3567 27.1913 49.0532 25.0232L50.5915 26.2828C48.5815 28.8476 45.1511 30.4234 41.2115 30.4234C38.0571 30.4234 35.4548 29.3514 33.4046 27.269C31.3946 25.1813 30.3682 22.5764 30.3682 19.5426C30.3682 16.4659 31.3946 13.8637 33.4046 11.7706C35.4548 9.68286 38.0571 8.61621 41.2115 8.61621C44.3658 8.61621 46.8127 9.64266 48.6646 11.6929C50.5164 13.7431 51.4652 16.4231 51.4652 19.6954L51.4598 20.3305ZM35.294 12.7997C33.7223 14.3067 32.7671 16.3441 32.614 18.5161H49.2542C48.9862 13.7457 45.9819 10.5137 41.2141 10.5137C38.8423 10.5137 36.8699 11.2614 35.294 12.7997V12.7997Z" fill="white"/>
<path d="M54.7617 19.6982C54.7617 16.4259 55.7078 13.7459 57.5623 11.6957C59.4169 9.64547 61.8986 8.61902 65.0127 8.61902C68.1269 8.61902 70.7694 9.69103 72.8196 11.7734C74.8698 13.8558 75.856 16.4661 75.856 19.5454C75.856 22.5792 74.8323 25.1734 72.8196 27.2719C70.8069 29.3703 68.1671 30.4262 65.0127 30.4262C61.0704 30.4262 57.64 28.8504 55.6327 26.2856L57.1684 25.026C58.8648 27.1941 61.6654 28.376 64.7019 28.376C66.9107 28.4077 69.0504 27.6058 70.6943 26.1302C72.3579 24.6309 73.3992 22.5626 73.6129 20.3333H54.7617V19.6982ZM65.0127 10.5138C60.2423 10.5138 57.2407 13.7459 56.9727 18.5163H73.6129C73.4598 16.3443 72.5045 14.3068 70.9329 12.7998C69.3517 11.2615 67.3792 10.5138 65.0127 10.5138Z" fill="white"/>
<path d="M91.0807 10.9451H83.2337V23.0052C83.2337 26.5937 84.7345 28.408 87.6905 28.408C88.8043 28.4112 89.9151 28.2926 91.003 28.0543V29.9115C89.6969 30.2859 88.3413 30.4585 86.983 30.4234C83.499 30.4234 80.9905 28.1374 80.9905 24.1549V10.9451H77.2385V9.0075H80.9905V0.536011H83.2364V9.0075H91.0807V10.9451Z" fill="white"/>
</svg>
