<svg width="69" height="69" viewBox="0 0 69 69" fill="none" xmlns="http://www.w3.org/2000/svg">
<rect x="1.59407" y="1.59407" width="65.3617" height="65.3617" rx="9.84153" fill="#002430" stroke="#00CDB8" stroke-width="2.81187"/>
<path d="M34.2742 22.4124H36.3555V46.0009H32.1673V31.4922L24.1697 43.2993L16.1735 31.4922V46.0009H11.9875V22.4124H14.0689L24.1748 36.8926L34.2742 22.4124Z" fill="white"/>
<path d="M49.5464 33.1704C50.3026 33.6509 50.9093 34.3335 51.2979 35.1408L51.3606 35.2722L55.1212 33.5937L55.0153 33.3747C54.2926 31.8679 53.1604 30.5948 51.7481 29.7013C50.3359 28.8077 48.7006 28.3296 47.0294 28.3218H46.99V32.4268H47.0236C47.9175 32.4339 48.7915 32.6916 49.5464 33.1704V33.1704Z" fill="#00CDB8"/>
<path d="M51.7589 36.8643C51.7684 36.9818 51.7735 37.0993 51.7735 37.2161C51.7724 38.0932 51.5306 38.9531 51.0743 39.7022C50.6181 40.4512 49.9649 41.0606 49.1861 41.464C48.4073 41.8673 47.5326 42.049 46.6576 41.9894C45.7826 41.9298 44.9407 41.6311 44.2238 41.1258C43.5068 40.6206 42.9424 39.9282 42.592 39.1242C42.2415 38.3201 42.1186 37.4353 42.2365 36.5662C42.3544 35.6971 42.7087 34.8771 43.2607 34.1955C43.8127 33.5139 44.5412 32.9969 45.3668 32.701L43.9802 28.8375C42.0774 29.5219 40.4642 30.8336 39.4062 32.5568C38.3481 34.28 37.9081 36.3121 38.1587 38.3187C38.4093 40.3252 39.3355 42.1867 40.7848 43.5968C42.2342 45.0069 44.1204 45.8816 46.1331 46.077C46.4182 46.1038 46.7033 46.1174 46.9884 46.1179C49.349 46.1179 51.6131 45.1804 53.2826 43.5115C54.9522 41.8426 55.8907 39.5789 55.8916 37.2183C55.8916 36.9989 55.8829 36.7787 55.8654 36.5578L51.7589 36.8643Z" fill="white"/>
<path d="M46.9907 23.2762V26.5295C49.0563 26.5315 51.0774 27.1304 52.8105 28.2542C54.5436 29.3781 55.915 30.9789 56.7595 32.864L59.7282 31.5394L60.5171 31.1869C59.3511 28.574 57.4531 26.3547 55.0527 24.7975C52.6522 23.2403 49.852 22.4118 46.9907 22.4121V23.2762Z" fill="#00CDB8"/>
</svg>
