<svg width="27" height="27" viewBox="0 0 27 27" fill="none" xmlns="http://www.w3.org/2000/svg">
<path d="M6.18672 21.8506H4.11203C2.39331 21.8506 1 23.2439 1 24.9627V26H9.29876V24.9627C9.29876 23.2439 7.90545 21.8506 6.18672 21.8506Z" stroke="#808080" stroke-width="2" stroke-linecap="round" stroke-linejoin="round"/>
<path d="M14.5373 6.1868H12.4626C10.7439 6.1868 9.35059 7.58011 9.35059 9.29884V10.3362H17.6493V9.29884C17.6493 7.58011 16.256 6.1868 14.5373 6.1868Z" stroke="#808080" stroke-width="2" stroke-linecap="round" stroke-linejoin="round"/>
<path d="M22.8879 21.8506H20.8132C19.0945 21.8506 17.7012 23.2439 17.7012 24.9627V26H25.9999V24.9627C25.9999 23.2439 24.6066 21.8506 22.8879 21.8506Z" stroke="#808080" stroke-width="2" stroke-linecap="round" stroke-linejoin="round"/>
<path d="M7.74239 19.2572C7.74239 20.6895 6.58129 21.8506 5.14903 21.8506C3.71676 21.8506 2.55566 20.6895 2.55566 19.2572C2.55566 17.825 3.71676 16.6639 5.14903 16.6639C6.58129 16.6639 7.74239 17.825 7.74239 19.2572Z" stroke="#808080" stroke-width="2" stroke-linecap="round" stroke-linejoin="round"/>
<path d="M16.0939 3.59341C16.0939 5.02567 14.9328 6.18677 13.5006 6.18677C12.0683 6.18677 10.9072 5.02567 10.9072 3.59341C10.9072 2.16114 12.0683 1.00005 13.5006 1.00005C14.9328 1.00005 16.0939 2.16114 16.0939 3.59341Z" stroke="#808080" stroke-width="2" stroke-linecap="round" stroke-linejoin="round"/>
<path d="M24.4436 19.2572C24.4436 20.6895 23.2825 21.8506 21.8502 21.8506C20.4179 21.8506 19.2568 20.6895 19.2568 19.2572C19.2568 17.825 20.4179 16.6639 21.8502 16.6639C23.2825 16.6639 24.4436 17.825 24.4436 19.2572Z" stroke="#808080" stroke-width="2" stroke-linecap="round" stroke-linejoin="round"/>
<path d="M13.5 15.1079V10.3361" stroke="#808080" stroke-width="2" stroke-linecap="round" stroke-linejoin="round"/>
<path d="M15.0564 16.664C15.0564 17.5233 14.3597 18.22 13.5004 18.22C12.641 18.22 11.9443 17.5233 11.9443 16.664C11.9443 15.8046 12.641 15.1079 13.5004 15.1079C14.3597 15.1079 15.0564 15.8046 15.0564 16.664Z" stroke="#808080" stroke-width="2" stroke-linecap="round" stroke-linejoin="round"/>
<path d="M12.0139 17.1255L7.62695 18.4879" stroke="#808080" stroke-width="2" stroke-linecap="round" stroke-linejoin="round"/>
<path d="M19.3733 18.4879L14.9863 17.1255" stroke="#808080" stroke-width="2" stroke-linecap="round" stroke-linejoin="round"/>
</svg>
