<svg width="41" height="38" viewBox="0 0 41 38" fill="none" xmlns="http://www.w3.org/2000/svg">
<path d="M18 32.9756H39.1866" stroke="#808080" stroke-width="2" stroke-linecap="round" stroke-linejoin="round"/>
<path d="M37.0679 32.9756H20.1187V24.5009C20.1187 19.8206 23.9129 16.0263 28.5933 16.0263C33.2737 16.0263 37.0679 19.8206 37.0679 24.5009V32.9756Z" stroke="#808080" stroke-width="2" stroke-linecap="round" stroke-linejoin="round"/>
<path d="M28.8047 37H28.3809C26.1577 37 24.3555 35.1978 24.3555 32.9745H32.8301C32.8301 35.1978 31.0279 37 28.8047 37Z" stroke="#808080" stroke-width="2" stroke-linecap="round" stroke-linejoin="round"/>
<path d="M30.6055 14.0127C30.6055 15.1243 29.7044 16.0254 28.5928 16.0254C27.4812 16.0254 26.5801 15.1243 26.5801 14.0127C26.5801 12.9011 27.4812 11.9999 28.5928 11.9999C29.7044 11.9999 30.6055 12.9011 30.6055 14.0127Z" stroke="#808080" stroke-width="2" stroke-linecap="round" stroke-linejoin="round"/>
<circle cx="13" cy="13" r="13" fill="#FF4615"/>
<path d="M6.31375 9V7.336H9.64175V19H7.80175V9H6.31375ZM19.6675 8.904H14.3075V12.088C14.5315 11.7893 14.8622 11.5387 15.2995 11.336C15.7475 11.1333 16.2222 11.032 16.7235 11.032C17.6195 11.032 18.3448 11.224 18.8995 11.608C19.4648 11.992 19.8648 12.4773 20.0995 13.064C20.3448 13.6507 20.4675 14.2693 20.4675 14.92C20.4675 15.7093 20.3128 16.4133 20.0035 17.032C19.7048 17.64 19.2515 18.12 18.6435 18.472C18.0462 18.824 17.3102 19 16.4355 19C15.2728 19 14.3395 18.712 13.6355 18.136C12.9315 17.56 12.5102 16.7973 12.3715 15.848H14.1475C14.2648 16.3493 14.5262 16.7493 14.9315 17.048C15.3368 17.336 15.8435 17.48 16.4515 17.48C17.2088 17.48 17.7742 17.2507 18.1475 16.792C18.5315 16.3333 18.7235 15.7253 18.7235 14.968C18.7235 14.2 18.5315 13.6133 18.1475 13.208C17.7635 12.792 17.1982 12.584 16.4515 12.584C15.9288 12.584 15.4862 12.7173 15.1235 12.984C14.7715 13.24 14.5155 13.592 14.3555 14.04H12.6275V7.304H19.6675V8.904Z" fill="white"/>
</svg>
