<svg width="50" height="33" viewBox="0 0 50 33" fill="none" xmlns="http://www.w3.org/2000/svg">
<g clip-path="url(#clip0_23687_64730)">
<path d="M19.0659 8.89518L19.0664 8.89347L29.5627 15.1806L35.8173 12.5486C37.0882 11.9991 38.4587 11.7174 39.8433 11.7187C40.074 11.7187 40.302 11.7292 40.5289 11.7444C39.7769 8.81219 38.1895 6.16156 35.9595 4.11457C33.7295 2.06758 30.953 0.712355 27.9673 0.213587C24.9816 -0.28518 21.9153 0.0939818 19.1411 1.305C16.3668 2.51601 14.004 4.50675 12.3398 7.03528C12.3933 7.03461 12.446 7.03125 12.4996 7.03125C14.8193 7.0281 17.0937 7.67373 19.0659 8.89518Z" fill="#0364B8"/>
<path d="M19.0668 8.89347L19.0663 8.89518C17.0942 7.67373 14.8198 7.0281 12.5 7.03125C12.4464 7.03125 12.3937 7.03461 12.3403 7.03528C10.0698 7.06339 7.84991 7.70966 5.91915 8.90464C3.9884 10.0996 2.41977 11.7981 1.38183 13.8177C0.343893 15.8372 -0.12411 18.1014 0.0281142 20.3669C0.180338 22.6325 0.947034 24.8137 2.24581 26.6762L11.5021 22.781L15.6168 21.0495L24.7785 17.1941L29.5631 15.1806L19.0668 8.89347Z" fill="#0078D4"/>
<path d="M40.5297 11.7444C40.3028 11.7292 40.0748 11.7188 39.8441 11.7188C38.4595 11.7174 37.0893 12.0002 35.8183 12.5497L29.5635 15.1806L31.3772 16.267L37.3224 19.8281L39.9163 21.3818L48.7855 26.6945C49.5914 25.1984 50.0091 23.524 50.0002 21.8247C49.9913 20.1254 49.5562 18.4555 48.7347 16.9679C47.9133 15.4803 46.7317 14.2227 45.2982 13.3101C43.8647 12.3975 42.2251 11.8591 40.5297 11.7444Z" fill="#1490DF"/>
<path d="M39.9162 21.3818L37.3223 19.8281L31.3771 16.267L29.5634 15.1806L24.7788 17.1941L15.6171 21.0495L11.5023 22.781L2.24609 26.6762C3.39635 28.33 4.92976 29.6808 6.71539 30.6133C8.50102 31.5458 10.4858 32.0323 12.5003 32.0312H39.844C41.6774 32.0318 43.4767 31.5359 45.051 30.5963C46.6252 29.6567 47.9157 28.3084 48.7855 26.6944L39.9162 21.3818Z" fill="#28A8EA"/>
</g>
<defs>
<clipPath id="clip0_23687_64730">
<rect width="50" height="32.0312" fill="white"/>
</clipPath>
</defs>
</svg>
