<svg width="18" height="21" viewBox="0 0 18 21" fill="none" xmlns="http://www.w3.org/2000/svg">
<path d="M14.6 7.39999H13.7V4.70001C13.7 2.10001 11.6 0 8.90002 0C6.20002 0 4.10001 2.10001 4.10001 4.70001V7.39999H3.20001C1.40001 7.39999 0 8.80001 0 10.6V17C0 18.8 1.40001 20.2 3.20001 20.2H14.5C16.2 20.2 17.6 18.8 17.7 17.1C17.7 17.1 17.7 17.1 17.7 17V10.5C17.8 8.8 16.4 7.39999 14.6 7.39999ZM6 4.70001C6 3.10001 7.4 1.70001 9 1.70001C10.6 1.70001 12 3.00001 12 4.70001V7.39999H5.90002V4.70001H6ZM14.6 18.5H3.30002C2.50002 18.5 1.80002 17.8 1.80002 17V10.6C1.80002 9.80001 2.50002 9.10001 3.30002 9.10001H14.6C15.4 9.10001 16.1 9.80001 16.1 10.6V17C16.1 17.8 15.5 18.5 14.6 18.5Z" fill="#70A6A6"/>
</svg>
