<svg width="28" height="22" viewBox="0 0 28 22" fill="none" xmlns="http://www.w3.org/2000/svg">
<path d="M3.89597 13.6181C3.3134 12.8899 2.73082 12.3073 2.43954 11.8704C3.75033 10.4139 7.68272 6.19025 12.1977 5.31639L14.528 2.98608C14.3823 2.98608 14.0911 2.98608 13.9454 2.98608C6.37192 2.98608 0.400521 10.9965 0.109233 11.2878C-0.036411 11.5791 -0.036411 12.1617 0.109233 12.5986C0.254877 12.7442 0.983097 13.7637 2.29389 15.0745L3.89597 13.6181Z" fill="#70A6A6"/>
<path d="M27.7814 11.2877C27.6358 10.9964 24.5773 7.06405 20.2079 4.73375L22.6839 2.2578C23.1208 1.82087 23.1208 1.09265 22.6839 0.510072C22.247 0.0731401 21.5187 0.0731401 20.9362 0.510072L2.58502 19.0068C2.14809 19.4438 2.14809 20.172 2.58502 20.7546C3.02195 21.1915 3.75017 21.1915 4.33275 20.7546L6.51741 18.5699C8.70207 20.0264 11.178 21.0459 13.9453 21.0459C21.5187 21.0459 27.4901 13.0354 27.7814 12.7442C28.0727 12.1616 28.0727 11.579 27.7814 11.2877ZM15.8386 8.95742C16.8581 9.68564 17.4407 10.7051 17.4407 11.8703C17.4407 13.7637 15.8386 15.3658 13.9453 15.3658C12.7801 15.3658 11.6149 14.7832 11.0324 13.7637L15.8386 8.95742ZM13.9453 18.7156C11.7606 18.7156 9.86722 17.8417 7.97385 16.8222L9.43029 15.3658C10.4498 16.6765 12.0519 17.5504 13.7996 17.5504C16.8581 17.5504 19.4797 15.0745 19.4797 11.8703C19.4797 10.1226 18.6059 8.52049 17.2951 7.50098L18.4602 6.33583C21.81 7.93791 24.286 10.7051 25.3055 11.8703C23.9947 13.618 19.3341 18.7156 13.9453 18.7156Z" fill="#70A6A6"/>
</svg>
