<svg width="27" height="26" viewBox="0 0 27 26" fill="none" xmlns="http://www.w3.org/2000/svg">
<path d="M12.0006 1.99182C12.2823 1.42128 12.8634 1.06008 13.5 1.06008C14.1366 1.06008 14.7177 1.42128 14.9994 1.99182C15.9081 3.83311 16.9983 6.04229 17.5672 7.19514C17.8109 7.68876 18.2816 8.03072 18.8262 8.11013C20.0986 8.29488 22.5368 8.64893 24.5683 8.94447C25.1983 9.03601 25.7216 9.47699 25.918 10.0823C26.1149 10.6875 25.9507 11.3521 25.495 11.7961C24.0249 13.2294 22.2605 14.9491 21.3401 15.8465C20.9459 16.2307 20.7662 16.7841 20.8589 17.3263C21.0763 18.5936 21.4931 21.0218 21.84 23.0454C21.9474 23.6728 21.69 24.3065 21.175 24.6806C20.66 25.0547 19.9774 25.1041 19.4139 24.8081C17.5969 23.8526 15.4162 22.7063 14.2779 22.1077C13.7909 21.8519 13.2091 21.8519 12.7221 22.1077C11.5839 22.7063 9.40314 23.8526 7.58612 24.8081C7.02264 25.1041 6.34001 25.0547 5.82508 24.6806C5.31009 24.3065 5.05262 23.6728 5.15998 23.0454C5.50697 21.0218 5.92368 18.5936 6.14105 17.3263C6.23384 16.7841 6.05412 16.2307 5.65993 15.8465C4.7395 14.9491 2.97513 13.2294 1.505 11.7961C1.04935 11.3521 0.885087 10.6875 1.08197 10.0823C1.27845 9.47699 1.80179 9.03601 2.43172 8.94447C4.4632 8.64893 6.90143 8.29488 8.17383 8.11013C8.71849 8.03072 9.18913 7.68876 9.43286 7.19514C10.0017 6.04229 11.0919 3.83311 12.0006 1.99182Z" stroke="#4D4D4D" stroke-width="2" stroke-linecap="round" stroke-linejoin="round"/>
</svg>
