<svg width="21" height="21" viewBox="0 0 21 21" fill="none" xmlns="http://www.w3.org/2000/svg">
<path d="M0 19.1829C0.301114 18.2922 0.601705 17.4014 0.901769 16.5107C1.20691 15.5995 1.50154 14.6851 1.81824 13.7796C1.88489 13.5894 1.99246 13.416 2.13336 13.2718C6.17529 9.21969 10.2193 5.17076 14.2655 1.12498C14.8595 0.529926 15.5375 0.127098 16.3799 0.0246844C16.3986 0.0191923 16.4163 0.0108672 16.4324 0H17.143C17.4581 0.087183 17.7827 0.142854 18.08 0.267326C20.2601 1.1817 20.8252 3.99099 19.1771 5.6879C18.9035 5.96941 18.6225 6.24409 18.3447 6.52192C14.5324 10.3317 10.7211 14.1426 6.91057 17.9545C6.74145 18.1276 6.53271 18.2571 6.30239 18.3315C4.6081 18.8918 2.91503 19.4551 1.22319 20.0216C0.582973 20.2349 0.272578 20.102 0 19.4964V19.1829ZM6.21888 16.361L16.6703 5.90166L14.2234 3.45266L3.76883 13.9109L6.21888 16.361ZM17.84 4.78929C18.4177 4.28247 18.6918 3.66589 18.4959 2.9117C18.3037 2.17117 17.8053 1.7216 17.0464 1.59871C16.3437 1.48526 15.7901 1.76519 15.3432 2.28934L17.84 4.78929ZM4.70999 17.2029L2.92431 15.4135L2.03147 18.0968L4.70999 17.2029Z" fill="#70A6A6"/>
</svg>
