<svg width="100" height="101" viewBox="0 0 100 101" fill="none" xmlns="http://www.w3.org/2000/svg">
<path d="M80.4815 19.517C83.6698 22.7037 83.6698 27.8799 80.4815 31.0666C77.2948 34.2534 72.1204 34.2534 68.932 31.0666C65.7453 27.8799 65.7453 22.7039 68.932 19.517C72.1204 16.3303 77.2948 16.3303 80.4815 19.517Z" stroke="#FF4615" stroke-width="2" stroke-linecap="round" stroke-linejoin="round"/>
<path d="M38.9062 49.5464L50.4557 61.0961L59.694 51.856C62.8839 48.666 62.8839 43.4949 59.694 40.3065C56.5056 37.1166 51.3345 37.1166 48.1445 40.3065L38.9062 49.5464Z" stroke="#808080" stroke-width="2" stroke-linecap="round" stroke-linejoin="round"/>
<path d="M59.6917 10.2769L29.6641 40.3065L59.6917 70.3359L89.7209 40.3065C103.582 26.4475 97.8061 2.19187 97.8061 2.19187C97.8061 2.19187 73.5523 -3.58214 59.6917 10.2769Z" stroke="#808080" stroke-width="2" stroke-linecap="round" stroke-linejoin="round"/>
<path d="M0.999023 99.0014L23.8659 76.1343" stroke="#FF4615" stroke-width="2" stroke-linecap="round" stroke-linejoin="round"/>
<path d="M0.999023 72.8674L14.0659 66.334" stroke="#FF4615" stroke-width="2" stroke-linecap="round" stroke-linejoin="round"/>
<path d="M27.0654 99.0014L33.6674 85.9346" stroke="#FF4615" stroke-width="2" stroke-linecap="round" stroke-linejoin="round"/>
<path d="M34.2848 44.9257L22.7354 56.4751L43.5246 77.2644L55.074 65.715L34.2848 44.9257Z" stroke="#808080" stroke-width="2" stroke-linecap="round" stroke-linejoin="round"/>
<path d="M29.6645 40.3067H6.56543L30.8192 16.0527H53.9181L29.6645 40.3067Z" stroke="#808080" stroke-width="2" stroke-linecap="round" stroke-linejoin="round"/>
<path d="M59.6934 70.3362V93.4351L83.9488 69.1797V46.0806L59.6934 70.3362Z" stroke="#808080" stroke-width="2" stroke-linecap="round" stroke-linejoin="round"/>
</svg>
