<svg width="27" height="27" viewBox="0 0 27 27" fill="none" xmlns="http://www.w3.org/2000/svg">
<path d="M21.2761 5.72394C22.0894 6.53686 22.0894 7.8573 21.2761 8.67021C20.4632 9.48313 19.1432 9.48313 18.3299 8.67021C17.517 7.8573 17.517 6.53691 18.3299 5.72394C19.1432 4.91103 20.4632 4.91103 21.2761 5.72394Z" stroke="#808080" stroke-width="2" stroke-linecap="round" stroke-linejoin="round"/>
<path d="M10.6699 13.3841L13.6161 16.3304L15.9728 13.9733C16.7865 13.1595 16.7865 11.8404 15.9728 11.0271C15.1594 10.2133 13.8403 10.2133 13.0266 11.0271L10.6699 13.3841Z" stroke="#808080" stroke-width="2" stroke-linecap="round" stroke-linejoin="round"/>
<path d="M15.9729 3.36674L8.31299 11.0272L15.9729 18.6875L23.6332 11.0272C27.169 7.49179 25.6957 1.30429 25.6957 1.30429C25.6957 1.30429 19.5087 -0.168636 15.9729 3.36674Z" stroke="#808080" stroke-width="2" stroke-linecap="round" stroke-linejoin="round"/>
<path d="M1 26L6.83325 20.1667" stroke="#808080" stroke-width="2" stroke-linecap="round" stroke-linejoin="round"/>
<path d="M1 19.3334L4.3333 17.6667" stroke="#808080" stroke-width="2" stroke-linecap="round" stroke-linejoin="round"/>
<path d="M7.64893 26L9.33305 22.6667" stroke="#808080" stroke-width="2" stroke-linecap="round" stroke-linejoin="round"/>
<path d="M9.49112 12.2054L6.54492 15.1516L11.8482 20.4549L14.7944 17.5087L9.49112 12.2054Z" stroke="#808080" stroke-width="2" stroke-linecap="round" stroke-linejoin="round"/>
<path d="M8.31289 11.0272H2.42041L8.60745 4.84009H14.4999L8.31289 11.0272Z" stroke="#808080" stroke-width="2" stroke-linecap="round" stroke-linejoin="round"/>
<path d="M15.9727 18.6875V24.5799L22.1601 18.3925V12.5L15.9727 18.6875Z" stroke="#808080" stroke-width="2" stroke-linecap="round" stroke-linejoin="round"/>
</svg>
