<svg width="90" height="54" viewBox="0 0 90 54" fill="none" xmlns="http://www.w3.org/2000/svg">
<path d="M87.9672 26.7905C84.8567 20.72 78.5353 16.8569 71.7123 16.9071C69.7557 16.9071 67.8493 17.2081 65.993 17.8102L58.5177 2.80949H70.3075C71.0601 2.80949 71.7123 3.46169 71.7123 4.21423C71.7123 4.96677 71.0601 5.61897 70.3075 5.61897H64.6886C63.936 5.61897 63.2838 6.27118 63.2838 7.02372C63.2838 7.77626 63.936 8.42846 64.6886 8.42846H70.3075C72.6153 8.42846 74.5218 6.52203 74.5218 4.21423C74.5218 1.90644 72.6153 0 70.3075 0H56.2601C55.5076 0 54.8554 0.602027 54.8554 1.40474C54.8554 1.60542 54.9055 1.85627 55.0059 2.05695L56.812 5.66914H31.8276L30.4228 2.85965H37.9984C38.751 2.85965 39.4032 2.20745 39.4032 1.45491C39.4032 0.702369 38.751 0.0501725 37.9984 0.0501725H23.951C23.1984 0.0501725 22.5462 0.702369 22.5462 1.45491C22.5462 2.20745 23.1984 2.85965 23.951 2.85965H27.3123L29.4194 7.0739L24.0012 17.8102C14.4188 14.6495 4.08388 19.8671 0.923207 29.4495C-2.23747 39.0318 2.98016 49.3667 12.5625 52.5274C22.1449 55.6881 32.4798 50.4705 35.6405 40.8881C36.092 39.4834 36.393 38.0284 36.4933 36.5735H45.0222C45.1225 36.5735 45.273 36.5735 45.3733 36.5234H45.4235C45.4737 36.5234 45.4737 36.4732 45.5238 36.4732C45.574 36.4732 45.6242 36.423 45.6744 36.423C45.6744 36.423 45.7245 36.423 45.7245 36.3729C45.7747 36.3227 45.8249 36.3227 45.8249 36.2725C45.875 36.2223 45.9252 36.1722 45.9754 36.122L46.0255 36.0718C46.0255 36.0718 46.0757 36.0217 46.0757 35.9715C46.0757 35.9213 46.1259 35.9213 46.1761 35.8712C46.1761 35.8712 46.176 35.821 46.2262 35.821C46.2262 35.821 46.2262 35.7708 46.2764 35.7708L59.0696 10.1844L63.4343 18.9139C54.454 23.5295 50.9421 34.5166 55.5577 43.4969C60.1733 52.4772 71.1605 55.9891 80.1408 51.3735C89.0709 46.7579 92.5828 35.7708 87.9672 26.7905ZM18.2818 50.621C9.75303 50.621 2.82965 43.6976 2.77948 35.1688C2.77948 26.64 9.70286 19.7166 18.2317 19.6664C19.7368 19.6664 21.2418 19.8671 22.6967 20.3186L15.6228 34.5166C15.2717 35.2189 15.5727 36.0718 16.2751 36.423C16.4757 36.5234 16.6764 36.5735 16.9273 36.5735H33.734C32.9313 44.5505 26.309 50.621 18.2818 50.621ZM19.1849 33.764L25.3557 21.4223C30.0717 23.8305 33.2323 28.4962 33.6839 33.764H19.1849ZM36.4933 33.764C35.9916 27.4427 32.2289 21.8237 26.5598 18.9139L30.9245 10.1844L42.7144 33.764H36.4933ZM45.0222 32.0081L33.2323 8.42846H56.812L45.0222 32.0081ZM76.1774 49.9688C74.7225 50.4203 73.2174 50.621 71.7123 50.621C63.1835 50.621 56.2601 43.6976 56.2601 35.1688C56.2601 29.3491 59.5211 24.0312 64.6886 21.3722L71.8628 35.7708C72.214 36.4732 73.0669 36.724 73.7693 36.423C74.4716 36.0718 74.7225 35.2189 74.4215 34.5166L67.3476 20.3186C75.5252 17.8603 84.1543 22.4759 86.6126 30.7037C89.0208 38.9315 84.355 47.5105 76.1774 49.9688Z" fill="#70A6A6"/>
</svg>
