<svg width="62" height="34" viewBox="0 0 62 34" fill="none" xmlns="http://www.w3.org/2000/svg">
<path d="M16 32H45.6C53.9 32 60.6 25.2 60.6 17C60.6 8.7 53.8 2 45.6 2H16C7.70003 2 1 8.7 1 17C1 25.3 7.70003 32 16 32Z" fill="#FF4615" stroke="#FF4615" stroke-width="2" stroke-miterlimit="10"/>
<path d="M45.4 27.4996C51.1 27.4996 55.8 22.7996 55.8 17.0996V16.9996C55.8 11.2996 51.1 6.59961 45.4 6.59961C39.7 6.59961 35 11.2996 35 16.9996V17.0996C35 22.7996 39.7 27.4996 45.4 27.4996Z" fill="white"/>
<path d="M11.9004 19.4L16.1004 23.6L27.7004 12" stroke="white" stroke-width="3" stroke-miterlimit="10" stroke-linecap="round"/>
</svg>
