<svg width="20" height="14" viewBox="0 0 20 14" fill="none" xmlns="http://www.w3.org/2000/svg">
<path d="M19.9996 9.16278C19.9999 9.28926 19.9581 9.41214 19.8843 9.51486C19.7649 9.68103 19.6482 9.84976 19.5065 9.99373C18.5057 11.0087 17.4922 12.0114 16.4865 13.021C16.2253 13.2832 15.9269 13.3991 15.5664 13.2783C14.9687 13.0778 14.8122 12.3543 15.27 11.8843C15.7787 11.3623 16.2972 10.8517 16.8147 10.3366C16.9097 10.2445 17.0085 10.1523 17.1059 10.0601C17.1169 10.0498 17.1207 10.034 17.1157 10.0198C17.1104 10.0045 17.0959 9.99421 17.0797 9.99421H7.63205C7.1429 9.99421 6.84159 9.80492 6.71539 9.42241C6.67542 9.3034 6.66324 9.17682 6.67977 9.05237C6.6963 8.92792 6.7411 8.8089 6.81075 8.70445C6.8804 8.6 6.97304 8.51289 7.08157 8.44978C7.19011 8.38668 7.31165 8.34927 7.43688 8.34042C7.52737 8.33357 7.61884 8.33406 7.70982 8.33406H16.9036C16.9961 8.33406 17.0448 8.22155 16.9791 8.1565C16.4132 7.59008 15.8448 7.02658 15.2823 6.45722C14.8993 6.06933 14.9095 5.52784 15.2959 5.2011C15.4427 5.07465 15.6293 5.00408 15.823 5.00184C16.0166 4.9996 16.2049 5.06584 16.3545 5.18887C16.419 5.24339 16.4807 5.30119 16.5394 5.36203C17.5294 6.35108 18.5228 7.3367 19.5055 8.33308C19.6475 8.47731 19.7644 8.64666 19.884 8.81305C19.9574 8.91511 19.9992 9.03707 19.9996 9.16278Z" fill="#21464F"/>
<path d="M2.89095 3.30844C2.90018 3.32372 2.91673 3.33306 2.93459 3.33306H3.11469C6.18586 3.33306 9.25736 3.33306 12.3292 3.33306C12.4589 3.32777 12.5888 3.33812 12.7161 3.36388C13.1221 3.4666 13.3647 3.83688 13.3231 4.26586C13.3008 4.45805 13.2109 4.63607 13.0695 4.76819C12.9282 4.90032 12.7445 4.97798 12.5512 4.98734C12.4671 4.99273 12.3825 4.99273 12.2979 4.99273H3.09578C3.00543 4.99273 2.95542 5.10248 3.01931 5.16637C3.58916 5.7372 4.1639 6.30412 4.73131 6.87838C5.12262 7.27507 5.0879 7.83954 4.66821 8.15699C4.52435 8.26552 4.34891 8.32394 4.16871 8.32333C3.98851 8.32271 3.81346 8.26308 3.67036 8.15357C3.60947 8.10466 3.5518 8.05189 3.49769 7.99558C2.44179 6.94425 1.38703 5.89161 0.333419 4.83767C-0.109256 4.39499 -0.111214 3.93422 0.328037 3.49497C1.39111 2.43157 2.45385 1.3685 3.51627 0.305752C3.77748 0.0435708 4.07537 -0.0728453 4.43587 0.047484C5.0336 0.247055 5.19208 0.971477 4.73473 1.44057C4.17564 2.01335 3.60481 2.57489 3.0374 3.13887C2.99616 3.17451 2.95275 3.20754 2.90743 3.23777C2.8841 3.25333 2.87645 3.28445 2.89095 3.30844Z" fill="#21464F"/>
</svg>
