<svg width="39" height="39" viewBox="0 0 39 39" fill="none" xmlns="http://www.w3.org/2000/svg">
<path d="M29.0899 10.0894C23.8507 4.85025 15.3494 4.85028 10.1102 10.0895C4.87105 15.3287 4.87102 23.83 10.1102 29.0691C15.3494 34.3083 23.8507 34.3083 29.0899 29.0691C34.3291 23.83 34.3291 15.3286 29.0899 10.0894ZM11.4942 27.6852C7.0458 23.2368 7.0458 16.1195 11.4942 11.6711C15.9425 7.22275 23.0599 7.22272 27.5083 11.6711C31.9566 16.1195 31.9566 23.2369 27.5083 27.6852C23.0599 32.1336 15.9425 32.1336 11.4942 27.6852Z" fill="white"/>
<path d="M24.5425 23.1375L21.0826 19.6777L24.5425 16.2178C24.9379 15.8224 25.0367 15.1304 24.5424 14.6362C24.0482 14.1419 23.4551 14.1419 22.9608 14.6362L19.501 18.096L16.0411 14.6362C15.6457 14.2408 14.9538 14.142 14.4595 14.6362C13.9652 15.1305 13.9652 15.7236 14.4595 16.2178L17.9193 19.6777L14.4595 23.1375C14.0641 23.5329 13.9652 24.2249 14.4595 24.7191C14.9538 25.2134 15.5469 25.2134 16.0411 24.7192L19.501 21.2593L22.9608 24.7192C23.3562 25.1146 24.0482 25.2134 24.5424 24.7192C25.0367 24.2249 24.9379 23.5329 24.5425 23.1375Z" fill="white"/>
</svg>
