<svg width="48" height="16" viewBox="0 0 48 16" fill="none" xmlns="http://www.w3.org/2000/svg">
<path d="M16.6875 15.1191L19.0955 0.256649H22.9148L20.507 15.1191H16.6875Z" fill="#7D7D7D"/>
<path d="M34.452 0.621942C33.7047 0.331334 32.5006 -0.000788689 31.0061 -0.000788689C27.2282 -0.000788689 24.5299 2.03346 24.5299 4.89802C24.4883 7.0153 26.4394 8.21925 27.8924 8.92501C29.387 9.67229 29.8853 10.1289 29.8853 10.7517C29.8853 11.748 28.6813 12.2047 27.6019 12.2047C26.0659 12.2047 25.2355 11.9971 23.99 11.4159L23.492 11.1668L22.9521 14.4881C23.8655 14.9032 25.5262 15.2769 27.2284 15.2769C31.2553 15.2769 33.8706 13.2841 33.9122 10.212C33.9122 8.50985 32.9159 7.22287 30.674 6.18498C29.3456 5.47922 28.5152 5.02257 28.5152 4.35832C28.5152 3.73559 29.221 3.07133 30.7156 3.07133C31.9611 3.07133 32.8744 3.32043 33.5801 3.65256L33.9122 3.8186L34.452 0.621942Z" fill="#7D7D7D"/>
<path d="M39.5749 9.85401C39.9071 8.98219 41.1109 5.70247 41.1109 5.70247C41.0694 5.74399 41.4431 4.83067 41.6092 4.29097L41.8583 5.57793C41.8583 5.57793 42.6056 9.10673 42.7302 9.85401H39.5749ZM44.3077 0.263973H41.36C40.4467 0.263973 39.741 0.513065 39.3674 1.50943L33.6797 15.1265H37.7068C37.7068 15.1265 38.371 13.2998 38.4955 12.8846C38.9522 12.8846 42.8545 12.8846 43.3942 12.8846C43.5188 13.4243 43.8509 15.1265 43.8509 15.1265H47.4213L44.3077 0.263973Z" fill="#7D7D7D"/>
<path d="M13.4738 0.247863L9.69583 10.3776L9.28068 8.30185C8.57492 5.93548 6.4162 3.36152 3.9668 2.07455L7.41249 15.0688H11.4811L17.5424 0.247863H13.4738Z" fill="#7D7D7D"/>
<path d="M6.2273 0.244351H0.0415559L0 0.534964C4.81578 1.78042 8.01246 4.72802 9.34095 8.29834L8.01238 1.44831C7.72177 0.576484 7.05761 0.285867 6.2273 0.244351Z" fill="#FAA61A"/>
</svg>
