<svg width="66" height="73" viewBox="0 0 66 73" fill="none" xmlns="http://www.w3.org/2000/svg">
<path d="M24.446 69.9836C24.446 71.5869 23.2435 72.7895 21.6401 72.7895H12.0199C5.6064 72.7895 0.796265 67.5785 0.796265 61.5659V11.8613C0.796265 5.44781 6.00724 0.637695 12.0199 0.637695H46.4924C52.9059 0.637695 57.716 5.84865 57.716 11.8613V29.0976C57.716 30.7009 56.5135 31.9035 54.9101 31.9035C53.3067 31.9035 52.1042 30.7009 52.1042 29.0976V11.8613C52.1042 8.65456 49.6991 6.2495 46.4924 6.2495H12.0199C8.81314 6.2495 6.40804 8.65456 6.40804 11.8613V61.5659C6.40804 64.7726 8.81314 67.1777 12.0199 67.1777H21.6401C23.2435 67.1777 24.446 68.3802 24.446 69.9836ZM44.0873 17.4731H14.8258C13.2224 17.4731 12.0199 18.6756 12.0199 20.279C12.0199 21.8824 13.2224 23.0849 14.8258 23.0849H43.6865C45.2898 23.0849 46.4924 21.8824 46.4924 20.279C46.8932 18.6756 45.6907 17.4731 44.0873 17.4731ZM46.8932 31.5026C46.8932 29.8992 45.6907 28.6967 44.0873 28.6967H14.8258C13.2224 28.6967 12.0199 29.8992 12.0199 31.5026C12.0199 33.106 13.2224 34.3085 14.8258 34.3085H43.6865C45.6907 34.3085 46.8932 33.106 46.8932 31.5026ZM14.8258 39.9203C13.2224 39.9203 12.0199 41.1229 12.0199 42.7262C12.0199 44.3296 13.2224 45.5321 14.8258 45.5321H32.4629C34.0662 45.5321 35.2688 44.3296 35.2688 42.7262C35.2688 41.1229 34.0662 39.9203 32.4629 39.9203H14.8258ZM62.927 53.1482L47.2941 68.3802C46.8933 68.781 46.4924 68.781 46.0916 69.1819L34.8679 72.3886C34.4671 72.3886 34.4671 72.3886 34.0663 72.3886C33.2646 72.3886 32.4629 71.9878 32.062 71.5869C31.2604 70.7853 31.2604 69.9836 31.2604 68.781L34.4671 57.5574C34.4671 57.1566 34.868 56.7557 35.2688 56.3549L50.9017 40.722C54.1084 37.5153 59.7202 37.5153 62.927 40.722C66.5345 44.7305 66.5345 49.9414 62.927 53.1482ZM54.5092 53.9498L50.5008 49.9414L40.0789 60.3633L38.4755 65.9751L44.0873 64.3718L54.5092 53.9498ZM59.3194 45.5321C58.1169 44.3296 56.5135 44.3296 55.311 45.5321L54.9101 45.933L58.9185 49.9414L59.3194 49.5406C60.1211 48.338 60.1211 46.3338 59.3194 45.5321Z" fill="#70A6A6"/>
</svg>
