<svg width="27" height="27" viewBox="0 0 27 27" fill="none" xmlns="http://www.w3.org/2000/svg">
<path d="M8.9295 14.3513L11.3979 11.883" stroke="#70A6A6" stroke-width="2" stroke-miterlimit="10" stroke-linecap="round" stroke-linejoin="round"/>
<path d="M13.9014 19.405L10.9085 22.3979C9.17342 24.133 6.36025 24.133 4.62519 22.3979C2.89007 20.6628 2.89007 17.8496 4.62519 16.1146L7.61808 13.1217L13.9014 19.405Z" stroke="#70A6A6" stroke-width="2" stroke-miterlimit="10" stroke-linecap="round" stroke-linejoin="round"/>
<path d="M6.79944 12.3032L14.7197 20.2235" stroke="#70A6A6" stroke-width="2" stroke-miterlimit="10" stroke-linecap="round" stroke-linejoin="round"/>
<path d="M12.6658 18.1689L15.1751 15.6596" stroke="#70A6A6" stroke-width="2" stroke-miterlimit="10" stroke-linecap="round" stroke-linejoin="round"/>
<path d="M4.61369 22.3863L1 26" stroke="#70A6A6" stroke-width="2" stroke-miterlimit="10" stroke-linecap="round" stroke-linejoin="round"/>
<path d="M13.0981 7.59496L16.091 4.60207C17.8262 2.86696 20.6393 2.86696 22.3744 4.60207C24.1095 6.33718 24.1095 9.15036 22.3744 10.8854L19.3815 13.8783L13.0981 7.59496Z" stroke="#70A6A6" stroke-width="2" stroke-miterlimit="10" stroke-linecap="round" stroke-linejoin="round"/>
<path d="M20.2 14.6968L12.2797 6.7765" stroke="#70A6A6" stroke-width="2" stroke-miterlimit="10" stroke-linecap="round" stroke-linejoin="round"/>
<path d="M22.3865 4.61369L26.0002 1" stroke="#70A6A6" stroke-width="2" stroke-miterlimit="10" stroke-linecap="round" stroke-linejoin="round"/>
</svg>
