<svg width="27" height="27" viewBox="0 0 27 27" fill="none" xmlns="http://www.w3.org/2000/svg">
<path d="M1.42148 15.1978C0.702074 9.6298 3.98776 4.14834 9.51288 2.29762C14.8261 0.517848 20.5086 2.66579 23.4086 7.17114" stroke="#70A6A6" stroke-width="2" stroke-miterlimit="10" stroke-linecap="round" stroke-linejoin="round"/>
<path d="M25.2511 12.3664C25.8583 17.8589 22.5866 23.2221 17.1336 25.0487C11.6998 26.8688 5.78869 24.5762 2.94641 19.8595" stroke="#70A6A6" stroke-width="2" stroke-miterlimit="10" stroke-linecap="round" stroke-linejoin="round"/>
<path d="M5.85018 19.8595H2.60077V23.293" stroke="#70A6A6" stroke-width="2" stroke-miterlimit="10" stroke-linecap="round" stroke-linejoin="round"/>
<path d="M20.502 7.1701L23.7955 7.1712V3.92492" stroke="#70A6A6" stroke-width="2" stroke-miterlimit="10" stroke-linecap="round" stroke-linejoin="round"/>
<path d="M18.1647 13.5619C18.1944 13.4056 18.2106 13.2444 18.2106 13.0794C18.2106 11.6611 17.0608 10.5113 15.6425 10.5113C15.288 10.5113 14.9503 10.5831 14.6431 10.713C14.3795 9.79072 13.5309 9.11541 12.524 9.11541C11.3064 9.11541 10.3195 10.1023 10.3195 11.3199V11.9098H9.6798C8.09953 11.9098 6.81848 13.1908 6.81848 14.771C6.81848 16.3513 8.09953 17.6323 9.6798 17.6323H17.774C18.9084 17.6323 19.828 16.7127 19.828 15.5783C19.828 14.5775 19.1122 13.7444 18.1647 13.5619Z" stroke="#70A6A6" stroke-width="2" stroke-miterlimit="10" stroke-linecap="round" stroke-linejoin="round"/>
</svg>
