<svg width="27" height="27" viewBox="0 0 27 27" fill="none" xmlns="http://www.w3.org/2000/svg">
<path d="M22.2768 1.5151C22.2768 1.5151 23.4897 5.91432 23.5009 5.95505C20.1986 1.35175 15.3802 1 13.4998 1C6.47831 1 1 6.47831 1 13.4998C1 14.7686 1.19084 16.0425 1.57172 17.2715" stroke="#70A6A6" stroke-width="2" stroke-miterlimit="10" stroke-linecap="round" stroke-linejoin="round"/>
<path d="M4.72326 25.4849C4.72326 25.4849 3.51044 21.0857 3.49921 21.045C6.80144 25.6483 11.6198 26 13.5002 26C20.5217 26 26 20.5217 26 13.5002C26 12.2314 25.8092 10.9575 25.4283 9.7285" stroke="#70A6A6" stroke-width="2" stroke-miterlimit="10" stroke-linecap="round" stroke-linejoin="round"/>
<path d="M23.5145 5.94515C22.9147 5.13413 22.2066 4.3799 21.3905 3.70421" stroke="#70A6A6" stroke-width="2" stroke-miterlimit="10" stroke-linecap="round" stroke-linejoin="round"/>
<path d="M13.5001 21.9746C18.1805 21.9746 21.9747 18.1804 21.9747 13.5C21.9747 8.81963 18.1805 5.02542 13.5001 5.02542C8.81966 5.02542 5.02545 8.81963 5.02545 13.5C5.02545 18.1804 8.81966 21.9746 13.5001 21.9746Z" stroke="#70A6A6" stroke-width="2" stroke-miterlimit="10" stroke-linecap="round" stroke-linejoin="round"/>
<path d="M13.4998 9.26271V13.5L10.5049 16.4948" stroke="#70A6A6" stroke-width="2" stroke-miterlimit="10" stroke-linecap="round" stroke-linejoin="round"/>
</svg>
