<svg width="21" height="21" viewBox="0 0 21 21" fill="none" xmlns="http://www.w3.org/2000/svg">
<path d="M8.49962 10.1L12.2996 6.2C12.6996 5.8 12.6996 5.2 12.2996 4.8C12.0996 4.6 11.8996 4.5 11.5996 4.5C11.2996 4.5 11.0996 4.6 10.8996 4.8L6.39961 9.39999C5.99961 9.79999 5.99961 10.4 6.39961 10.8L10.8996 15.4C11.0996 15.6 11.2996 15.7 11.5996 15.7C11.8996 15.7 12.0996 15.6 12.2996 15.4C12.6996 15 12.6996 14.4 12.2996 14L8.49962 10.1Z" fill="#70A6A6"/>
<path d="M10.2 0C4.60001 0 0 4.6 0 10.2C0 15.8 4.60001 20.4 10.2 20.4C15.8 20.4 20.4 15.8 20.4 10.2C20.3 4.5 15.8 0 10.2 0ZM10.2 18.5C5.60001 18.5 1.79999 14.7 1.79999 10.1C1.79999 5.50001 5.60001 1.7 10.2 1.7C14.8 1.7 18.6 5.50001 18.6 10.1C18.6 14.8 14.8 18.5 10.2 18.5Z" fill="#70A6A6"/>
</svg>
