<svg width="19" height="16" viewBox="0 0 19 16" fill="none" xmlns="http://www.w3.org/2000/svg">
<path d="M16 2.80005C15.7 2.50005 15.4 2.50007 15.1 2.70007C14 3.50007 8.4 7.30002 7.8 7.90002C6.9 8.80002 6.9 10.2 7.8 11C8.2 11.4 8.8 11.7001 9.4 11.7001C10 11.7001 10.5 11.5 11 11C11.6 10.4 15.4 4.80007 16.2 3.70007C16.3 3.50007 16.3 3.10005 16 2.80005ZM9.9 10C9.6 10.3 9.1 10.3 8.9 10C8.6 9.7 8.6 9.2 8.9 9C9.1 8.8 10.7 7.60005 12.7 6.30005C11.3 8.20005 10.1 9.8 9.9 10ZM18.9 9.5C18.9 11.4 18.3 13.2 17.3 14.8C17.2 15 16.9 15.1 16.7 15.1C16.6 15.1 16.5 15.1 16.4 15L14.8 14.3C14.4 14.1 14.3 13.7 14.4 13.3C14.6 12.9 15 12.8 15.4 12.9L16.4 13.4C17.1 12.2 17.4 10.9 17.4 9.5C17.4 8.4 17.2 7.20007 16.7 6.20007C16.5 5.80007 16.7 5.40007 17.1 5.20007C17.5 5.00007 17.9 5.19998 18.1 5.59998C18.6 6.79998 18.9 8.1 18.9 9.5ZM4.3 13.3C4.5 13.7 4.3 14.1 4 14.3L2.5 15C2.4 15.1 2.3 15.1 2.2 15.1C2 15.1 1.7 15 1.6 14.8C0.499998 13.2 0 11.4 0 9.5C0 7 0.999995 4.60005 2.8 2.80005C4.6 1.00005 7 0 9.5 0C10.9 0 12.2 0.300049 13.4 0.800049C13.8 1.00005 13.9 1.40005 13.8 1.80005C13.6 2.20005 13.2 2.30007 12.8 2.20007C12 1.80007 11.1 1.6 10.2 1.5V2.59998C10.2 2.99998 9.9 3.30005 9.5 3.30005C9.1 3.30005 8.8 2.99998 8.8 2.59998V1.5C6.2 1.7 4 3.20005 2.7 5.30005L3.7 5.80005C4.1 6.00005 4.2 6.40005 4 6.80005C3.9 7.10005 3.6 7.20007 3.3 7.20007C3.2 7.20007 3.1 7.19998 3 7.09998L2 6.59998C1.7 7.49998 1.5 8.40002 1.5 9.40002C1.5 10.8 1.9 12.1 2.5 13.3L3.4 12.9C3.7 12.7 4.1 12.9 4.3 13.3Z" fill="#70A6A6"/>
</svg>
